<?xml version="1.0" encoding="utf-8" standalone="no"?>
<!DOCTYPE svg PUBLIC "-//W3C//DTD SVG 1.1//EN"
  "http://www.w3.org/Graphics/SVG/1.1/DTD/svg11.dtd">
<!-- Created with matplotlib (https://matplotlib.org/) -->
<svg height="360pt" version="1.1" viewBox="0 0 360 360" width="360pt" xmlns="http://www.w3.org/2000/svg" xmlns:xlink="http://www.w3.org/1999/xlink">
 <metadata>
  <rdf:RDF xmlns:cc="http://creativecommons.org/ns#" xmlns:dc="http://purl.org/dc/elements/1.1/" xmlns:rdf="http://www.w3.org/1999/02/22-rdf-syntax-ns#">
   <cc:Work>
    <dc:type rdf:resource="http://purl.org/dc/dcmitype/StillImage"/>
    <dc:date>2020-10-26T17:01:31.506140</dc:date>
    <dc:format>image/svg+xml</dc:format>
    <dc:creator>
     <cc:Agent>
      <dc:title>Matplotlib v3.3.2, https://matplotlib.org/</dc:title>
     </cc:Agent>
    </dc:creator>
   </cc:Work>
  </rdf:RDF>
 </metadata>
 <defs>
  <style type="text/css">*{stroke-linecap:butt;stroke-linejoin:round;}</style>
 </defs>
 <g id="figure_1">
  <g id="patch_1">
   <path d="M 0 360 
L 360 360 
L 360 0 
L 0 0 
z
" style="fill:#ffffff;"/>
  </g>
  <g id="axes_1">
   <g id="patch_2">
    <path d="M 30.52 332.6 
L 349.2 332.6 
L 349.2 28.08 
L 30.52 28.08 
z
" style="fill:#ffffff;"/>
   </g>
   <g id="matplotlib.axis_1">
    <g id="xtick_1">
     <g id="line2d_1">
      <defs>
       <path d="M 0 0 
L 0 3.5 
" id="mb099ca7ff4" style="stroke:#000000;stroke-width:0.8;"/>
      </defs>
      <g>
       <use style="stroke:#000000;stroke-width:0.8;" x="58.801126" xlink:href="#mb099ca7ff4" y="332.6"/>
      </g>
     </g>
     <g id="text_1">
      <!-- 0.5 -->
      <g transform="translate(50.849563 347.198438)scale(0.1 -0.1)">
       <defs>
        <path d="M 31.78125 66.40625 
Q 24.171875 66.40625 20.328125 58.90625 
Q 16.5 51.421875 16.5 36.375 
Q 16.5 21.390625 20.328125 13.890625 
Q 24.171875 6.390625 31.78125 6.390625 
Q 39.453125 6.390625 43.28125 13.890625 
Q 47.125 21.390625 47.125 36.375 
Q 47.125 51.421875 43.28125 58.90625 
Q 39.453125 66.40625 31.78125 66.40625 
z
M 31.78125 74.21875 
Q 44.046875 74.21875 50.515625 64.515625 
Q 56.984375 54.828125 56.984375 36.375 
Q 56.984375 17.96875 50.515625 8.265625 
Q 44.046875 -1.421875 31.78125 -1.421875 
Q 19.53125 -1.421875 13.0625 8.265625 
Q 6.59375 17.96875 6.59375 36.375 
Q 6.59375 54.828125 13.0625 64.515625 
Q 19.53125 74.21875 31.78125 74.21875 
z
" id="DejaVuSans-48"/>
        <path d="M 10.6875 12.40625 
L 21 12.40625 
L 21 0 
L 10.6875 0 
z
" id="DejaVuSans-46"/>
        <path d="M 10.796875 72.90625 
L 49.515625 72.90625 
L 49.515625 64.59375 
L 19.828125 64.59375 
L 19.828125 46.734375 
Q 21.96875 47.46875 24.109375 47.828125 
Q 26.265625 48.1875 28.421875 48.1875 
Q 40.625 48.1875 47.75 41.5 
Q 54.890625 34.8125 54.890625 23.390625 
Q 54.890625 11.625 47.5625 5.09375 
Q 40.234375 -1.421875 26.90625 -1.421875 
Q 22.3125 -1.421875 17.546875 -0.640625 
Q 12.796875 0.140625 7.71875 1.703125 
L 7.71875 11.625 
Q 12.109375 9.234375 16.796875 8.0625 
Q 21.484375 6.890625 26.703125 6.890625 
Q 35.15625 6.890625 40.078125 11.328125 
Q 45.015625 15.765625 45.015625 23.390625 
Q 45.015625 31 40.078125 35.4375 
Q 35.15625 39.890625 26.703125 39.890625 
Q 22.75 39.890625 18.8125 39.015625 
Q 14.890625 38.140625 10.796875 36.28125 
z
" id="DejaVuSans-53"/>
       </defs>
       <use xlink:href="#DejaVuSans-48"/>
       <use x="63.623047" xlink:href="#DejaVuSans-46"/>
       <use x="95.410156" xlink:href="#DejaVuSans-53"/>
      </g>
     </g>
    </g>
    <g id="xtick_2">
     <g id="line2d_2">
      <g>
       <use style="stroke:#000000;stroke-width:0.8;" x="127.779481" xlink:href="#mb099ca7ff4" y="332.6"/>
      </g>
     </g>
     <g id="text_2">
      <!-- 1.0 -->
      <g transform="translate(119.827918 347.198438)scale(0.1 -0.1)">
       <defs>
        <path d="M 12.40625 8.296875 
L 28.515625 8.296875 
L 28.515625 63.921875 
L 10.984375 60.40625 
L 10.984375 69.390625 
L 28.421875 72.90625 
L 38.28125 72.90625 
L 38.28125 8.296875 
L 54.390625 8.296875 
L 54.390625 0 
L 12.40625 0 
z
" id="DejaVuSans-49"/>
       </defs>
       <use xlink:href="#DejaVuSans-49"/>
       <use x="63.623047" xlink:href="#DejaVuSans-46"/>
       <use x="95.410156" xlink:href="#DejaVuSans-48"/>
      </g>
     </g>
    </g>
    <g id="xtick_3">
     <g id="line2d_3">
      <g>
       <use style="stroke:#000000;stroke-width:0.8;" x="196.757835" xlink:href="#mb099ca7ff4" y="332.6"/>
      </g>
     </g>
     <g id="text_3">
      <!-- 1.5 -->
      <g transform="translate(188.806273 347.198438)scale(0.1 -0.1)">
       <use xlink:href="#DejaVuSans-49"/>
       <use x="63.623047" xlink:href="#DejaVuSans-46"/>
       <use x="95.410156" xlink:href="#DejaVuSans-53"/>
      </g>
     </g>
    </g>
    <g id="xtick_4">
     <g id="line2d_4">
      <g>
       <use style="stroke:#000000;stroke-width:0.8;" x="265.73619" xlink:href="#mb099ca7ff4" y="332.6"/>
      </g>
     </g>
     <g id="text_4">
      <!-- 2.0 -->
      <g transform="translate(257.784628 347.198438)scale(0.1 -0.1)">
       <defs>
        <path d="M 19.1875 8.296875 
L 53.609375 8.296875 
L 53.609375 0 
L 7.328125 0 
L 7.328125 8.296875 
Q 12.9375 14.109375 22.625 23.890625 
Q 32.328125 33.6875 34.8125 36.53125 
Q 39.546875 41.84375 41.421875 45.53125 
Q 43.3125 49.21875 43.3125 52.78125 
Q 43.3125 58.59375 39.234375 62.25 
Q 35.15625 65.921875 28.609375 65.921875 
Q 23.96875 65.921875 18.8125 64.3125 
Q 13.671875 62.703125 7.8125 59.421875 
L 7.8125 69.390625 
Q 13.765625 71.78125 18.9375 73 
Q 24.125 74.21875 28.421875 74.21875 
Q 39.75 74.21875 46.484375 68.546875 
Q 53.21875 62.890625 53.21875 53.421875 
Q 53.21875 48.921875 51.53125 44.890625 
Q 49.859375 40.875 45.40625 35.40625 
Q 44.1875 33.984375 37.640625 27.21875 
Q 31.109375 20.453125 19.1875 8.296875 
z
" id="DejaVuSans-50"/>
       </defs>
       <use xlink:href="#DejaVuSans-50"/>
       <use x="63.623047" xlink:href="#DejaVuSans-46"/>
       <use x="95.410156" xlink:href="#DejaVuSans-48"/>
      </g>
     </g>
    </g>
    <g id="xtick_5">
     <g id="line2d_5">
      <g>
       <use style="stroke:#000000;stroke-width:0.8;" x="334.714545" xlink:href="#mb099ca7ff4" y="332.6"/>
      </g>
     </g>
     <g id="text_5">
      <!-- 2.5 -->
      <g transform="translate(326.762983 347.198438)scale(0.1 -0.1)">
       <use xlink:href="#DejaVuSans-50"/>
       <use x="63.623047" xlink:href="#DejaVuSans-46"/>
       <use x="95.410156" xlink:href="#DejaVuSans-53"/>
      </g>
     </g>
    </g>
   </g>
   <g id="matplotlib.axis_2">
    <g id="ytick_1">
     <g id="line2d_6">
      <defs>
       <path d="M 0 0 
L -3.5 0 
" id="m88bb475a24" style="stroke:#000000;stroke-width:0.8;"/>
      </defs>
      <g>
       <use style="stroke:#000000;stroke-width:0.8;" x="30.52" xlink:href="#m88bb475a24" y="332.6"/>
      </g>
     </g>
     <g id="text_6">
      <!-- 0 -->
      <g transform="translate(17.1575 336.399219)scale(0.1 -0.1)">
       <use xlink:href="#DejaVuSans-48"/>
      </g>
     </g>
    </g>
    <g id="ytick_2">
     <g id="line2d_7">
      <g>
       <use style="stroke:#000000;stroke-width:0.8;" x="30.52" xlink:href="#m88bb475a24" y="289.097143"/>
      </g>
     </g>
     <g id="text_7">
      <!-- 10 -->
      <g transform="translate(10.795 292.896362)scale(0.1 -0.1)">
       <use xlink:href="#DejaVuSans-49"/>
       <use x="63.623047" xlink:href="#DejaVuSans-48"/>
      </g>
     </g>
    </g>
    <g id="ytick_3">
     <g id="line2d_8">
      <g>
       <use style="stroke:#000000;stroke-width:0.8;" x="30.52" xlink:href="#m88bb475a24" y="245.594286"/>
      </g>
     </g>
     <g id="text_8">
      <!-- 20 -->
      <g transform="translate(10.795 249.393504)scale(0.1 -0.1)">
       <use xlink:href="#DejaVuSans-50"/>
       <use x="63.623047" xlink:href="#DejaVuSans-48"/>
      </g>
     </g>
    </g>
    <g id="ytick_4">
     <g id="line2d_9">
      <g>
       <use style="stroke:#000000;stroke-width:0.8;" x="30.52" xlink:href="#m88bb475a24" y="202.091429"/>
      </g>
     </g>
     <g id="text_9">
      <!-- 30 -->
      <g transform="translate(10.795 205.890647)scale(0.1 -0.1)">
       <defs>
        <path d="M 40.578125 39.3125 
Q 47.65625 37.796875 51.625 33 
Q 55.609375 28.21875 55.609375 21.1875 
Q 55.609375 10.40625 48.1875 4.484375 
Q 40.765625 -1.421875 27.09375 -1.421875 
Q 22.515625 -1.421875 17.65625 -0.515625 
Q 12.796875 0.390625 7.625 2.203125 
L 7.625 11.71875 
Q 11.71875 9.328125 16.59375 8.109375 
Q 21.484375 6.890625 26.8125 6.890625 
Q 36.078125 6.890625 40.9375 10.546875 
Q 45.796875 14.203125 45.796875 21.1875 
Q 45.796875 27.640625 41.28125 31.265625 
Q 36.765625 34.90625 28.71875 34.90625 
L 20.21875 34.90625 
L 20.21875 43.015625 
L 29.109375 43.015625 
Q 36.375 43.015625 40.234375 45.921875 
Q 44.09375 48.828125 44.09375 54.296875 
Q 44.09375 59.90625 40.109375 62.90625 
Q 36.140625 65.921875 28.71875 65.921875 
Q 24.65625 65.921875 20.015625 65.03125 
Q 15.375 64.15625 9.8125 62.3125 
L 9.8125 71.09375 
Q 15.4375 72.65625 20.34375 73.4375 
Q 25.25 74.21875 29.59375 74.21875 
Q 40.828125 74.21875 47.359375 69.109375 
Q 53.90625 64.015625 53.90625 55.328125 
Q 53.90625 49.265625 50.4375 45.09375 
Q 46.96875 40.921875 40.578125 39.3125 
z
" id="DejaVuSans-51"/>
       </defs>
       <use xlink:href="#DejaVuSans-51"/>
       <use x="63.623047" xlink:href="#DejaVuSans-48"/>
      </g>
     </g>
    </g>
    <g id="ytick_5">
     <g id="line2d_10">
      <g>
       <use style="stroke:#000000;stroke-width:0.8;" x="30.52" xlink:href="#m88bb475a24" y="158.588571"/>
      </g>
     </g>
     <g id="text_10">
      <!-- 40 -->
      <g transform="translate(10.795 162.38779)scale(0.1 -0.1)">
       <defs>
        <path d="M 37.796875 64.3125 
L 12.890625 25.390625 
L 37.796875 25.390625 
z
M 35.203125 72.90625 
L 47.609375 72.90625 
L 47.609375 25.390625 
L 58.015625 25.390625 
L 58.015625 17.1875 
L 47.609375 17.1875 
L 47.609375 0 
L 37.796875 0 
L 37.796875 17.1875 
L 4.890625 17.1875 
L 4.890625 26.703125 
z
" id="DejaVuSans-52"/>
       </defs>
       <use xlink:href="#DejaVuSans-52"/>
       <use x="63.623047" xlink:href="#DejaVuSans-48"/>
      </g>
     </g>
    </g>
    <g id="ytick_6">
     <g id="line2d_11">
      <g>
       <use style="stroke:#000000;stroke-width:0.8;" x="30.52" xlink:href="#m88bb475a24" y="115.085714"/>
      </g>
     </g>
     <g id="text_11">
      <!-- 50 -->
      <g transform="translate(10.795 118.884933)scale(0.1 -0.1)">
       <use xlink:href="#DejaVuSans-53"/>
       <use x="63.623047" xlink:href="#DejaVuSans-48"/>
      </g>
     </g>
    </g>
    <g id="ytick_7">
     <g id="line2d_12">
      <g>
       <use style="stroke:#000000;stroke-width:0.8;" x="30.52" xlink:href="#m88bb475a24" y="71.582857"/>
      </g>
     </g>
     <g id="text_12">
      <!-- 60 -->
      <g transform="translate(10.795 75.382076)scale(0.1 -0.1)">
       <defs>
        <path d="M 33.015625 40.375 
Q 26.375 40.375 22.484375 35.828125 
Q 18.609375 31.296875 18.609375 23.390625 
Q 18.609375 15.53125 22.484375 10.953125 
Q 26.375 6.390625 33.015625 6.390625 
Q 39.65625 6.390625 43.53125 10.953125 
Q 47.40625 15.53125 47.40625 23.390625 
Q 47.40625 31.296875 43.53125 35.828125 
Q 39.65625 40.375 33.015625 40.375 
z
M 52.59375 71.296875 
L 52.59375 62.3125 
Q 48.875 64.0625 45.09375 64.984375 
Q 41.3125 65.921875 37.59375 65.921875 
Q 27.828125 65.921875 22.671875 59.328125 
Q 17.53125 52.734375 16.796875 39.40625 
Q 19.671875 43.65625 24.015625 45.921875 
Q 28.375 48.1875 33.59375 48.1875 
Q 44.578125 48.1875 50.953125 41.515625 
Q 57.328125 34.859375 57.328125 23.390625 
Q 57.328125 12.15625 50.6875 5.359375 
Q 44.046875 -1.421875 33.015625 -1.421875 
Q 20.359375 -1.421875 13.671875 8.265625 
Q 6.984375 17.96875 6.984375 36.375 
Q 6.984375 53.65625 15.1875 63.9375 
Q 23.390625 74.21875 37.203125 74.21875 
Q 40.921875 74.21875 44.703125 73.484375 
Q 48.484375 72.75 52.59375 71.296875 
z
" id="DejaVuSans-54"/>
       </defs>
       <use xlink:href="#DejaVuSans-54"/>
       <use x="63.623047" xlink:href="#DejaVuSans-48"/>
      </g>
     </g>
    </g>
    <g id="ytick_8">
     <g id="line2d_13">
      <g>
       <use style="stroke:#000000;stroke-width:0.8;" x="30.52" xlink:href="#m88bb475a24" y="28.08"/>
      </g>
     </g>
     <g id="text_13">
      <!-- 70 -->
      <g transform="translate(10.795 31.879219)scale(0.1 -0.1)">
       <defs>
        <path d="M 8.203125 72.90625 
L 55.078125 72.90625 
L 55.078125 68.703125 
L 28.609375 0 
L 18.3125 0 
L 43.21875 64.59375 
L 8.203125 64.59375 
z
" id="DejaVuSans-55"/>
       </defs>
       <use xlink:href="#DejaVuSans-55"/>
       <use x="63.623047" xlink:href="#DejaVuSans-48"/>
      </g>
     </g>
    </g>
   </g>
   <g id="line2d_14">
    <path clip-path="url(#pda39cfd945)" d="M 45.005455 322.145136 
L 46.109108 321.745751 
L 48.040502 320.709622 
L 49.282113 320.131925 
L 52.31716 318.876555 
L 54.110597 317.906415 
L 55.214251 317.529437 
L 56.317905 317.221086 
L 56.869732 316.860623 
L 57.421558 316.229639 
L 57.973385 315.2922 
L 58.525212 313.920998 
L 59.077039 311.971916 
L 59.766823 308.586763 
L 60.456606 303.872007 
L 61.284346 296.17557 
L 62.388 283.325466 
L 64.181437 262.455984 
L 65.698961 247.94112 
L 66.250788 244.590733 
L 66.526701 243.83067 
L 66.664658 243.686864 
L 66.802615 243.765215 
L 67.078528 244.419901 
L 67.630355 246.944566 
L 68.320139 251.481055 
L 69.561749 260.126897 
L 70.389489 264.099243 
L 71.217229 266.781798 
L 71.907013 268.108272 
L 73.010667 269.968347 
L 73.562494 271.701222 
L 75.631844 279.617683 
L 76.045714 280.280063 
L 76.459584 280.603809 
L 77.011411 281.006595 
L 77.287325 281.463646 
L 77.701195 282.76497 
L 78.253022 285.59328 
L 79.494632 292.435168 
L 80.598286 296.562926 
L 82.11581 304.030794 
L 82.52968 304.666076 
L 82.805593 304.711703 
L 83.081506 304.499888 
L 83.35742 304.000796 
L 83.633333 303.104872 
L 83.909247 301.611521 
L 84.323117 297.691426 
L 84.736987 290.943703 
L 85.288814 276.619189 
L 86.116554 246.214638 
L 87.496121 195.048559 
L 88.737732 159.002842 
L 89.841385 133.501559 
L 90.669126 119.305369 
L 91.358909 110.737106 
L 92.048693 104.694362 
L 92.738476 100.603074 
L 93.42826 97.960513 
L 94.393957 95.199293 
L 95.08374 93.705065 
L 95.773524 92.737045 
L 96.463307 92.157607 
L 97.291048 91.785472 
L 102.533403 90.672431 
L 103.637056 90.638585 
L 104.74071 91.02125 
L 106.120277 91.094 
L 107.775758 91.003116 
L 108.603498 90.999026 
L 109.707152 90.923703 
L 110.948762 90.95118 
L 112.604242 91.075282 
L 113.431983 91.130225 
L 114.81155 91.21208 
L 115.363377 91.304964 
L 116.191117 91.558771 
L 116.604987 91.823534 
L 116.8809 91.991653 
L 117.294771 92.477995 
L 117.846597 93.102708 
L 118.122511 93.767453 
L 118.674338 94.545272 
L 118.950251 95.266343 
L 120.605732 100.009139 
L 122.123255 108.030365 
L 122.537126 109.495433 
L 122.950996 109.837088 
L 123.364866 110.101595 
L 124.468519 110.390796 
L 124.88239 110.232373 
L 125.848087 109.391273 
L 126.813784 107.98227 
L 127.36561 107.063222 
L 128.745177 104.546383 
L 132.056139 97.679106 
L 132.470009 97.091552 
L 133.159792 95.873595 
L 133.987532 94.793728 
L 135.643013 93.14094 
L 137.160537 92.399629 
L 138.126234 92.321147 
L 138.540104 92.410867 
L 138.953974 92.469776 
L 140.885368 93.744306 
L 141.575152 94.553271 
L 141.851065 94.860569 
L 142.264935 95.279146 
L 142.540848 95.624517 
L 142.954719 96.082413 
L 143.506545 96.6849 
L 143.782459 96.702042 
L 144.610199 98.104163 
L 145.299983 99.870703 
L 145.989766 103.380421 
L 147.231377 115.400984 
L 147.783203 121.551723 
L 148.197074 126.02148 
L 148.7489 130.166676 
L 149.162771 132.853866 
L 149.852554 134.553051 
L 150.266424 135.325627 
L 151.370078 135.885235 
L 151.645991 136.490344 
L 151.783948 136.546127 
L 152.197818 136.386764 
L 154.405126 137.720771 
L 155.094909 137.946012 
L 155.370823 137.574831 
L 155.508779 137.371538 
L 155.784693 137.528411 
L 155.922649 137.596967 
L 156.198563 137.363539 
L 156.474476 137.162401 
L 156.75039 137.168125 
L 157.16426 136.816201 
L 157.57813 136.849314 
L 158.129957 136.21049 
L 158.543827 136.247169 
L 158.957697 136.087596 
L 159.371567 136.132746 
L 160.337264 135.632067 
L 160.613177 135.664481 
L 160.889091 135.76901 
L 161.165004 135.722603 
L 161.578874 135.508283 
L 162.268658 135.42961 
L 162.682528 135.282633 
L 163.096398 135.512709 
L 163.510268 135.691839 
L 164.062095 135.583432 
L 165.027792 136.062051 
L 165.441662 136.693363 
L 165.855532 137.352558 
L 166.407359 138.042235 
L 167.511013 140.279235 
L 168.06284 141.486453 
L 168.614667 143.091 
L 169.028537 144.372357 
M 189.86 305.507418 
L 190.963654 305.260012 
L 191.377524 304.999003 
L 191.791394 304.541655 
L 192.481177 303.446399 
L 194.412571 298.834663 
L 196.343965 292.676441 
L 198.689229 283.829694 
L 199.654926 279.845761 
L 199.93084 278.759398 
L 200.620623 275.993706 
L 204.759325 260.092807 
L 210.00168 244.314597 
L 211.519203 240.485191 
L 211.933074 239.745009 
L 213.174684 237.259586 
L 213.450597 236.799068 
L 214.554251 234.794333 
L 216.347688 232.641193 
L 216.761558 232.01735 
L 216.899515 231.912394 
L 217.037472 231.663857 
L 217.175429 231.655672 
L 217.451342 231.356209 
L 217.589299 231.274508 
L 217.727255 231.341997 
L 217.865212 231.128441 
L 218.003169 231.317207 
L 218.141126 231.246376 
L 218.279082 231.347008 
L 218.417039 231.220097 
L 218.692952 231.476068 
L 220.210476 232.367108 
L 220.348433 231.874746 
L 220.624346 232.138345 
L 222.279827 234.194645 
L 222.96961 235.29348 
L 223.383481 235.693035 
L 223.797351 236.45064 
L 224.073264 236.875662 
L 224.901004 238.478661 
L 225.314874 239.157892 
L 225.728745 239.967181 
L 226.418528 241.115148 
L 228.074009 243.832857 
L 228.487879 244.421413 
L 228.763792 244.653657 
L 229.039706 244.999564 
L 229.729489 245.74249 
L 231.79884 250.073019 
L 233.178407 253.196868 
L 233.86819 254.212196 
L 234.144104 254.472564 
L 234.282061 254.483048 
L 234.557974 254.805983 
L 234.833887 255.048754 
L 235.109801 255.050038 
L 236.765281 256.325644 
L 237.041195 256.298012 
L 237.593022 256.353721 
L 238.006892 256.13474 
M 260.217922 325.197648 
L 261.183619 325.055305 
L 262.425229 324.725878 
L 263.25297 324.431137 
L 267.115758 321.992866 
L 268.081455 321.177304 
L 268.633281 320.731696 
L 269.736935 319.785949 
L 270.564675 319.121694 
L 271.392416 318.403452 
L 271.806286 318.11254 
L 272.909939 317.184391 
L 275.39316 314.742915 
L 275.944987 314.142415 
L 276.634771 313.434153 
L 279.117991 310.809363 
L 279.807775 310.107416 
L 280.773472 309.064465 
L 281.187342 308.67656 
L 281.877126 308.005011 
L 282.290996 307.609991 
L 282.842823 307.050188 
L 284.084433 305.941434 
L 286.843567 303.99444 
L 287.671307 303.486211 
L 288.774961 302.850204 
L 290.292485 302.006356 
L 291.120225 301.423182 
L 291.810009 300.969926 
L 293.051619 300.488542 
L 293.879359 300.277741 
L 295.258926 299.908554 
L 295.810753 299.94067 
L 296.77645 300.048961 
L 297.742147 300.640624 
L 298.845801 301.828587 
L 300.087411 303.722597 
L 302.984502 307.953995 
L 305.60568 310.884492 
L 306.295463 311.632998 
L 308.640727 313.702517 
L 309.606424 314.319732 
L 310.020294 314.54405 
L 310.296208 314.78425 
L 311.813732 315.95001 
L 312.227602 316.339736 
L 314.572866 318.045903 
L 315.538563 318.607233 
L 315.814476 318.832707 
L 316.780173 319.415726 
L 317.194043 319.71524 
L 317.607913 319.976278 
L 324.505749 324.031035 
L 326.023273 324.771398 
L 326.713056 325.096293 
L 328.092623 325.667045 
L 328.64445 325.90072 
L 332.921108 326.857303 
L 334.714545 326.978146 
L 334.714545 326.978146 
" style="fill:none;stroke:#bfce68;stroke-linecap:square;stroke-width:1.5;"/>
   </g>
   <g id="line2d_15">
    <path clip-path="url(#pda39cfd945)" d="M 45.005455 322.183022 
L 46.109108 321.891581 
L 50.24781 320.505268 
L 52.179203 320.043585 
L 53.972641 319.584547 
L 55.628121 319.325948 
L 56.731775 319.055118 
L 57.283602 318.726323 
L 57.835429 318.172345 
L 58.387255 317.303308 
L 58.939082 315.959256 
L 59.490909 314.017832 
L 60.042736 311.30969 
L 60.732519 306.62403 
L 61.698216 297.852355 
L 62.939827 286.363621 
L 63.62961 281.714433 
L 64.319394 278.442241 
L 65.147134 275.423882 
L 65.836918 273.374095 
L 66.250788 272.772875 
L 66.388745 272.723604 
L 66.664658 272.917455 
L 67.078528 273.88067 
L 67.630355 276.063529 
L 68.320139 279.900066 
L 69.561749 286.968657 
L 70.389489 290.114457 
L 71.217229 292.203958 
L 71.907013 293.231722 
L 73.010667 294.65952 
L 73.562494 295.96003 
L 75.631844 301.672804 
L 76.183671 302.243874 
L 77.149368 302.792271 
L 77.563238 303.499766 
L 78.115065 305.209266 
L 79.494632 309.975885 
L 80.874199 313.100895 
L 81.701939 315.268716 
L 82.11581 315.807594 
L 82.52968 315.950538 
L 82.94355 315.77082 
L 83.35742 315.301822 
L 83.77129 314.437889 
L 84.18516 312.856979 
L 84.59903 309.887433 
L 85.0129 304.543843 
L 85.426771 296.125421 
L 86.116554 275.854491 
L 89.427515 167.069098 
L 90.531169 138.415639 
L 91.358909 122.406487 
L 92.048693 112.790407 
L 92.738476 106.105214 
L 93.42826 101.751185 
L 94.256 97.799196 
L 95.08374 94.843622 
L 95.773524 93.261533 
L 96.325351 92.465838 
L 96.877177 91.989435 
L 97.429004 91.753541 
L 102.257489 90.700487 
L 103.4991 90.610274 
L 104.464797 90.880785 
L 104.878667 91.039332 
L 107.085974 91.01453 
L 109.569195 90.954516 
L 110.121022 90.93185 
L 111.086719 90.952513 
L 111.914459 91.032147 
L 113.294026 91.10266 
L 114.259723 91.187332 
L 116.05316 91.495297 
L 116.8809 91.991653 
L 117.294771 92.477995 
L 117.846597 93.102708 
L 118.122511 93.767453 
L 118.674338 94.545272 
L 118.950251 95.266343 
L 120.605732 100.009139 
L 122.123255 108.030365 
L 122.537126 109.495433 
L 122.950996 109.837088 
L 123.364866 110.101595 
L 124.468519 110.390796 
L 124.88239 110.232373 
L 125.848087 109.391273 
L 126.813784 107.98227 
L 127.36561 107.063222 
L 128.745177 104.546383 
L 132.056139 97.679106 
L 132.470009 97.091552 
L 133.159792 95.873595 
L 133.987532 94.793728 
L 135.643013 93.14094 
L 137.160537 92.399629 
L 138.126234 92.321147 
L 138.540104 92.410867 
L 138.953974 92.469776 
L 140.885368 93.744306 
L 141.575152 94.553271 
L 141.851065 94.860569 
L 142.264935 95.279146 
L 142.540848 95.624517 
L 142.954719 96.082413 
L 143.506545 96.6849 
L 143.782459 96.702042 
L 144.610199 98.104163 
L 145.299983 99.870703 
L 145.989766 103.380421 
L 147.231377 115.400984 
L 147.783203 121.551723 
L 148.197074 126.02148 
L 148.7489 130.166676 
L 149.162771 132.853866 
L 149.852554 134.553051 
L 150.266424 135.325627 
L 151.370078 135.885235 
L 151.645991 136.490344 
L 151.783948 136.546127 
L 152.197818 136.386764 
L 154.405126 137.720771 
L 155.094909 137.946012 
L 155.370823 137.574831 
L 155.508779 137.371538 
L 155.784693 137.528411 
L 155.922649 137.596967 
L 156.198563 137.363539 
L 156.474476 137.162401 
L 156.75039 137.168125 
L 157.16426 136.816201 
L 157.57813 136.849314 
L 158.129957 136.21049 
L 158.543827 136.247169 
L 158.957697 136.087596 
L 159.371567 136.132746 
L 160.337264 135.632067 
L 160.613177 135.664481 
L 160.889091 135.76901 
L 161.165004 135.722603 
L 161.578874 135.508283 
L 162.268658 135.42961 
L 162.682528 135.282633 
L 163.096398 135.512709 
L 163.510268 135.691839 
L 164.062095 135.583432 
L 165.027792 136.062051 
L 165.441662 136.693363 
L 165.855532 137.352558 
L 166.407359 138.042235 
L 167.511013 140.279235 
L 168.06284 141.486453 
L 168.614667 143.091 
L 169.028537 144.372357 
M 189.86 305.507418 
L 190.963654 305.260012 
L 191.377524 304.999003 
L 191.791394 304.541655 
L 192.481177 303.446399 
L 194.412571 298.834663 
L 196.343965 292.676441 
L 198.689229 283.829694 
L 199.654926 279.845761 
L 199.93084 278.759398 
L 200.620623 275.993706 
L 204.759325 260.092807 
L 210.00168 244.314597 
L 211.519203 240.485191 
L 211.933074 239.745009 
L 213.174684 237.259586 
L 213.450597 236.799068 
L 214.554251 234.794333 
L 216.347688 232.641193 
L 216.761558 232.01735 
L 216.899515 231.912394 
L 217.037472 231.663857 
L 217.175429 231.655672 
L 217.451342 231.356209 
L 217.589299 231.274508 
L 217.727255 231.341997 
L 217.865212 231.128441 
L 218.003169 231.317207 
L 218.141126 231.246376 
L 218.279082 231.347008 
L 218.417039 231.220097 
L 218.692952 231.476068 
L 220.210476 232.367108 
L 220.348433 231.874746 
L 220.624346 232.138345 
L 222.279827 234.194645 
L 222.96961 235.29348 
L 223.383481 235.693035 
L 223.797351 236.45064 
L 224.073264 236.875662 
L 224.901004 238.478661 
L 225.314874 239.157892 
L 225.728745 239.967181 
L 226.418528 241.115148 
L 228.074009 243.832857 
L 228.487879 244.421413 
L 228.763792 244.653657 
L 229.039706 244.999564 
L 229.729489 245.74249 
L 231.79884 250.073019 
L 233.178407 253.196868 
L 233.86819 254.212196 
L 234.144104 254.472564 
L 234.282061 254.483048 
L 234.557974 254.805983 
L 234.833887 255.048754 
L 235.109801 255.050038 
L 236.765281 256.325644 
L 237.041195 256.298012 
L 237.593022 256.353721 
L 238.006892 256.13474 
M 260.217922 325.197648 
L 261.183619 325.055305 
L 262.425229 324.725878 
L 263.25297 324.431137 
L 267.115758 321.992866 
L 268.081455 321.177304 
L 268.633281 320.731696 
L 269.736935 319.785949 
L 270.564675 319.121694 
L 271.392416 318.403452 
L 271.806286 318.11254 
L 272.909939 317.184391 
L 275.39316 314.742915 
L 275.944987 314.142415 
L 276.634771 313.434153 
L 279.117991 310.809363 
L 279.807775 310.107416 
L 280.773472 309.064465 
L 281.187342 308.67656 
L 281.877126 308.005011 
L 282.290996 307.609991 
L 282.842823 307.050188 
L 284.084433 305.941434 
L 286.843567 303.99444 
L 287.671307 303.486211 
L 288.774961 302.850204 
L 290.292485 302.006356 
L 291.120225 301.423182 
L 291.810009 300.969926 
L 293.051619 300.488542 
L 293.879359 300.277741 
L 295.258926 299.908554 
L 295.810753 299.94067 
L 296.77645 300.048961 
L 297.742147 300.640624 
L 298.845801 301.828587 
L 300.087411 303.722597 
L 302.984502 307.953995 
L 305.60568 310.884492 
L 306.295463 311.632998 
L 308.640727 313.702517 
L 309.606424 314.319732 
L 310.020294 314.54405 
L 310.296208 314.78425 
L 311.813732 315.95001 
L 312.227602 316.339736 
L 314.572866 318.045903 
L 315.538563 318.607233 
L 315.814476 318.832707 
L 316.780173 319.415726 
L 317.194043 319.71524 
L 317.607913 319.976278 
L 324.505749 324.031035 
L 326.023273 324.771398 
L 326.713056 325.096293 
L 328.092623 325.667045 
L 328.64445 325.90072 
L 332.921108 326.857303 
L 334.714545 326.978146 
L 334.714545 326.978146 
" style="fill:none;stroke:#aac03b;stroke-linecap:square;stroke-width:1.5;"/>
   </g>
   <g id="line2d_16">
    <path clip-path="url(#pda39cfd945)" d="M 45.005455 322.208576 
L 46.109108 321.958857 
L 50.24781 320.732952 
L 53.558771 320.333862 
L 56.317905 320.147115 
L 57.283602 319.915994 
L 57.973385 319.499367 
L 58.525212 318.858479 
L 59.077039 317.790487 
L 59.628866 316.134105 
L 60.180693 313.700734 
L 60.870476 309.336808 
L 61.97413 300.263604 
L 62.80187 294.295027 
L 63.353697 291.707663 
L 63.905524 290.220087 
L 64.457351 289.457497 
L 65.836918 288.251866 
L 66.250788 288.249014 
L 66.526701 288.505836 
L 66.802615 288.967068 
L 67.354442 290.457303 
L 68.044225 293.29537 
L 69.699706 300.875328 
L 70.389489 302.876969 
L 71.217229 304.502585 
L 71.907013 305.297667 
L 73.148623 306.610308 
L 73.70045 307.673455 
L 75.355931 311.190286 
L 75.907758 311.76926 
L 76.459584 312.021109 
L 77.149368 312.319758 
L 77.563238 312.805358 
L 78.115065 313.952099 
L 79.356675 316.73262 
L 80.046459 317.531842 
L 80.736242 318.40753 
L 81.563983 319.410332 
L 81.977853 319.592638 
L 82.391723 319.55733 
L 82.94355 319.26328 
L 83.633333 318.566512 
L 84.18516 317.636394 
L 84.461074 316.80438 
L 84.736987 315.389412 
L 85.0129 313.071485 
L 85.426771 307.326998 
L 85.978597 295.215124 
L 86.806338 270.622742 
L 90.945039 142.050749 
L 91.772779 124.805035 
L 92.462563 114.504892 
L 93.152346 107.480307 
L 94.118043 100.806909 
L 94.945784 96.527652 
L 95.635567 94.146134 
L 96.187394 92.910497 
L 96.739221 92.165809 
L 97.291048 91.791316 
L 101.015879 90.876894 
L 103.085229 90.624573 
L 104.050926 90.731776 
L 104.602753 90.955975 
L 105.016623 91.044549 
L 105.706407 91.105831 
L 111.362632 90.990694 
L 114.121766 91.15587 
L 115.22542 91.297118 
L 115.63929 91.409982 
L 116.742944 91.862272 
L 117.708641 92.870323 
L 118.812294 94.808824 
L 119.226165 95.900438 
L 119.364121 96.101654 
L 120.605732 100.009139 
L 122.123255 108.030365 
L 122.537126 109.495433 
L 122.950996 109.837088 
L 123.364866 110.101595 
L 124.468519 110.390796 
L 124.88239 110.232373 
L 125.848087 109.391273 
L 126.813784 107.98227 
L 127.36561 107.063222 
L 128.745177 104.546383 
L 132.056139 97.679106 
L 132.470009 97.091552 
L 133.159792 95.873595 
L 133.987532 94.793728 
L 135.643013 93.14094 
L 137.160537 92.399629 
L 138.126234 92.321147 
L 138.540104 92.410867 
L 138.953974 92.469776 
L 140.885368 93.744306 
L 141.575152 94.553271 
L 141.851065 94.860569 
L 142.264935 95.279146 
L 142.540848 95.624517 
L 142.954719 96.082413 
L 143.506545 96.6849 
L 143.782459 96.702042 
L 144.610199 98.104163 
L 145.299983 99.870703 
L 145.989766 103.380421 
L 147.231377 115.400984 
L 147.783203 121.551723 
L 148.197074 126.02148 
L 148.7489 130.166676 
L 149.162771 132.853866 
L 149.852554 134.553051 
L 150.266424 135.325627 
L 151.370078 135.885235 
L 151.645991 136.490344 
L 151.783948 136.546127 
L 152.197818 136.386764 
L 154.405126 137.720771 
L 155.094909 137.946012 
L 155.370823 137.574831 
L 155.508779 137.371538 
L 155.784693 137.528411 
L 155.922649 137.596967 
L 156.198563 137.363539 
L 156.474476 137.162401 
L 156.75039 137.168125 
L 157.16426 136.816201 
L 157.57813 136.849314 
L 158.129957 136.21049 
L 158.543827 136.247169 
L 158.957697 136.087596 
L 159.371567 136.132746 
L 160.337264 135.632067 
L 160.613177 135.664481 
L 160.889091 135.76901 
L 161.165004 135.722603 
L 161.578874 135.508283 
L 162.268658 135.42961 
L 162.682528 135.282633 
L 163.096398 135.512709 
L 163.510268 135.691839 
L 164.062095 135.583432 
L 165.027792 136.062051 
L 165.441662 136.693363 
L 165.855532 137.352558 
L 166.407359 138.042235 
L 167.511013 140.279235 
L 168.06284 141.486453 
L 168.614667 143.091 
L 169.028537 144.372357 
M 189.86 305.507418 
L 190.963654 305.260012 
L 191.377524 304.999003 
L 191.791394 304.541655 
L 192.481177 303.446399 
L 194.412571 298.834663 
L 196.343965 292.676441 
L 198.689229 283.829694 
L 199.654926 279.845761 
L 199.93084 278.759398 
L 200.620623 275.993706 
L 204.759325 260.092807 
L 210.00168 244.314597 
L 211.519203 240.485191 
L 211.933074 239.745009 
L 213.174684 237.259586 
L 213.450597 236.799068 
L 214.554251 234.794333 
L 216.347688 232.641193 
L 216.761558 232.01735 
L 216.899515 231.912394 
L 217.037472 231.663857 
L 217.175429 231.655672 
L 217.451342 231.356209 
L 217.589299 231.274508 
L 217.727255 231.341997 
L 217.865212 231.128441 
L 218.003169 231.317207 
L 218.141126 231.246376 
L 218.279082 231.347008 
L 218.417039 231.220097 
L 218.692952 231.476068 
L 220.210476 232.367108 
L 220.348433 231.874746 
L 220.624346 232.138345 
L 222.279827 234.194645 
L 222.96961 235.29348 
L 223.383481 235.693035 
L 223.797351 236.45064 
L 224.073264 236.875662 
L 224.901004 238.478661 
L 225.314874 239.157892 
L 225.728745 239.967181 
L 226.418528 241.115148 
L 228.074009 243.832857 
L 228.487879 244.421413 
L 228.763792 244.653657 
L 229.039706 244.999564 
L 229.729489 245.74249 
L 231.79884 250.073019 
L 233.178407 253.196868 
L 233.86819 254.212196 
L 234.144104 254.472564 
L 234.282061 254.483048 
L 234.557974 254.805983 
L 234.833887 255.048754 
L 235.109801 255.050038 
L 236.765281 256.325644 
L 237.041195 256.298012 
L 237.593022 256.353721 
L 238.006892 256.13474 
M 260.217922 325.197648 
L 261.183619 325.055305 
L 262.425229 324.725878 
L 263.25297 324.431137 
L 267.115758 321.992866 
L 268.081455 321.177304 
L 268.633281 320.731696 
L 269.736935 319.785949 
L 270.564675 319.121694 
L 271.392416 318.403452 
L 271.806286 318.11254 
L 272.909939 317.184391 
L 275.39316 314.742915 
L 275.944987 314.142415 
L 276.634771 313.434153 
L 279.117991 310.809363 
L 279.807775 310.107416 
L 280.773472 309.064465 
L 281.187342 308.67656 
L 281.877126 308.005011 
L 282.290996 307.609991 
L 282.842823 307.050188 
L 284.084433 305.941434 
L 286.843567 303.99444 
L 287.671307 303.486211 
L 288.774961 302.850204 
L 290.292485 302.006356 
L 291.120225 301.423182 
L 291.810009 300.969926 
L 293.051619 300.488542 
L 293.879359 300.277741 
L 295.258926 299.908554 
L 295.810753 299.94067 
L 296.77645 300.048961 
L 297.742147 300.640624 
L 298.845801 301.828587 
L 300.087411 303.722597 
L 302.984502 307.953995 
L 305.60568 310.884492 
L 306.295463 311.632998 
L 308.640727 313.702517 
L 309.606424 314.319732 
L 310.020294 314.54405 
L 310.296208 314.78425 
L 311.813732 315.95001 
L 312.227602 316.339736 
L 314.572866 318.045903 
L 315.538563 318.607233 
L 315.814476 318.832707 
L 316.780173 319.415726 
L 317.194043 319.71524 
L 317.607913 319.976278 
L 324.505749 324.031035 
L 326.023273 324.771398 
L 326.713056 325.096293 
L 328.092623 325.667045 
L 328.64445 325.90072 
L 332.921108 326.857303 
L 334.714545 326.978146 
L 334.714545 326.978146 
" style="fill:none;stroke:#8fb926;stroke-linecap:square;stroke-width:1.5;"/>
   </g>
   <g id="line2d_17">
    <path clip-path="url(#pda39cfd945)" d="M 45.005455 322.225872 
L 46.109108 321.990342 
L 50.385766 320.792082 
L 51.765333 320.655879 
L 57.835429 320.42216 
L 58.387255 320.117606 
L 58.939082 319.491227 
L 59.490909 318.38172 
L 60.042736 316.584975 
L 60.594563 313.924036 
L 61.284346 309.389635 
L 62.525957 300.804121 
L 63.077784 298.527269 
L 63.491654 297.642147 
L 63.905524 297.311632 
L 64.319394 297.353057 
L 65.974874 297.750094 
L 66.388745 298.060098 
L 66.940571 299.001599 
L 67.492398 300.416752 
L 68.182182 302.94606 
L 69.423792 307.775293 
L 70.113576 309.585402 
L 70.803359 310.872593 
L 71.493143 311.721556 
L 72.320883 312.324265 
L 73.010667 312.892508 
L 73.70045 313.860802 
L 75.217974 316.285441 
L 75.769801 316.760309 
L 76.321628 316.991969 
L 77.149368 317.234715 
L 77.563238 317.567454 
L 78.253022 318.55162 
L 79.080762 319.764217 
L 79.632589 320.241242 
L 81.288069 321.124196 
L 81.839896 321.116981 
L 82.52968 320.807976 
L 83.633333 319.985062 
L 84.461074 319.29297 
L 84.736987 318.644179 
L 85.0129 317.32546 
L 85.288814 315.017854 
L 85.702684 309.332375 
L 86.254511 297.751709 
L 87.220208 271.129421 
L 88.875688 219.395794 
L 90.945039 152.812965 
L 91.772779 132.628968 
L 92.462563 120.173875 
L 93.152346 111.509691 
L 94.118043 103.16564 
L 94.945784 97.78971 
L 95.635567 94.764628 
L 96.187394 93.188616 
L 96.739221 92.245444 
L 97.153091 91.867112 
L 97.704918 91.688435 
L 102.533403 90.672431 
L 103.637056 90.638585 
L 104.74071 91.02125 
L 106.120277 91.094 
L 107.775758 91.003116 
L 108.603498 90.999026 
L 109.707152 90.923703 
L 110.948762 90.95118 
L 112.604242 91.075282 
L 113.431983 91.130225 
L 114.81155 91.21208 
L 115.363377 91.304964 
L 116.191117 91.558771 
L 116.604987 91.823534 
L 116.8809 91.991653 
L 117.294771 92.477995 
L 117.846597 93.102708 
L 118.122511 93.767453 
L 118.674338 94.545272 
L 118.950251 95.266343 
L 120.605732 100.009139 
L 122.123255 108.030365 
L 122.537126 109.495433 
L 122.950996 109.837088 
L 123.364866 110.101595 
L 124.468519 110.390796 
L 124.88239 110.232373 
L 125.848087 109.391273 
L 126.813784 107.98227 
L 127.36561 107.063222 
L 128.745177 104.546383 
L 132.056139 97.679106 
L 132.470009 97.091552 
L 133.159792 95.873595 
L 133.987532 94.793728 
L 135.643013 93.14094 
L 137.160537 92.399629 
L 138.126234 92.321147 
L 138.540104 92.410867 
L 138.953974 92.469776 
L 140.885368 93.744306 
L 141.575152 94.553271 
L 141.851065 94.860569 
L 142.264935 95.279146 
L 142.540848 95.624517 
L 142.954719 96.082413 
L 143.506545 96.6849 
L 143.782459 96.702042 
L 144.610199 98.104163 
L 145.299983 99.870703 
L 145.989766 103.380421 
L 147.231377 115.400984 
L 147.783203 121.551723 
L 148.197074 126.02148 
L 148.7489 130.166676 
L 149.162771 132.853866 
L 149.852554 134.553051 
L 150.266424 135.325627 
L 151.370078 135.885235 
L 151.645991 136.490344 
L 151.783948 136.546127 
L 152.197818 136.386764 
L 154.405126 137.720771 
L 155.094909 137.946012 
L 155.370823 137.574831 
L 155.508779 137.371538 
L 155.784693 137.528411 
L 155.922649 137.596967 
L 156.198563 137.363539 
L 156.474476 137.162401 
L 156.75039 137.168125 
L 157.16426 136.816201 
L 157.57813 136.849314 
L 158.129957 136.21049 
L 158.543827 136.247169 
L 158.957697 136.087596 
L 159.371567 136.132746 
L 160.337264 135.632067 
L 160.613177 135.664481 
L 160.889091 135.76901 
L 161.165004 135.722603 
L 161.578874 135.508283 
L 162.268658 135.42961 
L 162.682528 135.282633 
L 163.096398 135.512709 
L 163.510268 135.691839 
L 164.062095 135.583432 
L 165.027792 136.062051 
L 165.441662 136.693363 
L 165.855532 137.352558 
L 166.407359 138.042235 
L 167.511013 140.279235 
L 168.06284 141.486453 
L 168.614667 143.091 
L 169.028537 144.372357 
M 189.86 305.507418 
L 190.963654 305.260012 
L 191.377524 304.999003 
L 191.791394 304.541655 
L 192.481177 303.446399 
L 194.412571 298.834663 
L 196.343965 292.676441 
L 198.689229 283.829694 
L 199.654926 279.845761 
L 199.93084 278.759398 
L 200.620623 275.993706 
L 204.759325 260.092807 
L 210.00168 244.314597 
L 211.519203 240.485191 
L 211.933074 239.745009 
L 213.174684 237.259586 
L 213.450597 236.799068 
L 214.554251 234.794333 
L 216.347688 232.641193 
L 216.761558 232.01735 
L 216.899515 231.912394 
L 217.037472 231.663857 
L 217.175429 231.655672 
L 217.451342 231.356209 
L 217.589299 231.274508 
L 217.727255 231.341997 
L 217.865212 231.128441 
L 218.003169 231.317207 
L 218.141126 231.246376 
L 218.279082 231.347008 
L 218.417039 231.220097 
L 218.692952 231.476068 
L 220.210476 232.367108 
L 220.348433 231.874746 
L 220.624346 232.138345 
L 222.279827 234.194645 
L 222.96961 235.29348 
L 223.383481 235.693035 
L 223.797351 236.45064 
L 224.073264 236.875662 
L 224.901004 238.478661 
L 225.314874 239.157892 
L 225.728745 239.967181 
L 226.418528 241.115148 
L 228.074009 243.832857 
L 228.487879 244.421413 
L 228.763792 244.653657 
L 229.039706 244.999564 
L 229.729489 245.74249 
L 231.79884 250.073019 
L 233.178407 253.196868 
L 233.86819 254.212196 
L 234.144104 254.472564 
L 234.282061 254.483048 
L 234.557974 254.805983 
L 234.833887 255.048754 
L 235.109801 255.050038 
L 236.765281 256.325644 
L 237.041195 256.298012 
L 237.593022 256.353721 
L 238.006892 256.13474 
M 260.217922 325.197648 
L 261.183619 325.055305 
L 262.425229 324.725878 
L 263.25297 324.431137 
L 267.115758 321.992866 
L 268.081455 321.177304 
L 268.633281 320.731696 
L 269.736935 319.785949 
L 270.564675 319.121694 
L 271.392416 318.403452 
L 271.806286 318.11254 
L 272.909939 317.184391 
L 275.39316 314.742915 
L 275.944987 314.142415 
L 276.634771 313.434153 
L 279.117991 310.809363 
L 279.807775 310.107416 
L 280.773472 309.064465 
L 281.187342 308.67656 
L 281.877126 308.005011 
L 282.290996 307.609991 
L 282.842823 307.050188 
L 284.084433 305.941434 
L 286.843567 303.99444 
L 287.671307 303.486211 
L 288.774961 302.850204 
L 290.292485 302.006356 
L 291.120225 301.423182 
L 291.810009 300.969926 
L 293.051619 300.488542 
L 293.879359 300.277741 
L 295.258926 299.908554 
L 295.810753 299.94067 
L 296.77645 300.048961 
L 297.742147 300.640624 
L 298.845801 301.828587 
L 300.087411 303.722597 
L 302.984502 307.953995 
L 305.60568 310.884492 
L 306.295463 311.632998 
L 308.640727 313.702517 
L 309.606424 314.319732 
L 310.020294 314.54405 
L 310.296208 314.78425 
L 311.813732 315.95001 
L 312.227602 316.339736 
L 314.572866 318.045903 
L 315.538563 318.607233 
L 315.814476 318.832707 
L 316.780173 319.415726 
L 317.194043 319.71524 
L 317.607913 319.976278 
L 324.505749 324.031035 
L 326.023273 324.771398 
L 326.713056 325.096293 
L 328.092623 325.667045 
L 328.64445 325.90072 
L 332.921108 326.857303 
L 334.714545 326.978146 
L 334.714545 326.978146 
" style="fill:none;stroke:#67a612;stroke-linecap:square;stroke-width:1.5;"/>
   </g>
   <g id="line2d_18">
    <path clip-path="url(#pda39cfd945)" d="M 45.005455 322.237614 
L 46.109108 322.005249 
L 50.385766 320.820284 
L 51.765333 320.710934 
L 58.525212 320.707913 
L 58.939082 320.400778 
L 59.352952 319.855475 
L 59.766823 318.983637 
L 60.318649 317.177817 
L 60.870476 314.477503 
L 62.80187 303.596987 
L 63.21574 302.714965 
L 63.491654 302.492331 
L 63.767567 302.502769 
L 64.181437 302.782233 
L 65.009177 303.606318 
L 65.698961 304.018273 
L 66.250788 304.430529 
L 66.664658 304.965665 
L 67.354442 306.31548 
L 68.044225 308.323244 
L 69.561749 313.082195 
L 70.251532 314.434147 
L 70.941316 315.375252 
L 71.6311 315.9776 
L 73.424537 317.192228 
L 75.493887 319.49416 
L 76.183671 319.774734 
L 77.425281 320.111349 
L 77.977108 320.564602 
L 79.080762 321.557961 
L 79.770545 321.837802 
L 81.012156 322.030527 
L 81.563983 321.891174 
L 82.391723 321.406009 
L 84.047203 320.445323 
L 84.59903 320.411971 
L 84.874944 320.032871 
L 85.150857 318.99707 
L 85.426771 317.028725 
L 85.840641 311.994786 
L 86.392468 301.562749 
L 87.358165 277.283994 
L 88.599775 240.60045 
L 91.910736 136.608663 
L 92.600519 123.150529 
L 93.290303 113.838683 
L 94.256 104.256881 
L 95.08374 98.184289 
L 95.773524 94.818964 
L 96.325351 93.113652 
L 96.877177 92.13923 
L 97.291048 91.797159 
L 99.498355 91.208176 
L 101.981576 90.731724 
L 103.637056 90.638585 
L 104.74071 91.02125 
L 106.120277 91.094 
L 107.775758 91.003116 
L 108.603498 90.999026 
L 109.707152 90.923703 
L 110.948762 90.95118 
L 112.604242 91.075282 
L 113.431983 91.130225 
L 114.81155 91.21208 
L 115.363377 91.304964 
L 116.191117 91.558771 
L 116.604987 91.823534 
L 116.8809 91.991653 
L 117.294771 92.477995 
L 117.846597 93.102708 
L 118.122511 93.767453 
L 118.674338 94.545272 
L 118.950251 95.266343 
L 120.605732 100.009139 
L 122.123255 108.030365 
L 122.537126 109.495433 
L 122.950996 109.837088 
L 123.364866 110.101595 
L 124.468519 110.390796 
L 124.88239 110.232373 
L 125.848087 109.391273 
L 126.813784 107.98227 
L 127.36561 107.063222 
L 128.745177 104.546383 
L 132.056139 97.679106 
L 132.470009 97.091552 
L 133.159792 95.873595 
L 133.987532 94.793728 
L 135.643013 93.14094 
L 137.160537 92.399629 
L 138.126234 92.321147 
L 138.540104 92.410867 
L 138.953974 92.469776 
L 140.885368 93.744306 
L 141.575152 94.553271 
L 141.851065 94.860569 
L 142.264935 95.279146 
L 142.540848 95.624517 
L 142.954719 96.082413 
L 143.506545 96.6849 
L 143.782459 96.702042 
L 144.610199 98.104163 
L 145.299983 99.870703 
L 145.989766 103.380421 
L 147.231377 115.400984 
L 147.783203 121.551723 
L 148.197074 126.02148 
L 148.7489 130.166676 
L 149.162771 132.853866 
L 149.852554 134.553051 
L 150.266424 135.325627 
L 151.370078 135.885235 
L 151.645991 136.490344 
L 151.783948 136.546127 
L 152.197818 136.386764 
L 154.405126 137.720771 
L 155.094909 137.946012 
L 155.370823 137.574831 
L 155.508779 137.371538 
L 155.784693 137.528411 
L 155.922649 137.596967 
L 156.198563 137.363539 
L 156.474476 137.162401 
L 156.75039 137.168125 
L 157.16426 136.816201 
L 157.57813 136.849314 
L 158.129957 136.21049 
L 158.543827 136.247169 
L 158.957697 136.087596 
L 159.371567 136.132746 
L 160.337264 135.632067 
L 160.613177 135.664481 
L 160.889091 135.76901 
L 161.165004 135.722603 
L 161.578874 135.508283 
L 162.268658 135.42961 
L 162.682528 135.282633 
L 163.096398 135.512709 
L 163.510268 135.691839 
L 164.062095 135.583432 
L 165.027792 136.062051 
L 165.441662 136.693363 
L 165.855532 137.352558 
L 166.407359 138.042235 
L 167.511013 140.279235 
L 168.06284 141.486453 
L 168.614667 143.091 
L 169.028537 144.372357 
M 189.86 305.507418 
L 190.963654 305.260012 
L 191.377524 304.999003 
L 191.791394 304.541655 
L 192.481177 303.446399 
L 194.412571 298.834663 
L 196.343965 292.676441 
L 198.689229 283.829694 
L 199.654926 279.845761 
L 199.93084 278.759398 
L 200.620623 275.993706 
L 204.759325 260.092807 
L 210.00168 244.314597 
L 211.519203 240.485191 
L 211.933074 239.745009 
L 213.174684 237.259586 
L 213.450597 236.799068 
L 214.554251 234.794333 
L 216.347688 232.641193 
L 216.761558 232.01735 
L 216.899515 231.912394 
L 217.037472 231.663857 
L 217.175429 231.655672 
L 217.451342 231.356209 
L 217.589299 231.274508 
L 217.727255 231.341997 
L 217.865212 231.128441 
L 218.003169 231.317207 
L 218.141126 231.246376 
L 218.279082 231.347008 
L 218.417039 231.220097 
L 218.692952 231.476068 
L 220.210476 232.367108 
L 220.348433 231.874746 
L 220.624346 232.138345 
L 222.279827 234.194645 
L 222.96961 235.29348 
L 223.383481 235.693035 
L 223.797351 236.45064 
L 224.073264 236.875662 
L 224.901004 238.478661 
L 225.314874 239.157892 
L 225.728745 239.967181 
L 226.418528 241.115148 
L 228.074009 243.832857 
L 228.487879 244.421413 
L 228.763792 244.653657 
L 229.039706 244.999564 
L 229.729489 245.74249 
L 231.79884 250.073019 
L 233.178407 253.196868 
L 233.86819 254.212196 
L 234.144104 254.472564 
L 234.282061 254.483048 
L 234.557974 254.805983 
L 234.833887 255.048754 
L 235.109801 255.050038 
L 236.765281 256.325644 
L 237.041195 256.298012 
L 237.593022 256.353721 
L 238.006892 256.13474 
M 260.217922 325.197648 
L 261.183619 325.055305 
L 262.425229 324.725878 
L 263.25297 324.431137 
L 267.115758 321.992866 
L 268.081455 321.177304 
L 268.633281 320.731696 
L 269.736935 319.785949 
L 270.564675 319.121694 
L 271.392416 318.403452 
L 271.806286 318.11254 
L 272.909939 317.184391 
L 275.39316 314.742915 
L 275.944987 314.142415 
L 276.634771 313.434153 
L 279.117991 310.809363 
L 279.807775 310.107416 
L 280.773472 309.064465 
L 281.187342 308.67656 
L 281.877126 308.005011 
L 282.290996 307.609991 
L 282.842823 307.050188 
L 284.084433 305.941434 
L 286.843567 303.99444 
L 287.671307 303.486211 
L 288.774961 302.850204 
L 290.292485 302.006356 
L 291.120225 301.423182 
L 291.810009 300.969926 
L 293.051619 300.488542 
L 293.879359 300.277741 
L 295.258926 299.908554 
L 295.810753 299.94067 
L 296.77645 300.048961 
L 297.742147 300.640624 
L 298.845801 301.828587 
L 300.087411 303.722597 
L 302.984502 307.953995 
L 305.60568 310.884492 
L 306.295463 311.632998 
L 308.640727 313.702517 
L 309.606424 314.319732 
L 310.020294 314.54405 
L 310.296208 314.78425 
L 311.813732 315.95001 
L 312.227602 316.339736 
L 314.572866 318.045903 
L 315.538563 318.607233 
L 315.814476 318.832707 
L 316.780173 319.415726 
L 317.194043 319.71524 
L 317.607913 319.976278 
L 324.505749 324.031035 
L 326.023273 324.771398 
L 326.713056 325.096293 
L 328.092623 325.667045 
L 328.64445 325.90072 
L 332.921108 326.857303 
L 334.714545 326.978146 
L 334.714545 326.978146 
" style="fill:none;stroke:#477706;stroke-linecap:square;stroke-width:1.5;"/>
   </g>
   <g id="patch_3">
    <path d="M 30.52 332.6 
L 30.52 28.08 
" style="fill:none;stroke:#000000;stroke-linecap:square;stroke-linejoin:miter;stroke-width:0.8;"/>
   </g>
   <g id="patch_4">
    <path d="M 349.2 332.6 
L 349.2 28.08 
" style="fill:none;stroke:#000000;stroke-linecap:square;stroke-linejoin:miter;stroke-width:0.8;"/>
   </g>
   <g id="patch_5">
    <path d="M 30.52 332.6 
L 349.2 332.6 
" style="fill:none;stroke:#000000;stroke-linecap:square;stroke-linejoin:miter;stroke-width:0.8;"/>
   </g>
   <g id="patch_6">
    <path d="M 30.52 28.08 
L 349.2 28.08 
" style="fill:none;stroke:#000000;stroke-linecap:square;stroke-linejoin:miter;stroke-width:0.8;"/>
   </g>
   <g id="text_14">
    <!-- Chlorophyll Content -->
    <g transform="translate(115.361563 22.08)scale(0.15 -0.15)">
     <defs>
      <path d="M 64.40625 67.28125 
L 64.40625 56.890625 
Q 59.421875 61.53125 53.78125 63.8125 
Q 48.140625 66.109375 41.796875 66.109375 
Q 29.296875 66.109375 22.65625 58.46875 
Q 16.015625 50.828125 16.015625 36.375 
Q 16.015625 21.96875 22.65625 14.328125 
Q 29.296875 6.6875 41.796875 6.6875 
Q 48.140625 6.6875 53.78125 8.984375 
Q 59.421875 11.28125 64.40625 15.921875 
L 64.40625 5.609375 
Q 59.234375 2.09375 53.4375 0.328125 
Q 47.65625 -1.421875 41.21875 -1.421875 
Q 24.65625 -1.421875 15.125 8.703125 
Q 5.609375 18.84375 5.609375 36.375 
Q 5.609375 53.953125 15.125 64.078125 
Q 24.65625 74.21875 41.21875 74.21875 
Q 47.75 74.21875 53.53125 72.484375 
Q 59.328125 70.75 64.40625 67.28125 
z
" id="DejaVuSans-67"/>
      <path d="M 54.890625 33.015625 
L 54.890625 0 
L 45.90625 0 
L 45.90625 32.71875 
Q 45.90625 40.484375 42.875 44.328125 
Q 39.84375 48.1875 33.796875 48.1875 
Q 26.515625 48.1875 22.3125 43.546875 
Q 18.109375 38.921875 18.109375 30.90625 
L 18.109375 0 
L 9.078125 0 
L 9.078125 75.984375 
L 18.109375 75.984375 
L 18.109375 46.1875 
Q 21.34375 51.125 25.703125 53.5625 
Q 30.078125 56 35.796875 56 
Q 45.21875 56 50.046875 50.171875 
Q 54.890625 44.34375 54.890625 33.015625 
z
" id="DejaVuSans-104"/>
      <path d="M 9.421875 75.984375 
L 18.40625 75.984375 
L 18.40625 0 
L 9.421875 0 
z
" id="DejaVuSans-108"/>
      <path d="M 30.609375 48.390625 
Q 23.390625 48.390625 19.1875 42.75 
Q 14.984375 37.109375 14.984375 27.296875 
Q 14.984375 17.484375 19.15625 11.84375 
Q 23.34375 6.203125 30.609375 6.203125 
Q 37.796875 6.203125 41.984375 11.859375 
Q 46.1875 17.53125 46.1875 27.296875 
Q 46.1875 37.015625 41.984375 42.703125 
Q 37.796875 48.390625 30.609375 48.390625 
z
M 30.609375 56 
Q 42.328125 56 49.015625 48.375 
Q 55.71875 40.765625 55.71875 27.296875 
Q 55.71875 13.875 49.015625 6.21875 
Q 42.328125 -1.421875 30.609375 -1.421875 
Q 18.84375 -1.421875 12.171875 6.21875 
Q 5.515625 13.875 5.515625 27.296875 
Q 5.515625 40.765625 12.171875 48.375 
Q 18.84375 56 30.609375 56 
z
" id="DejaVuSans-111"/>
      <path d="M 41.109375 46.296875 
Q 39.59375 47.171875 37.8125 47.578125 
Q 36.03125 48 33.890625 48 
Q 26.265625 48 22.1875 43.046875 
Q 18.109375 38.09375 18.109375 28.8125 
L 18.109375 0 
L 9.078125 0 
L 9.078125 54.6875 
L 18.109375 54.6875 
L 18.109375 46.1875 
Q 20.953125 51.171875 25.484375 53.578125 
Q 30.03125 56 36.53125 56 
Q 37.453125 56 38.578125 55.875 
Q 39.703125 55.765625 41.0625 55.515625 
z
" id="DejaVuSans-114"/>
      <path d="M 18.109375 8.203125 
L 18.109375 -20.796875 
L 9.078125 -20.796875 
L 9.078125 54.6875 
L 18.109375 54.6875 
L 18.109375 46.390625 
Q 20.953125 51.265625 25.265625 53.625 
Q 29.59375 56 35.59375 56 
Q 45.5625 56 51.78125 48.09375 
Q 58.015625 40.1875 58.015625 27.296875 
Q 58.015625 14.40625 51.78125 6.484375 
Q 45.5625 -1.421875 35.59375 -1.421875 
Q 29.59375 -1.421875 25.265625 0.953125 
Q 20.953125 3.328125 18.109375 8.203125 
z
M 48.6875 27.296875 
Q 48.6875 37.203125 44.609375 42.84375 
Q 40.53125 48.484375 33.40625 48.484375 
Q 26.265625 48.484375 22.1875 42.84375 
Q 18.109375 37.203125 18.109375 27.296875 
Q 18.109375 17.390625 22.1875 11.75 
Q 26.265625 6.109375 33.40625 6.109375 
Q 40.53125 6.109375 44.609375 11.75 
Q 48.6875 17.390625 48.6875 27.296875 
z
" id="DejaVuSans-112"/>
      <path d="M 32.171875 -5.078125 
Q 28.375 -14.84375 24.75 -17.8125 
Q 21.140625 -20.796875 15.09375 -20.796875 
L 7.90625 -20.796875 
L 7.90625 -13.28125 
L 13.1875 -13.28125 
Q 16.890625 -13.28125 18.9375 -11.515625 
Q 21 -9.765625 23.484375 -3.21875 
L 25.09375 0.875 
L 2.984375 54.6875 
L 12.5 54.6875 
L 29.59375 11.921875 
L 46.6875 54.6875 
L 56.203125 54.6875 
z
" id="DejaVuSans-121"/>
      <path id="DejaVuSans-32"/>
      <path d="M 54.890625 33.015625 
L 54.890625 0 
L 45.90625 0 
L 45.90625 32.71875 
Q 45.90625 40.484375 42.875 44.328125 
Q 39.84375 48.1875 33.796875 48.1875 
Q 26.515625 48.1875 22.3125 43.546875 
Q 18.109375 38.921875 18.109375 30.90625 
L 18.109375 0 
L 9.078125 0 
L 9.078125 54.6875 
L 18.109375 54.6875 
L 18.109375 46.1875 
Q 21.34375 51.125 25.703125 53.5625 
Q 30.078125 56 35.796875 56 
Q 45.21875 56 50.046875 50.171875 
Q 54.890625 44.34375 54.890625 33.015625 
z
" id="DejaVuSans-110"/>
      <path d="M 18.3125 70.21875 
L 18.3125 54.6875 
L 36.8125 54.6875 
L 36.8125 47.703125 
L 18.3125 47.703125 
L 18.3125 18.015625 
Q 18.3125 11.328125 20.140625 9.421875 
Q 21.96875 7.515625 27.59375 7.515625 
L 36.8125 7.515625 
L 36.8125 0 
L 27.59375 0 
Q 17.1875 0 13.234375 3.875 
Q 9.28125 7.765625 9.28125 18.015625 
L 9.28125 47.703125 
L 2.6875 47.703125 
L 2.6875 54.6875 
L 9.28125 54.6875 
L 9.28125 70.21875 
z
" id="DejaVuSans-116"/>
      <path d="M 56.203125 29.59375 
L 56.203125 25.203125 
L 14.890625 25.203125 
Q 15.484375 15.921875 20.484375 11.0625 
Q 25.484375 6.203125 34.421875 6.203125 
Q 39.59375 6.203125 44.453125 7.46875 
Q 49.3125 8.734375 54.109375 11.28125 
L 54.109375 2.78125 
Q 49.265625 0.734375 44.1875 -0.34375 
Q 39.109375 -1.421875 33.890625 -1.421875 
Q 20.796875 -1.421875 13.15625 6.1875 
Q 5.515625 13.8125 5.515625 26.8125 
Q 5.515625 40.234375 12.765625 48.109375 
Q 20.015625 56 32.328125 56 
Q 43.359375 56 49.78125 48.890625 
Q 56.203125 41.796875 56.203125 29.59375 
z
M 47.21875 32.234375 
Q 47.125 39.59375 43.09375 43.984375 
Q 39.0625 48.390625 32.421875 48.390625 
Q 24.90625 48.390625 20.390625 44.140625 
Q 15.875 39.890625 15.1875 32.171875 
z
" id="DejaVuSans-101"/>
     </defs>
     <use xlink:href="#DejaVuSans-67"/>
     <use x="69.824219" xlink:href="#DejaVuSans-104"/>
     <use x="133.203125" xlink:href="#DejaVuSans-108"/>
     <use x="160.986328" xlink:href="#DejaVuSans-111"/>
     <use x="222.167969" xlink:href="#DejaVuSans-114"/>
     <use x="261.03125" xlink:href="#DejaVuSans-111"/>
     <use x="322.212891" xlink:href="#DejaVuSans-112"/>
     <use x="385.689453" xlink:href="#DejaVuSans-104"/>
     <use x="449.068359" xlink:href="#DejaVuSans-121"/>
     <use x="508.248047" xlink:href="#DejaVuSans-108"/>
     <use x="536.03125" xlink:href="#DejaVuSans-108"/>
     <use x="563.814453" xlink:href="#DejaVuSans-32"/>
     <use x="595.601562" xlink:href="#DejaVuSans-67"/>
     <use x="665.425781" xlink:href="#DejaVuSans-111"/>
     <use x="726.607422" xlink:href="#DejaVuSans-110"/>
     <use x="789.986328" xlink:href="#DejaVuSans-116"/>
     <use x="829.195312" xlink:href="#DejaVuSans-101"/>
     <use x="890.71875" xlink:href="#DejaVuSans-110"/>
     <use x="954.097656" xlink:href="#DejaVuSans-116"/>
    </g>
   </g>
   <g id="legend_1">
    <g id="patch_7">
     <path d="M 248.2 117.08 
L 342.2 117.08 
Q 344.2 117.08 344.2 115.08 
L 344.2 35.08 
Q 344.2 33.08 342.2 33.08 
L 248.2 33.08 
Q 246.2 33.08 246.2 35.08 
L 246.2 115.08 
Q 246.2 117.08 248.2 117.08 
z
" style="fill:#ffffff;opacity:0.8;stroke:#cccccc;stroke-linejoin:miter;"/>
    </g>
    <g id="line2d_19">
     <path d="M 250.2 42.68 
L 270.2 42.68 
" style="fill:none;stroke:#bfce68;stroke-linecap:square;stroke-width:1.5;"/>
    </g>
    <g id="line2d_20"/>
    <g id="text_15">
     <!-- 15 $\mu g \cdot cm^{-2}$ -->
     <g transform="translate(278.2 46.18)scale(0.1 -0.1)">
      <defs>
       <path d="M -1.3125 -20.796875 
L 13.375 54.6875 
L 22.40625 54.6875 
L 15.765625 20.65625 
Q 15.578125 19.625 15.421875 18.359375 
Q 15.28125 17.09375 15.28125 15.828125 
Q 15.28125 11.28125 18.140625 8.828125 
Q 21 6.390625 26.3125 6.390625 
Q 33.546875 6.390625 37.984375 10.484375 
Q 42.4375 14.59375 44 22.796875 
L 50.203125 54.6875 
L 59.1875 54.6875 
L 51.03125 12.640625 
Q 50.828125 11.71875 50.75 11.03125 
Q 50.6875 10.359375 50.6875 9.8125 
Q 50.6875 8.296875 51.296875 7.59375 
Q 51.90625 6.890625 53.21875 6.890625 
Q 53.71875 6.890625 54.5625 7.125 
Q 55.421875 7.375 56.984375 8.015625 
L 55.609375 0.78125 
Q 53.46875 -0.296875 51.515625 -0.859375 
Q 49.5625 -1.421875 47.703125 -1.421875 
Q 44.484375 -1.421875 42.65625 0.625 
Q 40.828125 2.6875 40.828125 6.296875 
Q 38.09375 2.390625 34.296875 0.484375 
Q 30.515625 -1.421875 25.390625 -1.421875 
Q 20.84375 -1.421875 17.453125 0.671875 
Q 14.0625 2.78125 12.984375 6.203125 
L 7.71875 -20.796875 
z
" id="DejaVuSans-Oblique-956"/>
       <path d="M 59.625 54.6875 
L 50.296875 6.78125 
Q 47.609375 -7.125 40.015625 -13.953125 
Q 32.421875 -20.796875 19.578125 -20.796875 
Q 14.84375 -20.796875 10.78125 -20.09375 
Q 6.734375 -19.390625 3.21875 -17.921875 
L 4.890625 -9.1875 
Q 8.203125 -11.328125 11.90625 -12.34375 
Q 15.625 -13.375 19.828125 -13.375 
Q 28.375 -13.375 33.859375 -8.703125 
Q 39.359375 -4.046875 41.109375 4.6875 
L 41.890625 8.796875 
Q 38.140625 4.5 33.15625 2.25 
Q 28.171875 0 22.40625 0 
Q 14.109375 0 9.34375 5.484375 
Q 4.59375 10.984375 4.59375 20.609375 
Q 4.59375 28.171875 7.46875 35.421875 
Q 10.359375 42.671875 15.578125 48.296875 
Q 19.046875 52 23.65625 54 
Q 28.265625 56 33.296875 56 
Q 38.8125 56 42.90625 53.4375 
Q 47.015625 50.875 49.03125 46.1875 
L 50.59375 54.6875 
z
M 46.09375 34.625 
Q 46.09375 41.265625 42.96875 44.875 
Q 39.84375 48.484375 34.078125 48.484375 
Q 30.515625 48.484375 27.296875 47.0625 
Q 24.078125 45.65625 21.78125 43.109375 
Q 18.0625 38.921875 15.984375 33.234375 
Q 13.921875 27.546875 13.921875 21.484375 
Q 13.921875 14.75 17.0625 11.125 
Q 20.21875 7.515625 26.125 7.515625 
Q 34.671875 7.515625 40.375 15.25 
Q 46.09375 23 46.09375 34.625 
z
" id="DejaVuSans-Oblique-103"/>
       <path d="M 10.6875 40.921875 
L 21 40.921875 
L 21 28.515625 
L 10.6875 28.515625 
z
" id="DejaVuSans-8901"/>
       <path d="M 53.609375 52.59375 
L 51.8125 43.703125 
Q 48.578125 46.046875 44.9375 47.21875 
Q 41.3125 48.390625 37.40625 48.390625 
Q 33.109375 48.390625 29.21875 46.875 
Q 25.34375 45.359375 22.703125 42.578125 
Q 18.5 38.328125 16.203125 32.609375 
Q 13.921875 26.90625 13.921875 20.796875 
Q 13.921875 13.421875 17.609375 9.8125 
Q 21.296875 6.203125 28.8125 6.203125 
Q 32.515625 6.203125 36.6875 7.328125 
Q 40.875 8.453125 45.40625 10.6875 
L 43.703125 1.8125 
Q 39.796875 0.203125 35.671875 -0.609375 
Q 31.546875 -1.421875 27.203125 -1.421875 
Q 16.3125 -1.421875 10.453125 4.015625 
Q 4.59375 9.46875 4.59375 19.578125 
Q 4.59375 28.078125 7.640625 35.234375 
Q 10.6875 42.390625 16.703125 48.09375 
Q 20.796875 52 26.3125 54 
Q 31.84375 56 38.375 56 
Q 42.1875 56 45.9375 55.140625 
Q 49.703125 54.296875 53.609375 52.59375 
z
" id="DejaVuSans-Oblique-99"/>
       <path d="M 89.796875 33.015625 
L 83.40625 0 
L 74.421875 0 
L 80.71875 32.71875 
Q 81.109375 34.8125 81.296875 36.328125 
Q 81.5 37.84375 81.5 38.921875 
Q 81.5 43.3125 79.046875 45.75 
Q 76.609375 48.1875 72.21875 48.1875 
Q 65.671875 48.1875 60.546875 43.28125 
Q 55.421875 38.375 53.90625 30.515625 
L 47.90625 0 
L 38.921875 0 
L 45.3125 32.71875 
Q 45.703125 34.515625 45.890625 36.046875 
Q 46.09375 37.59375 46.09375 38.8125 
Q 46.09375 43.265625 43.65625 45.71875 
Q 41.21875 48.1875 36.921875 48.1875 
Q 30.28125 48.1875 25.140625 43.28125 
Q 20.015625 38.375 18.5 30.515625 
L 12.5 0 
L 3.515625 0 
L 14.203125 54.6875 
L 23.1875 54.6875 
L 21.484375 46.1875 
Q 25.140625 50.984375 30.046875 53.484375 
Q 34.96875 56 40.578125 56 
Q 46.53125 56 50.359375 52.875 
Q 54.203125 49.75 54.984375 44.1875 
Q 59.078125 49.953125 64.46875 52.96875 
Q 69.875 56 75.875 56 
Q 82.90625 56 86.734375 51.953125 
Q 90.578125 47.90625 90.578125 40.484375 
Q 90.578125 38.875 90.375 36.9375 
Q 90.1875 35.015625 89.796875 33.015625 
z
" id="DejaVuSans-Oblique-109"/>
       <path d="M 10.59375 35.5 
L 73.1875 35.5 
L 73.1875 27.203125 
L 10.59375 27.203125 
z
" id="DejaVuSans-8722"/>
      </defs>
      <use transform="translate(0 0.765625)" xlink:href="#DejaVuSans-49"/>
      <use transform="translate(63.623047 0.765625)" xlink:href="#DejaVuSans-53"/>
      <use transform="translate(127.246094 0.765625)" xlink:href="#DejaVuSans-32"/>
      <use transform="translate(159.033203 0.765625)" xlink:href="#DejaVuSans-Oblique-956"/>
      <use transform="translate(222.65625 0.765625)" xlink:href="#DejaVuSans-Oblique-103"/>
      <use transform="translate(305.615234 0.765625)" xlink:href="#DejaVuSans-8901"/>
      <use transform="translate(356.884766 0.765625)" xlink:href="#DejaVuSans-Oblique-99"/>
      <use transform="translate(411.865234 0.765625)" xlink:href="#DejaVuSans-Oblique-109"/>
      <use transform="translate(513.92724 39.046875)scale(0.7)" xlink:href="#DejaVuSans-8722"/>
      <use transform="translate(572.579583 39.046875)scale(0.7)" xlink:href="#DejaVuSans-50"/>
     </g>
    </g>
    <g id="line2d_21">
     <path d="M 250.2 58.88 
L 270.2 58.88 
" style="fill:none;stroke:#aac03b;stroke-linecap:square;stroke-width:1.5;"/>
    </g>
    <g id="line2d_22"/>
    <g id="text_16">
     <!-- 26 $\mu g \cdot cm^{-2}$ -->
     <g transform="translate(278.2 62.38)scale(0.1 -0.1)">
      <use transform="translate(0 0.765625)" xlink:href="#DejaVuSans-50"/>
      <use transform="translate(63.623047 0.765625)" xlink:href="#DejaVuSans-54"/>
      <use transform="translate(127.246094 0.765625)" xlink:href="#DejaVuSans-32"/>
      <use transform="translate(159.033203 0.765625)" xlink:href="#DejaVuSans-Oblique-956"/>
      <use transform="translate(222.65625 0.765625)" xlink:href="#DejaVuSans-Oblique-103"/>
      <use transform="translate(305.615234 0.765625)" xlink:href="#DejaVuSans-8901"/>
      <use transform="translate(356.884766 0.765625)" xlink:href="#DejaVuSans-Oblique-99"/>
      <use transform="translate(411.865234 0.765625)" xlink:href="#DejaVuSans-Oblique-109"/>
      <use transform="translate(513.92724 39.046875)scale(0.7)" xlink:href="#DejaVuSans-8722"/>
      <use transform="translate(572.579583 39.046875)scale(0.7)" xlink:href="#DejaVuSans-50"/>
     </g>
    </g>
    <g id="line2d_23">
     <path d="M 250.2 75.08 
L 270.2 75.08 
" style="fill:none;stroke:#8fb926;stroke-linecap:square;stroke-width:1.5;"/>
    </g>
    <g id="line2d_24"/>
    <g id="text_17">
     <!-- 37 $\mu g \cdot cm^{-2}$ -->
     <g transform="translate(278.2 78.58)scale(0.1 -0.1)">
      <use transform="translate(0 0.765625)" xlink:href="#DejaVuSans-51"/>
      <use transform="translate(63.623047 0.765625)" xlink:href="#DejaVuSans-55"/>
      <use transform="translate(127.246094 0.765625)" xlink:href="#DejaVuSans-32"/>
      <use transform="translate(159.033203 0.765625)" xlink:href="#DejaVuSans-Oblique-956"/>
      <use transform="translate(222.65625 0.765625)" xlink:href="#DejaVuSans-Oblique-103"/>
      <use transform="translate(305.615234 0.765625)" xlink:href="#DejaVuSans-8901"/>
      <use transform="translate(356.884766 0.765625)" xlink:href="#DejaVuSans-Oblique-99"/>
      <use transform="translate(411.865234 0.765625)" xlink:href="#DejaVuSans-Oblique-109"/>
      <use transform="translate(513.92724 39.046875)scale(0.7)" xlink:href="#DejaVuSans-8722"/>
      <use transform="translate(572.579583 39.046875)scale(0.7)" xlink:href="#DejaVuSans-50"/>
     </g>
    </g>
    <g id="line2d_25">
     <path d="M 250.2 91.28 
L 270.2 91.28 
" style="fill:none;stroke:#67a612;stroke-linecap:square;stroke-width:1.5;"/>
    </g>
    <g id="line2d_26"/>
    <g id="text_18">
     <!-- 48 $\mu g \cdot cm^{-2}$ -->
     <g transform="translate(278.2 94.78)scale(0.1 -0.1)">
      <defs>
       <path d="M 31.78125 34.625 
Q 24.75 34.625 20.71875 30.859375 
Q 16.703125 27.09375 16.703125 20.515625 
Q 16.703125 13.921875 20.71875 10.15625 
Q 24.75 6.390625 31.78125 6.390625 
Q 38.8125 6.390625 42.859375 10.171875 
Q 46.921875 13.96875 46.921875 20.515625 
Q 46.921875 27.09375 42.890625 30.859375 
Q 38.875 34.625 31.78125 34.625 
z
M 21.921875 38.8125 
Q 15.578125 40.375 12.03125 44.71875 
Q 8.5 49.078125 8.5 55.328125 
Q 8.5 64.0625 14.71875 69.140625 
Q 20.953125 74.21875 31.78125 74.21875 
Q 42.671875 74.21875 48.875 69.140625 
Q 55.078125 64.0625 55.078125 55.328125 
Q 55.078125 49.078125 51.53125 44.71875 
Q 48 40.375 41.703125 38.8125 
Q 48.828125 37.15625 52.796875 32.3125 
Q 56.78125 27.484375 56.78125 20.515625 
Q 56.78125 9.90625 50.3125 4.234375 
Q 43.84375 -1.421875 31.78125 -1.421875 
Q 19.734375 -1.421875 13.25 4.234375 
Q 6.78125 9.90625 6.78125 20.515625 
Q 6.78125 27.484375 10.78125 32.3125 
Q 14.796875 37.15625 21.921875 38.8125 
z
M 18.3125 54.390625 
Q 18.3125 48.734375 21.84375 45.5625 
Q 25.390625 42.390625 31.78125 42.390625 
Q 38.140625 42.390625 41.71875 45.5625 
Q 45.3125 48.734375 45.3125 54.390625 
Q 45.3125 60.0625 41.71875 63.234375 
Q 38.140625 66.40625 31.78125 66.40625 
Q 25.390625 66.40625 21.84375 63.234375 
Q 18.3125 60.0625 18.3125 54.390625 
z
" id="DejaVuSans-56"/>
      </defs>
      <use transform="translate(0 0.765625)" xlink:href="#DejaVuSans-52"/>
      <use transform="translate(63.623047 0.765625)" xlink:href="#DejaVuSans-56"/>
      <use transform="translate(127.246094 0.765625)" xlink:href="#DejaVuSans-32"/>
      <use transform="translate(159.033203 0.765625)" xlink:href="#DejaVuSans-Oblique-956"/>
      <use transform="translate(222.65625 0.765625)" xlink:href="#DejaVuSans-Oblique-103"/>
      <use transform="translate(305.615234 0.765625)" xlink:href="#DejaVuSans-8901"/>
      <use transform="translate(356.884766 0.765625)" xlink:href="#DejaVuSans-Oblique-99"/>
      <use transform="translate(411.865234 0.765625)" xlink:href="#DejaVuSans-Oblique-109"/>
      <use transform="translate(513.92724 39.046875)scale(0.7)" xlink:href="#DejaVuSans-8722"/>
      <use transform="translate(572.579583 39.046875)scale(0.7)" xlink:href="#DejaVuSans-50"/>
     </g>
    </g>
    <g id="line2d_27">
     <path d="M 250.2 107.48 
L 270.2 107.48 
" style="fill:none;stroke:#477706;stroke-linecap:square;stroke-width:1.5;"/>
    </g>
    <g id="line2d_28"/>
    <g id="text_19">
     <!-- 60 $\mu g \cdot cm^{-2}$ -->
     <g transform="translate(278.2 110.98)scale(0.1 -0.1)">
      <use transform="translate(0 0.765625)" xlink:href="#DejaVuSans-54"/>
      <use transform="translate(63.623047 0.765625)" xlink:href="#DejaVuSans-48"/>
      <use transform="translate(127.246094 0.765625)" xlink:href="#DejaVuSans-32"/>
      <use transform="translate(159.033203 0.765625)" xlink:href="#DejaVuSans-Oblique-956"/>
      <use transform="translate(222.65625 0.765625)" xlink:href="#DejaVuSans-Oblique-103"/>
      <use transform="translate(305.615234 0.765625)" xlink:href="#DejaVuSans-8901"/>
      <use transform="translate(356.884766 0.765625)" xlink:href="#DejaVuSans-Oblique-99"/>
      <use transform="translate(411.865234 0.765625)" xlink:href="#DejaVuSans-Oblique-109"/>
      <use transform="translate(513.92724 39.046875)scale(0.7)" xlink:href="#DejaVuSans-8722"/>
      <use transform="translate(572.579583 39.046875)scale(0.7)" xlink:href="#DejaVuSans-50"/>
     </g>
    </g>
   </g>
  </g>
 </g>
 <defs>
  <clipPath id="pda39cfd945">
   <rect height="304.52" width="318.68" x="30.52" y="28.08"/>
  </clipPath>
 </defs>
</svg>
