<?xml version="1.0" encoding="utf-8" standalone="no"?>
<!DOCTYPE svg PUBLIC "-//W3C//DTD SVG 1.1//EN"
  "http://www.w3.org/Graphics/SVG/1.1/DTD/svg11.dtd">
<!-- Created with matplotlib (https://matplotlib.org/) -->
<svg height="360pt" version="1.1" viewBox="0 0 360 360" width="360pt" xmlns="http://www.w3.org/2000/svg" xmlns:xlink="http://www.w3.org/1999/xlink">
 <metadata>
  <rdf:RDF xmlns:cc="http://creativecommons.org/ns#" xmlns:dc="http://purl.org/dc/elements/1.1/" xmlns:rdf="http://www.w3.org/1999/02/22-rdf-syntax-ns#">
   <cc:Work>
    <dc:type rdf:resource="http://purl.org/dc/dcmitype/StillImage"/>
    <dc:date>2020-10-26T17:01:30.749593</dc:date>
    <dc:format>image/svg+xml</dc:format>
    <dc:creator>
     <cc:Agent>
      <dc:title>Matplotlib v3.3.2, https://matplotlib.org/</dc:title>
     </cc:Agent>
    </dc:creator>
   </cc:Work>
  </rdf:RDF>
 </metadata>
 <defs>
  <style type="text/css">*{stroke-linecap:butt;stroke-linejoin:round;}</style>
 </defs>
 <g id="figure_1">
  <g id="patch_1">
   <path d="M 0 360 
L 360 360 
L 360 0 
L 0 0 
z
" style="fill:#ffffff;"/>
  </g>
  <g id="axes_1">
   <g id="patch_2">
    <path d="M 46.04 316.12 
L 349.2 316.12 
L 349.2 28.08 
L 46.04 28.08 
z
" style="fill:#ffffff;"/>
   </g>
   <g id="matplotlib.axis_1">
    <g id="xtick_1">
     <g id="line2d_1">
      <defs>
       <path d="M 0 0 
L 0 3.5 
" id="mdf759972a6" style="stroke:#000000;stroke-width:0.8;"/>
      </defs>
      <g>
       <use style="stroke:#000000;stroke-width:0.8;" x="72.94381" xlink:href="#mdf759972a6" y="316.12"/>
      </g>
     </g>
     <g id="text_1">
      <!-- 0.5 -->
      <g transform="translate(64.992247 330.718437)scale(0.1 -0.1)">
       <defs>
        <path d="M 31.78125 66.40625 
Q 24.171875 66.40625 20.328125 58.90625 
Q 16.5 51.421875 16.5 36.375 
Q 16.5 21.390625 20.328125 13.890625 
Q 24.171875 6.390625 31.78125 6.390625 
Q 39.453125 6.390625 43.28125 13.890625 
Q 47.125 21.390625 47.125 36.375 
Q 47.125 51.421875 43.28125 58.90625 
Q 39.453125 66.40625 31.78125 66.40625 
z
M 31.78125 74.21875 
Q 44.046875 74.21875 50.515625 64.515625 
Q 56.984375 54.828125 56.984375 36.375 
Q 56.984375 17.96875 50.515625 8.265625 
Q 44.046875 -1.421875 31.78125 -1.421875 
Q 19.53125 -1.421875 13.0625 8.265625 
Q 6.59375 17.96875 6.59375 36.375 
Q 6.59375 54.828125 13.0625 64.515625 
Q 19.53125 74.21875 31.78125 74.21875 
z
" id="DejaVuSans-48"/>
        <path d="M 10.6875 12.40625 
L 21 12.40625 
L 21 0 
L 10.6875 0 
z
" id="DejaVuSans-46"/>
        <path d="M 10.796875 72.90625 
L 49.515625 72.90625 
L 49.515625 64.59375 
L 19.828125 64.59375 
L 19.828125 46.734375 
Q 21.96875 47.46875 24.109375 47.828125 
Q 26.265625 48.1875 28.421875 48.1875 
Q 40.625 48.1875 47.75 41.5 
Q 54.890625 34.8125 54.890625 23.390625 
Q 54.890625 11.625 47.5625 5.09375 
Q 40.234375 -1.421875 26.90625 -1.421875 
Q 22.3125 -1.421875 17.546875 -0.640625 
Q 12.796875 0.140625 7.71875 1.703125 
L 7.71875 11.625 
Q 12.109375 9.234375 16.796875 8.0625 
Q 21.484375 6.890625 26.703125 6.890625 
Q 35.15625 6.890625 40.078125 11.328125 
Q 45.015625 15.765625 45.015625 23.390625 
Q 45.015625 31 40.078125 35.4375 
Q 35.15625 39.890625 26.703125 39.890625 
Q 22.75 39.890625 18.8125 39.015625 
Q 14.890625 38.140625 10.796875 36.28125 
z
" id="DejaVuSans-53"/>
       </defs>
       <use xlink:href="#DejaVuSans-48"/>
       <use x="63.623047" xlink:href="#DejaVuSans-46"/>
       <use x="95.410156" xlink:href="#DejaVuSans-53"/>
      </g>
     </g>
    </g>
    <g id="xtick_2">
     <g id="line2d_2">
      <g>
       <use style="stroke:#000000;stroke-width:0.8;" x="138.562857" xlink:href="#mdf759972a6" y="316.12"/>
      </g>
     </g>
     <g id="text_2">
      <!-- 1.0 -->
      <g transform="translate(130.611295 330.718437)scale(0.1 -0.1)">
       <defs>
        <path d="M 12.40625 8.296875 
L 28.515625 8.296875 
L 28.515625 63.921875 
L 10.984375 60.40625 
L 10.984375 69.390625 
L 28.421875 72.90625 
L 38.28125 72.90625 
L 38.28125 8.296875 
L 54.390625 8.296875 
L 54.390625 0 
L 12.40625 0 
z
" id="DejaVuSans-49"/>
       </defs>
       <use xlink:href="#DejaVuSans-49"/>
       <use x="63.623047" xlink:href="#DejaVuSans-46"/>
       <use x="95.410156" xlink:href="#DejaVuSans-48"/>
      </g>
     </g>
    </g>
    <g id="xtick_3">
     <g id="line2d_3">
      <g>
       <use style="stroke:#000000;stroke-width:0.8;" x="204.181905" xlink:href="#mdf759972a6" y="316.12"/>
      </g>
     </g>
     <g id="text_3">
      <!-- 1.5 -->
      <g transform="translate(196.230342 330.718437)scale(0.1 -0.1)">
       <use xlink:href="#DejaVuSans-49"/>
       <use x="63.623047" xlink:href="#DejaVuSans-46"/>
       <use x="95.410156" xlink:href="#DejaVuSans-53"/>
      </g>
     </g>
    </g>
    <g id="xtick_4">
     <g id="line2d_4">
      <g>
       <use style="stroke:#000000;stroke-width:0.8;" x="269.800952" xlink:href="#mdf759972a6" y="316.12"/>
      </g>
     </g>
     <g id="text_4">
      <!-- 2.0 -->
      <g transform="translate(261.84939 330.718437)scale(0.1 -0.1)">
       <defs>
        <path d="M 19.1875 8.296875 
L 53.609375 8.296875 
L 53.609375 0 
L 7.328125 0 
L 7.328125 8.296875 
Q 12.9375 14.109375 22.625 23.890625 
Q 32.328125 33.6875 34.8125 36.53125 
Q 39.546875 41.84375 41.421875 45.53125 
Q 43.3125 49.21875 43.3125 52.78125 
Q 43.3125 58.59375 39.234375 62.25 
Q 35.15625 65.921875 28.609375 65.921875 
Q 23.96875 65.921875 18.8125 64.3125 
Q 13.671875 62.703125 7.8125 59.421875 
L 7.8125 69.390625 
Q 13.765625 71.78125 18.9375 73 
Q 24.125 74.21875 28.421875 74.21875 
Q 39.75 74.21875 46.484375 68.546875 
Q 53.21875 62.890625 53.21875 53.421875 
Q 53.21875 48.921875 51.53125 44.890625 
Q 49.859375 40.875 45.40625 35.40625 
Q 44.1875 33.984375 37.640625 27.21875 
Q 31.109375 20.453125 19.1875 8.296875 
z
" id="DejaVuSans-50"/>
       </defs>
       <use xlink:href="#DejaVuSans-50"/>
       <use x="63.623047" xlink:href="#DejaVuSans-46"/>
       <use x="95.410156" xlink:href="#DejaVuSans-48"/>
      </g>
     </g>
    </g>
    <g id="xtick_5">
     <g id="line2d_5">
      <g>
       <use style="stroke:#000000;stroke-width:0.8;" x="335.42" xlink:href="#mdf759972a6" y="316.12"/>
      </g>
     </g>
     <g id="text_5">
      <!-- 2.5 -->
      <g transform="translate(327.468437 330.718437)scale(0.1 -0.1)">
       <use xlink:href="#DejaVuSans-50"/>
       <use x="63.623047" xlink:href="#DejaVuSans-46"/>
       <use x="95.410156" xlink:href="#DejaVuSans-53"/>
      </g>
     </g>
    </g>
    <g id="text_6">
     <!-- Wavelength ($\mu m$) -->
     <g transform="translate(145.36 345.918125)scale(0.12 -0.12)">
      <defs>
       <path d="M 3.328125 72.90625 
L 13.28125 72.90625 
L 28.609375 11.28125 
L 43.890625 72.90625 
L 54.984375 72.90625 
L 70.3125 11.28125 
L 85.59375 72.90625 
L 95.609375 72.90625 
L 77.296875 0 
L 64.890625 0 
L 49.515625 63.28125 
L 33.984375 0 
L 21.578125 0 
z
" id="DejaVuSans-87"/>
       <path d="M 34.28125 27.484375 
Q 23.390625 27.484375 19.1875 25 
Q 14.984375 22.515625 14.984375 16.5 
Q 14.984375 11.71875 18.140625 8.90625 
Q 21.296875 6.109375 26.703125 6.109375 
Q 34.1875 6.109375 38.703125 11.40625 
Q 43.21875 16.703125 43.21875 25.484375 
L 43.21875 27.484375 
z
M 52.203125 31.203125 
L 52.203125 0 
L 43.21875 0 
L 43.21875 8.296875 
Q 40.140625 3.328125 35.546875 0.953125 
Q 30.953125 -1.421875 24.3125 -1.421875 
Q 15.921875 -1.421875 10.953125 3.296875 
Q 6 8.015625 6 15.921875 
Q 6 25.140625 12.171875 29.828125 
Q 18.359375 34.515625 30.609375 34.515625 
L 43.21875 34.515625 
L 43.21875 35.40625 
Q 43.21875 41.609375 39.140625 45 
Q 35.0625 48.390625 27.6875 48.390625 
Q 23 48.390625 18.546875 47.265625 
Q 14.109375 46.140625 10.015625 43.890625 
L 10.015625 52.203125 
Q 14.9375 54.109375 19.578125 55.046875 
Q 24.21875 56 28.609375 56 
Q 40.484375 56 46.34375 49.84375 
Q 52.203125 43.703125 52.203125 31.203125 
z
" id="DejaVuSans-97"/>
       <path d="M 2.984375 54.6875 
L 12.5 54.6875 
L 29.59375 8.796875 
L 46.6875 54.6875 
L 56.203125 54.6875 
L 35.6875 0 
L 23.484375 0 
z
" id="DejaVuSans-118"/>
       <path d="M 56.203125 29.59375 
L 56.203125 25.203125 
L 14.890625 25.203125 
Q 15.484375 15.921875 20.484375 11.0625 
Q 25.484375 6.203125 34.421875 6.203125 
Q 39.59375 6.203125 44.453125 7.46875 
Q 49.3125 8.734375 54.109375 11.28125 
L 54.109375 2.78125 
Q 49.265625 0.734375 44.1875 -0.34375 
Q 39.109375 -1.421875 33.890625 -1.421875 
Q 20.796875 -1.421875 13.15625 6.1875 
Q 5.515625 13.8125 5.515625 26.8125 
Q 5.515625 40.234375 12.765625 48.109375 
Q 20.015625 56 32.328125 56 
Q 43.359375 56 49.78125 48.890625 
Q 56.203125 41.796875 56.203125 29.59375 
z
M 47.21875 32.234375 
Q 47.125 39.59375 43.09375 43.984375 
Q 39.0625 48.390625 32.421875 48.390625 
Q 24.90625 48.390625 20.390625 44.140625 
Q 15.875 39.890625 15.1875 32.171875 
z
" id="DejaVuSans-101"/>
       <path d="M 9.421875 75.984375 
L 18.40625 75.984375 
L 18.40625 0 
L 9.421875 0 
z
" id="DejaVuSans-108"/>
       <path d="M 54.890625 33.015625 
L 54.890625 0 
L 45.90625 0 
L 45.90625 32.71875 
Q 45.90625 40.484375 42.875 44.328125 
Q 39.84375 48.1875 33.796875 48.1875 
Q 26.515625 48.1875 22.3125 43.546875 
Q 18.109375 38.921875 18.109375 30.90625 
L 18.109375 0 
L 9.078125 0 
L 9.078125 54.6875 
L 18.109375 54.6875 
L 18.109375 46.1875 
Q 21.34375 51.125 25.703125 53.5625 
Q 30.078125 56 35.796875 56 
Q 45.21875 56 50.046875 50.171875 
Q 54.890625 44.34375 54.890625 33.015625 
z
" id="DejaVuSans-110"/>
       <path d="M 45.40625 27.984375 
Q 45.40625 37.75 41.375 43.109375 
Q 37.359375 48.484375 30.078125 48.484375 
Q 22.859375 48.484375 18.828125 43.109375 
Q 14.796875 37.75 14.796875 27.984375 
Q 14.796875 18.265625 18.828125 12.890625 
Q 22.859375 7.515625 30.078125 7.515625 
Q 37.359375 7.515625 41.375 12.890625 
Q 45.40625 18.265625 45.40625 27.984375 
z
M 54.390625 6.78125 
Q 54.390625 -7.171875 48.1875 -13.984375 
Q 42 -20.796875 29.203125 -20.796875 
Q 24.46875 -20.796875 20.265625 -20.09375 
Q 16.0625 -19.390625 12.109375 -17.921875 
L 12.109375 -9.1875 
Q 16.0625 -11.328125 19.921875 -12.34375 
Q 23.78125 -13.375 27.78125 -13.375 
Q 36.625 -13.375 41.015625 -8.765625 
Q 45.40625 -4.15625 45.40625 5.171875 
L 45.40625 9.625 
Q 42.625 4.78125 38.28125 2.390625 
Q 33.9375 0 27.875 0 
Q 17.828125 0 11.671875 7.65625 
Q 5.515625 15.328125 5.515625 27.984375 
Q 5.515625 40.671875 11.671875 48.328125 
Q 17.828125 56 27.875 56 
Q 33.9375 56 38.28125 53.609375 
Q 42.625 51.21875 45.40625 46.390625 
L 45.40625 54.6875 
L 54.390625 54.6875 
z
" id="DejaVuSans-103"/>
       <path d="M 18.3125 70.21875 
L 18.3125 54.6875 
L 36.8125 54.6875 
L 36.8125 47.703125 
L 18.3125 47.703125 
L 18.3125 18.015625 
Q 18.3125 11.328125 20.140625 9.421875 
Q 21.96875 7.515625 27.59375 7.515625 
L 36.8125 7.515625 
L 36.8125 0 
L 27.59375 0 
Q 17.1875 0 13.234375 3.875 
Q 9.28125 7.765625 9.28125 18.015625 
L 9.28125 47.703125 
L 2.6875 47.703125 
L 2.6875 54.6875 
L 9.28125 54.6875 
L 9.28125 70.21875 
z
" id="DejaVuSans-116"/>
       <path d="M 54.890625 33.015625 
L 54.890625 0 
L 45.90625 0 
L 45.90625 32.71875 
Q 45.90625 40.484375 42.875 44.328125 
Q 39.84375 48.1875 33.796875 48.1875 
Q 26.515625 48.1875 22.3125 43.546875 
Q 18.109375 38.921875 18.109375 30.90625 
L 18.109375 0 
L 9.078125 0 
L 9.078125 75.984375 
L 18.109375 75.984375 
L 18.109375 46.1875 
Q 21.34375 51.125 25.703125 53.5625 
Q 30.078125 56 35.796875 56 
Q 45.21875 56 50.046875 50.171875 
Q 54.890625 44.34375 54.890625 33.015625 
z
" id="DejaVuSans-104"/>
       <path id="DejaVuSans-32"/>
       <path d="M 31 75.875 
Q 24.46875 64.65625 21.28125 53.65625 
Q 18.109375 42.671875 18.109375 31.390625 
Q 18.109375 20.125 21.3125 9.0625 
Q 24.515625 -2 31 -13.1875 
L 23.1875 -13.1875 
Q 15.875 -1.703125 12.234375 9.375 
Q 8.59375 20.453125 8.59375 31.390625 
Q 8.59375 42.28125 12.203125 53.3125 
Q 15.828125 64.359375 23.1875 75.875 
z
" id="DejaVuSans-40"/>
       <path d="M -1.3125 -20.796875 
L 13.375 54.6875 
L 22.40625 54.6875 
L 15.765625 20.65625 
Q 15.578125 19.625 15.421875 18.359375 
Q 15.28125 17.09375 15.28125 15.828125 
Q 15.28125 11.28125 18.140625 8.828125 
Q 21 6.390625 26.3125 6.390625 
Q 33.546875 6.390625 37.984375 10.484375 
Q 42.4375 14.59375 44 22.796875 
L 50.203125 54.6875 
L 59.1875 54.6875 
L 51.03125 12.640625 
Q 50.828125 11.71875 50.75 11.03125 
Q 50.6875 10.359375 50.6875 9.8125 
Q 50.6875 8.296875 51.296875 7.59375 
Q 51.90625 6.890625 53.21875 6.890625 
Q 53.71875 6.890625 54.5625 7.125 
Q 55.421875 7.375 56.984375 8.015625 
L 55.609375 0.78125 
Q 53.46875 -0.296875 51.515625 -0.859375 
Q 49.5625 -1.421875 47.703125 -1.421875 
Q 44.484375 -1.421875 42.65625 0.625 
Q 40.828125 2.6875 40.828125 6.296875 
Q 38.09375 2.390625 34.296875 0.484375 
Q 30.515625 -1.421875 25.390625 -1.421875 
Q 20.84375 -1.421875 17.453125 0.671875 
Q 14.0625 2.78125 12.984375 6.203125 
L 7.71875 -20.796875 
z
" id="DejaVuSans-Oblique-956"/>
       <path d="M 89.796875 33.015625 
L 83.40625 0 
L 74.421875 0 
L 80.71875 32.71875 
Q 81.109375 34.8125 81.296875 36.328125 
Q 81.5 37.84375 81.5 38.921875 
Q 81.5 43.3125 79.046875 45.75 
Q 76.609375 48.1875 72.21875 48.1875 
Q 65.671875 48.1875 60.546875 43.28125 
Q 55.421875 38.375 53.90625 30.515625 
L 47.90625 0 
L 38.921875 0 
L 45.3125 32.71875 
Q 45.703125 34.515625 45.890625 36.046875 
Q 46.09375 37.59375 46.09375 38.8125 
Q 46.09375 43.265625 43.65625 45.71875 
Q 41.21875 48.1875 36.921875 48.1875 
Q 30.28125 48.1875 25.140625 43.28125 
Q 20.015625 38.375 18.5 30.515625 
L 12.5 0 
L 3.515625 0 
L 14.203125 54.6875 
L 23.1875 54.6875 
L 21.484375 46.1875 
Q 25.140625 50.984375 30.046875 53.484375 
Q 34.96875 56 40.578125 56 
Q 46.53125 56 50.359375 52.875 
Q 54.203125 49.75 54.984375 44.1875 
Q 59.078125 49.953125 64.46875 52.96875 
Q 69.875 56 75.875 56 
Q 82.90625 56 86.734375 51.953125 
Q 90.578125 47.90625 90.578125 40.484375 
Q 90.578125 38.875 90.375 36.9375 
Q 90.1875 35.015625 89.796875 33.015625 
z
" id="DejaVuSans-Oblique-109"/>
       <path d="M 8.015625 75.875 
L 15.828125 75.875 
Q 23.140625 64.359375 26.78125 53.3125 
Q 30.421875 42.28125 30.421875 31.390625 
Q 30.421875 20.453125 26.78125 9.375 
Q 23.140625 -1.703125 15.828125 -13.1875 
L 8.015625 -13.1875 
Q 14.5 -2 17.703125 9.0625 
Q 20.90625 20.125 20.90625 31.390625 
Q 20.90625 42.671875 17.703125 53.65625 
Q 14.5 64.65625 8.015625 75.875 
z
" id="DejaVuSans-41"/>
      </defs>
      <use transform="translate(0 0.015625)" xlink:href="#DejaVuSans-87"/>
      <use transform="translate(98.876953 0.015625)" xlink:href="#DejaVuSans-97"/>
      <use transform="translate(160.15625 0.015625)" xlink:href="#DejaVuSans-118"/>
      <use transform="translate(219.335938 0.015625)" xlink:href="#DejaVuSans-101"/>
      <use transform="translate(280.859375 0.015625)" xlink:href="#DejaVuSans-108"/>
      <use transform="translate(308.642578 0.015625)" xlink:href="#DejaVuSans-101"/>
      <use transform="translate(370.166016 0.015625)" xlink:href="#DejaVuSans-110"/>
      <use transform="translate(433.544922 0.015625)" xlink:href="#DejaVuSans-103"/>
      <use transform="translate(497.021484 0.015625)" xlink:href="#DejaVuSans-116"/>
      <use transform="translate(536.230469 0.015625)" xlink:href="#DejaVuSans-104"/>
      <use transform="translate(599.609375 0.015625)" xlink:href="#DejaVuSans-32"/>
      <use transform="translate(631.396484 0.015625)" xlink:href="#DejaVuSans-40"/>
      <use transform="translate(670.410156 0.015625)" xlink:href="#DejaVuSans-Oblique-956"/>
      <use transform="translate(734.033203 0.015625)" xlink:href="#DejaVuSans-Oblique-109"/>
      <use transform="translate(831.445312 0.015625)" xlink:href="#DejaVuSans-41"/>
     </g>
    </g>
   </g>
   <g id="matplotlib.axis_2">
    <g id="ytick_1">
     <g id="line2d_6">
      <defs>
       <path d="M 0 0 
L -3.5 0 
" id="m2880ab30e6" style="stroke:#000000;stroke-width:0.8;"/>
      </defs>
      <g>
       <use style="stroke:#000000;stroke-width:0.8;" x="46.04" xlink:href="#m2880ab30e6" y="316.12"/>
      </g>
     </g>
     <g id="text_7">
      <!-- 0 -->
      <g transform="translate(32.6775 319.919219)scale(0.1 -0.1)">
       <use xlink:href="#DejaVuSans-48"/>
      </g>
     </g>
    </g>
    <g id="ytick_2">
     <g id="line2d_7">
      <g>
       <use style="stroke:#000000;stroke-width:0.8;" x="46.04" xlink:href="#m2880ab30e6" y="274.971429"/>
      </g>
     </g>
     <g id="text_8">
      <!-- 10 -->
      <g transform="translate(26.315 278.770647)scale(0.1 -0.1)">
       <use xlink:href="#DejaVuSans-49"/>
       <use x="63.623047" xlink:href="#DejaVuSans-48"/>
      </g>
     </g>
    </g>
    <g id="ytick_3">
     <g id="line2d_8">
      <g>
       <use style="stroke:#000000;stroke-width:0.8;" x="46.04" xlink:href="#m2880ab30e6" y="233.822857"/>
      </g>
     </g>
     <g id="text_9">
      <!-- 20 -->
      <g transform="translate(26.315 237.622076)scale(0.1 -0.1)">
       <use xlink:href="#DejaVuSans-50"/>
       <use x="63.623047" xlink:href="#DejaVuSans-48"/>
      </g>
     </g>
    </g>
    <g id="ytick_4">
     <g id="line2d_9">
      <g>
       <use style="stroke:#000000;stroke-width:0.8;" x="46.04" xlink:href="#m2880ab30e6" y="192.674286"/>
      </g>
     </g>
     <g id="text_10">
      <!-- 30 -->
      <g transform="translate(26.315 196.473504)scale(0.1 -0.1)">
       <defs>
        <path d="M 40.578125 39.3125 
Q 47.65625 37.796875 51.625 33 
Q 55.609375 28.21875 55.609375 21.1875 
Q 55.609375 10.40625 48.1875 4.484375 
Q 40.765625 -1.421875 27.09375 -1.421875 
Q 22.515625 -1.421875 17.65625 -0.515625 
Q 12.796875 0.390625 7.625 2.203125 
L 7.625 11.71875 
Q 11.71875 9.328125 16.59375 8.109375 
Q 21.484375 6.890625 26.8125 6.890625 
Q 36.078125 6.890625 40.9375 10.546875 
Q 45.796875 14.203125 45.796875 21.1875 
Q 45.796875 27.640625 41.28125 31.265625 
Q 36.765625 34.90625 28.71875 34.90625 
L 20.21875 34.90625 
L 20.21875 43.015625 
L 29.109375 43.015625 
Q 36.375 43.015625 40.234375 45.921875 
Q 44.09375 48.828125 44.09375 54.296875 
Q 44.09375 59.90625 40.109375 62.90625 
Q 36.140625 65.921875 28.71875 65.921875 
Q 24.65625 65.921875 20.015625 65.03125 
Q 15.375 64.15625 9.8125 62.3125 
L 9.8125 71.09375 
Q 15.4375 72.65625 20.34375 73.4375 
Q 25.25 74.21875 29.59375 74.21875 
Q 40.828125 74.21875 47.359375 69.109375 
Q 53.90625 64.015625 53.90625 55.328125 
Q 53.90625 49.265625 50.4375 45.09375 
Q 46.96875 40.921875 40.578125 39.3125 
z
" id="DejaVuSans-51"/>
       </defs>
       <use xlink:href="#DejaVuSans-51"/>
       <use x="63.623047" xlink:href="#DejaVuSans-48"/>
      </g>
     </g>
    </g>
    <g id="ytick_5">
     <g id="line2d_10">
      <g>
       <use style="stroke:#000000;stroke-width:0.8;" x="46.04" xlink:href="#m2880ab30e6" y="151.525714"/>
      </g>
     </g>
     <g id="text_11">
      <!-- 40 -->
      <g transform="translate(26.315 155.324933)scale(0.1 -0.1)">
       <defs>
        <path d="M 37.796875 64.3125 
L 12.890625 25.390625 
L 37.796875 25.390625 
z
M 35.203125 72.90625 
L 47.609375 72.90625 
L 47.609375 25.390625 
L 58.015625 25.390625 
L 58.015625 17.1875 
L 47.609375 17.1875 
L 47.609375 0 
L 37.796875 0 
L 37.796875 17.1875 
L 4.890625 17.1875 
L 4.890625 26.703125 
z
" id="DejaVuSans-52"/>
       </defs>
       <use xlink:href="#DejaVuSans-52"/>
       <use x="63.623047" xlink:href="#DejaVuSans-48"/>
      </g>
     </g>
    </g>
    <g id="ytick_6">
     <g id="line2d_11">
      <g>
       <use style="stroke:#000000;stroke-width:0.8;" x="46.04" xlink:href="#m2880ab30e6" y="110.377143"/>
      </g>
     </g>
     <g id="text_12">
      <!-- 50 -->
      <g transform="translate(26.315 114.176362)scale(0.1 -0.1)">
       <use xlink:href="#DejaVuSans-53"/>
       <use x="63.623047" xlink:href="#DejaVuSans-48"/>
      </g>
     </g>
    </g>
    <g id="ytick_7">
     <g id="line2d_12">
      <g>
       <use style="stroke:#000000;stroke-width:0.8;" x="46.04" xlink:href="#m2880ab30e6" y="69.228571"/>
      </g>
     </g>
     <g id="text_13">
      <!-- 60 -->
      <g transform="translate(26.315 73.02779)scale(0.1 -0.1)">
       <defs>
        <path d="M 33.015625 40.375 
Q 26.375 40.375 22.484375 35.828125 
Q 18.609375 31.296875 18.609375 23.390625 
Q 18.609375 15.53125 22.484375 10.953125 
Q 26.375 6.390625 33.015625 6.390625 
Q 39.65625 6.390625 43.53125 10.953125 
Q 47.40625 15.53125 47.40625 23.390625 
Q 47.40625 31.296875 43.53125 35.828125 
Q 39.65625 40.375 33.015625 40.375 
z
M 52.59375 71.296875 
L 52.59375 62.3125 
Q 48.875 64.0625 45.09375 64.984375 
Q 41.3125 65.921875 37.59375 65.921875 
Q 27.828125 65.921875 22.671875 59.328125 
Q 17.53125 52.734375 16.796875 39.40625 
Q 19.671875 43.65625 24.015625 45.921875 
Q 28.375 48.1875 33.59375 48.1875 
Q 44.578125 48.1875 50.953125 41.515625 
Q 57.328125 34.859375 57.328125 23.390625 
Q 57.328125 12.15625 50.6875 5.359375 
Q 44.046875 -1.421875 33.015625 -1.421875 
Q 20.359375 -1.421875 13.671875 8.265625 
Q 6.984375 17.96875 6.984375 36.375 
Q 6.984375 53.65625 15.1875 63.9375 
Q 23.390625 74.21875 37.203125 74.21875 
Q 40.921875 74.21875 44.703125 73.484375 
Q 48.484375 72.75 52.59375 71.296875 
z
" id="DejaVuSans-54"/>
       </defs>
       <use xlink:href="#DejaVuSans-54"/>
       <use x="63.623047" xlink:href="#DejaVuSans-48"/>
      </g>
     </g>
    </g>
    <g id="ytick_8">
     <g id="line2d_13">
      <g>
       <use style="stroke:#000000;stroke-width:0.8;" x="46.04" xlink:href="#m2880ab30e6" y="28.08"/>
      </g>
     </g>
     <g id="text_14">
      <!-- 70 -->
      <g transform="translate(26.315 31.879219)scale(0.1 -0.1)">
       <defs>
        <path d="M 8.203125 72.90625 
L 55.078125 72.90625 
L 55.078125 68.703125 
L 28.609375 0 
L 18.3125 0 
L 43.21875 64.59375 
L 8.203125 64.59375 
z
" id="DejaVuSans-55"/>
       </defs>
       <use xlink:href="#DejaVuSans-55"/>
       <use x="63.623047" xlink:href="#DejaVuSans-48"/>
      </g>
     </g>
    </g>
    <g id="text_15">
     <!-- Reflectance ($\%$) -->
     <g transform="translate(19.819375 219.86)rotate(-90)scale(0.12 -0.12)">
      <defs>
       <path d="M 44.390625 34.1875 
Q 47.5625 33.109375 50.5625 29.59375 
Q 53.5625 26.078125 56.59375 19.921875 
L 66.609375 0 
L 56 0 
L 46.6875 18.703125 
Q 43.0625 26.03125 39.671875 28.421875 
Q 36.28125 30.8125 30.421875 30.8125 
L 19.671875 30.8125 
L 19.671875 0 
L 9.8125 0 
L 9.8125 72.90625 
L 32.078125 72.90625 
Q 44.578125 72.90625 50.734375 67.671875 
Q 56.890625 62.453125 56.890625 51.90625 
Q 56.890625 45.015625 53.6875 40.46875 
Q 50.484375 35.9375 44.390625 34.1875 
z
M 19.671875 64.796875 
L 19.671875 38.921875 
L 32.078125 38.921875 
Q 39.203125 38.921875 42.84375 42.21875 
Q 46.484375 45.515625 46.484375 51.90625 
Q 46.484375 58.296875 42.84375 61.546875 
Q 39.203125 64.796875 32.078125 64.796875 
z
" id="DejaVuSans-82"/>
       <path d="M 37.109375 75.984375 
L 37.109375 68.5 
L 28.515625 68.5 
Q 23.6875 68.5 21.796875 66.546875 
Q 19.921875 64.59375 19.921875 59.515625 
L 19.921875 54.6875 
L 34.71875 54.6875 
L 34.71875 47.703125 
L 19.921875 47.703125 
L 19.921875 0 
L 10.890625 0 
L 10.890625 47.703125 
L 2.296875 47.703125 
L 2.296875 54.6875 
L 10.890625 54.6875 
L 10.890625 58.5 
Q 10.890625 67.625 15.140625 71.796875 
Q 19.390625 75.984375 28.609375 75.984375 
z
" id="DejaVuSans-102"/>
       <path d="M 48.78125 52.59375 
L 48.78125 44.1875 
Q 44.96875 46.296875 41.140625 47.34375 
Q 37.3125 48.390625 33.40625 48.390625 
Q 24.65625 48.390625 19.8125 42.84375 
Q 14.984375 37.3125 14.984375 27.296875 
Q 14.984375 17.28125 19.8125 11.734375 
Q 24.65625 6.203125 33.40625 6.203125 
Q 37.3125 6.203125 41.140625 7.25 
Q 44.96875 8.296875 48.78125 10.40625 
L 48.78125 2.09375 
Q 45.015625 0.34375 40.984375 -0.53125 
Q 36.96875 -1.421875 32.421875 -1.421875 
Q 20.0625 -1.421875 12.78125 6.34375 
Q 5.515625 14.109375 5.515625 27.296875 
Q 5.515625 40.671875 12.859375 48.328125 
Q 20.21875 56 33.015625 56 
Q 37.15625 56 41.109375 55.140625 
Q 45.0625 54.296875 48.78125 52.59375 
z
" id="DejaVuSans-99"/>
       <path d="M 72.703125 32.078125 
Q 68.453125 32.078125 66.03125 28.46875 
Q 63.625 24.859375 63.625 18.40625 
Q 63.625 12.0625 66.03125 8.421875 
Q 68.453125 4.78125 72.703125 4.78125 
Q 76.859375 4.78125 79.265625 8.421875 
Q 81.6875 12.0625 81.6875 18.40625 
Q 81.6875 24.8125 79.265625 28.4375 
Q 76.859375 32.078125 72.703125 32.078125 
z
M 72.703125 38.28125 
Q 80.421875 38.28125 84.953125 32.90625 
Q 89.5 27.546875 89.5 18.40625 
Q 89.5 9.28125 84.9375 3.921875 
Q 80.375 -1.421875 72.703125 -1.421875 
Q 64.890625 -1.421875 60.34375 3.921875 
Q 55.8125 9.28125 55.8125 18.40625 
Q 55.8125 27.59375 60.375 32.9375 
Q 64.9375 38.28125 72.703125 38.28125 
z
M 22.3125 68.015625 
Q 18.109375 68.015625 15.6875 64.375 
Q 13.28125 60.75 13.28125 54.390625 
Q 13.28125 47.953125 15.671875 44.328125 
Q 18.0625 40.71875 22.3125 40.71875 
Q 26.5625 40.71875 28.96875 44.328125 
Q 31.390625 47.953125 31.390625 54.390625 
Q 31.390625 60.6875 28.953125 64.34375 
Q 26.515625 68.015625 22.3125 68.015625 
z
M 66.40625 74.21875 
L 74.21875 74.21875 
L 28.609375 -1.421875 
L 20.796875 -1.421875 
z
M 22.3125 74.21875 
Q 30.03125 74.21875 34.609375 68.875 
Q 39.203125 63.53125 39.203125 54.390625 
Q 39.203125 45.171875 34.640625 39.84375 
Q 30.078125 34.515625 22.3125 34.515625 
Q 14.546875 34.515625 10.03125 39.859375 
Q 5.515625 45.21875 5.515625 54.390625 
Q 5.515625 63.484375 10.046875 68.84375 
Q 14.59375 74.21875 22.3125 74.21875 
z
" id="DejaVuSans-37"/>
      </defs>
      <use transform="translate(0 0.015625)" xlink:href="#DejaVuSans-82"/>
      <use transform="translate(69.482422 0.015625)" xlink:href="#DejaVuSans-101"/>
      <use transform="translate(131.005859 0.015625)" xlink:href="#DejaVuSans-102"/>
      <use transform="translate(166.210938 0.015625)" xlink:href="#DejaVuSans-108"/>
      <use transform="translate(193.994141 0.015625)" xlink:href="#DejaVuSans-101"/>
      <use transform="translate(255.517578 0.015625)" xlink:href="#DejaVuSans-99"/>
      <use transform="translate(310.498047 0.015625)" xlink:href="#DejaVuSans-116"/>
      <use transform="translate(349.707031 0.015625)" xlink:href="#DejaVuSans-97"/>
      <use transform="translate(410.986328 0.015625)" xlink:href="#DejaVuSans-110"/>
      <use transform="translate(474.365234 0.015625)" xlink:href="#DejaVuSans-99"/>
      <use transform="translate(529.345703 0.015625)" xlink:href="#DejaVuSans-101"/>
      <use transform="translate(590.869141 0.015625)" xlink:href="#DejaVuSans-32"/>
      <use transform="translate(622.65625 0.015625)" xlink:href="#DejaVuSans-40"/>
      <use transform="translate(661.669922 0.015625)" xlink:href="#DejaVuSans-37"/>
      <use transform="translate(756.689453 0.015625)" xlink:href="#DejaVuSans-41"/>
     </g>
    </g>
   </g>
   <g id="line2d_14">
    <path clip-path="url(#pbb45ddd7df)" d="M 59.82 306.230932 
L 60.869905 305.853161 
L 62.838476 304.801203 
L 63.888381 304.326672 
L 66.775619 303.13924 
L 68.612952 302.164817 
L 69.794095 301.808982 
L 70.712762 301.508272 
L 71.237714 301.114592 
L 71.762667 300.446663 
L 72.418857 299.163033 
L 72.94381 297.602149 
L 73.6 294.826469 
L 74.25619 290.904844 
L 74.912381 285.556352 
L 75.831048 275.814884 
L 78.587048 244.43304 
L 79.636952 235.07312 
L 80.161905 232.415783 
L 80.424381 232.018661 
L 80.555619 232.092772 
L 80.818095 232.712028 
L 81.343048 235.100063 
L 81.999238 239.391046 
L 83.311619 248.286147 
L 84.099048 251.814434 
L 84.755238 253.863744 
L 85.411429 255.118432 
L 86.461333 256.877844 
L 86.986286 258.51694 
L 88.954857 266.004978 
L 89.47981 266.772059 
L 90.398476 267.501394 
L 90.79219 268.482926 
L 91.317143 270.909439 
L 92.760762 278.594162 
L 93.54819 281.400534 
L 94.204381 284.995642 
L 94.860571 288.292316 
L 95.254286 289.373005 
L 95.516762 289.697802 
L 95.779238 289.740961 
L 96.041714 289.540608 
L 96.30419 289.068526 
L 96.566667 288.221088 
L 96.960381 285.823192 
L 97.354095 281.315543 
L 97.74781 273.884671 
L 98.272762 258.929527 
L 99.191429 223.953756 
L 100.241333 186.012562 
L 101.422476 151.917565 
L 102.472381 127.796359 
L 103.25981 114.368439 
L 103.916 106.263872 
L 104.57219 100.548149 
L 105.228381 96.678274 
L 105.884571 94.178722 
L 106.803238 91.566935 
L 107.459429 90.153571 
L 108.115619 89.237938 
L 108.77181 88.689858 
L 109.559238 88.337862 
L 114.546286 87.285057 
L 115.59619 87.253042 
L 116.646095 87.614998 
L 117.958476 87.683811 
L 119.533333 87.597845 
L 120.320762 87.593976 
L 121.370667 87.52273 
L 122.55181 87.548721 
L 124.126667 87.666106 
L 124.914095 87.718076 
L 126.226476 87.795501 
L 127.145143 88.027555 
L 127.538857 88.12343 
L 127.932571 88.373865 
L 128.195048 88.532885 
L 128.588762 88.992907 
L 129.113714 89.583812 
L 129.37619 90.212582 
L 129.901143 90.948308 
L 130.163619 91.630355 
L 131.738476 96.116481 
L 133.182095 103.703615 
L 133.57581 105.089396 
L 133.969524 105.412562 
L 134.363238 105.662754 
L 135.544381 105.91066 
L 135.938095 105.689997 
L 136.594286 105.147352 
L 137.381714 104.073976 
L 140.137714 99.012997 
L 141.975048 95.252673 
L 142.762476 93.772363 
L 143.15619 93.088684 
L 144.206095 91.441181 
L 146.043429 89.619975 
L 147.487048 88.918783 
L 148.405714 88.844547 
L 148.930667 88.922928 
L 149.193143 88.985133 
L 151.030476 90.190688 
L 151.686667 90.955874 
L 152.080381 91.427381 
L 153.130286 92.546779 
L 153.392762 92.940884 
L 153.786476 92.988357 
L 154.573905 94.314598 
L 155.230095 95.985537 
L 155.886286 99.305316 
L 157.067429 110.67535 
L 157.723619 118.41677 
L 158.117333 121.545085 
L 159.036 127.564909 
L 160.085905 129.575842 
L 160.348381 129.679616 
L 160.742095 129.849256 
L 160.873333 129.87248 
L 161.13581 130.352265 
L 161.398286 130.676161 
L 161.792 130.525423 
L 163.89181 131.787237 
L 164.548 132.000288 
L 165.072952 131.48907 
L 165.335429 131.670133 
L 165.597905 131.449337 
L 165.860381 131.259085 
L 166.122857 131.264499 
L 166.516571 130.93162 
L 166.910286 130.962941 
L 167.435238 130.358689 
L 167.828952 130.393382 
L 168.222667 130.242446 
L 168.616381 130.285153 
L 169.535048 129.811569 
L 169.797524 129.842229 
L 170.06 129.941101 
L 170.322476 129.897205 
L 170.71619 129.694484 
L 171.372381 129.620069 
L 171.766095 129.481046 
L 172.15981 129.69867 
L 172.553524 129.868106 
L 173.078476 129.765566 
L 173.997143 130.218283 
L 174.390857 130.81543 
L 174.784571 131.43895 
L 175.309524 132.091304 
L 176.490667 134.455732 
L 177.015619 135.679366 
L 177.803048 138.078853 
M 197.62 290.493613 
L 198.801143 290.202891 
L 199.063619 290.012713 
L 199.457333 289.580115 
L 200.113524 288.544133 
L 201.950857 284.181974 
L 203.78819 278.357023 
L 206.019238 269.989043 
L 206.937905 266.220713 
L 207.200381 265.193141 
L 207.856571 262.577123 
L 211.793714 247.536748 
L 216.780762 232.612423 
L 218.224381 228.990256 
L 218.618095 228.290131 
L 219.799238 225.939214 
L 220.061714 225.503618 
L 221.111619 223.607375 
L 223.08019 221.19076 
L 223.473905 220.646314 
L 223.605143 220.638573 
L 223.867619 220.355316 
L 223.998857 220.278036 
L 224.130095 220.341873 
L 224.261333 220.139874 
L 224.392571 220.318425 
L 224.52381 220.251427 
L 224.655048 220.346613 
L 224.786286 220.22657 
L 225.048762 220.468689 
L 226.492381 221.311507 
L 226.623619 220.845791 
L 226.886095 221.095124 
L 228.460952 223.040141 
L 229.117143 224.07951 
L 229.510857 224.457442 
L 230.03581 225.33188 
L 232.529333 229.816502 
L 232.79181 230.298631 
L 233.579238 231.62752 
L 234.366667 232.713458 
L 234.629143 232.933133 
L 234.891619 233.260321 
L 235.54781 233.963041 
L 237.647619 238.376707 
L 238.30381 240.020092 
L 238.828762 241.014003 
L 239.484952 241.974384 
L 239.747429 242.220661 
L 239.878667 242.230578 
L 240.141143 242.536036 
L 240.403619 242.765669 
L 240.666095 242.766884 
L 242.240952 243.973456 
L 242.503429 243.947319 
L 243.028381 244.000013 
L 243.422095 243.792884 
M 264.551429 309.118248 
L 265.470095 308.983609 
L 266.651238 308.67201 
L 267.438667 308.393219 
L 271.113333 306.086903 
L 272.294476 305.113501 
L 273.081905 304.468521 
L 273.869333 303.803052 
L 274.656762 303.167323 
L 275.181714 302.69174 
L 275.575429 302.416572 
L 276.88781 301.278423 
L 277.281524 300.977254 
L 278.725143 299.479268 
L 279.250095 298.972763 
L 280.693714 297.429285 
L 280.95619 297.190372 
L 281.743619 296.355081 
L 283.449714 294.533357 
L 284.237143 293.762429 
L 285.812 292.189101 
L 286.599429 291.48984 
L 287.649333 290.578645 
L 288.174286 290.247001 
L 288.961714 289.680561 
L 290.011619 288.99819 
L 293.817524 286.712916 
L 295.261143 285.924005 
L 298.279619 285.208943 
L 299.592 285.469532 
L 300.24819 285.8902 
L 301.429333 287.194734 
L 302.479238 288.805383 
L 305.235238 292.807787 
L 307.728762 295.579691 
L 308.51619 296.409871 
L 309.697333 297.565519 
L 310.222286 298.004236 
L 311.797143 298.975726 
L 312.322095 299.359426 
L 314.290667 300.925555 
L 314.553143 301.188433 
L 315.996762 302.19595 
L 317.177905 302.884493 
L 317.440381 303.097765 
L 318.359048 303.649232 
L 318.752762 303.932537 
L 319.277714 304.258488 
L 324.264762 307.224315 
L 328.595619 309.367504 
L 330.301714 309.979528 
L 331.089143 310.220636 
L 334.107619 310.73864 
L 335.42 310.802389 
L 335.42 310.802389 
" style="fill:none;stroke:#bfce68;stroke-linecap:square;stroke-width:1.5;"/>
   </g>
   <g id="line2d_15">
    <path clip-path="url(#pbb45ddd7df)" d="M 59.82 306.266767 
L 61.001143 305.944094 
L 62.576 305.337193 
L 64.150857 304.81767 
L 69.794095 303.581412 
L 70.844 303.362753 
L 71.50019 302.997138 
L 72.156381 302.30341 
L 72.681333 301.377353 
L 73.206286 299.976808 
L 73.731238 297.976827 
L 74.387429 294.386431 
L 75.043619 289.373333 
L 77.537143 267.988256 
L 78.324571 264.356166 
L 79.374476 260.764161 
L 79.899429 259.654759 
L 80.161905 259.483992 
L 80.424381 259.667352 
L 80.818095 260.57844 
L 81.343048 262.643168 
L 81.999238 266.272079 
L 83.180381 272.958132 
L 83.96781 275.933688 
L 84.755238 277.91011 
L 85.411429 278.882253 
L 86.461333 280.232781 
L 86.986286 281.46291 
L 88.954857 286.866521 
L 89.47981 287.406685 
L 90.398476 287.925405 
L 90.79219 288.594612 
L 91.317143 290.211596 
L 92.629524 294.720255 
L 93.941905 297.676146 
L 94.729333 299.72665 
L 95.123048 300.236364 
L 95.516762 300.371573 
L 95.910476 300.201581 
L 96.30419 299.757964 
L 96.697905 298.940785 
L 97.091619 297.445431 
L 97.485333 294.636591 
L 97.879048 289.582184 
L 98.272762 281.619351 
L 98.928952 262.445442 
L 102.078667 159.547292 
L 103.128571 132.4445 
L 103.916 117.301731 
L 104.57219 108.206053 
L 105.228381 101.882649 
L 105.884571 97.764251 
L 106.803238 93.491098 
L 107.459429 91.230511 
L 108.115619 89.734042 
L 108.640571 88.981408 
L 109.296762 88.45114 
L 110.08419 88.216027 
L 111.52781 87.826938 
L 113.496381 87.413618 
L 114.94 87.23592 
L 115.989905 87.34119 
L 116.514857 87.553256 
L 116.908571 87.637036 
L 117.564762 87.695002 
L 123.076762 87.588831 
L 124.389143 87.701922 
L 125.439048 87.738075 
L 126.751429 87.883358 
L 127.538857 88.12343 
L 127.932571 88.373865 
L 128.195048 88.532885 
L 128.588762 88.992907 
L 129.113714 89.583812 
L 129.37619 90.212582 
L 129.901143 90.948308 
L 130.163619 91.630355 
L 131.738476 96.116481 
L 133.182095 103.703615 
L 133.57581 105.089396 
L 133.969524 105.412562 
L 134.363238 105.662754 
L 135.544381 105.91066 
L 135.938095 105.689997 
L 136.594286 105.147352 
L 137.381714 104.073976 
L 140.137714 99.012997 
L 141.975048 95.252673 
L 142.762476 93.772363 
L 143.15619 93.088684 
L 144.206095 91.441181 
L 146.043429 89.619975 
L 147.487048 88.918783 
L 148.405714 88.844547 
L 148.930667 88.922928 
L 149.193143 88.985133 
L 151.030476 90.190688 
L 151.686667 90.955874 
L 152.080381 91.427381 
L 153.130286 92.546779 
L 153.392762 92.940884 
L 153.786476 92.988357 
L 154.573905 94.314598 
L 155.230095 95.985537 
L 155.886286 99.305316 
L 157.067429 110.67535 
L 157.723619 118.41677 
L 158.117333 121.545085 
L 159.036 127.564909 
L 160.085905 129.575842 
L 160.348381 129.679616 
L 160.742095 129.849256 
L 160.873333 129.87248 
L 161.13581 130.352265 
L 161.398286 130.676161 
L 161.792 130.525423 
L 163.89181 131.787237 
L 164.548 132.000288 
L 165.072952 131.48907 
L 165.335429 131.670133 
L 165.597905 131.449337 
L 165.860381 131.259085 
L 166.122857 131.264499 
L 166.516571 130.93162 
L 166.910286 130.962941 
L 167.435238 130.358689 
L 167.828952 130.393382 
L 168.222667 130.242446 
L 168.616381 130.285153 
L 169.535048 129.811569 
L 169.797524 129.842229 
L 170.06 129.941101 
L 170.322476 129.897205 
L 170.71619 129.694484 
L 171.372381 129.620069 
L 171.766095 129.481046 
L 172.15981 129.69867 
L 172.553524 129.868106 
L 173.078476 129.765566 
L 173.997143 130.218283 
L 174.390857 130.81543 
L 174.784571 131.43895 
L 175.309524 132.091304 
L 176.490667 134.455732 
L 177.015619 135.679366 
L 177.803048 138.078853 
M 197.62 290.493613 
L 198.801143 290.202891 
L 199.063619 290.012713 
L 199.457333 289.580115 
L 200.113524 288.544133 
L 201.950857 284.181974 
L 203.78819 278.357023 
L 206.019238 269.989043 
L 206.937905 266.220713 
L 207.200381 265.193141 
L 207.856571 262.577123 
L 211.793714 247.536748 
L 216.780762 232.612423 
L 218.224381 228.990256 
L 218.618095 228.290131 
L 219.799238 225.939214 
L 220.061714 225.503618 
L 221.111619 223.607375 
L 223.08019 221.19076 
L 223.473905 220.646314 
L 223.605143 220.638573 
L 223.867619 220.355316 
L 223.998857 220.278036 
L 224.130095 220.341873 
L 224.261333 220.139874 
L 224.392571 220.318425 
L 224.52381 220.251427 
L 224.655048 220.346613 
L 224.786286 220.22657 
L 225.048762 220.468689 
L 226.492381 221.311507 
L 226.623619 220.845791 
L 226.886095 221.095124 
L 228.460952 223.040141 
L 229.117143 224.07951 
L 229.510857 224.457442 
L 230.03581 225.33188 
L 232.529333 229.816502 
L 232.79181 230.298631 
L 233.579238 231.62752 
L 234.366667 232.713458 
L 234.629143 232.933133 
L 234.891619 233.260321 
L 235.54781 233.963041 
L 237.647619 238.376707 
L 238.30381 240.020092 
L 238.828762 241.014003 
L 239.484952 241.974384 
L 239.747429 242.220661 
L 239.878667 242.230578 
L 240.141143 242.536036 
L 240.403619 242.765669 
L 240.666095 242.766884 
L 242.240952 243.973456 
L 242.503429 243.947319 
L 243.028381 244.000013 
L 243.422095 243.792884 
M 264.551429 309.118248 
L 265.470095 308.983609 
L 266.651238 308.67201 
L 267.438667 308.393219 
L 271.113333 306.086903 
L 272.294476 305.113501 
L 273.081905 304.468521 
L 273.869333 303.803052 
L 274.656762 303.167323 
L 275.181714 302.69174 
L 275.575429 302.416572 
L 276.88781 301.278423 
L 277.281524 300.977254 
L 278.725143 299.479268 
L 279.250095 298.972763 
L 280.693714 297.429285 
L 280.95619 297.190372 
L 281.743619 296.355081 
L 283.449714 294.533357 
L 284.237143 293.762429 
L 285.812 292.189101 
L 286.599429 291.48984 
L 287.649333 290.578645 
L 288.174286 290.247001 
L 288.961714 289.680561 
L 290.011619 288.99819 
L 293.817524 286.712916 
L 295.261143 285.924005 
L 298.279619 285.208943 
L 299.592 285.469532 
L 300.24819 285.8902 
L 301.429333 287.194734 
L 302.479238 288.805383 
L 305.235238 292.807787 
L 307.728762 295.579691 
L 308.51619 296.409871 
L 309.697333 297.565519 
L 310.222286 298.004236 
L 311.797143 298.975726 
L 312.322095 299.359426 
L 314.290667 300.925555 
L 314.553143 301.188433 
L 315.996762 302.19595 
L 317.177905 302.884493 
L 317.440381 303.097765 
L 318.359048 303.649232 
L 318.752762 303.932537 
L 319.277714 304.258488 
L 324.264762 307.224315 
L 328.595619 309.367504 
L 330.301714 309.979528 
L 331.089143 310.220636 
L 334.107619 310.73864 
L 335.42 310.802389 
L 335.42 310.802389 
" style="fill:none;stroke:#aac03b;stroke-linecap:square;stroke-width:1.5;"/>
   </g>
   <g id="line2d_16">
    <path clip-path="url(#pbb45ddd7df)" d="M 59.82 306.290939 
L 61.001143 306.013069 
L 62.576 305.481118 
L 64.150857 305.01451 
L 66.119429 304.706294 
L 69.662857 304.417699 
L 71.237714 304.215269 
L 71.893905 303.919688 
L 72.418857 303.47087 
L 72.94381 302.67644 
L 73.468762 301.409225 
L 73.993714 299.494789 
L 74.518667 296.763848 
L 75.174857 292.111746 
L 76.880952 279.166811 
L 77.405905 277.002638 
L 77.930857 275.805696 
L 78.45581 275.190923 
L 79.636952 274.171896 
L 80.030667 274.169198 
L 80.293143 274.412122 
L 80.555619 274.848393 
L 81.080571 276.25798 
L 81.736762 278.942457 
L 83.311619 286.112202 
L 84.099048 288.304412 
L 84.755238 289.543159 
L 85.411429 290.295213 
L 86.592571 291.536817 
L 87.117524 292.542429 
L 88.692381 295.868936 
L 89.217333 296.416577 
L 89.873524 296.696796 
L 90.398476 296.937283 
L 90.79219 297.396604 
L 91.317143 298.481286 
L 92.498286 301.11133 
L 93.154476 301.8673 
L 93.941905 302.883112 
L 94.598095 303.64413 
L 94.99181 303.81657 
L 95.385524 303.783173 
L 95.910476 303.505036 
L 96.566667 302.845976 
L 97.091619 301.966193 
L 97.354095 301.179207 
L 97.616571 299.840814 
L 98.010286 296.139493 
L 98.404 289.786245 
L 98.928952 277.249207 
L 100.110095 240.901626 
L 103.522286 135.882885 
L 104.309714 119.570474 
L 104.965905 109.827754 
L 105.622095 103.183325 
L 106.540762 96.871077 
L 107.32819 92.823405 
L 107.984381 90.57077 
L 108.509333 89.402003 
L 109.034286 88.697616 
L 109.559238 88.343389 
L 113.233905 87.456789 
L 114.152571 87.328729 
L 115.464952 87.226263 
L 116.514857 87.553256 
L 116.908571 87.637036 
L 117.564762 87.695002 
L 123.076762 87.588831 
L 124.389143 87.701922 
L 125.439048 87.738075 
L 126.751429 87.883358 
L 127.538857 88.12343 
L 127.932571 88.373865 
L 128.195048 88.532885 
L 128.588762 88.992907 
L 129.113714 89.583812 
L 129.37619 90.212582 
L 129.901143 90.948308 
L 130.163619 91.630355 
L 131.738476 96.116481 
L 133.182095 103.703615 
L 133.57581 105.089396 
L 133.969524 105.412562 
L 134.363238 105.662754 
L 135.544381 105.91066 
L 135.938095 105.689997 
L 136.594286 105.147352 
L 137.381714 104.073976 
L 140.137714 99.012997 
L 141.975048 95.252673 
L 142.762476 93.772363 
L 143.15619 93.088684 
L 144.206095 91.441181 
L 146.043429 89.619975 
L 147.487048 88.918783 
L 148.405714 88.844547 
L 148.930667 88.922928 
L 149.193143 88.985133 
L 151.030476 90.190688 
L 151.686667 90.955874 
L 152.080381 91.427381 
L 153.130286 92.546779 
L 153.392762 92.940884 
L 153.786476 92.988357 
L 154.573905 94.314598 
L 155.230095 95.985537 
L 155.886286 99.305316 
L 157.067429 110.67535 
L 157.723619 118.41677 
L 158.117333 121.545085 
L 159.036 127.564909 
L 160.085905 129.575842 
L 160.348381 129.679616 
L 160.742095 129.849256 
L 160.873333 129.87248 
L 161.13581 130.352265 
L 161.398286 130.676161 
L 161.792 130.525423 
L 163.89181 131.787237 
L 164.548 132.000288 
L 165.072952 131.48907 
L 165.335429 131.670133 
L 165.597905 131.449337 
L 165.860381 131.259085 
L 166.122857 131.264499 
L 166.516571 130.93162 
L 166.910286 130.962941 
L 167.435238 130.358689 
L 167.828952 130.393382 
L 168.222667 130.242446 
L 168.616381 130.285153 
L 169.535048 129.811569 
L 169.797524 129.842229 
L 170.06 129.941101 
L 170.322476 129.897205 
L 170.71619 129.694484 
L 171.372381 129.620069 
L 171.766095 129.481046 
L 172.15981 129.69867 
L 172.553524 129.868106 
L 173.078476 129.765566 
L 173.997143 130.218283 
L 174.390857 130.81543 
L 174.784571 131.43895 
L 175.309524 132.091304 
L 176.490667 134.455732 
L 177.015619 135.679366 
L 177.803048 138.078853 
M 197.62 290.493613 
L 198.801143 290.202891 
L 199.063619 290.012713 
L 199.457333 289.580115 
L 200.113524 288.544133 
L 201.950857 284.181974 
L 203.78819 278.357023 
L 206.019238 269.989043 
L 206.937905 266.220713 
L 207.200381 265.193141 
L 207.856571 262.577123 
L 211.793714 247.536748 
L 216.780762 232.612423 
L 218.224381 228.990256 
L 218.618095 228.290131 
L 219.799238 225.939214 
L 220.061714 225.503618 
L 221.111619 223.607375 
L 223.08019 221.19076 
L 223.473905 220.646314 
L 223.605143 220.638573 
L 223.867619 220.355316 
L 223.998857 220.278036 
L 224.130095 220.341873 
L 224.261333 220.139874 
L 224.392571 220.318425 
L 224.52381 220.251427 
L 224.655048 220.346613 
L 224.786286 220.22657 
L 225.048762 220.468689 
L 226.492381 221.311507 
L 226.623619 220.845791 
L 226.886095 221.095124 
L 228.460952 223.040141 
L 229.117143 224.07951 
L 229.510857 224.457442 
L 230.03581 225.33188 
L 232.529333 229.816502 
L 232.79181 230.298631 
L 233.579238 231.62752 
L 234.366667 232.713458 
L 234.629143 232.933133 
L 234.891619 233.260321 
L 235.54781 233.963041 
L 237.647619 238.376707 
L 238.30381 240.020092 
L 238.828762 241.014003 
L 239.484952 241.974384 
L 239.747429 242.220661 
L 239.878667 242.230578 
L 240.141143 242.536036 
L 240.403619 242.765669 
L 240.666095 242.766884 
L 242.240952 243.973456 
L 242.503429 243.947319 
L 243.028381 244.000013 
L 243.422095 243.792884 
M 264.551429 309.118248 
L 265.470095 308.983609 
L 266.651238 308.67201 
L 267.438667 308.393219 
L 271.113333 306.086903 
L 272.294476 305.113501 
L 273.081905 304.468521 
L 273.869333 303.803052 
L 274.656762 303.167323 
L 275.181714 302.69174 
L 275.575429 302.416572 
L 276.88781 301.278423 
L 277.281524 300.977254 
L 278.725143 299.479268 
L 279.250095 298.972763 
L 280.693714 297.429285 
L 280.95619 297.190372 
L 281.743619 296.355081 
L 283.449714 294.533357 
L 284.237143 293.762429 
L 285.812 292.189101 
L 286.599429 291.48984 
L 287.649333 290.578645 
L 288.174286 290.247001 
L 288.961714 289.680561 
L 290.011619 288.99819 
L 293.817524 286.712916 
L 295.261143 285.924005 
L 298.279619 285.208943 
L 299.592 285.469532 
L 300.24819 285.8902 
L 301.429333 287.194734 
L 302.479238 288.805383 
L 305.235238 292.807787 
L 307.728762 295.579691 
L 308.51619 296.409871 
L 309.697333 297.565519 
L 310.222286 298.004236 
L 311.797143 298.975726 
L 312.322095 299.359426 
L 314.290667 300.925555 
L 314.553143 301.188433 
L 315.996762 302.19595 
L 317.177905 302.884493 
L 317.440381 303.097765 
L 318.359048 303.649232 
L 318.752762 303.932537 
L 319.277714 304.258488 
L 324.264762 307.224315 
L 328.595619 309.367504 
L 330.301714 309.979528 
L 331.089143 310.220636 
L 334.107619 310.73864 
L 335.42 310.802389 
L 335.42 310.802389 
" style="fill:none;stroke:#8fb926;stroke-linecap:square;stroke-width:1.5;"/>
   </g>
   <g id="line2d_17">
    <path clip-path="url(#pbb45ddd7df)" d="M 59.82 306.307298 
L 60.869905 306.084515 
L 64.938286 304.951103 
L 66.381905 304.819062 
L 72.156381 304.550062 
L 72.681333 304.196092 
L 73.206286 303.506472 
L 73.731238 302.314581 
L 74.25619 300.428703 
L 74.781143 297.692346 
L 75.69981 291.26242 
L 76.487238 286.044849 
L 77.01219 283.891216 
L 77.405905 283.053995 
L 77.799619 282.741366 
L 78.193333 282.780549 
L 79.76819 283.156099 
L 80.161905 283.449327 
L 80.686857 284.339875 
L 81.21181 285.678444 
L 81.868 288.07087 
L 83.049143 292.638756 
L 83.836571 294.630358 
L 84.492762 295.759329 
L 85.148952 296.488638 
L 86.855048 297.978281 
L 88.954857 301.04883 
L 89.47981 301.320834 
L 90.529714 301.666561 
L 91.054667 302.228572 
L 92.629524 304.345151 
L 94.073143 305.173501 
L 94.598095 305.29364 
L 95.123048 305.165688 
L 95.910476 304.704639 
L 97.354095 303.533119 
L 97.616571 302.91944 
L 97.879048 301.672087 
L 98.272762 297.987547 
L 98.666476 291.751145 
L 99.322667 276.417675 
L 100.635048 238.430085 
L 102.341143 182.662862 
L 103.653524 142.524438 
L 104.440952 124.300966 
L 105.097143 113.265603 
L 105.753333 105.762185 
L 106.672 98.142148 
L 107.459429 93.348701 
L 108.115619 90.718645 
L 108.640571 89.390344 
L 109.165524 88.625269 
L 109.559238 88.346153 
L 112.446476 87.609776 
L 115.333714 87.232109 
L 115.858667 87.319591 
L 116.383619 87.482135 
L 116.777333 87.632102 
L 119.139619 87.614638 
L 122.683048 87.549981 
L 123.470476 87.625305 
L 124.782857 87.692002 
L 125.832762 87.78896 
L 126.488952 87.870524 
L 127.013905 87.982693 
L 128.06381 88.410506 
L 128.982476 89.364003 
L 130.032381 91.197597 
L 130.426095 92.230134 
L 130.557333 92.420461 
L 131.738476 96.116481 
L 133.182095 103.703615 
L 133.57581 105.089396 
L 133.969524 105.412562 
L 134.363238 105.662754 
L 135.544381 105.91066 
L 135.938095 105.689997 
L 136.594286 105.147352 
L 137.381714 104.073976 
L 140.137714 99.012997 
L 141.975048 95.252673 
L 142.762476 93.772363 
L 143.15619 93.088684 
L 144.206095 91.441181 
L 146.043429 89.619975 
L 147.487048 88.918783 
L 148.405714 88.844547 
L 148.930667 88.922928 
L 149.193143 88.985133 
L 151.030476 90.190688 
L 151.686667 90.955874 
L 152.080381 91.427381 
L 153.130286 92.546779 
L 153.392762 92.940884 
L 153.786476 92.988357 
L 154.573905 94.314598 
L 155.230095 95.985537 
L 155.886286 99.305316 
L 157.067429 110.67535 
L 157.723619 118.41677 
L 158.117333 121.545085 
L 159.036 127.564909 
L 160.085905 129.575842 
L 160.348381 129.679616 
L 160.742095 129.849256 
L 160.873333 129.87248 
L 161.13581 130.352265 
L 161.398286 130.676161 
L 161.792 130.525423 
L 163.89181 131.787237 
L 164.548 132.000288 
L 165.072952 131.48907 
L 165.335429 131.670133 
L 165.597905 131.449337 
L 165.860381 131.259085 
L 166.122857 131.264499 
L 166.516571 130.93162 
L 166.910286 130.962941 
L 167.435238 130.358689 
L 167.828952 130.393382 
L 168.222667 130.242446 
L 168.616381 130.285153 
L 169.535048 129.811569 
L 169.797524 129.842229 
L 170.06 129.941101 
L 170.322476 129.897205 
L 170.71619 129.694484 
L 171.372381 129.620069 
L 171.766095 129.481046 
L 172.15981 129.69867 
L 172.553524 129.868106 
L 173.078476 129.765566 
L 173.997143 130.218283 
L 174.390857 130.81543 
L 174.784571 131.43895 
L 175.309524 132.091304 
L 176.490667 134.455732 
L 177.015619 135.679366 
L 177.803048 138.078853 
M 197.62 290.493613 
L 198.801143 290.202891 
L 199.063619 290.012713 
L 199.457333 289.580115 
L 200.113524 288.544133 
L 201.950857 284.181974 
L 203.78819 278.357023 
L 206.019238 269.989043 
L 206.937905 266.220713 
L 207.200381 265.193141 
L 207.856571 262.577123 
L 211.793714 247.536748 
L 216.780762 232.612423 
L 218.224381 228.990256 
L 218.618095 228.290131 
L 219.799238 225.939214 
L 220.061714 225.503618 
L 221.111619 223.607375 
L 223.08019 221.19076 
L 223.473905 220.646314 
L 223.605143 220.638573 
L 223.867619 220.355316 
L 223.998857 220.278036 
L 224.130095 220.341873 
L 224.261333 220.139874 
L 224.392571 220.318425 
L 224.52381 220.251427 
L 224.655048 220.346613 
L 224.786286 220.22657 
L 225.048762 220.468689 
L 226.492381 221.311507 
L 226.623619 220.845791 
L 226.886095 221.095124 
L 228.460952 223.040141 
L 229.117143 224.07951 
L 229.510857 224.457442 
L 230.03581 225.33188 
L 232.529333 229.816502 
L 232.79181 230.298631 
L 233.579238 231.62752 
L 234.366667 232.713458 
L 234.629143 232.933133 
L 234.891619 233.260321 
L 235.54781 233.963041 
L 237.647619 238.376707 
L 238.30381 240.020092 
L 238.828762 241.014003 
L 239.484952 241.974384 
L 239.747429 242.220661 
L 239.878667 242.230578 
L 240.141143 242.536036 
L 240.403619 242.765669 
L 240.666095 242.766884 
L 242.240952 243.973456 
L 242.503429 243.947319 
L 243.028381 244.000013 
L 243.422095 243.792884 
M 264.551429 309.118248 
L 265.470095 308.983609 
L 266.651238 308.67201 
L 267.438667 308.393219 
L 271.113333 306.086903 
L 272.294476 305.113501 
L 273.081905 304.468521 
L 273.869333 303.803052 
L 274.656762 303.167323 
L 275.181714 302.69174 
L 275.575429 302.416572 
L 276.88781 301.278423 
L 277.281524 300.977254 
L 278.725143 299.479268 
L 279.250095 298.972763 
L 280.693714 297.429285 
L 280.95619 297.190372 
L 281.743619 296.355081 
L 283.449714 294.533357 
L 284.237143 293.762429 
L 285.812 292.189101 
L 286.599429 291.48984 
L 287.649333 290.578645 
L 288.174286 290.247001 
L 288.961714 289.680561 
L 290.011619 288.99819 
L 293.817524 286.712916 
L 295.261143 285.924005 
L 298.279619 285.208943 
L 299.592 285.469532 
L 300.24819 285.8902 
L 301.429333 287.194734 
L 302.479238 288.805383 
L 305.235238 292.807787 
L 307.728762 295.579691 
L 308.51619 296.409871 
L 309.697333 297.565519 
L 310.222286 298.004236 
L 311.797143 298.975726 
L 312.322095 299.359426 
L 314.290667 300.925555 
L 314.553143 301.188433 
L 315.996762 302.19595 
L 317.177905 302.884493 
L 317.440381 303.097765 
L 318.359048 303.649232 
L 318.752762 303.932537 
L 319.277714 304.258488 
L 324.264762 307.224315 
L 328.595619 309.367504 
L 330.301714 309.979528 
L 331.089143 310.220636 
L 334.107619 310.73864 
L 335.42 310.802389 
L 335.42 310.802389 
" style="fill:none;stroke:#67a612;stroke-linecap:square;stroke-width:1.5;"/>
   </g>
   <g id="line2d_18">
    <path clip-path="url(#pbb45ddd7df)" d="M 59.82 306.318406 
L 60.869905 306.098615 
L 64.938286 304.977778 
L 66.250667 304.874346 
L 72.681333 304.871488 
L 73.075048 304.580975 
L 73.468762 304.065183 
L 73.862476 303.240526 
L 74.387429 301.532434 
L 74.912381 298.978256 
L 76.749714 288.686571 
L 77.143429 287.852282 
L 77.405905 287.641697 
L 77.668381 287.65157 
L 78.062095 287.915909 
L 78.849524 288.695397 
L 79.505714 289.085058 
L 80.030667 289.475003 
L 80.424381 289.981179 
L 81.080571 291.257945 
L 81.736762 293.157052 
L 83.180381 297.658459 
L 83.96781 299.143822 
L 84.755238 300.089641 
L 85.542667 300.620731 
L 86.461333 301.165635 
L 87.248762 302.026037 
L 88.561143 303.539975 
L 89.217333 303.912513 
L 91.054667 304.610331 
L 92.367048 305.750128 
L 93.023238 305.969158 
L 94.073143 306.122526 
L 94.598095 305.990714 
L 95.385524 305.531805 
L 96.960381 304.623109 
L 97.485333 304.591562 
L 97.74781 304.232978 
L 98.010286 303.253232 
L 98.272762 301.391411 
L 98.666476 296.629898 
L 99.191429 286.762422 
L 100.110095 263.797583 
L 101.291238 229.099278 
L 104.440952 130.735314 
L 105.228381 115.923466 
L 105.884571 107.759146 
L 106.803238 99.039521 
L 107.590667 93.641826 
L 108.246857 90.730226 
L 108.77181 89.304483 
L 109.296762 88.52913 
L 109.690476 88.307659 
L 114.415048 87.294589 
L 115.727429 87.309289 
L 116.252381 87.455391 
L 117.827238 87.680236 
L 119.139619 87.614638 
L 122.683048 87.549981 
L 123.470476 87.625305 
L 124.782857 87.692002 
L 125.832762 87.78896 
L 126.488952 87.870524 
L 127.013905 87.982693 
L 128.06381 88.410506 
L 128.982476 89.364003 
L 130.032381 91.197597 
L 130.426095 92.230134 
L 130.557333 92.420461 
L 131.738476 96.116481 
L 133.182095 103.703615 
L 133.57581 105.089396 
L 133.969524 105.412562 
L 134.363238 105.662754 
L 135.544381 105.91066 
L 135.938095 105.689997 
L 136.594286 105.147352 
L 137.381714 104.073976 
L 140.137714 99.012997 
L 141.975048 95.252673 
L 142.762476 93.772363 
L 143.15619 93.088684 
L 144.206095 91.441181 
L 146.043429 89.619975 
L 147.487048 88.918783 
L 148.405714 88.844547 
L 148.930667 88.922928 
L 149.193143 88.985133 
L 151.030476 90.190688 
L 151.686667 90.955874 
L 152.080381 91.427381 
L 153.130286 92.546779 
L 153.392762 92.940884 
L 153.786476 92.988357 
L 154.573905 94.314598 
L 155.230095 95.985537 
L 155.886286 99.305316 
L 157.067429 110.67535 
L 157.723619 118.41677 
L 158.117333 121.545085 
L 159.036 127.564909 
L 160.085905 129.575842 
L 160.348381 129.679616 
L 160.742095 129.849256 
L 160.873333 129.87248 
L 161.13581 130.352265 
L 161.398286 130.676161 
L 161.792 130.525423 
L 163.89181 131.787237 
L 164.548 132.000288 
L 165.072952 131.48907 
L 165.335429 131.670133 
L 165.597905 131.449337 
L 165.860381 131.259085 
L 166.122857 131.264499 
L 166.516571 130.93162 
L 166.910286 130.962941 
L 167.435238 130.358689 
L 167.828952 130.393382 
L 168.222667 130.242446 
L 168.616381 130.285153 
L 169.535048 129.811569 
L 169.797524 129.842229 
L 170.06 129.941101 
L 170.322476 129.897205 
L 170.71619 129.694484 
L 171.372381 129.620069 
L 171.766095 129.481046 
L 172.15981 129.69867 
L 172.553524 129.868106 
L 173.078476 129.765566 
L 173.997143 130.218283 
L 174.390857 130.81543 
L 174.784571 131.43895 
L 175.309524 132.091304 
L 176.490667 134.455732 
L 177.015619 135.679366 
L 177.803048 138.078853 
M 197.62 290.493613 
L 198.801143 290.202891 
L 199.063619 290.012713 
L 199.457333 289.580115 
L 200.113524 288.544133 
L 201.950857 284.181974 
L 203.78819 278.357023 
L 206.019238 269.989043 
L 206.937905 266.220713 
L 207.200381 265.193141 
L 207.856571 262.577123 
L 211.793714 247.536748 
L 216.780762 232.612423 
L 218.224381 228.990256 
L 218.618095 228.290131 
L 219.799238 225.939214 
L 220.061714 225.503618 
L 221.111619 223.607375 
L 223.08019 221.19076 
L 223.473905 220.646314 
L 223.605143 220.638573 
L 223.867619 220.355316 
L 223.998857 220.278036 
L 224.130095 220.341873 
L 224.261333 220.139874 
L 224.392571 220.318425 
L 224.52381 220.251427 
L 224.655048 220.346613 
L 224.786286 220.22657 
L 225.048762 220.468689 
L 226.492381 221.311507 
L 226.623619 220.845791 
L 226.886095 221.095124 
L 228.460952 223.040141 
L 229.117143 224.07951 
L 229.510857 224.457442 
L 230.03581 225.33188 
L 232.529333 229.816502 
L 232.79181 230.298631 
L 233.579238 231.62752 
L 234.366667 232.713458 
L 234.629143 232.933133 
L 234.891619 233.260321 
L 235.54781 233.963041 
L 237.647619 238.376707 
L 238.30381 240.020092 
L 238.828762 241.014003 
L 239.484952 241.974384 
L 239.747429 242.220661 
L 239.878667 242.230578 
L 240.141143 242.536036 
L 240.403619 242.765669 
L 240.666095 242.766884 
L 242.240952 243.973456 
L 242.503429 243.947319 
L 243.028381 244.000013 
L 243.422095 243.792884 
M 264.551429 309.118248 
L 265.470095 308.983609 
L 266.651238 308.67201 
L 267.438667 308.393219 
L 271.113333 306.086903 
L 272.294476 305.113501 
L 273.081905 304.468521 
L 273.869333 303.803052 
L 274.656762 303.167323 
L 275.181714 302.69174 
L 275.575429 302.416572 
L 276.88781 301.278423 
L 277.281524 300.977254 
L 278.725143 299.479268 
L 279.250095 298.972763 
L 280.693714 297.429285 
L 280.95619 297.190372 
L 281.743619 296.355081 
L 283.449714 294.533357 
L 284.237143 293.762429 
L 285.812 292.189101 
L 286.599429 291.48984 
L 287.649333 290.578645 
L 288.174286 290.247001 
L 288.961714 289.680561 
L 290.011619 288.99819 
L 293.817524 286.712916 
L 295.261143 285.924005 
L 298.279619 285.208943 
L 299.592 285.469532 
L 300.24819 285.8902 
L 301.429333 287.194734 
L 302.479238 288.805383 
L 305.235238 292.807787 
L 307.728762 295.579691 
L 308.51619 296.409871 
L 309.697333 297.565519 
L 310.222286 298.004236 
L 311.797143 298.975726 
L 312.322095 299.359426 
L 314.290667 300.925555 
L 314.553143 301.188433 
L 315.996762 302.19595 
L 317.177905 302.884493 
L 317.440381 303.097765 
L 318.359048 303.649232 
L 318.752762 303.932537 
L 319.277714 304.258488 
L 324.264762 307.224315 
L 328.595619 309.367504 
L 330.301714 309.979528 
L 331.089143 310.220636 
L 334.107619 310.73864 
L 335.42 310.802389 
L 335.42 310.802389 
" style="fill:none;stroke:#477706;stroke-linecap:square;stroke-width:1.5;"/>
   </g>
   <g id="patch_3">
    <path d="M 46.04 316.12 
L 46.04 28.08 
" style="fill:none;stroke:#000000;stroke-linecap:square;stroke-linejoin:miter;stroke-width:0.8;"/>
   </g>
   <g id="patch_4">
    <path d="M 349.2 316.12 
L 349.2 28.08 
" style="fill:none;stroke:#000000;stroke-linecap:square;stroke-linejoin:miter;stroke-width:0.8;"/>
   </g>
   <g id="patch_5">
    <path d="M 46.04 316.12 
L 349.2 316.12 
" style="fill:none;stroke:#000000;stroke-linecap:square;stroke-linejoin:miter;stroke-width:0.8;"/>
   </g>
   <g id="patch_6">
    <path d="M 46.04 28.08 
L 349.2 28.08 
" style="fill:none;stroke:#000000;stroke-linecap:square;stroke-linejoin:miter;stroke-width:0.8;"/>
   </g>
   <g id="text_16">
    <!-- Chlorophyll Content -->
    <g transform="translate(123.121562 22.08)scale(0.15 -0.15)">
     <defs>
      <path d="M 64.40625 67.28125 
L 64.40625 56.890625 
Q 59.421875 61.53125 53.78125 63.8125 
Q 48.140625 66.109375 41.796875 66.109375 
Q 29.296875 66.109375 22.65625 58.46875 
Q 16.015625 50.828125 16.015625 36.375 
Q 16.015625 21.96875 22.65625 14.328125 
Q 29.296875 6.6875 41.796875 6.6875 
Q 48.140625 6.6875 53.78125 8.984375 
Q 59.421875 11.28125 64.40625 15.921875 
L 64.40625 5.609375 
Q 59.234375 2.09375 53.4375 0.328125 
Q 47.65625 -1.421875 41.21875 -1.421875 
Q 24.65625 -1.421875 15.125 8.703125 
Q 5.609375 18.84375 5.609375 36.375 
Q 5.609375 53.953125 15.125 64.078125 
Q 24.65625 74.21875 41.21875 74.21875 
Q 47.75 74.21875 53.53125 72.484375 
Q 59.328125 70.75 64.40625 67.28125 
z
" id="DejaVuSans-67"/>
      <path d="M 30.609375 48.390625 
Q 23.390625 48.390625 19.1875 42.75 
Q 14.984375 37.109375 14.984375 27.296875 
Q 14.984375 17.484375 19.15625 11.84375 
Q 23.34375 6.203125 30.609375 6.203125 
Q 37.796875 6.203125 41.984375 11.859375 
Q 46.1875 17.53125 46.1875 27.296875 
Q 46.1875 37.015625 41.984375 42.703125 
Q 37.796875 48.390625 30.609375 48.390625 
z
M 30.609375 56 
Q 42.328125 56 49.015625 48.375 
Q 55.71875 40.765625 55.71875 27.296875 
Q 55.71875 13.875 49.015625 6.21875 
Q 42.328125 -1.421875 30.609375 -1.421875 
Q 18.84375 -1.421875 12.171875 6.21875 
Q 5.515625 13.875 5.515625 27.296875 
Q 5.515625 40.765625 12.171875 48.375 
Q 18.84375 56 30.609375 56 
z
" id="DejaVuSans-111"/>
      <path d="M 41.109375 46.296875 
Q 39.59375 47.171875 37.8125 47.578125 
Q 36.03125 48 33.890625 48 
Q 26.265625 48 22.1875 43.046875 
Q 18.109375 38.09375 18.109375 28.8125 
L 18.109375 0 
L 9.078125 0 
L 9.078125 54.6875 
L 18.109375 54.6875 
L 18.109375 46.1875 
Q 20.953125 51.171875 25.484375 53.578125 
Q 30.03125 56 36.53125 56 
Q 37.453125 56 38.578125 55.875 
Q 39.703125 55.765625 41.0625 55.515625 
z
" id="DejaVuSans-114"/>
      <path d="M 18.109375 8.203125 
L 18.109375 -20.796875 
L 9.078125 -20.796875 
L 9.078125 54.6875 
L 18.109375 54.6875 
L 18.109375 46.390625 
Q 20.953125 51.265625 25.265625 53.625 
Q 29.59375 56 35.59375 56 
Q 45.5625 56 51.78125 48.09375 
Q 58.015625 40.1875 58.015625 27.296875 
Q 58.015625 14.40625 51.78125 6.484375 
Q 45.5625 -1.421875 35.59375 -1.421875 
Q 29.59375 -1.421875 25.265625 0.953125 
Q 20.953125 3.328125 18.109375 8.203125 
z
M 48.6875 27.296875 
Q 48.6875 37.203125 44.609375 42.84375 
Q 40.53125 48.484375 33.40625 48.484375 
Q 26.265625 48.484375 22.1875 42.84375 
Q 18.109375 37.203125 18.109375 27.296875 
Q 18.109375 17.390625 22.1875 11.75 
Q 26.265625 6.109375 33.40625 6.109375 
Q 40.53125 6.109375 44.609375 11.75 
Q 48.6875 17.390625 48.6875 27.296875 
z
" id="DejaVuSans-112"/>
      <path d="M 32.171875 -5.078125 
Q 28.375 -14.84375 24.75 -17.8125 
Q 21.140625 -20.796875 15.09375 -20.796875 
L 7.90625 -20.796875 
L 7.90625 -13.28125 
L 13.1875 -13.28125 
Q 16.890625 -13.28125 18.9375 -11.515625 
Q 21 -9.765625 23.484375 -3.21875 
L 25.09375 0.875 
L 2.984375 54.6875 
L 12.5 54.6875 
L 29.59375 11.921875 
L 46.6875 54.6875 
L 56.203125 54.6875 
z
" id="DejaVuSans-121"/>
     </defs>
     <use xlink:href="#DejaVuSans-67"/>
     <use x="69.824219" xlink:href="#DejaVuSans-104"/>
     <use x="133.203125" xlink:href="#DejaVuSans-108"/>
     <use x="160.986328" xlink:href="#DejaVuSans-111"/>
     <use x="222.167969" xlink:href="#DejaVuSans-114"/>
     <use x="261.03125" xlink:href="#DejaVuSans-111"/>
     <use x="322.212891" xlink:href="#DejaVuSans-112"/>
     <use x="385.689453" xlink:href="#DejaVuSans-104"/>
     <use x="449.068359" xlink:href="#DejaVuSans-121"/>
     <use x="508.248047" xlink:href="#DejaVuSans-108"/>
     <use x="536.03125" xlink:href="#DejaVuSans-108"/>
     <use x="563.814453" xlink:href="#DejaVuSans-32"/>
     <use x="595.601562" xlink:href="#DejaVuSans-67"/>
     <use x="665.425781" xlink:href="#DejaVuSans-111"/>
     <use x="726.607422" xlink:href="#DejaVuSans-110"/>
     <use x="789.986328" xlink:href="#DejaVuSans-116"/>
     <use x="829.195312" xlink:href="#DejaVuSans-101"/>
     <use x="890.71875" xlink:href="#DejaVuSans-110"/>
     <use x="954.097656" xlink:href="#DejaVuSans-116"/>
    </g>
   </g>
   <g id="legend_1">
    <g id="patch_7">
     <path d="M 248.2 117.08 
L 342.2 117.08 
Q 344.2 117.08 344.2 115.08 
L 344.2 35.08 
Q 344.2 33.08 342.2 33.08 
L 248.2 33.08 
Q 246.2 33.08 246.2 35.08 
L 246.2 115.08 
Q 246.2 117.08 248.2 117.08 
z
" style="fill:#ffffff;opacity:0.8;stroke:#cccccc;stroke-linejoin:miter;"/>
    </g>
    <g id="line2d_19">
     <path d="M 250.2 42.68 
L 270.2 42.68 
" style="fill:none;stroke:#bfce68;stroke-linecap:square;stroke-width:1.5;"/>
    </g>
    <g id="line2d_20"/>
    <g id="text_17">
     <!-- 15 $\mu g \cdot cm^{-2}$ -->
     <g transform="translate(278.2 46.18)scale(0.1 -0.1)">
      <defs>
       <path d="M 59.625 54.6875 
L 50.296875 6.78125 
Q 47.609375 -7.125 40.015625 -13.953125 
Q 32.421875 -20.796875 19.578125 -20.796875 
Q 14.84375 -20.796875 10.78125 -20.09375 
Q 6.734375 -19.390625 3.21875 -17.921875 
L 4.890625 -9.1875 
Q 8.203125 -11.328125 11.90625 -12.34375 
Q 15.625 -13.375 19.828125 -13.375 
Q 28.375 -13.375 33.859375 -8.703125 
Q 39.359375 -4.046875 41.109375 4.6875 
L 41.890625 8.796875 
Q 38.140625 4.5 33.15625 2.25 
Q 28.171875 0 22.40625 0 
Q 14.109375 0 9.34375 5.484375 
Q 4.59375 10.984375 4.59375 20.609375 
Q 4.59375 28.171875 7.46875 35.421875 
Q 10.359375 42.671875 15.578125 48.296875 
Q 19.046875 52 23.65625 54 
Q 28.265625 56 33.296875 56 
Q 38.8125 56 42.90625 53.4375 
Q 47.015625 50.875 49.03125 46.1875 
L 50.59375 54.6875 
z
M 46.09375 34.625 
Q 46.09375 41.265625 42.96875 44.875 
Q 39.84375 48.484375 34.078125 48.484375 
Q 30.515625 48.484375 27.296875 47.0625 
Q 24.078125 45.65625 21.78125 43.109375 
Q 18.0625 38.921875 15.984375 33.234375 
Q 13.921875 27.546875 13.921875 21.484375 
Q 13.921875 14.75 17.0625 11.125 
Q 20.21875 7.515625 26.125 7.515625 
Q 34.671875 7.515625 40.375 15.25 
Q 46.09375 23 46.09375 34.625 
z
" id="DejaVuSans-Oblique-103"/>
       <path d="M 10.6875 40.921875 
L 21 40.921875 
L 21 28.515625 
L 10.6875 28.515625 
z
" id="DejaVuSans-8901"/>
       <path d="M 53.609375 52.59375 
L 51.8125 43.703125 
Q 48.578125 46.046875 44.9375 47.21875 
Q 41.3125 48.390625 37.40625 48.390625 
Q 33.109375 48.390625 29.21875 46.875 
Q 25.34375 45.359375 22.703125 42.578125 
Q 18.5 38.328125 16.203125 32.609375 
Q 13.921875 26.90625 13.921875 20.796875 
Q 13.921875 13.421875 17.609375 9.8125 
Q 21.296875 6.203125 28.8125 6.203125 
Q 32.515625 6.203125 36.6875 7.328125 
Q 40.875 8.453125 45.40625 10.6875 
L 43.703125 1.8125 
Q 39.796875 0.203125 35.671875 -0.609375 
Q 31.546875 -1.421875 27.203125 -1.421875 
Q 16.3125 -1.421875 10.453125 4.015625 
Q 4.59375 9.46875 4.59375 19.578125 
Q 4.59375 28.078125 7.640625 35.234375 
Q 10.6875 42.390625 16.703125 48.09375 
Q 20.796875 52 26.3125 54 
Q 31.84375 56 38.375 56 
Q 42.1875 56 45.9375 55.140625 
Q 49.703125 54.296875 53.609375 52.59375 
z
" id="DejaVuSans-Oblique-99"/>
       <path d="M 10.59375 35.5 
L 73.1875 35.5 
L 73.1875 27.203125 
L 10.59375 27.203125 
z
" id="DejaVuSans-8722"/>
      </defs>
      <use transform="translate(0 0.765625)" xlink:href="#DejaVuSans-49"/>
      <use transform="translate(63.623047 0.765625)" xlink:href="#DejaVuSans-53"/>
      <use transform="translate(127.246094 0.765625)" xlink:href="#DejaVuSans-32"/>
      <use transform="translate(159.033203 0.765625)" xlink:href="#DejaVuSans-Oblique-956"/>
      <use transform="translate(222.65625 0.765625)" xlink:href="#DejaVuSans-Oblique-103"/>
      <use transform="translate(305.615234 0.765625)" xlink:href="#DejaVuSans-8901"/>
      <use transform="translate(356.884766 0.765625)" xlink:href="#DejaVuSans-Oblique-99"/>
      <use transform="translate(411.865234 0.765625)" xlink:href="#DejaVuSans-Oblique-109"/>
      <use transform="translate(513.92724 39.046875)scale(0.7)" xlink:href="#DejaVuSans-8722"/>
      <use transform="translate(572.579583 39.046875)scale(0.7)" xlink:href="#DejaVuSans-50"/>
     </g>
    </g>
    <g id="line2d_21">
     <path d="M 250.2 58.88 
L 270.2 58.88 
" style="fill:none;stroke:#aac03b;stroke-linecap:square;stroke-width:1.5;"/>
    </g>
    <g id="line2d_22"/>
    <g id="text_18">
     <!-- 26 $\mu g \cdot cm^{-2}$ -->
     <g transform="translate(278.2 62.38)scale(0.1 -0.1)">
      <use transform="translate(0 0.765625)" xlink:href="#DejaVuSans-50"/>
      <use transform="translate(63.623047 0.765625)" xlink:href="#DejaVuSans-54"/>
      <use transform="translate(127.246094 0.765625)" xlink:href="#DejaVuSans-32"/>
      <use transform="translate(159.033203 0.765625)" xlink:href="#DejaVuSans-Oblique-956"/>
      <use transform="translate(222.65625 0.765625)" xlink:href="#DejaVuSans-Oblique-103"/>
      <use transform="translate(305.615234 0.765625)" xlink:href="#DejaVuSans-8901"/>
      <use transform="translate(356.884766 0.765625)" xlink:href="#DejaVuSans-Oblique-99"/>
      <use transform="translate(411.865234 0.765625)" xlink:href="#DejaVuSans-Oblique-109"/>
      <use transform="translate(513.92724 39.046875)scale(0.7)" xlink:href="#DejaVuSans-8722"/>
      <use transform="translate(572.579583 39.046875)scale(0.7)" xlink:href="#DejaVuSans-50"/>
     </g>
    </g>
    <g id="line2d_23">
     <path d="M 250.2 75.08 
L 270.2 75.08 
" style="fill:none;stroke:#8fb926;stroke-linecap:square;stroke-width:1.5;"/>
    </g>
    <g id="line2d_24"/>
    <g id="text_19">
     <!-- 37 $\mu g \cdot cm^{-2}$ -->
     <g transform="translate(278.2 78.58)scale(0.1 -0.1)">
      <use transform="translate(0 0.765625)" xlink:href="#DejaVuSans-51"/>
      <use transform="translate(63.623047 0.765625)" xlink:href="#DejaVuSans-55"/>
      <use transform="translate(127.246094 0.765625)" xlink:href="#DejaVuSans-32"/>
      <use transform="translate(159.033203 0.765625)" xlink:href="#DejaVuSans-Oblique-956"/>
      <use transform="translate(222.65625 0.765625)" xlink:href="#DejaVuSans-Oblique-103"/>
      <use transform="translate(305.615234 0.765625)" xlink:href="#DejaVuSans-8901"/>
      <use transform="translate(356.884766 0.765625)" xlink:href="#DejaVuSans-Oblique-99"/>
      <use transform="translate(411.865234 0.765625)" xlink:href="#DejaVuSans-Oblique-109"/>
      <use transform="translate(513.92724 39.046875)scale(0.7)" xlink:href="#DejaVuSans-8722"/>
      <use transform="translate(572.579583 39.046875)scale(0.7)" xlink:href="#DejaVuSans-50"/>
     </g>
    </g>
    <g id="line2d_25">
     <path d="M 250.2 91.28 
L 270.2 91.28 
" style="fill:none;stroke:#67a612;stroke-linecap:square;stroke-width:1.5;"/>
    </g>
    <g id="line2d_26"/>
    <g id="text_20">
     <!-- 48 $\mu g \cdot cm^{-2}$ -->
     <g transform="translate(278.2 94.78)scale(0.1 -0.1)">
      <defs>
       <path d="M 31.78125 34.625 
Q 24.75 34.625 20.71875 30.859375 
Q 16.703125 27.09375 16.703125 20.515625 
Q 16.703125 13.921875 20.71875 10.15625 
Q 24.75 6.390625 31.78125 6.390625 
Q 38.8125 6.390625 42.859375 10.171875 
Q 46.921875 13.96875 46.921875 20.515625 
Q 46.921875 27.09375 42.890625 30.859375 
Q 38.875 34.625 31.78125 34.625 
z
M 21.921875 38.8125 
Q 15.578125 40.375 12.03125 44.71875 
Q 8.5 49.078125 8.5 55.328125 
Q 8.5 64.0625 14.71875 69.140625 
Q 20.953125 74.21875 31.78125 74.21875 
Q 42.671875 74.21875 48.875 69.140625 
Q 55.078125 64.0625 55.078125 55.328125 
Q 55.078125 49.078125 51.53125 44.71875 
Q 48 40.375 41.703125 38.8125 
Q 48.828125 37.15625 52.796875 32.3125 
Q 56.78125 27.484375 56.78125 20.515625 
Q 56.78125 9.90625 50.3125 4.234375 
Q 43.84375 -1.421875 31.78125 -1.421875 
Q 19.734375 -1.421875 13.25 4.234375 
Q 6.78125 9.90625 6.78125 20.515625 
Q 6.78125 27.484375 10.78125 32.3125 
Q 14.796875 37.15625 21.921875 38.8125 
z
M 18.3125 54.390625 
Q 18.3125 48.734375 21.84375 45.5625 
Q 25.390625 42.390625 31.78125 42.390625 
Q 38.140625 42.390625 41.71875 45.5625 
Q 45.3125 48.734375 45.3125 54.390625 
Q 45.3125 60.0625 41.71875 63.234375 
Q 38.140625 66.40625 31.78125 66.40625 
Q 25.390625 66.40625 21.84375 63.234375 
Q 18.3125 60.0625 18.3125 54.390625 
z
" id="DejaVuSans-56"/>
      </defs>
      <use transform="translate(0 0.765625)" xlink:href="#DejaVuSans-52"/>
      <use transform="translate(63.623047 0.765625)" xlink:href="#DejaVuSans-56"/>
      <use transform="translate(127.246094 0.765625)" xlink:href="#DejaVuSans-32"/>
      <use transform="translate(159.033203 0.765625)" xlink:href="#DejaVuSans-Oblique-956"/>
      <use transform="translate(222.65625 0.765625)" xlink:href="#DejaVuSans-Oblique-103"/>
      <use transform="translate(305.615234 0.765625)" xlink:href="#DejaVuSans-8901"/>
      <use transform="translate(356.884766 0.765625)" xlink:href="#DejaVuSans-Oblique-99"/>
      <use transform="translate(411.865234 0.765625)" xlink:href="#DejaVuSans-Oblique-109"/>
      <use transform="translate(513.92724 39.046875)scale(0.7)" xlink:href="#DejaVuSans-8722"/>
      <use transform="translate(572.579583 39.046875)scale(0.7)" xlink:href="#DejaVuSans-50"/>
     </g>
    </g>
    <g id="line2d_27">
     <path d="M 250.2 107.48 
L 270.2 107.48 
" style="fill:none;stroke:#477706;stroke-linecap:square;stroke-width:1.5;"/>
    </g>
    <g id="line2d_28"/>
    <g id="text_21">
     <!-- 60 $\mu g \cdot cm^{-2}$ -->
     <g transform="translate(278.2 110.98)scale(0.1 -0.1)">
      <use transform="translate(0 0.765625)" xlink:href="#DejaVuSans-54"/>
      <use transform="translate(63.623047 0.765625)" xlink:href="#DejaVuSans-48"/>
      <use transform="translate(127.246094 0.765625)" xlink:href="#DejaVuSans-32"/>
      <use transform="translate(159.033203 0.765625)" xlink:href="#DejaVuSans-Oblique-956"/>
      <use transform="translate(222.65625 0.765625)" xlink:href="#DejaVuSans-Oblique-103"/>
      <use transform="translate(305.615234 0.765625)" xlink:href="#DejaVuSans-8901"/>
      <use transform="translate(356.884766 0.765625)" xlink:href="#DejaVuSans-Oblique-99"/>
      <use transform="translate(411.865234 0.765625)" xlink:href="#DejaVuSans-Oblique-109"/>
      <use transform="translate(513.92724 39.046875)scale(0.7)" xlink:href="#DejaVuSans-8722"/>
      <use transform="translate(572.579583 39.046875)scale(0.7)" xlink:href="#DejaVuSans-50"/>
     </g>
    </g>
   </g>
  </g>
 </g>
 <defs>
  <clipPath id="pbb45ddd7df">
   <rect height="288.04" width="303.16" x="46.04" y="28.08"/>
  </clipPath>
 </defs>
</svg>
