<?xml version="1.0" encoding="utf-8" standalone="no"?>
<!DOCTYPE svg PUBLIC "-//W3C//DTD SVG 1.1//EN"
  "http://www.w3.org/Graphics/SVG/1.1/DTD/svg11.dtd">
<!-- Created with matplotlib (https://matplotlib.org/) -->
<svg height="360pt" version="1.1" viewBox="0 0 360 360" width="360pt" xmlns="http://www.w3.org/2000/svg" xmlns:xlink="http://www.w3.org/1999/xlink">
 <metadata>
  <rdf:RDF xmlns:cc="http://creativecommons.org/ns#" xmlns:dc="http://purl.org/dc/elements/1.1/" xmlns:rdf="http://www.w3.org/1999/02/22-rdf-syntax-ns#">
   <cc:Work>
    <dc:type rdf:resource="http://purl.org/dc/dcmitype/StillImage"/>
    <dc:date>2020-10-26T17:03:38.096535</dc:date>
    <dc:format>image/svg+xml</dc:format>
    <dc:creator>
     <cc:Agent>
      <dc:title>Matplotlib v3.3.2, https://matplotlib.org/</dc:title>
     </cc:Agent>
    </dc:creator>
   </cc:Work>
  </rdf:RDF>
 </metadata>
 <defs>
  <style type="text/css">*{stroke-linecap:butt;stroke-linejoin:round;}</style>
 </defs>
 <g id="figure_1">
  <g id="patch_1">
   <path d="M 0 360 
L 360 360 
L 360 0 
L 0 0 
z
" style="fill:#ffffff;"/>
  </g>
  <g id="axes_1">
   <g id="patch_2">
    <path d="M 46.04 316.12 
L 349.2 316.12 
L 349.2 28.08 
L 46.04 28.08 
z
" style="fill:#ffffff;"/>
   </g>
   <g id="matplotlib.axis_1">
    <g id="xtick_1">
     <g id="line2d_1">
      <defs>
       <path d="M 0 0 
L 0 3.5 
" id="m7e4293d234" style="stroke:#000000;stroke-width:0.8;"/>
      </defs>
      <g>
       <use style="stroke:#000000;stroke-width:0.8;" x="72.94381" xlink:href="#m7e4293d234" y="316.12"/>
      </g>
     </g>
     <g id="text_1">
      <!-- 0.5 -->
      <g transform="translate(64.992247 330.718437)scale(0.1 -0.1)">
       <defs>
        <path d="M 31.78125 66.40625 
Q 24.171875 66.40625 20.328125 58.90625 
Q 16.5 51.421875 16.5 36.375 
Q 16.5 21.390625 20.328125 13.890625 
Q 24.171875 6.390625 31.78125 6.390625 
Q 39.453125 6.390625 43.28125 13.890625 
Q 47.125 21.390625 47.125 36.375 
Q 47.125 51.421875 43.28125 58.90625 
Q 39.453125 66.40625 31.78125 66.40625 
z
M 31.78125 74.21875 
Q 44.046875 74.21875 50.515625 64.515625 
Q 56.984375 54.828125 56.984375 36.375 
Q 56.984375 17.96875 50.515625 8.265625 
Q 44.046875 -1.421875 31.78125 -1.421875 
Q 19.53125 -1.421875 13.0625 8.265625 
Q 6.59375 17.96875 6.59375 36.375 
Q 6.59375 54.828125 13.0625 64.515625 
Q 19.53125 74.21875 31.78125 74.21875 
z
" id="DejaVuSans-48"/>
        <path d="M 10.6875 12.40625 
L 21 12.40625 
L 21 0 
L 10.6875 0 
z
" id="DejaVuSans-46"/>
        <path d="M 10.796875 72.90625 
L 49.515625 72.90625 
L 49.515625 64.59375 
L 19.828125 64.59375 
L 19.828125 46.734375 
Q 21.96875 47.46875 24.109375 47.828125 
Q 26.265625 48.1875 28.421875 48.1875 
Q 40.625 48.1875 47.75 41.5 
Q 54.890625 34.8125 54.890625 23.390625 
Q 54.890625 11.625 47.5625 5.09375 
Q 40.234375 -1.421875 26.90625 -1.421875 
Q 22.3125 -1.421875 17.546875 -0.640625 
Q 12.796875 0.140625 7.71875 1.703125 
L 7.71875 11.625 
Q 12.109375 9.234375 16.796875 8.0625 
Q 21.484375 6.890625 26.703125 6.890625 
Q 35.15625 6.890625 40.078125 11.328125 
Q 45.015625 15.765625 45.015625 23.390625 
Q 45.015625 31 40.078125 35.4375 
Q 35.15625 39.890625 26.703125 39.890625 
Q 22.75 39.890625 18.8125 39.015625 
Q 14.890625 38.140625 10.796875 36.28125 
z
" id="DejaVuSans-53"/>
       </defs>
       <use xlink:href="#DejaVuSans-48"/>
       <use x="63.623047" xlink:href="#DejaVuSans-46"/>
       <use x="95.410156" xlink:href="#DejaVuSans-53"/>
      </g>
     </g>
    </g>
    <g id="xtick_2">
     <g id="line2d_2">
      <g>
       <use style="stroke:#000000;stroke-width:0.8;" x="138.562857" xlink:href="#m7e4293d234" y="316.12"/>
      </g>
     </g>
     <g id="text_2">
      <!-- 1.0 -->
      <g transform="translate(130.611295 330.718437)scale(0.1 -0.1)">
       <defs>
        <path d="M 12.40625 8.296875 
L 28.515625 8.296875 
L 28.515625 63.921875 
L 10.984375 60.40625 
L 10.984375 69.390625 
L 28.421875 72.90625 
L 38.28125 72.90625 
L 38.28125 8.296875 
L 54.390625 8.296875 
L 54.390625 0 
L 12.40625 0 
z
" id="DejaVuSans-49"/>
       </defs>
       <use xlink:href="#DejaVuSans-49"/>
       <use x="63.623047" xlink:href="#DejaVuSans-46"/>
       <use x="95.410156" xlink:href="#DejaVuSans-48"/>
      </g>
     </g>
    </g>
    <g id="xtick_3">
     <g id="line2d_3">
      <g>
       <use style="stroke:#000000;stroke-width:0.8;" x="204.181905" xlink:href="#m7e4293d234" y="316.12"/>
      </g>
     </g>
     <g id="text_3">
      <!-- 1.5 -->
      <g transform="translate(196.230342 330.718437)scale(0.1 -0.1)">
       <use xlink:href="#DejaVuSans-49"/>
       <use x="63.623047" xlink:href="#DejaVuSans-46"/>
       <use x="95.410156" xlink:href="#DejaVuSans-53"/>
      </g>
     </g>
    </g>
    <g id="xtick_4">
     <g id="line2d_4">
      <g>
       <use style="stroke:#000000;stroke-width:0.8;" x="269.800952" xlink:href="#m7e4293d234" y="316.12"/>
      </g>
     </g>
     <g id="text_4">
      <!-- 2.0 -->
      <g transform="translate(261.84939 330.718437)scale(0.1 -0.1)">
       <defs>
        <path d="M 19.1875 8.296875 
L 53.609375 8.296875 
L 53.609375 0 
L 7.328125 0 
L 7.328125 8.296875 
Q 12.9375 14.109375 22.625 23.890625 
Q 32.328125 33.6875 34.8125 36.53125 
Q 39.546875 41.84375 41.421875 45.53125 
Q 43.3125 49.21875 43.3125 52.78125 
Q 43.3125 58.59375 39.234375 62.25 
Q 35.15625 65.921875 28.609375 65.921875 
Q 23.96875 65.921875 18.8125 64.3125 
Q 13.671875 62.703125 7.8125 59.421875 
L 7.8125 69.390625 
Q 13.765625 71.78125 18.9375 73 
Q 24.125 74.21875 28.421875 74.21875 
Q 39.75 74.21875 46.484375 68.546875 
Q 53.21875 62.890625 53.21875 53.421875 
Q 53.21875 48.921875 51.53125 44.890625 
Q 49.859375 40.875 45.40625 35.40625 
Q 44.1875 33.984375 37.640625 27.21875 
Q 31.109375 20.453125 19.1875 8.296875 
z
" id="DejaVuSans-50"/>
       </defs>
       <use xlink:href="#DejaVuSans-50"/>
       <use x="63.623047" xlink:href="#DejaVuSans-46"/>
       <use x="95.410156" xlink:href="#DejaVuSans-48"/>
      </g>
     </g>
    </g>
    <g id="xtick_5">
     <g id="line2d_5">
      <g>
       <use style="stroke:#000000;stroke-width:0.8;" x="335.42" xlink:href="#m7e4293d234" y="316.12"/>
      </g>
     </g>
     <g id="text_5">
      <!-- 2.5 -->
      <g transform="translate(327.468437 330.718437)scale(0.1 -0.1)">
       <use xlink:href="#DejaVuSans-50"/>
       <use x="63.623047" xlink:href="#DejaVuSans-46"/>
       <use x="95.410156" xlink:href="#DejaVuSans-53"/>
      </g>
     </g>
    </g>
    <g id="text_6">
     <!-- Wavelength ($\mu m$) -->
     <g transform="translate(145.36 345.918125)scale(0.12 -0.12)">
      <defs>
       <path d="M 3.328125 72.90625 
L 13.28125 72.90625 
L 28.609375 11.28125 
L 43.890625 72.90625 
L 54.984375 72.90625 
L 70.3125 11.28125 
L 85.59375 72.90625 
L 95.609375 72.90625 
L 77.296875 0 
L 64.890625 0 
L 49.515625 63.28125 
L 33.984375 0 
L 21.578125 0 
z
" id="DejaVuSans-87"/>
       <path d="M 34.28125 27.484375 
Q 23.390625 27.484375 19.1875 25 
Q 14.984375 22.515625 14.984375 16.5 
Q 14.984375 11.71875 18.140625 8.90625 
Q 21.296875 6.109375 26.703125 6.109375 
Q 34.1875 6.109375 38.703125 11.40625 
Q 43.21875 16.703125 43.21875 25.484375 
L 43.21875 27.484375 
z
M 52.203125 31.203125 
L 52.203125 0 
L 43.21875 0 
L 43.21875 8.296875 
Q 40.140625 3.328125 35.546875 0.953125 
Q 30.953125 -1.421875 24.3125 -1.421875 
Q 15.921875 -1.421875 10.953125 3.296875 
Q 6 8.015625 6 15.921875 
Q 6 25.140625 12.171875 29.828125 
Q 18.359375 34.515625 30.609375 34.515625 
L 43.21875 34.515625 
L 43.21875 35.40625 
Q 43.21875 41.609375 39.140625 45 
Q 35.0625 48.390625 27.6875 48.390625 
Q 23 48.390625 18.546875 47.265625 
Q 14.109375 46.140625 10.015625 43.890625 
L 10.015625 52.203125 
Q 14.9375 54.109375 19.578125 55.046875 
Q 24.21875 56 28.609375 56 
Q 40.484375 56 46.34375 49.84375 
Q 52.203125 43.703125 52.203125 31.203125 
z
" id="DejaVuSans-97"/>
       <path d="M 2.984375 54.6875 
L 12.5 54.6875 
L 29.59375 8.796875 
L 46.6875 54.6875 
L 56.203125 54.6875 
L 35.6875 0 
L 23.484375 0 
z
" id="DejaVuSans-118"/>
       <path d="M 56.203125 29.59375 
L 56.203125 25.203125 
L 14.890625 25.203125 
Q 15.484375 15.921875 20.484375 11.0625 
Q 25.484375 6.203125 34.421875 6.203125 
Q 39.59375 6.203125 44.453125 7.46875 
Q 49.3125 8.734375 54.109375 11.28125 
L 54.109375 2.78125 
Q 49.265625 0.734375 44.1875 -0.34375 
Q 39.109375 -1.421875 33.890625 -1.421875 
Q 20.796875 -1.421875 13.15625 6.1875 
Q 5.515625 13.8125 5.515625 26.8125 
Q 5.515625 40.234375 12.765625 48.109375 
Q 20.015625 56 32.328125 56 
Q 43.359375 56 49.78125 48.890625 
Q 56.203125 41.796875 56.203125 29.59375 
z
M 47.21875 32.234375 
Q 47.125 39.59375 43.09375 43.984375 
Q 39.0625 48.390625 32.421875 48.390625 
Q 24.90625 48.390625 20.390625 44.140625 
Q 15.875 39.890625 15.1875 32.171875 
z
" id="DejaVuSans-101"/>
       <path d="M 9.421875 75.984375 
L 18.40625 75.984375 
L 18.40625 0 
L 9.421875 0 
z
" id="DejaVuSans-108"/>
       <path d="M 54.890625 33.015625 
L 54.890625 0 
L 45.90625 0 
L 45.90625 32.71875 
Q 45.90625 40.484375 42.875 44.328125 
Q 39.84375 48.1875 33.796875 48.1875 
Q 26.515625 48.1875 22.3125 43.546875 
Q 18.109375 38.921875 18.109375 30.90625 
L 18.109375 0 
L 9.078125 0 
L 9.078125 54.6875 
L 18.109375 54.6875 
L 18.109375 46.1875 
Q 21.34375 51.125 25.703125 53.5625 
Q 30.078125 56 35.796875 56 
Q 45.21875 56 50.046875 50.171875 
Q 54.890625 44.34375 54.890625 33.015625 
z
" id="DejaVuSans-110"/>
       <path d="M 45.40625 27.984375 
Q 45.40625 37.75 41.375 43.109375 
Q 37.359375 48.484375 30.078125 48.484375 
Q 22.859375 48.484375 18.828125 43.109375 
Q 14.796875 37.75 14.796875 27.984375 
Q 14.796875 18.265625 18.828125 12.890625 
Q 22.859375 7.515625 30.078125 7.515625 
Q 37.359375 7.515625 41.375 12.890625 
Q 45.40625 18.265625 45.40625 27.984375 
z
M 54.390625 6.78125 
Q 54.390625 -7.171875 48.1875 -13.984375 
Q 42 -20.796875 29.203125 -20.796875 
Q 24.46875 -20.796875 20.265625 -20.09375 
Q 16.0625 -19.390625 12.109375 -17.921875 
L 12.109375 -9.1875 
Q 16.0625 -11.328125 19.921875 -12.34375 
Q 23.78125 -13.375 27.78125 -13.375 
Q 36.625 -13.375 41.015625 -8.765625 
Q 45.40625 -4.15625 45.40625 5.171875 
L 45.40625 9.625 
Q 42.625 4.78125 38.28125 2.390625 
Q 33.9375 0 27.875 0 
Q 17.828125 0 11.671875 7.65625 
Q 5.515625 15.328125 5.515625 27.984375 
Q 5.515625 40.671875 11.671875 48.328125 
Q 17.828125 56 27.875 56 
Q 33.9375 56 38.28125 53.609375 
Q 42.625 51.21875 45.40625 46.390625 
L 45.40625 54.6875 
L 54.390625 54.6875 
z
" id="DejaVuSans-103"/>
       <path d="M 18.3125 70.21875 
L 18.3125 54.6875 
L 36.8125 54.6875 
L 36.8125 47.703125 
L 18.3125 47.703125 
L 18.3125 18.015625 
Q 18.3125 11.328125 20.140625 9.421875 
Q 21.96875 7.515625 27.59375 7.515625 
L 36.8125 7.515625 
L 36.8125 0 
L 27.59375 0 
Q 17.1875 0 13.234375 3.875 
Q 9.28125 7.765625 9.28125 18.015625 
L 9.28125 47.703125 
L 2.6875 47.703125 
L 2.6875 54.6875 
L 9.28125 54.6875 
L 9.28125 70.21875 
z
" id="DejaVuSans-116"/>
       <path d="M 54.890625 33.015625 
L 54.890625 0 
L 45.90625 0 
L 45.90625 32.71875 
Q 45.90625 40.484375 42.875 44.328125 
Q 39.84375 48.1875 33.796875 48.1875 
Q 26.515625 48.1875 22.3125 43.546875 
Q 18.109375 38.921875 18.109375 30.90625 
L 18.109375 0 
L 9.078125 0 
L 9.078125 75.984375 
L 18.109375 75.984375 
L 18.109375 46.1875 
Q 21.34375 51.125 25.703125 53.5625 
Q 30.078125 56 35.796875 56 
Q 45.21875 56 50.046875 50.171875 
Q 54.890625 44.34375 54.890625 33.015625 
z
" id="DejaVuSans-104"/>
       <path id="DejaVuSans-32"/>
       <path d="M 31 75.875 
Q 24.46875 64.65625 21.28125 53.65625 
Q 18.109375 42.671875 18.109375 31.390625 
Q 18.109375 20.125 21.3125 9.0625 
Q 24.515625 -2 31 -13.1875 
L 23.1875 -13.1875 
Q 15.875 -1.703125 12.234375 9.375 
Q 8.59375 20.453125 8.59375 31.390625 
Q 8.59375 42.28125 12.203125 53.3125 
Q 15.828125 64.359375 23.1875 75.875 
z
" id="DejaVuSans-40"/>
       <path d="M -1.3125 -20.796875 
L 13.375 54.6875 
L 22.40625 54.6875 
L 15.765625 20.65625 
Q 15.578125 19.625 15.421875 18.359375 
Q 15.28125 17.09375 15.28125 15.828125 
Q 15.28125 11.28125 18.140625 8.828125 
Q 21 6.390625 26.3125 6.390625 
Q 33.546875 6.390625 37.984375 10.484375 
Q 42.4375 14.59375 44 22.796875 
L 50.203125 54.6875 
L 59.1875 54.6875 
L 51.03125 12.640625 
Q 50.828125 11.71875 50.75 11.03125 
Q 50.6875 10.359375 50.6875 9.8125 
Q 50.6875 8.296875 51.296875 7.59375 
Q 51.90625 6.890625 53.21875 6.890625 
Q 53.71875 6.890625 54.5625 7.125 
Q 55.421875 7.375 56.984375 8.015625 
L 55.609375 0.78125 
Q 53.46875 -0.296875 51.515625 -0.859375 
Q 49.5625 -1.421875 47.703125 -1.421875 
Q 44.484375 -1.421875 42.65625 0.625 
Q 40.828125 2.6875 40.828125 6.296875 
Q 38.09375 2.390625 34.296875 0.484375 
Q 30.515625 -1.421875 25.390625 -1.421875 
Q 20.84375 -1.421875 17.453125 0.671875 
Q 14.0625 2.78125 12.984375 6.203125 
L 7.71875 -20.796875 
z
" id="DejaVuSans-Oblique-956"/>
       <path d="M 89.796875 33.015625 
L 83.40625 0 
L 74.421875 0 
L 80.71875 32.71875 
Q 81.109375 34.8125 81.296875 36.328125 
Q 81.5 37.84375 81.5 38.921875 
Q 81.5 43.3125 79.046875 45.75 
Q 76.609375 48.1875 72.21875 48.1875 
Q 65.671875 48.1875 60.546875 43.28125 
Q 55.421875 38.375 53.90625 30.515625 
L 47.90625 0 
L 38.921875 0 
L 45.3125 32.71875 
Q 45.703125 34.515625 45.890625 36.046875 
Q 46.09375 37.59375 46.09375 38.8125 
Q 46.09375 43.265625 43.65625 45.71875 
Q 41.21875 48.1875 36.921875 48.1875 
Q 30.28125 48.1875 25.140625 43.28125 
Q 20.015625 38.375 18.5 30.515625 
L 12.5 0 
L 3.515625 0 
L 14.203125 54.6875 
L 23.1875 54.6875 
L 21.484375 46.1875 
Q 25.140625 50.984375 30.046875 53.484375 
Q 34.96875 56 40.578125 56 
Q 46.53125 56 50.359375 52.875 
Q 54.203125 49.75 54.984375 44.1875 
Q 59.078125 49.953125 64.46875 52.96875 
Q 69.875 56 75.875 56 
Q 82.90625 56 86.734375 51.953125 
Q 90.578125 47.90625 90.578125 40.484375 
Q 90.578125 38.875 90.375 36.9375 
Q 90.1875 35.015625 89.796875 33.015625 
z
" id="DejaVuSans-Oblique-109"/>
       <path d="M 8.015625 75.875 
L 15.828125 75.875 
Q 23.140625 64.359375 26.78125 53.3125 
Q 30.421875 42.28125 30.421875 31.390625 
Q 30.421875 20.453125 26.78125 9.375 
Q 23.140625 -1.703125 15.828125 -13.1875 
L 8.015625 -13.1875 
Q 14.5 -2 17.703125 9.0625 
Q 20.90625 20.125 20.90625 31.390625 
Q 20.90625 42.671875 17.703125 53.65625 
Q 14.5 64.65625 8.015625 75.875 
z
" id="DejaVuSans-41"/>
      </defs>
      <use transform="translate(0 0.015625)" xlink:href="#DejaVuSans-87"/>
      <use transform="translate(98.876953 0.015625)" xlink:href="#DejaVuSans-97"/>
      <use transform="translate(160.15625 0.015625)" xlink:href="#DejaVuSans-118"/>
      <use transform="translate(219.335938 0.015625)" xlink:href="#DejaVuSans-101"/>
      <use transform="translate(280.859375 0.015625)" xlink:href="#DejaVuSans-108"/>
      <use transform="translate(308.642578 0.015625)" xlink:href="#DejaVuSans-101"/>
      <use transform="translate(370.166016 0.015625)" xlink:href="#DejaVuSans-110"/>
      <use transform="translate(433.544922 0.015625)" xlink:href="#DejaVuSans-103"/>
      <use transform="translate(497.021484 0.015625)" xlink:href="#DejaVuSans-116"/>
      <use transform="translate(536.230469 0.015625)" xlink:href="#DejaVuSans-104"/>
      <use transform="translate(599.609375 0.015625)" xlink:href="#DejaVuSans-32"/>
      <use transform="translate(631.396484 0.015625)" xlink:href="#DejaVuSans-40"/>
      <use transform="translate(670.410156 0.015625)" xlink:href="#DejaVuSans-Oblique-956"/>
      <use transform="translate(734.033203 0.015625)" xlink:href="#DejaVuSans-Oblique-109"/>
      <use transform="translate(831.445312 0.015625)" xlink:href="#DejaVuSans-41"/>
     </g>
    </g>
   </g>
   <g id="matplotlib.axis_2">
    <g id="ytick_1">
     <g id="line2d_6">
      <defs>
       <path d="M 0 0 
L -3.5 0 
" id="m1bfa9f17bb" style="stroke:#000000;stroke-width:0.8;"/>
      </defs>
      <g>
       <use style="stroke:#000000;stroke-width:0.8;" x="46.04" xlink:href="#m1bfa9f17bb" y="316.12"/>
      </g>
     </g>
     <g id="text_7">
      <!-- 0 -->
      <g transform="translate(32.6775 319.919219)scale(0.1 -0.1)">
       <use xlink:href="#DejaVuSans-48"/>
      </g>
     </g>
    </g>
    <g id="ytick_2">
     <g id="line2d_7">
      <g>
       <use style="stroke:#000000;stroke-width:0.8;" x="46.04" xlink:href="#m1bfa9f17bb" y="274.971429"/>
      </g>
     </g>
     <g id="text_8">
      <!-- 10 -->
      <g transform="translate(26.315 278.770647)scale(0.1 -0.1)">
       <use xlink:href="#DejaVuSans-49"/>
       <use x="63.623047" xlink:href="#DejaVuSans-48"/>
      </g>
     </g>
    </g>
    <g id="ytick_3">
     <g id="line2d_8">
      <g>
       <use style="stroke:#000000;stroke-width:0.8;" x="46.04" xlink:href="#m1bfa9f17bb" y="233.822857"/>
      </g>
     </g>
     <g id="text_9">
      <!-- 20 -->
      <g transform="translate(26.315 237.622076)scale(0.1 -0.1)">
       <use xlink:href="#DejaVuSans-50"/>
       <use x="63.623047" xlink:href="#DejaVuSans-48"/>
      </g>
     </g>
    </g>
    <g id="ytick_4">
     <g id="line2d_9">
      <g>
       <use style="stroke:#000000;stroke-width:0.8;" x="46.04" xlink:href="#m1bfa9f17bb" y="192.674286"/>
      </g>
     </g>
     <g id="text_10">
      <!-- 30 -->
      <g transform="translate(26.315 196.473504)scale(0.1 -0.1)">
       <defs>
        <path d="M 40.578125 39.3125 
Q 47.65625 37.796875 51.625 33 
Q 55.609375 28.21875 55.609375 21.1875 
Q 55.609375 10.40625 48.1875 4.484375 
Q 40.765625 -1.421875 27.09375 -1.421875 
Q 22.515625 -1.421875 17.65625 -0.515625 
Q 12.796875 0.390625 7.625 2.203125 
L 7.625 11.71875 
Q 11.71875 9.328125 16.59375 8.109375 
Q 21.484375 6.890625 26.8125 6.890625 
Q 36.078125 6.890625 40.9375 10.546875 
Q 45.796875 14.203125 45.796875 21.1875 
Q 45.796875 27.640625 41.28125 31.265625 
Q 36.765625 34.90625 28.71875 34.90625 
L 20.21875 34.90625 
L 20.21875 43.015625 
L 29.109375 43.015625 
Q 36.375 43.015625 40.234375 45.921875 
Q 44.09375 48.828125 44.09375 54.296875 
Q 44.09375 59.90625 40.109375 62.90625 
Q 36.140625 65.921875 28.71875 65.921875 
Q 24.65625 65.921875 20.015625 65.03125 
Q 15.375 64.15625 9.8125 62.3125 
L 9.8125 71.09375 
Q 15.4375 72.65625 20.34375 73.4375 
Q 25.25 74.21875 29.59375 74.21875 
Q 40.828125 74.21875 47.359375 69.109375 
Q 53.90625 64.015625 53.90625 55.328125 
Q 53.90625 49.265625 50.4375 45.09375 
Q 46.96875 40.921875 40.578125 39.3125 
z
" id="DejaVuSans-51"/>
       </defs>
       <use xlink:href="#DejaVuSans-51"/>
       <use x="63.623047" xlink:href="#DejaVuSans-48"/>
      </g>
     </g>
    </g>
    <g id="ytick_5">
     <g id="line2d_10">
      <g>
       <use style="stroke:#000000;stroke-width:0.8;" x="46.04" xlink:href="#m1bfa9f17bb" y="151.525714"/>
      </g>
     </g>
     <g id="text_11">
      <!-- 40 -->
      <g transform="translate(26.315 155.324933)scale(0.1 -0.1)">
       <defs>
        <path d="M 37.796875 64.3125 
L 12.890625 25.390625 
L 37.796875 25.390625 
z
M 35.203125 72.90625 
L 47.609375 72.90625 
L 47.609375 25.390625 
L 58.015625 25.390625 
L 58.015625 17.1875 
L 47.609375 17.1875 
L 47.609375 0 
L 37.796875 0 
L 37.796875 17.1875 
L 4.890625 17.1875 
L 4.890625 26.703125 
z
" id="DejaVuSans-52"/>
       </defs>
       <use xlink:href="#DejaVuSans-52"/>
       <use x="63.623047" xlink:href="#DejaVuSans-48"/>
      </g>
     </g>
    </g>
    <g id="ytick_6">
     <g id="line2d_11">
      <g>
       <use style="stroke:#000000;stroke-width:0.8;" x="46.04" xlink:href="#m1bfa9f17bb" y="110.377143"/>
      </g>
     </g>
     <g id="text_12">
      <!-- 50 -->
      <g transform="translate(26.315 114.176362)scale(0.1 -0.1)">
       <use xlink:href="#DejaVuSans-53"/>
       <use x="63.623047" xlink:href="#DejaVuSans-48"/>
      </g>
     </g>
    </g>
    <g id="ytick_7">
     <g id="line2d_12">
      <g>
       <use style="stroke:#000000;stroke-width:0.8;" x="46.04" xlink:href="#m1bfa9f17bb" y="69.228571"/>
      </g>
     </g>
     <g id="text_13">
      <!-- 60 -->
      <g transform="translate(26.315 73.02779)scale(0.1 -0.1)">
       <defs>
        <path d="M 33.015625 40.375 
Q 26.375 40.375 22.484375 35.828125 
Q 18.609375 31.296875 18.609375 23.390625 
Q 18.609375 15.53125 22.484375 10.953125 
Q 26.375 6.390625 33.015625 6.390625 
Q 39.65625 6.390625 43.53125 10.953125 
Q 47.40625 15.53125 47.40625 23.390625 
Q 47.40625 31.296875 43.53125 35.828125 
Q 39.65625 40.375 33.015625 40.375 
z
M 52.59375 71.296875 
L 52.59375 62.3125 
Q 48.875 64.0625 45.09375 64.984375 
Q 41.3125 65.921875 37.59375 65.921875 
Q 27.828125 65.921875 22.671875 59.328125 
Q 17.53125 52.734375 16.796875 39.40625 
Q 19.671875 43.65625 24.015625 45.921875 
Q 28.375 48.1875 33.59375 48.1875 
Q 44.578125 48.1875 50.953125 41.515625 
Q 57.328125 34.859375 57.328125 23.390625 
Q 57.328125 12.15625 50.6875 5.359375 
Q 44.046875 -1.421875 33.015625 -1.421875 
Q 20.359375 -1.421875 13.671875 8.265625 
Q 6.984375 17.96875 6.984375 36.375 
Q 6.984375 53.65625 15.1875 63.9375 
Q 23.390625 74.21875 37.203125 74.21875 
Q 40.921875 74.21875 44.703125 73.484375 
Q 48.484375 72.75 52.59375 71.296875 
z
" id="DejaVuSans-54"/>
       </defs>
       <use xlink:href="#DejaVuSans-54"/>
       <use x="63.623047" xlink:href="#DejaVuSans-48"/>
      </g>
     </g>
    </g>
    <g id="ytick_8">
     <g id="line2d_13">
      <g>
       <use style="stroke:#000000;stroke-width:0.8;" x="46.04" xlink:href="#m1bfa9f17bb" y="28.08"/>
      </g>
     </g>
     <g id="text_14">
      <!-- 70 -->
      <g transform="translate(26.315 31.879219)scale(0.1 -0.1)">
       <defs>
        <path d="M 8.203125 72.90625 
L 55.078125 72.90625 
L 55.078125 68.703125 
L 28.609375 0 
L 18.3125 0 
L 43.21875 64.59375 
L 8.203125 64.59375 
z
" id="DejaVuSans-55"/>
       </defs>
       <use xlink:href="#DejaVuSans-55"/>
       <use x="63.623047" xlink:href="#DejaVuSans-48"/>
      </g>
     </g>
    </g>
    <g id="text_15">
     <!-- Reflectance ($\%$) -->
     <g transform="translate(19.819375 219.86)rotate(-90)scale(0.12 -0.12)">
      <defs>
       <path d="M 44.390625 34.1875 
Q 47.5625 33.109375 50.5625 29.59375 
Q 53.5625 26.078125 56.59375 19.921875 
L 66.609375 0 
L 56 0 
L 46.6875 18.703125 
Q 43.0625 26.03125 39.671875 28.421875 
Q 36.28125 30.8125 30.421875 30.8125 
L 19.671875 30.8125 
L 19.671875 0 
L 9.8125 0 
L 9.8125 72.90625 
L 32.078125 72.90625 
Q 44.578125 72.90625 50.734375 67.671875 
Q 56.890625 62.453125 56.890625 51.90625 
Q 56.890625 45.015625 53.6875 40.46875 
Q 50.484375 35.9375 44.390625 34.1875 
z
M 19.671875 64.796875 
L 19.671875 38.921875 
L 32.078125 38.921875 
Q 39.203125 38.921875 42.84375 42.21875 
Q 46.484375 45.515625 46.484375 51.90625 
Q 46.484375 58.296875 42.84375 61.546875 
Q 39.203125 64.796875 32.078125 64.796875 
z
" id="DejaVuSans-82"/>
       <path d="M 37.109375 75.984375 
L 37.109375 68.5 
L 28.515625 68.5 
Q 23.6875 68.5 21.796875 66.546875 
Q 19.921875 64.59375 19.921875 59.515625 
L 19.921875 54.6875 
L 34.71875 54.6875 
L 34.71875 47.703125 
L 19.921875 47.703125 
L 19.921875 0 
L 10.890625 0 
L 10.890625 47.703125 
L 2.296875 47.703125 
L 2.296875 54.6875 
L 10.890625 54.6875 
L 10.890625 58.5 
Q 10.890625 67.625 15.140625 71.796875 
Q 19.390625 75.984375 28.609375 75.984375 
z
" id="DejaVuSans-102"/>
       <path d="M 48.78125 52.59375 
L 48.78125 44.1875 
Q 44.96875 46.296875 41.140625 47.34375 
Q 37.3125 48.390625 33.40625 48.390625 
Q 24.65625 48.390625 19.8125 42.84375 
Q 14.984375 37.3125 14.984375 27.296875 
Q 14.984375 17.28125 19.8125 11.734375 
Q 24.65625 6.203125 33.40625 6.203125 
Q 37.3125 6.203125 41.140625 7.25 
Q 44.96875 8.296875 48.78125 10.40625 
L 48.78125 2.09375 
Q 45.015625 0.34375 40.984375 -0.53125 
Q 36.96875 -1.421875 32.421875 -1.421875 
Q 20.0625 -1.421875 12.78125 6.34375 
Q 5.515625 14.109375 5.515625 27.296875 
Q 5.515625 40.671875 12.859375 48.328125 
Q 20.21875 56 33.015625 56 
Q 37.15625 56 41.109375 55.140625 
Q 45.0625 54.296875 48.78125 52.59375 
z
" id="DejaVuSans-99"/>
       <path d="M 72.703125 32.078125 
Q 68.453125 32.078125 66.03125 28.46875 
Q 63.625 24.859375 63.625 18.40625 
Q 63.625 12.0625 66.03125 8.421875 
Q 68.453125 4.78125 72.703125 4.78125 
Q 76.859375 4.78125 79.265625 8.421875 
Q 81.6875 12.0625 81.6875 18.40625 
Q 81.6875 24.8125 79.265625 28.4375 
Q 76.859375 32.078125 72.703125 32.078125 
z
M 72.703125 38.28125 
Q 80.421875 38.28125 84.953125 32.90625 
Q 89.5 27.546875 89.5 18.40625 
Q 89.5 9.28125 84.9375 3.921875 
Q 80.375 -1.421875 72.703125 -1.421875 
Q 64.890625 -1.421875 60.34375 3.921875 
Q 55.8125 9.28125 55.8125 18.40625 
Q 55.8125 27.59375 60.375 32.9375 
Q 64.9375 38.28125 72.703125 38.28125 
z
M 22.3125 68.015625 
Q 18.109375 68.015625 15.6875 64.375 
Q 13.28125 60.75 13.28125 54.390625 
Q 13.28125 47.953125 15.671875 44.328125 
Q 18.0625 40.71875 22.3125 40.71875 
Q 26.5625 40.71875 28.96875 44.328125 
Q 31.390625 47.953125 31.390625 54.390625 
Q 31.390625 60.6875 28.953125 64.34375 
Q 26.515625 68.015625 22.3125 68.015625 
z
M 66.40625 74.21875 
L 74.21875 74.21875 
L 28.609375 -1.421875 
L 20.796875 -1.421875 
z
M 22.3125 74.21875 
Q 30.03125 74.21875 34.609375 68.875 
Q 39.203125 63.53125 39.203125 54.390625 
Q 39.203125 45.171875 34.640625 39.84375 
Q 30.078125 34.515625 22.3125 34.515625 
Q 14.546875 34.515625 10.03125 39.859375 
Q 5.515625 45.21875 5.515625 54.390625 
Q 5.515625 63.484375 10.046875 68.84375 
Q 14.59375 74.21875 22.3125 74.21875 
z
" id="DejaVuSans-37"/>
      </defs>
      <use transform="translate(0 0.015625)" xlink:href="#DejaVuSans-82"/>
      <use transform="translate(69.482422 0.015625)" xlink:href="#DejaVuSans-101"/>
      <use transform="translate(131.005859 0.015625)" xlink:href="#DejaVuSans-102"/>
      <use transform="translate(166.210938 0.015625)" xlink:href="#DejaVuSans-108"/>
      <use transform="translate(193.994141 0.015625)" xlink:href="#DejaVuSans-101"/>
      <use transform="translate(255.517578 0.015625)" xlink:href="#DejaVuSans-99"/>
      <use transform="translate(310.498047 0.015625)" xlink:href="#DejaVuSans-116"/>
      <use transform="translate(349.707031 0.015625)" xlink:href="#DejaVuSans-97"/>
      <use transform="translate(410.986328 0.015625)" xlink:href="#DejaVuSans-110"/>
      <use transform="translate(474.365234 0.015625)" xlink:href="#DejaVuSans-99"/>
      <use transform="translate(529.345703 0.015625)" xlink:href="#DejaVuSans-101"/>
      <use transform="translate(590.869141 0.015625)" xlink:href="#DejaVuSans-32"/>
      <use transform="translate(622.65625 0.015625)" xlink:href="#DejaVuSans-40"/>
      <use transform="translate(661.669922 0.015625)" xlink:href="#DejaVuSans-37"/>
      <use transform="translate(756.689453 0.015625)" xlink:href="#DejaVuSans-41"/>
     </g>
    </g>
   </g>
   <g id="line2d_14">
    <path clip-path="url(#p5681631ba1)" d="M 59.82 299.595195 
L 61.394857 299.474354 
L 64.544571 299.098546 
L 66.119429 298.983928 
L 70.975238 298.327371 
L 71.631429 298.074501 
L 72.287619 297.51722 
L 72.812571 296.822777 
L 73.337524 295.742055 
L 73.862476 294.17151 
L 74.387429 291.996278 
L 75.043619 288.305344 
L 77.01219 276.07834 
L 77.537143 274.335625 
L 78.062095 273.237366 
L 79.374476 271.578208 
L 79.76819 271.266418 
L 80.161905 271.230698 
L 80.555619 271.602215 
L 81.080571 272.636184 
L 81.736762 274.699532 
L 83.311619 280.304794 
L 83.96781 281.718657 
L 84.755238 282.864886 
L 85.411429 283.392694 
L 86.592571 284.22701 
L 87.117524 284.976279 
L 88.692381 287.537593 
L 89.217333 287.916889 
L 89.742286 287.998061 
L 90.398476 288.119854 
L 90.79219 288.463717 
L 91.317143 289.321809 
L 92.498286 291.496134 
L 93.023238 291.970665 
L 93.810667 292.690368 
L 94.729333 293.570017 
L 95.123048 293.634567 
L 95.779238 293.404428 
L 96.30419 292.925999 
L 96.829143 292.196019 
L 97.222857 291.272321 
L 97.485333 290.232466 
L 97.879048 287.429028 
L 98.272762 282.590551 
L 98.797714 272.872331 
L 99.978857 244.525126 
L 101.81619 203.212415 
L 102.866095 183.462237 
L 103.653524 172.183267 
L 104.440952 164.237681 
L 105.097143 159.746501 
L 105.753333 156.695355 
L 106.803238 153.162472 
L 107.459429 151.544336 
L 108.115619 150.516551 
L 108.77181 149.88798 
L 110.740381 148.645823 
L 111.52781 148.233496 
L 112.184 148.007022 
L 112.708952 147.718672 
L 113.627619 147.242177 
L 114.94 146.637574 
L 115.989905 146.115848 
L 117.958476 145.775514 
L 119.139619 145.20334 
L 120.976952 144.773257 
L 121.633143 144.321082 
L 126.226476 143.02769 
L 127.276381 142.861182 
L 128.195048 142.667336 
L 128.72 142.695821 
L 129.113714 142.763919 
L 129.37619 142.959482 
L 130.032381 143.188753 
L 130.426095 143.56947 
L 130.688571 143.78114 
L 130.951048 144.19187 
L 131.213524 144.381459 
L 131.869714 145.321525 
L 132.13219 146.242316 
L 132.394667 146.77185 
L 132.919619 147.988841 
L 133.57581 148.965413 
L 135.413143 148.852554 
L 136.069333 148.558271 
L 136.725524 148.095623 
L 137.381714 147.32031 
L 138.169143 146.188006 
L 140.137714 143.909479 
L 142.237524 141.267628 
L 142.762476 140.559255 
L 143.681143 139.625793 
L 145.91219 138.307707 
L 146.699619 137.815904 
L 147.487048 137.402629 
L 149.061905 137.087773 
L 151.161714 137.184031 
L 151.686667 137.413471 
L 153.392762 138.025399 
L 153.917714 138.008104 
L 155.098857 138.936678 
L 155.886286 140.776618 
L 156.93619 145.404083 
L 157.329905 147.585216 
L 158.642286 154.212574 
L 158.904762 155.01047 
L 159.429714 155.704592 
L 159.823429 156.143671 
L 160.742095 156.246985 
L 161.004571 156.322878 
L 161.398286 156.593503 
L 161.923238 156.379335 
L 162.710667 156.426736 
L 163.366857 156.469168 
L 163.760571 156.52821 
L 164.285524 156.647347 
L 164.679238 156.503692 
L 165.072952 156.203325 
L 165.335429 156.252 
L 165.597905 156.043719 
L 165.991619 155.799223 
L 167.172762 155.17992 
L 167.435238 155.011167 
L 167.828952 154.925936 
L 168.222667 154.725296 
L 168.616381 154.644091 
L 169.010095 154.476245 
L 172.028571 153.814709 
L 172.553524 153.887749 
L 173.078476 153.780372 
L 173.997143 154.010495 
L 174.522095 154.394306 
L 175.047048 154.672472 
L 175.572 155.11729 
L 176.22819 155.705552 
L 176.753143 156.24621 
L 177.409333 157.241808 
L 177.803048 157.865822 
M 197.62 273.009827 
L 198.538667 272.82167 
L 199.326095 272.252725 
L 200.376 270.649575 
L 200.900952 269.454288 
L 202.213333 266.630265 
L 202.607048 265.593505 
L 203.525714 262.795781 
L 204.706857 259.080769 
L 209.037714 244.04054 
L 211.924952 234.939659 
L 214.156 228.937608 
L 214.943429 227.06486 
L 215.730857 225.275116 
L 217.305714 221.536089 
L 219.143048 218.11962 
L 220.586667 215.981363 
L 221.242857 215.169441 
L 222.161524 214.103169 
L 222.555238 213.862615 
L 222.948952 213.380366 
L 223.342667 213.031566 
L 223.736381 212.588013 
L 224.52381 212.342232 
L 224.655048 212.42105 
L 224.786286 212.340706 
L 225.18 212.605284 
L 225.311238 212.633911 
L 225.704952 212.934754 
L 225.83619 212.933065 
L 226.229905 213.241718 
L 226.492381 213.283359 
L 226.623619 212.937062 
L 226.886095 213.120721 
L 228.723429 214.882537 
L 229.117143 215.376189 
L 229.510857 215.622694 
L 230.03581 216.242922 
L 232.660571 219.749626 
L 233.185524 220.656735 
L 234.10419 221.813061 
L 235.022857 222.716795 
L 235.154095 222.767928 
L 235.941524 223.789227 
L 236.204 224.150374 
L 237.647619 226.82983 
L 238.30381 228.127858 
L 238.96 229.315517 
L 239.747429 230.239729 
L 239.878667 230.244482 
L 240.272381 230.613395 
L 240.534857 230.677656 
L 241.191048 230.977722 
L 242.37219 231.550706 
L 243.028381 231.598725 
L 243.422095 231.427249 
M 264.551429 291.032335 
L 265.470095 290.890185 
L 266.52 290.600167 
L 267.701143 289.879807 
L 271.113333 287.469804 
L 272.294476 286.356923 
L 273.475619 285.30104 
L 276.88781 282.023128 
L 277.281524 281.662991 
L 278.068952 280.838009 
L 279.512571 279.512532 
L 280.037524 279.047516 
L 283.056 275.976326 
L 283.449714 275.62535 
L 286.336952 272.770659 
L 286.861905 272.353534 
L 287.649333 271.656063 
L 288.305524 271.283641 
L 290.011619 270.362482 
L 292.242667 269.369357 
L 293.817524 268.668965 
L 294.211238 268.592662 
L 295.261143 268.294569 
L 295.523619 268.224494 
L 296.17981 267.974205 
L 297.885905 267.776744 
L 299.723238 267.779491 
L 300.641905 268.17129 
L 301.429333 269.042498 
L 302.872952 270.97626 
L 303.791619 272.362779 
L 304.44781 273.176361 
L 306.416381 275.198499 
L 306.941333 275.71378 
L 309.566095 278.757055 
L 310.616 279.541981 
L 313.634476 281.754231 
L 314.159429 282.271512 
L 315.603048 283.328214 
L 315.996762 283.568316 
L 316.915429 284.161827 
L 318.884 285.605007 
L 319.146476 285.815013 
L 327.283238 291.235036 
L 330.957905 293.029412 
L 332.00781 293.24059 
L 333.845143 293.545779 
L 334.501333 293.620612 
L 335.42 293.740772 
L 335.42 293.740772 
" style="fill:none;stroke:#bfce68;stroke-linecap:square;stroke-width:1.5;"/>
   </g>
   <g id="line2d_15">
    <path clip-path="url(#p5681631ba1)" d="M 59.82 305.526863 
L 61.001143 305.285393 
L 62.707238 304.770544 
L 64.282095 304.382555 
L 67.956762 303.891072 
L 70.844 303.618408 
L 71.631429 303.340649 
L 72.156381 302.960403 
L 72.681333 302.313244 
L 73.206286 301.269902 
L 73.731238 299.690342 
L 74.25619 297.414176 
L 74.912381 293.394079 
L 75.962286 285.068839 
L 76.749714 279.474707 
L 77.274667 276.929256 
L 77.799619 275.342653 
L 78.324571 274.410767 
L 79.636952 272.837906 
L 80.030667 272.745685 
L 80.293143 272.938092 
L 80.555619 273.332156 
L 81.080571 274.680914 
L 81.736762 277.282817 
L 83.311619 284.286293 
L 84.099048 286.426002 
L 84.755238 287.640338 
L 85.411429 288.37283 
L 86.592571 289.577666 
L 87.117524 290.568195 
L 88.692381 293.878415 
L 89.217333 294.419434 
L 89.742286 294.640306 
L 90.398476 294.907406 
L 90.79219 295.368392 
L 91.317143 296.469224 
L 92.498286 299.191538 
L 93.154476 299.982256 
L 93.810667 300.863904 
L 94.598095 301.942291 
L 94.99181 302.172352 
L 95.385524 302.178777 
L 95.910476 301.930519 
L 96.435429 301.41782 
L 96.960381 300.570323 
L 97.354095 299.349266 
L 97.616571 297.872176 
L 98.010286 293.967853 
L 98.404 287.506342 
L 98.928952 275.090746 
L 100.372571 232.422071 
L 102.734857 165.56562 
L 103.653524 145.863693 
L 104.440952 133.837061 
L 105.097143 126.959306 
L 105.753333 122.403281 
L 106.672 117.848358 
L 107.459429 115.000426 
L 108.115619 113.486509 
L 108.640571 112.725199 
L 109.296762 112.147975 
L 109.952952 111.867644 
L 114.021333 110.689656 
L 115.989905 110.36456 
L 116.777333 110.523097 
L 118.35219 110.375807 
L 119.270857 110.218369 
L 126.226476 109.628563 
L 127.276381 109.729636 
L 127.670095 109.826367 
L 128.588762 110.249425 
L 129.113714 110.635267 
L 129.37619 111.08588 
L 129.901143 111.592444 
L 130.163619 112.089854 
L 131.738476 115.412877 
L 133.313333 121.636988 
L 133.57581 122.345166 
L 133.969524 122.566381 
L 134.363238 122.731549 
L 135.544381 122.820539 
L 136.069333 122.545466 
L 136.725524 122.00921 
L 137.512952 120.956958 
L 139.350286 118.240428 
L 143.287429 111.721661 
L 144.468571 110.435983 
L 146.305905 109.030161 
L 147.093333 108.583764 
L 148.143238 108.331916 
L 149.061905 108.357691 
L 150.11181 108.719572 
L 151.292952 109.441986 
L 151.555429 109.670875 
L 151.817905 109.805331 
L 152.342857 110.246024 
L 153.130286 110.867584 
L 153.392762 111.152225 
L 153.917714 111.298976 
L 155.098857 112.983877 
L 155.886286 116.05272 
L 156.93619 123.626226 
L 157.329905 127.098801 
L 158.511048 136.558796 
L 158.904762 138.675055 
L 159.560952 140.015388 
L 159.954667 140.595608 
L 161.004571 140.998776 
L 161.398286 141.501432 
L 161.792 141.331867 
L 164.285524 142.394889 
L 164.548 142.395525 
L 165.072952 141.929714 
L 165.335429 142.066578 
L 165.597905 141.854331 
L 165.860381 141.662818 
L 166.122857 141.637558 
L 166.516571 141.337779 
L 166.910286 141.347568 
L 167.435238 140.805481 
L 167.828952 140.802769 
L 168.222667 140.639855 
L 168.616381 140.64366 
L 169.535048 140.213502 
L 169.797524 140.22239 
L 170.06 140.294197 
L 170.322476 140.244731 
L 170.71619 140.052895 
L 171.372381 139.95984 
L 171.766095 139.832098 
L 172.15981 140.007005 
L 172.553524 140.13356 
L 173.078476 140.03196 
L 173.997143 140.407745 
L 174.390857 140.890218 
L 174.91581 141.503866 
L 175.178286 141.740352 
L 175.703238 142.676677 
L 176.359429 143.646873 
L 177.015619 144.884425 
L 177.803048 146.900774 
M 197.62 288.401968 
L 198.669905 288.163665 
L 199.063619 287.921548 
L 199.588571 287.33186 
L 199.982286 286.717773 
L 200.507238 285.777438 
L 202.213333 281.641053 
L 202.607048 280.564432 
L 203.525714 277.615998 
L 204.575619 274.033371 
L 210.875048 250.204566 
L 215.468381 236.441824 
L 216.518286 233.463366 
L 217.305714 231.526495 
L 218.486857 228.905001 
L 218.880571 228.189115 
L 219.274286 227.390946 
L 220.32419 225.552311 
L 220.849143 224.60234 
L 220.980381 224.507804 
L 221.374095 223.928646 
L 221.505333 223.892863 
L 221.899048 223.229018 
L 222.030286 223.172687 
L 222.424 222.671073 
L 222.555238 222.650379 
L 222.948952 222.059597 
L 223.342667 221.645529 
L 223.736381 221.162835 
L 224.130095 221.106819 
L 224.261333 220.912963 
L 224.392571 221.071554 
L 224.52381 221.003557 
L 224.655048 221.093223 
L 224.786286 220.9829 
L 225.048762 221.211299 
L 226.492381 222.025919 
L 226.623619 221.591088 
L 226.886095 221.821386 
L 228.460952 223.641492 
L 229.117143 224.618875 
L 229.510857 224.965721 
L 230.03581 225.779078 
L 233.841714 232.191507 
L 233.972952 232.248235 
L 234.497905 232.839852 
L 236.072762 234.772169 
L 238.566286 240.243168 
L 239.61619 241.875652 
L 240.141143 242.235496 
L 240.403619 242.460704 
L 240.666095 242.473859 
L 241.978476 243.472544 
L 242.765905 243.608574 
L 243.422095 243.415798 
M 264.551429 306.365989 
L 265.470095 306.233042 
L 266.651238 305.917204 
L 267.701143 305.487785 
L 270.588381 303.717094 
L 272.68819 302.016118 
L 273.344381 301.52024 
L 274.525524 300.507934 
L 275.050476 300.079352 
L 275.837905 299.409743 
L 276.362857 299.00026 
L 281.349905 294.173768 
L 282.531048 292.946521 
L 283.318476 292.15491 
L 284.893333 290.643483 
L 286.993143 288.660047 
L 288.174286 287.822793 
L 288.961714 287.278187 
L 290.274095 286.458711 
L 292.373905 285.361631 
L 295.129905 283.804889 
L 295.523619 283.715654 
L 296.17981 283.501543 
L 298.148381 283.114145 
L 299.460762 283.263769 
L 300.24819 283.699193 
L 301.298095 284.760415 
L 302.872952 287.036079 
L 303.529143 288.056434 
L 305.76019 290.923028 
L 307.335048 292.520072 
L 307.991238 293.315322 
L 308.909905 294.29611 
L 309.828571 295.061843 
L 310.091048 295.326476 
L 313.634476 297.735278 
L 314.02819 298.099891 
L 315.996762 299.51188 
L 317.177905 300.197456 
L 317.440381 300.412327 
L 318.359048 300.961162 
L 318.752762 301.242603 
L 319.277714 301.567255 
L 324.396 304.596833 
L 325.445905 305.166072 
L 325.970857 305.480033 
L 327.939429 306.384252 
L 328.595619 306.684036 
L 329.908 307.19035 
L 330.56419 307.41362 
L 334.238857 308.079774 
L 335.42 308.145191 
L 335.42 308.145191 
" style="fill:none;stroke:#aac03b;stroke-linecap:square;stroke-width:1.5;"/>
   </g>
   <g id="line2d_16">
    <path clip-path="url(#p5681631ba1)" d="M 59.82 306.273099 
L 61.001143 305.99534 
L 62.576 305.463757 
L 64.150857 305.000643 
L 66.250667 304.66325 
L 70.18781 304.265832 
L 71.237714 304.067274 
L 71.893905 303.72323 
L 72.418857 303.220355 
L 72.94381 302.359389 
L 73.468762 301.016742 
L 73.993714 299.024949 
L 74.518667 296.219363 
L 75.174857 291.478784 
L 76.880952 278.097291 
L 77.405905 275.688316 
L 77.930857 274.230421 
L 78.45581 273.370238 
L 79.636952 271.92152 
L 80.030667 271.833086 
L 80.293143 272.042649 
L 80.555619 272.465931 
L 81.080571 273.904526 
L 81.736762 276.668631 
L 83.311619 284.100286 
L 84.099048 286.3868 
L 84.755238 287.682799 
L 85.411429 288.470171 
L 86.592571 289.772233 
L 87.117524 290.832069 
L 88.692381 294.363625 
L 89.217333 294.948021 
L 89.742286 295.200412 
L 90.398476 295.500907 
L 90.79219 295.99493 
L 91.317143 297.168204 
L 92.498286 300.060001 
L 93.154476 300.910407 
L 93.810667 301.861799 
L 94.598095 303.014381 
L 94.99181 303.266191 
L 95.385524 303.280975 
L 95.910476 303.025399 
L 96.435429 302.501662 
L 96.960381 301.624936 
L 97.354095 300.355159 
L 97.616571 298.812963 
L 98.010286 294.722886 
L 98.404 287.935234 
L 98.928952 274.86036 
L 100.241333 233.732911 
L 103.128571 145.402608 
L 104.047238 125.374971 
L 104.703429 115.161181 
L 105.359619 108.041654 
L 106.01581 103.311529 
L 106.934476 98.258077 
L 107.590667 95.670322 
L 108.246857 93.978389 
L 108.77181 93.151587 
L 109.296762 92.673624 
L 109.952952 92.44244 
L 114.546286 91.442862 
L 115.59619 91.381735 
L 116.777333 91.725873 
L 118.745905 91.693199 
L 119.402095 91.651152 
L 124.126667 91.635773 
L 124.914095 91.6731 
L 126.226476 91.730233 
L 127.145143 91.940507 
L 127.538857 92.024845 
L 127.932571 92.254551 
L 128.195048 92.400062 
L 128.588762 92.830076 
L 129.113714 93.384863 
L 129.37619 93.981374 
L 129.901143 94.676514 
L 130.163619 95.325178 
L 131.738476 99.60196 
L 133.182095 106.879949 
L 133.57581 108.21061 
L 133.969524 108.517003 
L 134.363238 108.753313 
L 135.544381 108.976837 
L 135.938095 108.760873 
L 136.594286 108.23303 
L 137.381714 107.180628 
L 140.793905 101.065773 
L 143.681143 95.680226 
L 144.731048 94.381039 
L 145.256 93.819933 
L 145.91219 93.259143 
L 146.568381 92.830709 
L 147.35581 92.538569 
L 148.143238 92.401881 
L 149.061905 92.495707 
L 149.586857 92.809354 
L 150.374286 93.253557 
L 151.949143 94.683512 
L 152.342857 95.062456 
L 152.736571 95.556241 
L 153.524 96.319668 
L 153.786476 96.332087 
L 154.573905 97.600606 
L 155.230095 99.204774 
L 155.886286 102.395422 
L 157.067429 113.360216 
L 157.723619 120.858402 
L 158.117333 123.893497 
L 159.036 129.746419 
L 160.085905 131.697757 
L 160.348381 131.797041 
L 160.742095 131.961299 
L 160.873333 131.983348 
L 161.13581 132.448834 
L 161.398286 132.762365 
L 161.792 132.609584 
L 164.154286 133.950874 
L 164.548 134.022555 
L 165.072952 133.519427 
L 165.335429 133.693765 
L 165.597905 133.474923 
L 165.860381 133.285155 
L 166.122857 133.286283 
L 166.516571 132.959187 
L 166.910286 132.987463 
L 167.435238 132.393948 
L 167.828952 132.423329 
L 168.222667 132.271263 
L 168.616381 132.308464 
L 169.535048 131.842716 
L 169.797524 131.870246 
L 170.06 131.965048 
L 170.322476 131.920505 
L 170.71619 131.720021 
L 171.372381 131.643274 
L 171.766095 131.506348 
L 172.15981 131.717304 
L 172.553524 131.880217 
L 173.078476 131.778193 
L 173.997143 132.218843 
L 174.390857 132.798012 
L 174.784571 133.40382 
L 175.309524 134.037663 
L 176.490667 136.333092 
L 177.015619 137.526376 
L 177.803048 139.866236 
M 197.62 290.502043 
L 198.801143 290.212503 
L 199.063619 290.023864 
L 199.457333 289.595016 
L 200.113524 288.569395 
L 201.950857 284.249915 
L 203.78819 278.48014 
L 206.019238 270.190398 
L 206.937905 266.45486 
L 207.200381 265.435822 
L 207.856571 262.842986 
L 211.793714 247.931257 
L 216.780762 233.121903 
L 218.224381 229.529216 
L 218.618095 228.83226 
L 219.799238 226.499816 
L 220.061714 226.067789 
L 221.111619 224.187087 
L 223.08019 221.786568 
L 223.473905 221.246858 
L 223.605143 221.238771 
L 223.867619 220.956879 
L 223.998857 220.87987 
L 224.130095 220.942172 
L 224.261333 220.741653 
L 224.392571 220.917411 
L 224.52381 220.85046 
L 224.655048 220.944632 
L 224.786286 220.825982 
L 225.048762 221.065757 
L 226.492381 221.903074 
L 226.623619 221.442148 
L 226.886095 221.688426 
L 228.460952 223.614144 
L 229.117143 224.643814 
L 229.510857 225.017447 
L 230.03581 225.882992 
L 233.316762 231.720223 
L 234.366667 233.20227 
L 234.629143 233.420572 
L 234.891619 233.745868 
L 235.54781 234.445232 
L 237.647619 238.825621 
L 238.30381 240.454408 
L 238.96 241.675499 
L 239.747429 242.643406 
L 239.878667 242.652812 
L 240.141143 242.955297 
L 240.403619 243.184078 
L 240.666095 243.187394 
L 242.240952 244.379253 
L 242.503429 244.354717 
L 243.028381 244.405829 
L 243.422095 244.199884 
M 264.551429 308.935179 
L 265.470095 308.801637 
L 266.651238 308.491965 
L 267.438667 308.212929 
L 271.113333 305.925968 
L 272.294476 304.960095 
L 273.081905 304.320466 
L 273.869333 303.661036 
L 274.656762 303.029663 
L 275.312952 302.487757 
L 276.100381 301.820634 
L 276.625333 301.411914 
L 278.987619 299.123326 
L 279.64381 298.455968 
L 282.531048 295.438721 
L 283.187238 294.781829 
L 284.105905 293.802798 
L 284.762095 293.214962 
L 287.780571 290.487005 
L 290.799048 288.486908 
L 291.192762 288.286135 
L 292.636381 287.487811 
L 293.161333 287.188639 
L 294.08 286.540406 
L 295.261143 285.951029 
L 298.279619 285.243363 
L 299.592 285.497053 
L 300.24819 285.910996 
L 301.429333 287.201547 
L 302.479238 288.796431 
L 305.235238 292.760289 
L 307.728762 295.507554 
L 308.51619 296.332331 
L 309.697333 297.478197 
L 310.222286 297.91286 
L 311.797143 298.87618 
L 312.322095 299.256697 
L 314.290667 300.810539 
L 314.553143 301.071336 
L 315.996762 302.06795 
L 317.177905 302.751365 
L 317.440381 302.963266 
L 318.359048 303.510554 
L 318.752762 303.791669 
L 319.277714 304.115156 
L 324.264762 307.059194 
L 328.595619 309.187292 
L 330.301714 309.797213 
L 331.089143 310.036384 
L 334.107619 310.549177 
L 335.42 310.61357 
L 335.42 310.61357 
" style="fill:none;stroke:#8fb926;stroke-linecap:square;stroke-width:1.5;"/>
   </g>
   <g id="line2d_17">
    <path clip-path="url(#p5681631ba1)" d="M 59.82 306.223958 
L 61.001143 305.927937 
L 62.576 305.367529 
L 64.150857 304.877139 
L 66.250667 304.516235 
L 69.925333 304.121345 
L 71.106476 303.933003 
L 71.762667 303.629717 
L 72.287619 303.177788 
L 72.812571 302.398594 
L 73.337524 301.152213 
L 73.862476 299.282831 
L 74.387429 296.62407 
L 75.043619 292.002963 
L 77.01219 276.417292 
L 77.537143 274.205122 
L 78.062095 272.891735 
L 79.374476 271.02436 
L 79.76819 270.71246 
L 80.030667 270.682874 
L 80.293143 270.897626 
L 80.555619 271.332713 
L 81.080571 272.812696 
L 81.736762 275.657968 
L 83.311619 283.313235 
L 84.099048 285.672405 
L 84.755238 287.008947 
L 85.411429 287.821138 
L 86.592571 289.165958 
L 87.117524 290.260782 
L 88.692381 293.909279 
L 89.217333 294.513991 
L 89.742286 294.777089 
L 90.398476 295.089401 
L 90.79219 295.600223 
L 91.317143 296.81324 
L 92.498286 299.802838 
L 93.154476 300.683613 
L 93.810667 301.66989 
L 94.598095 302.862969 
L 94.99181 303.124196 
L 95.385524 303.13991 
L 95.910476 302.875232 
L 96.435429 302.334879 
L 96.960381 301.429722 
L 97.354095 300.119039 
L 97.616571 298.526742 
L 98.010286 294.30319 
L 98.404 287.295933 
L 98.928952 273.808432 
L 100.241333 231.429626 
L 103.25981 135.763268 
L 104.047238 117.679511 
L 104.834667 104.719821 
L 105.490857 97.490168 
L 106.278286 91.693192 
L 107.196952 86.571375 
L 107.853143 84.109759 
L 108.509333 82.555965 
L 109.034286 81.846067 
L 109.559238 81.504561 
L 113.890095 80.54918 
L 115.464952 80.463859 
L 116.514857 80.844023 
L 116.908571 80.938007 
L 117.564762 81.005318 
L 123.208 81.057999 
L 125.045333 81.208729 
L 126.226476 81.314548 
L 126.751429 81.415353 
L 127.538857 81.69206 
L 127.932571 81.974501 
L 128.195048 82.154348 
L 128.588762 82.661777 
L 129.113714 83.30985 
L 129.37619 83.990627 
L 129.901143 84.790751 
L 130.163619 85.526486 
L 131.738476 90.347889 
L 133.182095 98.427675 
L 133.57581 99.899691 
L 133.969524 100.247891 
L 134.363238 100.518648 
L 135.413143 100.826362 
L 135.806857 100.672025 
L 136.725524 99.84198 
L 137.775429 98.287042 
L 139.350286 95.347457 
L 142.762476 88.066006 
L 143.024952 87.633179 
L 143.812381 86.197585 
L 144.993524 84.599113 
L 146.174667 83.577822 
L 147.093333 83.077333 
L 148.012 82.865829 
L 148.405714 82.874467 
L 148.799429 82.969025 
L 149.193143 83.033718 
L 151.030476 84.361244 
L 151.686667 85.180096 
L 151.949143 85.490161 
L 152.342857 85.913495 
L 152.605333 86.266879 
L 152.999048 86.738597 
L 153.524 87.357354 
L 153.786476 87.379064 
L 154.573905 88.797016 
L 155.230095 90.574605 
L 155.886286 94.100284 
L 157.329905 108.682959 
L 158.37981 119.572648 
L 158.904762 123.366451 
L 159.69219 125.392995 
L 159.954667 125.802779 
L 161.004571 126.359184 
L 161.267048 126.955881 
L 161.398286 127.01227 
L 161.792 126.863409 
L 163.89181 128.199648 
L 164.548 128.425311 
L 164.810476 128.063622 
L 164.941714 127.866135 
L 165.20419 128.022937 
L 165.466667 128.037611 
L 165.860381 127.675707 
L 166.122857 127.686764 
L 166.516571 127.344762 
L 166.910286 127.380145 
L 167.435238 126.759145 
L 167.828952 126.800969 
L 168.222667 126.65081 
L 168.616381 126.70079 
L 169.535048 126.214621 
L 169.797524 126.249553 
L 170.06 126.354158 
L 170.322476 126.311001 
L 170.71619 126.104378 
L 171.372381 126.032705 
L 171.766095 125.890242 
L 172.15981 126.117569 
L 172.553524 126.296274 
L 173.078476 126.192571 
L 173.997143 126.662852 
L 174.390857 127.286238 
L 174.784571 127.935661 
L 175.309524 128.614862 
L 176.490667 131.079272 
L 177.015619 132.347197 
L 177.803048 134.833604 
M 197.62 290.179095 
L 198.801143 289.884476 
L 199.063619 289.690802 
L 199.457333 289.24997 
L 200.113524 288.192965 
L 201.950857 283.743702 
L 203.78819 277.80576 
L 206.019238 269.280708 
L 206.937905 265.445321 
L 207.200381 264.400157 
L 207.856571 261.738241 
L 211.793714 246.44602 
L 216.912 230.946471 
L 217.56819 229.280742 
L 218.093143 227.892183 
L 219.799238 224.530526 
L 220.061714 224.088629 
L 221.111619 222.164861 
L 223.08019 219.717975 
L 223.473905 219.164909 
L 223.605143 219.157466 
L 223.867619 218.871184 
L 223.998857 218.793147 
L 224.130095 218.859078 
L 224.261333 218.654281 
L 224.392571 218.837024 
L 224.52381 218.769628 
L 224.655048 218.866627 
L 224.786286 218.744379 
L 225.048762 218.990609 
L 226.492381 219.844106 
L 226.623619 219.370366 
L 226.886095 219.624755 
L 228.460952 221.602016 
L 229.117143 222.657903 
L 229.510857 223.0425 
L 230.03581 223.931382 
L 232.529333 228.490066 
L 232.79181 228.977322 
L 233.448 230.120894 
L 234.366667 231.423747 
L 234.629143 231.646335 
L 234.891619 231.977488 
L 235.54781 232.687915 
L 237.647619 237.163129 
L 238.30381 238.832869 
L 238.828762 239.837057 
L 239.484952 240.808402 
L 239.747429 241.060608 
L 239.878667 241.071334 
L 240.141143 241.382238 
L 240.403619 241.61384 
L 240.666095 241.61182 
L 242.240952 242.843274 
L 242.503429 242.814779 
L 243.028381 242.870083 
L 243.422095 242.66072 
M 264.551429 309.204559 
L 265.470095 309.067284 
L 266.651238 308.750038 
L 267.438667 308.468073 
L 271.113333 306.114906 
L 272.294476 305.122431 
L 273.081905 304.464499 
L 273.869333 303.785239 
L 274.656762 303.137753 
L 275.181714 302.654158 
L 275.575429 302.374433 
L 276.88781 301.213974 
L 277.281524 300.907512 
L 278.725143 299.37873 
L 279.250095 298.860882 
L 280.693714 297.28467 
L 280.95619 297.041142 
L 281.743619 296.189436 
L 283.449714 294.329815 
L 284.237143 293.546151 
L 285.812 291.942604 
L 286.599429 291.229959 
L 287.649333 290.302578 
L 288.174286 289.964001 
L 288.961714 289.386523 
L 290.011619 288.68976 
L 293.817524 286.355429 
L 295.261143 285.546633 
L 298.279619 284.81742 
L 299.592 285.087532 
L 300.24819 285.519094 
L 301.429333 286.850635 
L 302.479238 288.493506 
L 305.235238 292.575772 
L 307.728762 295.401696 
L 308.384952 296.12202 
L 310.747238 298.216091 
L 311.140952 298.474784 
L 313.634476 300.284312 
L 314.02819 300.65995 
L 316.259238 302.30763 
L 317.177905 302.848284 
L 317.440381 303.065393 
L 318.359048 303.627444 
L 318.752762 303.916228 
L 319.146476 304.167885 
L 325.708381 308.07597 
L 327.152 308.789387 
L 327.80819 309.102686 
L 329.120571 309.652583 
L 329.645524 309.877237 
L 333.976381 310.84593 
L 335.42 310.915641 
L 335.42 310.915641 
" style="fill:none;stroke:#67a612;stroke-linecap:square;stroke-width:1.5;"/>
   </g>
   <g id="line2d_18">
    <path clip-path="url(#p5681631ba1)" d="M 59.82 306.076922 
L 61.001143 305.767326 
L 62.576 305.185945 
L 64.150857 304.676159 
L 66.119429 304.316704 
L 69.531619 303.913274 
L 70.975238 303.72156 
L 71.631429 303.454113 
L 72.156381 303.051777 
L 72.681333 302.349238 
L 73.206286 301.209262 
L 73.731238 299.478078 
L 74.25619 296.973132 
L 74.912381 292.530487 
L 75.962286 283.315191 
L 76.749714 277.112077 
L 77.274667 274.285451 
L 77.799619 272.526418 
L 78.324571 271.49711 
L 79.636952 269.77108 
L 80.030667 269.674072 
L 80.293143 269.891335 
L 80.555619 270.333737 
L 81.080571 271.841452 
L 81.736762 274.7435 
L 83.311619 282.55866 
L 84.099048 284.968676 
L 84.755238 286.333644 
L 85.411429 287.162467 
L 86.592571 288.535535 
L 87.117524 289.655112 
L 88.692381 293.388009 
L 89.217333 294.006616 
L 89.742286 294.275691 
L 90.398476 294.594811 
L 90.79219 295.117577 
L 91.317143 296.359761 
L 92.498286 299.422513 
L 93.154476 300.324927 
L 93.810667 301.33592 
L 94.598095 302.558824 
L 94.99181 302.826397 
L 95.385524 302.841914 
L 95.779238 302.663187 
L 96.30419 302.180235 
L 96.829143 301.371299 
L 97.222857 300.29316 
L 97.485333 299.025551 
L 97.879048 295.520122 
L 98.272762 289.317499 
L 98.797714 276.622275 
L 99.716381 247.086722 
L 103.25981 131.614688 
L 104.047238 112.841686 
L 104.834667 99.27511 
L 105.490857 91.660409 
L 106.278286 85.527306 
L 107.196952 80.085022 
L 107.853143 77.458373 
L 108.509333 75.796106 
L 109.034286 75.036677 
L 109.559238 74.686363 
L 114.415048 73.682385 
L 115.59619 73.716357 
L 116.252381 73.982574 
L 117.827238 74.274445 
L 118.877143 74.262515 
L 124.126667 74.520076 
L 124.651619 74.561677 
L 126.882667 74.883451 
L 127.276381 75.050377 
L 127.538857 75.149913 
L 127.932571 75.460428 
L 128.195048 75.658552 
L 128.588762 76.209211 
L 129.113714 76.90947 
L 129.37619 77.638949 
L 129.901143 78.497943 
L 130.163619 79.283663 
L 131.738476 84.415229 
L 133.182095 92.947377 
L 133.57581 94.496368 
L 133.969524 94.865197 
L 134.363238 95.152627 
L 135.413143 95.486107 
L 135.806857 95.326307 
L 136.725524 94.460767 
L 137.775429 92.85517 
L 139.350286 89.780191 
L 142.762476 82.134359 
L 143.024952 81.683189 
L 143.812381 80.162045 
L 144.862286 78.625711 
L 145.780952 77.611043 
L 147.224571 76.828921 
L 147.749524 76.695115 
L 148.405714 76.67172 
L 148.799429 76.774369 
L 149.193143 76.846314 
L 151.030476 78.282097 
L 151.686667 79.150817 
L 151.949143 79.4793 
L 152.342857 79.928453 
L 152.605333 80.306329 
L 152.999048 80.812997 
L 153.524 81.475992 
L 153.786476 81.502031 
L 154.573905 83.004095 
L 155.230095 84.88005 
L 155.886286 88.595451 
L 157.329905 103.860444 
L 158.37981 115.165485 
L 158.904762 119.08799 
L 159.69219 121.181307 
L 159.954667 121.605931 
L 161.004571 122.183284 
L 161.267048 122.8002 
L 161.398286 122.859278 
L 161.792 122.710359 
L 163.89181 124.104062 
L 164.548 124.33925 
L 164.810476 123.96805 
L 164.941714 123.765791 
L 165.20419 123.929244 
L 165.335429 124.001278 
L 165.597905 123.772981 
L 165.860381 123.578774 
L 166.122857 123.593647 
L 166.516571 123.243153 
L 166.910286 123.281377 
L 167.435238 122.645138 
L 167.828952 122.692031 
L 168.222667 122.541303 
L 168.616381 122.596135 
L 169.535048 122.098035 
L 169.797524 122.136138 
L 170.06 122.245191 
L 170.322476 122.202454 
L 170.71619 121.991692 
L 171.372381 121.921413 
L 171.766095 121.775579 
L 172.15981 122.010902 
L 172.553524 122.196897 
L 173.078476 122.091695 
L 173.997143 122.576357 
L 174.390857 123.221469 
L 174.784571 123.892417 
L 175.309524 124.593514 
L 176.359429 126.874559 
L 177.015619 128.444531 
L 177.803048 131.003452 
M 197.62 289.532234 
L 198.801143 289.231159 
L 199.063619 289.032585 
L 199.457333 288.580437 
L 200.113524 287.495845 
L 201.950857 282.931688 
L 203.78819 276.843966 
L 206.019238 268.112473 
L 206.937905 264.187605 
L 207.200381 263.11875 
L 207.856571 260.396575 
L 211.793714 244.77453 
L 216.780762 229.333903 
L 218.224381 225.589401 
L 218.618095 224.870236 
L 219.799238 222.443103 
L 220.061714 221.993419 
L 221.111619 220.035607 
L 223.08019 217.548856 
L 223.473905 216.985048 
L 223.605143 216.977609 
L 223.867619 216.68684 
L 223.998857 216.607543 
L 224.130095 216.675277 
L 224.261333 216.46684 
L 224.392571 216.653779 
L 224.52381 216.585495 
L 224.655048 216.684661 
L 224.786286 216.560003 
L 225.048762 216.811142 
L 226.492381 217.678744 
L 226.623619 217.195737 
L 226.886095 217.455755 
L 228.460952 219.470168 
L 229.117143 220.54557 
L 229.510857 220.937311 
L 230.03581 221.842528 
L 232.529333 226.487902 
L 232.79181 226.982977 
L 233.448 228.147164 
L 234.366667 229.471753 
L 234.629143 229.698427 
L 234.891619 230.035181 
L 235.54781 230.757169 
L 237.647619 235.311628 
L 238.30381 237.014172 
L 238.828762 238.034718 
L 239.484952 239.023158 
L 239.747429 239.282461 
L 239.878667 239.293977 
L 240.141143 239.611628 
L 240.403619 239.846336 
L 240.666095 239.841301 
L 242.240952 241.101452 
L 242.503429 241.070827 
L 243.028381 241.12893 
L 243.422095 240.916596 
M 264.551429 309.089198 
L 265.470095 308.948159 
L 266.651238 308.62216 
L 267.438667 308.333104 
L 271.113333 305.912843 
L 272.294476 304.892448 
L 273.081905 304.215929 
L 273.869333 303.517436 
L 274.656762 302.852236 
L 275.181714 302.355766 
L 275.575429 302.068642 
L 276.88781 300.876268 
L 277.281524 300.561641 
L 278.725143 298.990665 
L 279.250095 298.45825 
L 280.693714 296.838554 
L 280.95619 296.588461 
L 281.743619 295.713769 
L 283.449714 293.803631 
L 284.237143 293.000294 
L 285.812 291.355096 
L 286.599429 290.624021 
L 287.649333 289.673236 
L 288.174286 289.325761 
L 288.961714 288.73349 
L 290.011619 288.018552 
L 293.817524 285.623025 
L 295.129905 284.807784 
L 295.654857 284.641433 
L 298.279619 284.044944 
L 299.592 284.323757 
L 300.24819 284.76736 
L 301.429333 286.133423 
L 302.479238 287.819046 
L 305.235238 292.007984 
L 307.728762 294.90828 
L 308.384952 295.647283 
L 310.747238 297.797053 
L 311.140952 298.062618 
L 313.634476 299.920609 
L 314.02819 300.306365 
L 316.259238 302.000076 
L 317.177905 302.555402 
L 317.440381 302.778391 
L 318.22781 303.290287 
L 318.884 303.70725 
L 319.146476 303.911411 
L 325.708381 307.927785 
L 327.152 308.660894 
L 327.80819 308.983053 
L 329.120571 309.548464 
L 329.645524 309.779289 
L 333.976381 310.775987 
L 335.42 310.847008 
L 335.42 310.847008 
" style="fill:none;stroke:#477706;stroke-linecap:square;stroke-width:1.5;"/>
   </g>
   <g id="patch_3">
    <path d="M 46.04 316.12 
L 46.04 28.08 
" style="fill:none;stroke:#000000;stroke-linecap:square;stroke-linejoin:miter;stroke-width:0.8;"/>
   </g>
   <g id="patch_4">
    <path d="M 349.2 316.12 
L 349.2 28.08 
" style="fill:none;stroke:#000000;stroke-linecap:square;stroke-linejoin:miter;stroke-width:0.8;"/>
   </g>
   <g id="patch_5">
    <path d="M 46.04 316.12 
L 349.2 316.12 
" style="fill:none;stroke:#000000;stroke-linecap:square;stroke-linejoin:miter;stroke-width:0.8;"/>
   </g>
   <g id="patch_6">
    <path d="M 46.04 28.08 
L 349.2 28.08 
" style="fill:none;stroke:#000000;stroke-linecap:square;stroke-linejoin:miter;stroke-width:0.8;"/>
   </g>
   <g id="text_16">
    <!-- Leaf Area Index -->
    <g transform="translate(139.048516 22.08)scale(0.15 -0.15)">
     <defs>
      <path d="M 9.8125 72.90625 
L 19.671875 72.90625 
L 19.671875 8.296875 
L 55.171875 8.296875 
L 55.171875 0 
L 9.8125 0 
z
" id="DejaVuSans-76"/>
      <path d="M 34.1875 63.1875 
L 20.796875 26.90625 
L 47.609375 26.90625 
z
M 28.609375 72.90625 
L 39.796875 72.90625 
L 67.578125 0 
L 57.328125 0 
L 50.6875 18.703125 
L 17.828125 18.703125 
L 11.1875 0 
L 0.78125 0 
z
" id="DejaVuSans-65"/>
      <path d="M 41.109375 46.296875 
Q 39.59375 47.171875 37.8125 47.578125 
Q 36.03125 48 33.890625 48 
Q 26.265625 48 22.1875 43.046875 
Q 18.109375 38.09375 18.109375 28.8125 
L 18.109375 0 
L 9.078125 0 
L 9.078125 54.6875 
L 18.109375 54.6875 
L 18.109375 46.1875 
Q 20.953125 51.171875 25.484375 53.578125 
Q 30.03125 56 36.53125 56 
Q 37.453125 56 38.578125 55.875 
Q 39.703125 55.765625 41.0625 55.515625 
z
" id="DejaVuSans-114"/>
      <path d="M 9.8125 72.90625 
L 19.671875 72.90625 
L 19.671875 0 
L 9.8125 0 
z
" id="DejaVuSans-73"/>
      <path d="M 45.40625 46.390625 
L 45.40625 75.984375 
L 54.390625 75.984375 
L 54.390625 0 
L 45.40625 0 
L 45.40625 8.203125 
Q 42.578125 3.328125 38.25 0.953125 
Q 33.9375 -1.421875 27.875 -1.421875 
Q 17.96875 -1.421875 11.734375 6.484375 
Q 5.515625 14.40625 5.515625 27.296875 
Q 5.515625 40.1875 11.734375 48.09375 
Q 17.96875 56 27.875 56 
Q 33.9375 56 38.25 53.625 
Q 42.578125 51.265625 45.40625 46.390625 
z
M 14.796875 27.296875 
Q 14.796875 17.390625 18.875 11.75 
Q 22.953125 6.109375 30.078125 6.109375 
Q 37.203125 6.109375 41.296875 11.75 
Q 45.40625 17.390625 45.40625 27.296875 
Q 45.40625 37.203125 41.296875 42.84375 
Q 37.203125 48.484375 30.078125 48.484375 
Q 22.953125 48.484375 18.875 42.84375 
Q 14.796875 37.203125 14.796875 27.296875 
z
" id="DejaVuSans-100"/>
      <path d="M 54.890625 54.6875 
L 35.109375 28.078125 
L 55.90625 0 
L 45.3125 0 
L 29.390625 21.484375 
L 13.484375 0 
L 2.875 0 
L 24.125 28.609375 
L 4.6875 54.6875 
L 15.28125 54.6875 
L 29.78125 35.203125 
L 44.28125 54.6875 
z
" id="DejaVuSans-120"/>
     </defs>
     <use xlink:href="#DejaVuSans-76"/>
     <use x="53.962891" xlink:href="#DejaVuSans-101"/>
     <use x="115.486328" xlink:href="#DejaVuSans-97"/>
     <use x="176.765625" xlink:href="#DejaVuSans-102"/>
     <use x="211.970703" xlink:href="#DejaVuSans-32"/>
     <use x="243.757812" xlink:href="#DejaVuSans-65"/>
     <use x="312.166016" xlink:href="#DejaVuSans-114"/>
     <use x="351.029297" xlink:href="#DejaVuSans-101"/>
     <use x="412.552734" xlink:href="#DejaVuSans-97"/>
     <use x="473.832031" xlink:href="#DejaVuSans-32"/>
     <use x="505.619141" xlink:href="#DejaVuSans-73"/>
     <use x="535.111328" xlink:href="#DejaVuSans-110"/>
     <use x="598.490234" xlink:href="#DejaVuSans-100"/>
     <use x="661.966797" xlink:href="#DejaVuSans-101"/>
     <use x="721.740234" xlink:href="#DejaVuSans-120"/>
    </g>
   </g>
   <g id="legend_1">
    <g id="patch_7">
     <path d="M 257.8 109.470625 
L 342.2 109.470625 
Q 344.2 109.470625 344.2 107.470625 
L 344.2 35.08 
Q 344.2 33.08 342.2 33.08 
L 257.8 33.08 
Q 255.8 33.08 255.8 35.08 
L 255.8 107.470625 
Q 255.8 109.470625 257.8 109.470625 
z
" style="fill:#ffffff;opacity:0.8;stroke:#cccccc;stroke-linejoin:miter;"/>
    </g>
    <g id="line2d_19">
     <path d="M 259.8 41.178437 
L 279.8 41.178437 
" style="fill:none;stroke:#bfce68;stroke-linecap:square;stroke-width:1.5;"/>
    </g>
    <g id="line2d_20"/>
    <g id="text_17">
     <!-- 1 $m^2 \cdot m^{-2}$ -->
     <g transform="translate(287.8 44.678437)scale(0.1 -0.1)">
      <defs>
       <path d="M 10.6875 40.921875 
L 21 40.921875 
L 21 28.515625 
L 10.6875 28.515625 
z
" id="DejaVuSans-8901"/>
       <path d="M 10.59375 35.5 
L 73.1875 35.5 
L 73.1875 27.203125 
L 10.59375 27.203125 
z
" id="DejaVuSans-8722"/>
      </defs>
      <use transform="translate(0 0.765625)" xlink:href="#DejaVuSans-49"/>
      <use transform="translate(63.623047 0.765625)" xlink:href="#DejaVuSans-32"/>
      <use transform="translate(95.410156 0.765625)" xlink:href="#DejaVuSans-Oblique-109"/>
      <use transform="translate(197.472161 39.046875)scale(0.7)" xlink:href="#DejaVuSans-50"/>
      <use transform="translate(264.225091 0.765625)" xlink:href="#DejaVuSans-8901"/>
      <use transform="translate(315.494622 0.765625)" xlink:href="#DejaVuSans-Oblique-109"/>
      <use transform="translate(417.556628 39.046875)scale(0.7)" xlink:href="#DejaVuSans-8722"/>
      <use transform="translate(476.208971 39.046875)scale(0.7)" xlink:href="#DejaVuSans-50"/>
     </g>
    </g>
    <g id="line2d_21">
     <path d="M 259.8 55.856562 
L 279.8 55.856562 
" style="fill:none;stroke:#aac03b;stroke-linecap:square;stroke-width:1.5;"/>
    </g>
    <g id="line2d_22"/>
    <g id="text_18">
     <!-- 2 $m^2 \cdot m^{-2}$ -->
     <g transform="translate(287.8 59.356562)scale(0.1 -0.1)">
      <use transform="translate(0 0.765625)" xlink:href="#DejaVuSans-50"/>
      <use transform="translate(63.623047 0.765625)" xlink:href="#DejaVuSans-32"/>
      <use transform="translate(95.410156 0.765625)" xlink:href="#DejaVuSans-Oblique-109"/>
      <use transform="translate(197.472161 39.046875)scale(0.7)" xlink:href="#DejaVuSans-50"/>
      <use transform="translate(264.225091 0.765625)" xlink:href="#DejaVuSans-8901"/>
      <use transform="translate(315.494622 0.765625)" xlink:href="#DejaVuSans-Oblique-109"/>
      <use transform="translate(417.556628 39.046875)scale(0.7)" xlink:href="#DejaVuSans-8722"/>
      <use transform="translate(476.208971 39.046875)scale(0.7)" xlink:href="#DejaVuSans-50"/>
     </g>
    </g>
    <g id="line2d_23">
     <path d="M 259.8 70.534687 
L 279.8 70.534687 
" style="fill:none;stroke:#8fb926;stroke-linecap:square;stroke-width:1.5;"/>
    </g>
    <g id="line2d_24"/>
    <g id="text_19">
     <!-- 3 $m^2 \cdot m^{-2}$ -->
     <g transform="translate(287.8 74.034687)scale(0.1 -0.1)">
      <use transform="translate(0 0.765625)" xlink:href="#DejaVuSans-51"/>
      <use transform="translate(63.623047 0.765625)" xlink:href="#DejaVuSans-32"/>
      <use transform="translate(95.410156 0.765625)" xlink:href="#DejaVuSans-Oblique-109"/>
      <use transform="translate(197.472161 39.046875)scale(0.7)" xlink:href="#DejaVuSans-50"/>
      <use transform="translate(264.225091 0.765625)" xlink:href="#DejaVuSans-8901"/>
      <use transform="translate(315.494622 0.765625)" xlink:href="#DejaVuSans-Oblique-109"/>
      <use transform="translate(417.556628 39.046875)scale(0.7)" xlink:href="#DejaVuSans-8722"/>
      <use transform="translate(476.208971 39.046875)scale(0.7)" xlink:href="#DejaVuSans-50"/>
     </g>
    </g>
    <g id="line2d_25">
     <path d="M 259.8 85.212812 
L 279.8 85.212812 
" style="fill:none;stroke:#67a612;stroke-linecap:square;stroke-width:1.5;"/>
    </g>
    <g id="line2d_26"/>
    <g id="text_20">
     <!-- 4 $m^2 \cdot m^{-2}$ -->
     <g transform="translate(287.8 88.712812)scale(0.1 -0.1)">
      <use transform="translate(0 0.765625)" xlink:href="#DejaVuSans-52"/>
      <use transform="translate(63.623047 0.765625)" xlink:href="#DejaVuSans-32"/>
      <use transform="translate(95.410156 0.765625)" xlink:href="#DejaVuSans-Oblique-109"/>
      <use transform="translate(197.472161 39.046875)scale(0.7)" xlink:href="#DejaVuSans-50"/>
      <use transform="translate(264.225091 0.765625)" xlink:href="#DejaVuSans-8901"/>
      <use transform="translate(315.494622 0.765625)" xlink:href="#DejaVuSans-Oblique-109"/>
      <use transform="translate(417.556628 39.046875)scale(0.7)" xlink:href="#DejaVuSans-8722"/>
      <use transform="translate(476.208971 39.046875)scale(0.7)" xlink:href="#DejaVuSans-50"/>
     </g>
    </g>
    <g id="line2d_27">
     <path d="M 259.8 99.890937 
L 279.8 99.890937 
" style="fill:none;stroke:#477706;stroke-linecap:square;stroke-width:1.5;"/>
    </g>
    <g id="line2d_28"/>
    <g id="text_21">
     <!-- 5 $m^2 \cdot m^{-2}$ -->
     <g transform="translate(287.8 103.390937)scale(0.1 -0.1)">
      <use transform="translate(0 0.765625)" xlink:href="#DejaVuSans-53"/>
      <use transform="translate(63.623047 0.765625)" xlink:href="#DejaVuSans-32"/>
      <use transform="translate(95.410156 0.765625)" xlink:href="#DejaVuSans-Oblique-109"/>
      <use transform="translate(197.472161 39.046875)scale(0.7)" xlink:href="#DejaVuSans-50"/>
      <use transform="translate(264.225091 0.765625)" xlink:href="#DejaVuSans-8901"/>
      <use transform="translate(315.494622 0.765625)" xlink:href="#DejaVuSans-Oblique-109"/>
      <use transform="translate(417.556628 39.046875)scale(0.7)" xlink:href="#DejaVuSans-8722"/>
      <use transform="translate(476.208971 39.046875)scale(0.7)" xlink:href="#DejaVuSans-50"/>
     </g>
    </g>
   </g>
  </g>
 </g>
 <defs>
  <clipPath id="p5681631ba1">
   <rect height="288.04" width="303.16" x="46.04" y="28.08"/>
  </clipPath>
 </defs>
</svg>
