<?xml version="1.0" encoding="utf-8" standalone="no"?>
<!DOCTYPE svg PUBLIC "-//W3C//DTD SVG 1.1//EN"
  "http://www.w3.org/Graphics/SVG/1.1/DTD/svg11.dtd">
<!-- Created with matplotlib (https://matplotlib.org/) -->
<svg height="360pt" version="1.1" viewBox="0 0 360 360" width="360pt" xmlns="http://www.w3.org/2000/svg" xmlns:xlink="http://www.w3.org/1999/xlink">
 <metadata>
  <rdf:RDF xmlns:cc="http://creativecommons.org/ns#" xmlns:dc="http://purl.org/dc/elements/1.1/" xmlns:rdf="http://www.w3.org/1999/02/22-rdf-syntax-ns#">
   <cc:Work>
    <dc:type rdf:resource="http://purl.org/dc/dcmitype/StillImage"/>
    <dc:date>2020-10-26T17:04:18.704010</dc:date>
    <dc:format>image/svg+xml</dc:format>
    <dc:creator>
     <cc:Agent>
      <dc:title>Matplotlib v3.3.2, https://matplotlib.org/</dc:title>
     </cc:Agent>
    </dc:creator>
   </cc:Work>
  </rdf:RDF>
 </metadata>
 <defs>
  <style type="text/css">*{stroke-linecap:butt;stroke-linejoin:round;}</style>
 </defs>
 <g id="figure_1">
  <g id="patch_1">
   <path d="M 0 360 
L 360 360 
L 360 0 
L 0 0 
z
" style="fill:#ffffff;"/>
  </g>
  <g id="axes_1">
   <g id="patch_2">
    <path d="M 30.52 332.6 
L 349.2 332.6 
L 349.2 28.08 
L 30.52 28.08 
z
" style="fill:#ffffff;"/>
   </g>
   <g id="matplotlib.axis_1">
    <g id="xtick_1">
     <g id="line2d_1">
      <defs>
       <path d="M 0 0 
L 0 3.5 
" id="mccdcc596f8" style="stroke:#000000;stroke-width:0.8;"/>
      </defs>
      <g>
       <use style="stroke:#000000;stroke-width:0.8;" x="58.801126" xlink:href="#mccdcc596f8" y="332.6"/>
      </g>
     </g>
     <g id="text_1">
      <!-- 0.5 -->
      <g transform="translate(50.849563 347.198438)scale(0.1 -0.1)">
       <defs>
        <path d="M 31.78125 66.40625 
Q 24.171875 66.40625 20.328125 58.90625 
Q 16.5 51.421875 16.5 36.375 
Q 16.5 21.390625 20.328125 13.890625 
Q 24.171875 6.390625 31.78125 6.390625 
Q 39.453125 6.390625 43.28125 13.890625 
Q 47.125 21.390625 47.125 36.375 
Q 47.125 51.421875 43.28125 58.90625 
Q 39.453125 66.40625 31.78125 66.40625 
z
M 31.78125 74.21875 
Q 44.046875 74.21875 50.515625 64.515625 
Q 56.984375 54.828125 56.984375 36.375 
Q 56.984375 17.96875 50.515625 8.265625 
Q 44.046875 -1.421875 31.78125 -1.421875 
Q 19.53125 -1.421875 13.0625 8.265625 
Q 6.59375 17.96875 6.59375 36.375 
Q 6.59375 54.828125 13.0625 64.515625 
Q 19.53125 74.21875 31.78125 74.21875 
z
" id="DejaVuSans-48"/>
        <path d="M 10.6875 12.40625 
L 21 12.40625 
L 21 0 
L 10.6875 0 
z
" id="DejaVuSans-46"/>
        <path d="M 10.796875 72.90625 
L 49.515625 72.90625 
L 49.515625 64.59375 
L 19.828125 64.59375 
L 19.828125 46.734375 
Q 21.96875 47.46875 24.109375 47.828125 
Q 26.265625 48.1875 28.421875 48.1875 
Q 40.625 48.1875 47.75 41.5 
Q 54.890625 34.8125 54.890625 23.390625 
Q 54.890625 11.625 47.5625 5.09375 
Q 40.234375 -1.421875 26.90625 -1.421875 
Q 22.3125 -1.421875 17.546875 -0.640625 
Q 12.796875 0.140625 7.71875 1.703125 
L 7.71875 11.625 
Q 12.109375 9.234375 16.796875 8.0625 
Q 21.484375 6.890625 26.703125 6.890625 
Q 35.15625 6.890625 40.078125 11.328125 
Q 45.015625 15.765625 45.015625 23.390625 
Q 45.015625 31 40.078125 35.4375 
Q 35.15625 39.890625 26.703125 39.890625 
Q 22.75 39.890625 18.8125 39.015625 
Q 14.890625 38.140625 10.796875 36.28125 
z
" id="DejaVuSans-53"/>
       </defs>
       <use xlink:href="#DejaVuSans-48"/>
       <use x="63.623047" xlink:href="#DejaVuSans-46"/>
       <use x="95.410156" xlink:href="#DejaVuSans-53"/>
      </g>
     </g>
    </g>
    <g id="xtick_2">
     <g id="line2d_2">
      <g>
       <use style="stroke:#000000;stroke-width:0.8;" x="127.779481" xlink:href="#mccdcc596f8" y="332.6"/>
      </g>
     </g>
     <g id="text_2">
      <!-- 1.0 -->
      <g transform="translate(119.827918 347.198438)scale(0.1 -0.1)">
       <defs>
        <path d="M 12.40625 8.296875 
L 28.515625 8.296875 
L 28.515625 63.921875 
L 10.984375 60.40625 
L 10.984375 69.390625 
L 28.421875 72.90625 
L 38.28125 72.90625 
L 38.28125 8.296875 
L 54.390625 8.296875 
L 54.390625 0 
L 12.40625 0 
z
" id="DejaVuSans-49"/>
       </defs>
       <use xlink:href="#DejaVuSans-49"/>
       <use x="63.623047" xlink:href="#DejaVuSans-46"/>
       <use x="95.410156" xlink:href="#DejaVuSans-48"/>
      </g>
     </g>
    </g>
    <g id="xtick_3">
     <g id="line2d_3">
      <g>
       <use style="stroke:#000000;stroke-width:0.8;" x="196.757835" xlink:href="#mccdcc596f8" y="332.6"/>
      </g>
     </g>
     <g id="text_3">
      <!-- 1.5 -->
      <g transform="translate(188.806273 347.198438)scale(0.1 -0.1)">
       <use xlink:href="#DejaVuSans-49"/>
       <use x="63.623047" xlink:href="#DejaVuSans-46"/>
       <use x="95.410156" xlink:href="#DejaVuSans-53"/>
      </g>
     </g>
    </g>
    <g id="xtick_4">
     <g id="line2d_4">
      <g>
       <use style="stroke:#000000;stroke-width:0.8;" x="265.73619" xlink:href="#mccdcc596f8" y="332.6"/>
      </g>
     </g>
     <g id="text_4">
      <!-- 2.0 -->
      <g transform="translate(257.784628 347.198438)scale(0.1 -0.1)">
       <defs>
        <path d="M 19.1875 8.296875 
L 53.609375 8.296875 
L 53.609375 0 
L 7.328125 0 
L 7.328125 8.296875 
Q 12.9375 14.109375 22.625 23.890625 
Q 32.328125 33.6875 34.8125 36.53125 
Q 39.546875 41.84375 41.421875 45.53125 
Q 43.3125 49.21875 43.3125 52.78125 
Q 43.3125 58.59375 39.234375 62.25 
Q 35.15625 65.921875 28.609375 65.921875 
Q 23.96875 65.921875 18.8125 64.3125 
Q 13.671875 62.703125 7.8125 59.421875 
L 7.8125 69.390625 
Q 13.765625 71.78125 18.9375 73 
Q 24.125 74.21875 28.421875 74.21875 
Q 39.75 74.21875 46.484375 68.546875 
Q 53.21875 62.890625 53.21875 53.421875 
Q 53.21875 48.921875 51.53125 44.890625 
Q 49.859375 40.875 45.40625 35.40625 
Q 44.1875 33.984375 37.640625 27.21875 
Q 31.109375 20.453125 19.1875 8.296875 
z
" id="DejaVuSans-50"/>
       </defs>
       <use xlink:href="#DejaVuSans-50"/>
       <use x="63.623047" xlink:href="#DejaVuSans-46"/>
       <use x="95.410156" xlink:href="#DejaVuSans-48"/>
      </g>
     </g>
    </g>
    <g id="xtick_5">
     <g id="line2d_5">
      <g>
       <use style="stroke:#000000;stroke-width:0.8;" x="334.714545" xlink:href="#mccdcc596f8" y="332.6"/>
      </g>
     </g>
     <g id="text_5">
      <!-- 2.5 -->
      <g transform="translate(326.762983 347.198438)scale(0.1 -0.1)">
       <use xlink:href="#DejaVuSans-50"/>
       <use x="63.623047" xlink:href="#DejaVuSans-46"/>
       <use x="95.410156" xlink:href="#DejaVuSans-53"/>
      </g>
     </g>
    </g>
   </g>
   <g id="matplotlib.axis_2">
    <g id="ytick_1">
     <g id="line2d_6">
      <defs>
       <path d="M 0 0 
L -3.5 0 
" id="mcf53f20ced" style="stroke:#000000;stroke-width:0.8;"/>
      </defs>
      <g>
       <use style="stroke:#000000;stroke-width:0.8;" x="30.52" xlink:href="#mcf53f20ced" y="332.6"/>
      </g>
     </g>
     <g id="text_6">
      <!-- 0 -->
      <g transform="translate(17.1575 336.399219)scale(0.1 -0.1)">
       <use xlink:href="#DejaVuSans-48"/>
      </g>
     </g>
    </g>
    <g id="ytick_2">
     <g id="line2d_7">
      <g>
       <use style="stroke:#000000;stroke-width:0.8;" x="30.52" xlink:href="#mcf53f20ced" y="289.097143"/>
      </g>
     </g>
     <g id="text_7">
      <!-- 10 -->
      <g transform="translate(10.795 292.896362)scale(0.1 -0.1)">
       <use xlink:href="#DejaVuSans-49"/>
       <use x="63.623047" xlink:href="#DejaVuSans-48"/>
      </g>
     </g>
    </g>
    <g id="ytick_3">
     <g id="line2d_8">
      <g>
       <use style="stroke:#000000;stroke-width:0.8;" x="30.52" xlink:href="#mcf53f20ced" y="245.594286"/>
      </g>
     </g>
     <g id="text_8">
      <!-- 20 -->
      <g transform="translate(10.795 249.393504)scale(0.1 -0.1)">
       <use xlink:href="#DejaVuSans-50"/>
       <use x="63.623047" xlink:href="#DejaVuSans-48"/>
      </g>
     </g>
    </g>
    <g id="ytick_4">
     <g id="line2d_9">
      <g>
       <use style="stroke:#000000;stroke-width:0.8;" x="30.52" xlink:href="#mcf53f20ced" y="202.091429"/>
      </g>
     </g>
     <g id="text_9">
      <!-- 30 -->
      <g transform="translate(10.795 205.890647)scale(0.1 -0.1)">
       <defs>
        <path d="M 40.578125 39.3125 
Q 47.65625 37.796875 51.625 33 
Q 55.609375 28.21875 55.609375 21.1875 
Q 55.609375 10.40625 48.1875 4.484375 
Q 40.765625 -1.421875 27.09375 -1.421875 
Q 22.515625 -1.421875 17.65625 -0.515625 
Q 12.796875 0.390625 7.625 2.203125 
L 7.625 11.71875 
Q 11.71875 9.328125 16.59375 8.109375 
Q 21.484375 6.890625 26.8125 6.890625 
Q 36.078125 6.890625 40.9375 10.546875 
Q 45.796875 14.203125 45.796875 21.1875 
Q 45.796875 27.640625 41.28125 31.265625 
Q 36.765625 34.90625 28.71875 34.90625 
L 20.21875 34.90625 
L 20.21875 43.015625 
L 29.109375 43.015625 
Q 36.375 43.015625 40.234375 45.921875 
Q 44.09375 48.828125 44.09375 54.296875 
Q 44.09375 59.90625 40.109375 62.90625 
Q 36.140625 65.921875 28.71875 65.921875 
Q 24.65625 65.921875 20.015625 65.03125 
Q 15.375 64.15625 9.8125 62.3125 
L 9.8125 71.09375 
Q 15.4375 72.65625 20.34375 73.4375 
Q 25.25 74.21875 29.59375 74.21875 
Q 40.828125 74.21875 47.359375 69.109375 
Q 53.90625 64.015625 53.90625 55.328125 
Q 53.90625 49.265625 50.4375 45.09375 
Q 46.96875 40.921875 40.578125 39.3125 
z
" id="DejaVuSans-51"/>
       </defs>
       <use xlink:href="#DejaVuSans-51"/>
       <use x="63.623047" xlink:href="#DejaVuSans-48"/>
      </g>
     </g>
    </g>
    <g id="ytick_5">
     <g id="line2d_10">
      <g>
       <use style="stroke:#000000;stroke-width:0.8;" x="30.52" xlink:href="#mcf53f20ced" y="158.588571"/>
      </g>
     </g>
     <g id="text_10">
      <!-- 40 -->
      <g transform="translate(10.795 162.38779)scale(0.1 -0.1)">
       <defs>
        <path d="M 37.796875 64.3125 
L 12.890625 25.390625 
L 37.796875 25.390625 
z
M 35.203125 72.90625 
L 47.609375 72.90625 
L 47.609375 25.390625 
L 58.015625 25.390625 
L 58.015625 17.1875 
L 47.609375 17.1875 
L 47.609375 0 
L 37.796875 0 
L 37.796875 17.1875 
L 4.890625 17.1875 
L 4.890625 26.703125 
z
" id="DejaVuSans-52"/>
       </defs>
       <use xlink:href="#DejaVuSans-52"/>
       <use x="63.623047" xlink:href="#DejaVuSans-48"/>
      </g>
     </g>
    </g>
    <g id="ytick_6">
     <g id="line2d_11">
      <g>
       <use style="stroke:#000000;stroke-width:0.8;" x="30.52" xlink:href="#mcf53f20ced" y="115.085714"/>
      </g>
     </g>
     <g id="text_11">
      <!-- 50 -->
      <g transform="translate(10.795 118.884933)scale(0.1 -0.1)">
       <use xlink:href="#DejaVuSans-53"/>
       <use x="63.623047" xlink:href="#DejaVuSans-48"/>
      </g>
     </g>
    </g>
    <g id="ytick_7">
     <g id="line2d_12">
      <g>
       <use style="stroke:#000000;stroke-width:0.8;" x="30.52" xlink:href="#mcf53f20ced" y="71.582857"/>
      </g>
     </g>
     <g id="text_12">
      <!-- 60 -->
      <g transform="translate(10.795 75.382076)scale(0.1 -0.1)">
       <defs>
        <path d="M 33.015625 40.375 
Q 26.375 40.375 22.484375 35.828125 
Q 18.609375 31.296875 18.609375 23.390625 
Q 18.609375 15.53125 22.484375 10.953125 
Q 26.375 6.390625 33.015625 6.390625 
Q 39.65625 6.390625 43.53125 10.953125 
Q 47.40625 15.53125 47.40625 23.390625 
Q 47.40625 31.296875 43.53125 35.828125 
Q 39.65625 40.375 33.015625 40.375 
z
M 52.59375 71.296875 
L 52.59375 62.3125 
Q 48.875 64.0625 45.09375 64.984375 
Q 41.3125 65.921875 37.59375 65.921875 
Q 27.828125 65.921875 22.671875 59.328125 
Q 17.53125 52.734375 16.796875 39.40625 
Q 19.671875 43.65625 24.015625 45.921875 
Q 28.375 48.1875 33.59375 48.1875 
Q 44.578125 48.1875 50.953125 41.515625 
Q 57.328125 34.859375 57.328125 23.390625 
Q 57.328125 12.15625 50.6875 5.359375 
Q 44.046875 -1.421875 33.015625 -1.421875 
Q 20.359375 -1.421875 13.671875 8.265625 
Q 6.984375 17.96875 6.984375 36.375 
Q 6.984375 53.65625 15.1875 63.9375 
Q 23.390625 74.21875 37.203125 74.21875 
Q 40.921875 74.21875 44.703125 73.484375 
Q 48.484375 72.75 52.59375 71.296875 
z
" id="DejaVuSans-54"/>
       </defs>
       <use xlink:href="#DejaVuSans-54"/>
       <use x="63.623047" xlink:href="#DejaVuSans-48"/>
      </g>
     </g>
    </g>
    <g id="ytick_8">
     <g id="line2d_13">
      <g>
       <use style="stroke:#000000;stroke-width:0.8;" x="30.52" xlink:href="#mcf53f20ced" y="28.08"/>
      </g>
     </g>
     <g id="text_13">
      <!-- 70 -->
      <g transform="translate(10.795 31.879219)scale(0.1 -0.1)">
       <defs>
        <path d="M 8.203125 72.90625 
L 55.078125 72.90625 
L 55.078125 68.703125 
L 28.609375 0 
L 18.3125 0 
L 43.21875 64.59375 
L 8.203125 64.59375 
z
" id="DejaVuSans-55"/>
       </defs>
       <use xlink:href="#DejaVuSans-55"/>
       <use x="63.623047" xlink:href="#DejaVuSans-48"/>
      </g>
     </g>
    </g>
   </g>
   <g id="line2d_14">
    <path clip-path="url(#p7cdff22721)" d="M 45.005455 322.203608 
L 46.109108 321.947719 
L 50.24781 320.70034 
L 54.524468 320.141426 
L 57.007688 319.824741 
L 57.697472 319.457696 
L 58.249299 318.921359 
L 58.801126 318.001987 
L 59.352952 316.568284 
L 59.904779 314.440687 
L 60.456606 311.443067 
L 61.14639 306.377313 
L 62.939827 292.07642 
L 63.491654 289.501151 
L 64.043481 287.942729 
L 64.595307 287.022943 
L 65.836918 285.474628 
L 66.250788 285.380035 
L 66.526701 285.603938 
L 66.802615 286.056382 
L 67.354442 287.594069 
L 68.044225 290.548617 
L 69.699706 298.493443 
L 70.389489 300.605585 
L 71.217229 302.325675 
L 71.907013 303.167976 
L 73.010667 304.330374 
L 73.70045 305.695739 
L 75.355931 309.475487 
L 75.907758 310.101531 
L 76.459584 310.37305 
L 77.149368 310.695847 
L 77.563238 311.224813 
L 78.115065 312.480771 
L 79.356675 315.575943 
L 80.046459 316.487071 
L 80.736242 317.506788 
L 81.563983 318.741203 
L 81.977853 319.011325 
L 82.391723 319.02762 
L 82.805593 318.848533 
L 83.35742 318.362256 
L 83.909247 317.546879 
L 84.323117 316.458627 
L 84.59903 315.17867 
L 84.874944 313.08811 
L 85.288814 307.791555 
L 85.840641 296.166998 
L 86.668381 271.500627 
L 90.531169 149.258503 
L 91.496866 127.123025 
L 92.186649 115.736215 
L 92.876433 107.805672 
L 93.566216 102.537031 
L 94.531913 96.903451 
L 95.221697 94.015555 
L 95.911481 92.131895 
L 96.463307 91.215534 
L 97.015134 90.708724 
L 97.566961 90.526485 
L 103.637056 89.45312 
L 106.672104 89.188763 
L 108.189628 89.030327 
L 109.569195 88.835799 
L 110.672848 88.668041 
L 114.81155 88.178231 
L 117.570684 88.137221 
L 118.122511 88.273592 
L 118.950251 88.464639 
L 120.605732 89.222646 
L 122.399169 91.005888 
L 122.813039 91.064546 
L 123.778736 91.086867 
L 125.158303 90.912994 
L 126.399913 90.479752 
L 127.917437 89.714572 
L 133.297749 87.081127 
L 135.3671 86.503643 
L 138.26419 86.083573 
L 140.885368 86.141243 
L 143.368589 86.613159 
L 144.058372 86.675897 
L 145.024069 86.948706 
L 145.437939 87.276987 
L 145.85181 87.618888 
L 146.955463 89.572415 
L 147.50729 91.094688 
L 148.886857 94.427876 
L 149.300727 94.949926 
L 150.404381 95.47808 
L 151.232121 95.526409 
L 151.921905 95.704611 
L 152.335775 95.674122 
L 155.232866 95.899751 
L 155.646736 95.780642 
L 156.198563 95.811873 
L 156.612433 95.825937 
L 158.129957 96.173743 
L 160.613177 97.724724 
L 161.440918 98.388002 
L 162.130701 98.928283 
L 165.579619 101.990118 
L 167.097143 103.462503 
L 169.028537 105.106609 
M 189.86 233.172312 
L 190.68774 233.186169 
L 191.239567 232.814869 
L 191.791394 231.909949 
L 192.205264 230.954691 
L 193.308918 227.689464 
L 196.068052 218.185199 
L 197.723532 211.310001 
L 197.999446 210.310191 
L 198.689229 207.427001 
L 200.068797 201.645338 
L 202.965887 192.037204 
L 203.241801 191.248185 
L 204.069541 188.976922 
L 204.483411 187.767721 
L 204.897281 186.950788 
L 205.725022 185.571563 
L 206.690719 183.701877 
L 207.242545 182.574478 
L 207.380502 182.473949 
L 209.449853 178.319689 
L 209.863723 177.032881 
L 210.00168 176.892748 
L 210.553506 175.518747 
L 213.174684 170.440186 
L 213.450597 170.12449 
L 214.002424 169.151639 
L 214.140381 169.116113 
L 214.554251 168.561625 
L 214.830165 168.278758 
L 214.968121 168.279708 
L 215.933818 167.033206 
L 216.071775 167.122625 
L 216.347688 166.732594 
L 216.485645 166.566808 
L 216.761558 166.514356 
L 217.037472 166.464794 
L 217.175429 166.537093 
L 217.313385 166.350686 
L 217.727255 166.867437 
L 217.865212 166.81554 
L 218.141126 167.355197 
L 218.417039 167.615145 
L 218.692952 168.391329 
L 219.106823 169.270966 
L 219.658649 170.701134 
L 220.072519 171.956427 
L 220.210476 171.937397 
L 220.348433 170.881799 
L 220.762303 171.987618 
L 221.865957 175.471982 
L 223.107567 179.736633 
L 223.521437 181.080631 
L 226.004658 187.92004 
L 227.246268 190.355172 
L 227.936052 191.22722 
L 228.487879 191.295083 
L 229.729489 190.240965 
L 230.281316 190.071017 
L 230.557229 190.278975 
L 230.695186 190.41959 
L 230.833143 190.369174 
L 231.38497 190.929501 
L 231.79884 191.357632 
L 232.074753 191.527577 
L 232.488623 191.754591 
L 232.902494 191.789244 
L 233.04045 191.742542 
L 233.178407 191.829777 
L 233.730234 191.497971 
L 235.247758 189.378278 
L 235.661628 189.109623 
L 236.351411 189.544399 
L 236.627325 189.259691 
L 236.765281 189.255318 
L 236.903238 189.131199 
L 237.041195 189.200183 
L 237.455065 188.845761 
L 237.593022 188.909299 
L 238.006892 188.380223 
M 260.217922 294.502611 
L 260.631792 293.556136 
L 261.459532 291.303708 
L 262.011359 289.901898 
L 262.425229 288.561108 
L 262.8391 287.363073 
L 263.66684 284.743497 
L 264.08071 283.618365 
L 264.632537 281.985959 
L 265.32232 279.919946 
L 265.874147 278.540853 
L 266.563931 276.604265 
L 267.253714 274.950842 
L 267.667584 274.112018 
L 268.081455 273.305909 
L 268.219411 273.209699 
L 268.771238 272.387617 
L 268.909195 272.358252 
L 269.323065 271.931395 
L 269.461022 271.95236 
L 269.874892 271.671829 
L 270.564675 271.583759 
L 270.702632 271.527434 
L 270.840589 271.654406 
L 270.978545 271.591186 
L 271.116502 271.73597 
L 271.392416 271.709356 
L 271.668329 271.841471 
L 271.944242 271.983081 
L 272.358113 272.137925 
L 272.909939 272.417088 
L 273.73768 272.434405 
L 274.56542 271.99696 
L 274.703377 271.815576 
L 274.841333 271.818065 
L 276.772727 270.216942 
L 276.910684 270.201595 
L 277.186597 269.920629 
L 277.462511 269.795838 
L 278.290251 269.273972 
L 280.083688 268.250181 
L 280.497558 267.987497 
L 282.290996 266.93757 
L 282.566909 266.709115 
L 282.980779 266.485078 
L 283.394649 266.268769 
L 284.22239 265.879968 
L 285.601957 265.577083 
L 286.843567 265.065578 
L 287.119481 264.962452 
L 287.257437 264.824963 
L 287.533351 264.806181 
L 289.464745 263.639141 
L 290.706355 262.310557 
L 293.879359 258.742495 
L 295.396883 257.368874 
L 296.500537 257.198911 
L 296.77645 257.28324 
L 297.328277 257.912337 
L 298.156017 259.670219 
L 298.983758 262.309875 
L 300.501281 268.410783 
L 301.329022 271.638269 
L 302.156762 274.426989 
L 303.122459 277.171353 
L 306.157506 283.067918 
L 307.399117 285.088015 
L 308.226857 285.812614 
L 308.640727 285.902656 
L 309.606424 285.880522 
L 309.882338 285.854446 
L 310.848035 286.143248 
L 311.123948 286.417365 
L 311.813732 287.092935 
L 312.365558 287.654885 
L 313.469212 288.658289 
L 314.296952 288.874998 
L 314.434909 288.860187 
L 314.710823 288.9615 
L 314.848779 288.94443 
L 315.124693 289.018197 
L 315.262649 288.923406 
L 315.814476 289.088393 
L 316.09039 289.05576 
L 316.642216 289.364161 
L 316.780173 289.382196 
L 317.056087 289.592501 
L 318.297697 290.178922 
L 320.229091 291.693351 
L 320.505004 291.961526 
L 321.056831 292.489885 
L 322.574355 294.351702 
L 323.264139 295.353801 
L 325.471446 299.200334 
L 325.885316 299.945948 
L 326.98897 302.035972 
L 327.954667 303.929311 
L 328.506494 304.899762 
L 328.920364 305.620051 
L 329.47219 306.542644 
L 329.886061 307.048081 
L 331.127671 308.740173 
L 331.817455 309.307077 
L 333.472935 310.635998 
L 333.886805 310.803651 
L 334.714545 310.827926 
L 334.714545 310.827926 
" style="fill:none;stroke:#bfce68;stroke-linecap:square;stroke-width:1.5;"/>
   </g>
   <g id="line2d_15">
    <path clip-path="url(#p7cdff22721)" d="M 45.005455 322.203608 
L 46.109108 321.947719 
L 50.24781 320.70034 
L 54.524468 320.141428 
L 57.007688 319.824745 
L 57.697472 319.457702 
L 58.249299 318.921369 
L 58.801126 318.002004 
L 59.352952 316.568313 
L 59.904779 314.440736 
L 60.456606 311.443147 
L 61.14639 306.377454 
L 62.939827 292.076749 
L 63.491654 289.50154 
L 64.043481 287.943163 
L 64.595307 287.023413 
L 65.836918 285.475221 
L 66.250788 285.380661 
L 66.526701 285.604574 
L 66.802615 286.057019 
L 67.354442 287.594698 
L 68.044225 290.549211 
L 69.699706 298.493976 
L 70.389489 300.606143 
L 71.217229 302.326312 
L 71.907013 303.168708 
L 73.010667 304.331376 
L 73.70045 305.696754 
L 75.355931 309.476299 
L 75.907758 310.102317 
L 76.459584 310.373833 
L 77.149368 310.696629 
L 77.563238 311.225565 
L 78.115065 312.481449 
L 79.356675 315.576418 
L 80.046459 316.48749 
L 80.736242 317.507149 
L 81.563983 318.741455 
L 81.977853 319.011534 
L 82.391723 319.027805 
L 82.805593 318.84871 
L 83.35742 318.362446 
L 83.909247 317.547129 
L 84.323117 316.459004 
L 84.59903 315.179212 
L 84.874944 313.088919 
L 85.288814 307.793066 
L 85.840641 296.17032 
L 86.668381 271.509781 
L 90.531169 149.459399 
L 91.496866 127.491895 
L 92.186649 116.210992 
L 92.876433 108.339337 
L 93.566216 103.105779 
L 94.531913 97.509851 
L 95.221697 94.639976 
L 95.911481 92.763326 
L 96.463307 91.848441 
L 97.015134 91.335038 
L 97.566961 91.14054 
L 102.809316 90.130246 
L 103.637056 90.062776 
L 105.016623 90.234449 
L 105.98232 90.215968 
L 108.879411 90.003231 
L 114.121766 89.754804 
L 116.742944 90.026639 
L 117.846597 90.731782 
L 118.122511 91.127602 
L 118.812294 91.732443 
L 119.226165 92.387573 
L 119.502078 92.754319 
L 119.777991 93.450673 
L 120.053905 93.844624 
L 120.743688 95.378119 
L 121.019602 96.740445 
L 121.295515 97.574793 
L 121.847342 99.413489 
L 122.537126 100.935128 
L 124.468519 101.434165 
L 125.020346 101.242511 
L 125.848087 100.719787 
L 126.95174 99.601084 
L 129.710874 96.085814 
L 131.642268 93.416412 
L 132.056139 92.883483 
L 132.470009 92.490251 
L 133.159792 91.705636 
L 134.401403 90.658675 
L 135.505056 89.983617 
L 137.712364 89.342299 
L 138.26419 89.356422 
L 139.781714 89.657903 
L 140.885368 90.109837 
L 141.989022 90.907415 
L 143.092675 91.626702 
L 143.506545 91.899142 
L 143.782459 91.902871 
L 144.610199 92.763141 
L 145.299983 93.867098 
L 145.989766 96.107084 
L 147.09342 102.728598 
L 147.50729 105.79653 
L 148.7489 114.27592 
L 149.162771 116.196791 
L 149.852554 117.416183 
L 150.266424 117.965182 
L 151.370078 118.350246 
L 151.783948 118.822687 
L 152.197818 118.694436 
L 154.818996 119.764761 
L 155.094909 119.776045 
L 155.646736 119.374684 
L 155.922649 119.51658 
L 156.198563 119.360145 
L 156.474476 119.226809 
L 156.75039 119.25223 
L 157.302216 119.097645 
L 157.57813 119.139387 
L 158.129957 118.781831 
L 158.543827 118.894699 
L 158.957697 118.879558 
L 159.371567 119.014442 
L 160.337264 118.942163 
L 160.613177 119.048185 
L 161.027048 119.256342 
L 162.682528 119.455055 
L 165.165749 120.90368 
L 166.683273 122.964598 
L 167.2351 123.923427 
L 167.786926 124.665712 
L 168.614667 126.362536 
L 169.028537 127.292943 
M 189.86 287.990118 
L 190.825697 287.752076 
L 191.653437 286.92629 
L 192.481177 285.168159 
L 194.550528 278.660606 
L 195.102355 276.769091 
L 195.792139 273.975264 
L 196.343965 271.615742 
L 199.93084 255.447948 
L 200.620623 252.356932 
L 204.483411 236.483318 
L 205.173195 234.401134 
L 208.760069 223.764259 
L 209.173939 222.722045 
L 210.277593 219.45887 
L 211.24329 216.821762 
L 214.002424 211.310687 
L 214.140381 211.173214 
L 214.554251 210.493049 
L 217.037472 207.506475 
L 217.175429 207.520323 
L 217.313385 207.261842 
L 217.727255 207.372262 
L 217.865212 207.195503 
L 218.003169 207.468221 
L 218.141126 207.435115 
L 218.279082 207.56145 
L 218.417039 207.487009 
L 218.692952 207.898194 
L 219.244779 208.471059 
L 219.658649 209.056199 
L 219.934563 209.449044 
L 220.072519 209.599358 
L 220.210476 209.576982 
L 220.348433 208.904908 
L 220.624346 209.321143 
L 221.728 211.192155 
L 222.14187 212.097622 
L 223.935307 215.76161 
L 225.452831 219.193404 
L 225.728745 219.684352 
L 226.418528 220.99746 
L 227.660139 223.217928 
L 228.211965 223.906755 
L 228.763792 224.304179 
L 229.039706 224.498529 
L 229.729489 224.878802 
L 230.9711 226.770945 
L 233.316364 231.26187 
L 234.006147 231.853448 
L 234.282061 231.767903 
L 234.557974 231.96428 
L 234.833887 232.091742 
L 235.109801 231.960699 
L 235.937541 232.426254 
L 236.351411 232.893045 
L 236.627325 232.865578 
L 236.765281 232.937797 
L 237.041195 232.906909 
L 237.730978 232.787202 
L 238.006892 232.568045 
M 260.217922 321.850582 
L 260.631792 321.5913 
L 263.528883 318.761574 
L 264.356623 317.686542 
L 269.323065 310.462664 
L 269.598978 310.12969 
L 270.012848 309.609484 
L 270.564675 308.950268 
L 270.978545 308.444523 
L 271.254459 308.167538 
L 271.668329 307.703816 
L 271.944242 307.442943 
L 272.771983 306.562652 
L 273.047896 306.312533 
L 273.461766 305.844641 
L 273.73768 305.54283 
L 275.531117 303.142315 
L 275.80703 302.826398 
L 276.772727 301.541738 
L 277.048641 301.19864 
L 278.152294 299.80239 
L 278.566165 299.291896 
L 281.049385 296.41288 
L 284.22239 293.165219 
L 285.464 292.288323 
L 287.119481 291.122324 
L 287.533351 290.837736 
L 291.120225 288.219606 
L 291.810009 287.619002 
L 293.051619 286.857198 
L 293.465489 286.660376 
L 295.396883 285.822469 
L 296.77645 285.939383 
L 297.60419 286.621653 
L 298.293974 287.543126 
L 299.259671 289.452913 
L 302.432675 296.465591 
L 303.674286 298.550374 
L 304.364069 299.463961 
L 305.467723 301.116851 
L 306.571377 302.645395 
L 308.502771 304.724646 
L 308.916641 304.92547 
L 309.192554 305.122572 
L 311.123948 306.537612 
L 312.503515 307.927657 
L 312.779429 308.27143 
L 313.745126 309.11893 
L 314.021039 309.287425 
L 314.296952 309.523176 
L 314.848779 309.854541 
L 315.124693 310.104241 
L 315.538563 310.325148 
L 315.814476 310.58829 
L 316.228346 310.911078 
L 316.780173 311.286794 
L 317.056087 311.57316 
L 318.57361 312.763362 
L 318.849524 313.059924 
L 319.677264 313.735839 
L 320.091134 314.137708 
L 320.780918 314.676355 
L 321.194788 315.077136 
L 321.332745 315.155382 
L 321.608658 315.471102 
L 322.436398 316.220087 
L 323.678009 317.411193 
L 324.091879 317.826483 
L 324.643706 318.340502 
L 325.195532 318.929074 
L 326.437143 320.009838 
L 326.98897 320.562966 
L 330.161974 323.012458 
L 332.093368 323.940849 
L 332.645195 324.111983 
L 332.921108 324.238333 
L 334.714545 324.622915 
L 334.714545 324.622915 
" style="fill:none;stroke:#aac03b;stroke-linecap:square;stroke-width:1.5;"/>
   </g>
   <g id="line2d_16">
    <path clip-path="url(#p7cdff22721)" d="M 45.005455 322.203608 
L 46.109108 321.947719 
L 50.24781 320.700341 
L 54.524468 320.14143 
L 57.007688 319.824749 
L 57.697472 319.457709 
L 58.249299 318.921379 
L 58.801126 318.002021 
L 59.352952 316.568342 
L 59.904779 314.440784 
L 60.456606 311.443227 
L 61.14639 306.377594 
L 62.939827 292.077079 
L 63.491654 289.501928 
L 64.043481 287.943597 
L 64.595307 287.023883 
L 65.836918 285.475814 
L 66.250788 285.381287 
L 66.526701 285.60521 
L 66.802615 286.057657 
L 67.354442 287.595327 
L 68.044225 290.549805 
L 69.699706 298.494508 
L 70.389489 300.606701 
L 71.217229 302.32695 
L 71.907013 303.169441 
L 73.010667 304.332379 
L 73.70045 305.69777 
L 75.355931 309.477111 
L 75.907758 310.103103 
L 76.459584 310.374616 
L 77.149368 310.69741 
L 77.563238 311.226318 
L 78.115065 312.482126 
L 79.356675 315.576894 
L 80.046459 316.487909 
L 80.736242 317.507509 
L 81.563983 318.741707 
L 81.977853 319.011742 
L 82.391723 319.02799 
L 82.805593 318.848886 
L 83.35742 318.362635 
L 83.909247 317.547378 
L 84.323117 316.459381 
L 84.59903 315.179753 
L 84.874944 313.089728 
L 85.288814 307.794576 
L 85.840641 296.173643 
L 86.668381 271.518933 
L 90.531169 149.659815 
L 91.358909 130.530553 
L 92.048693 118.630018 
L 92.738476 110.179306 
L 93.42826 104.611247 
L 94.256 99.532106 
L 95.08374 95.745301 
L 95.773524 93.696137 
L 96.325351 92.664471 
L 96.877177 92.059185 
L 97.429004 91.784176 
L 102.257489 90.726308 
L 103.4991 90.639348 
L 104.464797 90.91874 
L 104.878667 91.081406 
L 107.085974 91.062673 
L 109.569195 91.008353 
L 110.121022 90.987514 
L 111.086719 91.01194 
L 111.914459 91.095602 
L 113.294026 91.171968 
L 113.98381 91.224131 
L 115.363377 91.38516 
L 116.191117 91.646666 
L 116.604987 91.918117 
L 116.8809 92.090444 
L 117.294771 92.587647 
L 117.846597 93.226176 
L 118.122511 93.904734 
L 118.674338 94.69933 
L 118.950251 95.435194 
L 120.605732 100.271563 
L 122.123255 108.436235 
L 122.537126 109.926597 
L 122.950996 110.274912 
L 123.364866 110.544666 
L 124.468519 110.840935 
L 124.88239 110.680662 
L 125.848087 109.827803 
L 126.813784 108.398476 
L 127.36561 107.465756 
L 128.745177 104.90865 
L 132.056139 97.925725 
L 132.470009 97.328423 
L 133.159792 96.08865 
L 133.987532 94.989199 
L 135.643013 93.307088 
L 137.160537 92.554776 
L 138.126234 92.476517 
L 138.540104 92.568672 
L 138.953974 92.62942 
L 140.885368 93.932372 
L 141.575152 94.75763 
L 141.851065 95.070805 
L 142.264935 95.497419 
L 142.540848 95.849637 
L 142.954719 96.316652 
L 143.506545 96.931056 
L 143.782459 96.948871 
L 144.610199 98.378076 
L 145.299983 100.177513 
L 145.989766 103.749579 
L 147.231377 115.964592 
L 147.783203 122.20447 
L 148.197074 126.734871 
L 148.7489 130.93331 
L 149.162771 133.65349 
L 149.852554 135.373119 
L 150.266424 136.155166 
L 151.370078 136.722181 
L 151.645991 137.334451 
L 151.783948 137.391017 
L 152.197818 137.23036 
L 154.405126 138.581462 
L 155.094909 138.809686 
L 155.370823 138.434618 
L 155.508779 138.229201 
L 155.784693 138.387779 
L 155.922649 138.456938 
L 156.060606 138.399431 
L 156.474476 138.016298 
L 156.75039 138.021181 
L 157.16426 137.663026 
L 157.57813 137.693622 
L 158.129957 137.042866 
L 158.543827 137.076254 
L 158.957697 136.910482 
L 159.371567 136.951729 
L 160.337264 136.432578 
L 160.613177 136.461786 
L 160.889091 136.563898 
L 161.165004 136.512947 
L 161.578874 136.290149 
L 162.268658 136.200261 
L 162.682528 136.045499 
L 162.958442 136.169897 
L 163.510268 136.447566 
L 164.062095 136.330317 
L 165.027792 136.802012 
L 165.441662 137.436769 
L 165.855532 138.099735 
L 166.407359 138.792905 
L 167.511013 141.049922 
L 168.06284 142.269072 
L 168.614667 143.89133 
L 169.028537 145.187522 
M 189.86 306.100368 
L 191.10161 305.799864 
L 191.377524 305.602085 
L 191.791394 305.152484 
L 192.481177 304.075367 
L 194.412571 299.530511 
L 196.343965 293.445643 
L 198.689229 284.68418 
L 199.654926 280.731885 
L 199.93084 279.653924 
L 200.620623 276.908096 
L 204.759325 261.079664 
L 210.139636 244.962001 
L 210.82942 243.231536 
L 211.381247 241.788864 
L 213.174684 238.291441 
L 213.450597 237.831144 
L 214.554251 235.828799 
L 216.347688 233.679625 
L 216.761558 233.053722 
L 216.899515 232.94869 
L 217.037472 232.698248 
L 217.175429 232.68931 
L 217.451342 232.388046 
L 217.589299 232.304243 
L 217.727255 232.370361 
L 217.865212 232.155821 
L 218.003169 232.341422 
L 218.141126 232.269384 
L 218.279082 232.369012 
L 218.417039 232.240449 
L 218.692952 232.490679 
L 220.210476 233.352873 
L 220.348433 232.867509 
L 220.624346 233.125426 
L 222.279827 235.144031 
L 222.96961 236.224669 
L 223.383481 236.61588 
L 223.797351 237.365275 
L 224.073264 237.784061 
L 225.176918 239.883623 
L 225.314874 240.048277 
L 225.728745 240.8536 
L 226.418528 241.994171 
L 228.211965 244.928859 
L 229.177662 246.022218 
L 229.315619 246.057256 
L 230.143359 247.353864 
L 230.281316 247.504493 
L 232.764537 253.389994 
L 233.178407 254.126203 
L 233.86819 255.151137 
L 234.144104 255.416934 
L 234.282061 255.430063 
L 234.557974 255.756567 
L 234.833887 256.002506 
L 235.109801 256.007872 
L 236.765281 257.290639 
L 237.041195 257.26302 
L 237.593022 257.321417 
L 238.006892 257.10588 
M 260.217922 325.263306 
L 261.183619 325.136381 
L 262.425229 324.831408 
L 263.25297 324.554653 
L 266.839844 322.420234 
L 268.081455 321.432255 
L 268.633281 321.000029 
L 269.736935 320.080293 
L 270.564675 319.431874 
L 271.392416 318.728821 
L 271.806286 318.443262 
L 273.185853 317.261114 
L 273.599723 316.947674 
L 275.117247 315.390755 
L 275.669074 314.863761 
L 277.186597 313.255959 
L 277.462511 313.006546 
L 278.290251 312.134361 
L 280.083688 310.229018 
L 280.911429 309.421849 
L 282.566909 307.773575 
L 283.394649 307.040225 
L 284.498303 306.08359 
L 285.05013 305.734444 
L 285.87787 305.139155 
L 286.981524 304.42195 
L 290.844312 302.116396 
L 292.499792 301.210179 
L 295.672797 300.475179 
L 297.052364 300.748567 
L 297.742147 301.185375 
L 298.983758 302.538843 
L 299.949455 303.99696 
L 302.570632 307.824824 
L 303.536329 309.018055 
L 305.19181 310.733027 
L 305.743636 311.432678 
L 308.778684 314.144434 
L 309.192554 314.411767 
L 311.813732 316.271525 
L 312.227602 316.656244 
L 314.572866 318.340732 
L 315.538563 318.89613 
L 315.814476 319.118673 
L 316.780173 319.693538 
L 317.194043 319.988122 
L 317.607913 320.245158 
L 324.091879 323.986064 
L 325.057576 324.474683 
L 325.747359 324.815071 
L 330.299931 326.476087 
L 334.576589 327.034549 
L 334.714545 327.030522 
L 334.714545 327.030522 
" style="fill:none;stroke:#8fb926;stroke-linecap:square;stroke-width:1.5;"/>
   </g>
   <g id="line2d_17">
    <path clip-path="url(#p7cdff22721)" d="M 45.005455 322.203608 
L 46.109108 321.947719 
L 50.24781 320.700341 
L 54.524468 320.141432 
L 57.007688 319.824753 
L 57.697472 319.457715 
L 58.249299 318.921389 
L 58.801126 318.002038 
L 59.352952 316.568371 
L 59.904779 314.440833 
L 60.456606 311.443306 
L 61.14639 306.377735 
L 62.939827 292.077409 
L 63.491654 289.502317 
L 64.043481 287.944031 
L 64.595307 287.024354 
L 65.836918 285.476407 
L 66.250788 285.381914 
L 66.526701 285.605847 
L 66.802615 286.058295 
L 67.354442 287.595956 
L 68.044225 290.5504 
L 69.699706 298.49504 
L 70.389489 300.607258 
L 71.217229 302.327587 
L 71.907013 303.170173 
L 73.010667 304.333381 
L 73.70045 305.698785 
L 75.355931 309.477923 
L 75.907758 310.10389 
L 76.459584 310.375398 
L 77.149368 310.698191 
L 77.563238 311.227071 
L 78.115065 312.482804 
L 79.356675 315.577369 
L 80.046459 316.488329 
L 80.736242 317.507869 
L 81.563983 318.741959 
L 81.977853 319.011951 
L 82.391723 319.028175 
L 82.805593 318.849063 
L 83.35742 318.362825 
L 83.909247 317.547627 
L 84.323117 316.459758 
L 84.59903 315.180295 
L 84.874944 313.090537 
L 85.288814 307.796086 
L 85.840641 296.176964 
L 86.668381 271.528083 
L 90.393212 153.524381 
L 91.220952 133.65591 
L 92.048693 119.083329 
L 92.738476 110.697924 
L 93.42826 105.167614 
L 94.256 100.121349 
L 95.08374 96.359341 
L 95.773524 94.319 
L 96.325351 93.290191 
L 96.877177 92.679467 
L 97.429004 92.394093 
L 102.119532 91.256352 
L 103.361143 91.214664 
L 103.637056 91.271371 
L 104.32684 91.625992 
L 105.844364 92.051701 
L 109.017368 92.074181 
L 109.569195 92.077692 
L 109.983065 92.087559 
L 111.224675 92.243741 
L 114.81155 92.809633 
L 115.22542 92.955135 
L 115.501333 93.029678 
L 115.915203 93.25482 
L 116.191117 93.386488 
L 116.46703 93.720565 
L 116.8809 94.043775 
L 117.294771 94.753319 
L 117.846597 95.661265 
L 118.122511 96.608405 
L 118.674338 97.728181 
L 118.950251 98.749811 
L 120.605732 105.3729 
L 122.123255 116.204998 
L 122.537126 118.156555 
L 122.813039 118.421675 
L 123.226909 118.914594 
L 124.330563 119.445337 
L 124.88239 119.221761 
L 125.71013 118.366475 
L 126.53787 116.916179 
L 129.021091 111.101125 
L 132.056139 102.728675 
L 132.332052 102.294673 
L 133.573662 99.449837 
L 134.539359 97.849896 
L 135.643013 96.570092 
L 137.160537 95.605185 
L 138.126234 95.531257 
L 138.540104 95.670536 
L 138.953974 95.766837 
L 140.885368 97.617664 
L 141.575152 98.755484 
L 141.851065 99.181156 
L 142.264935 99.761373 
L 142.540848 100.244242 
L 142.954719 100.884938 
L 143.506545 101.725814 
L 143.782459 101.756407 
L 144.610199 103.698139 
L 145.299983 106.115967 
L 145.989766 110.847535 
L 146.67955 117.802178 
L 146.955463 121.433872 
L 147.50729 129.875054 
L 148.610944 143.58814 
L 149.162771 148.274083 
L 149.852554 150.327545 
L 150.266424 151.26346 
L 151.370078 151.951097 
L 151.645991 152.679167 
L 151.783948 152.748459 
L 152.197818 152.56719 
L 154.405126 154.194325 
L 155.094909 154.470677 
L 155.370823 154.033609 
L 155.508779 153.794278 
L 155.784693 153.98035 
L 155.922649 154.05919 
L 156.060606 153.988177 
L 156.474476 153.520661 
L 156.75039 153.511739 
L 157.16426 153.052478 
L 157.57813 153.041434 
L 158.129957 152.196317 
L 158.40587 152.237565 
L 158.681784 152.03377 
L 158.957697 151.90722 
L 159.371567 151.88328 
L 160.337264 151.058631 
L 160.613177 151.034267 
L 160.889091 151.095573 
L 161.165004 150.968929 
L 161.578874 150.604888 
L 162.268658 150.327007 
L 162.682528 150.041788 
L 162.958442 150.122679 
L 163.372312 150.313593 
L 163.648225 150.234145 
L 163.924139 150.022818 
L 164.889835 150.292085 
L 165.165749 150.586983 
L 166.545316 152.928365 
L 168.47671 157.933458 
L 169.028537 160.018897 
M 189.86 314.399284 
L 191.239567 314.183989 
L 192.205264 313.307186 
L 192.895048 312.429054 
L 195.654182 306.748096 
L 197.585576 301.219279 
L 202.689974 283.737373 
L 203.517714 280.789583 
L 205.449108 274.80493 
L 206.552762 271.631696 
L 208.760069 265.365864 
L 209.173939 264.340823 
L 210.139636 261.652244 
L 211.105333 259.33966 
L 211.519203 258.415685 
L 211.933074 257.722365 
L 213.174684 255.398883 
L 213.450597 254.953499 
L 214.692208 252.885065 
L 215.381991 251.989007 
L 215.519948 251.92549 
L 215.933818 251.39808 
L 216.071775 251.364563 
L 216.485645 250.731386 
L 216.899515 250.249102 
L 217.037472 249.977349 
L 217.175429 249.958072 
L 217.451342 249.638552 
L 217.589299 249.527175 
L 217.727255 249.572818 
L 217.865212 249.349147 
L 218.003169 249.486679 
L 218.141126 249.399416 
L 218.279082 249.483258 
L 218.417039 249.33433 
L 218.692952 249.499037 
L 219.658649 249.884826 
L 219.796606 249.843001 
L 220.072519 249.958562 
L 220.210476 249.937014 
L 220.348433 249.560679 
L 220.48639 249.75225 
L 220.624346 249.733715 
L 223.383481 252.238941 
L 223.935307 252.967337 
L 225.728745 255.869608 
L 226.418528 256.881326 
L 228.763792 260.40046 
L 229.039706 260.81295 
L 229.729489 261.715723 
L 230.143359 262.50175 
L 230.281316 262.665733 
L 231.660883 265.961143 
L 231.936797 266.539746 
L 232.62658 268.324323 
L 233.178407 269.414936 
L 234.006147 270.753719 
L 236.627325 272.876059 
L 236.903238 272.923775 
L 237.868935 272.899036 
L 238.006892 272.862337 
M 260.217922 325.878725 
L 261.873403 325.927623 
L 263.25297 325.850868 
L 266.012104 325.285245 
L 271.944242 322.690837 
L 276.634771 319.60492 
L 283.256693 314.37648 
L 285.326043 312.985417 
L 285.87787 312.664006 
L 286.981524 312.050418 
L 292.913662 309.421466 
L 296.086667 309.106059 
L 296.914407 309.26689 
L 298.156017 309.880852 
L 298.983758 310.596567 
L 300.087411 311.768998 
L 303.260416 314.985351 
L 308.0889 318.868683 
L 312.503515 321.403795 
L 312.917385 321.685946 
L 317.883827 324.032475 
L 318.57361 324.309553 
L 318.987481 324.494226 
L 320.229091 324.959313 
L 320.918874 325.220741 
L 322.712312 325.792896 
L 323.540052 326.057222 
L 327.40284 326.98897 
L 330.713801 327.437818 
L 334.438632 327.562927 
L 334.714545 327.557681 
L 334.714545 327.557681 
" style="fill:none;stroke:#67a612;stroke-linecap:square;stroke-width:1.5;"/>
   </g>
   <g id="line2d_18">
    <path clip-path="url(#p7cdff22721)" d="M 45.005455 322.203608 
L 46.109108 321.94772 
L 50.24781 320.700341 
L 54.524468 320.141434 
L 57.007688 319.824756 
L 57.697472 319.457721 
L 58.249299 318.921399 
L 58.801126 318.002055 
L 59.352952 316.5684 
L 59.904779 314.440881 
L 60.456606 311.443386 
L 61.14639 306.377875 
L 62.939827 292.077738 
L 63.491654 289.502705 
L 64.043481 287.944465 
L 64.595307 287.024824 
L 65.836918 285.477 
L 66.250788 285.38254 
L 66.526701 285.606483 
L 66.802615 286.058933 
L 67.354442 287.596585 
L 68.044225 290.550994 
L 69.699706 298.495572 
L 70.389489 300.607816 
L 71.217229 302.328225 
L 71.907013 303.170905 
L 73.010667 304.334384 
L 73.70045 305.6998 
L 75.355931 309.478735 
L 75.907758 310.104676 
L 76.459584 310.376181 
L 77.149368 310.698972 
L 77.563238 311.227823 
L 78.115065 312.483481 
L 79.356675 315.577844 
L 80.046459 316.488748 
L 80.736242 317.508229 
L 81.563983 318.742211 
L 81.977853 319.012159 
L 82.391723 319.02836 
L 82.805593 318.84924 
L 83.35742 318.363014 
L 83.909247 317.547876 
L 84.323117 316.460134 
L 84.59903 315.180836 
L 84.874944 313.091346 
L 85.288814 307.797596 
L 85.840641 296.180286 
L 86.668381 271.53723 
L 90.393212 153.706936 
L 91.220952 133.968321 
L 92.048693 119.534454 
L 92.738476 111.213762 
L 93.42826 105.72084 
L 94.256 100.707126 
L 95.08374 96.969664 
L 95.773524 94.938064 
L 96.325351 93.912091 
L 96.877177 93.296003 
L 97.429004 93.000392 
L 102.119532 91.765855 
L 103.085229 91.748785 
L 103.91297 92.037513 
L 104.188883 92.275664 
L 105.292537 92.870216 
L 110.672848 93.277571 
L 114.535636 94.25423 
L 114.81155 94.308204 
L 115.22542 94.509533 
L 115.501333 94.615277 
L 115.915203 94.91809 
L 116.191117 95.097225 
L 116.46703 95.533695 
L 116.742944 95.715337 
L 117.708641 97.614362 
L 118.812294 101.146666 
L 119.226165 103.090038 
L 119.364121 103.456101 
L 120.605732 110.223275 
L 122.123255 123.387261 
L 122.537126 125.727294 
L 122.813039 126.051215 
L 123.226909 126.648265 
L 124.330563 127.306986 
L 124.744433 127.177034 
L 125.434216 126.458772 
L 125.986043 125.545845 
L 126.95174 123.425397 
L 128.469264 119.263028 
L 130.400658 112.958808 
L 131.366355 109.610857 
L 132.194095 107.073962 
L 132.470009 106.360076 
L 133.159792 104.324116 
L 133.987532 102.503873 
L 135.505056 99.836145 
L 135.918926 99.461577 
L 136.332797 98.972683 
L 137.574407 98.494591 
L 137.988277 98.453843 
L 138.953974 98.810654 
L 140.885368 101.173799 
L 141.575152 102.601309 
L 141.851065 103.130776 
L 142.264935 103.852322 
L 142.540848 104.455056 
L 142.954719 105.254549 
L 143.506545 106.301616 
L 143.644502 106.258849 
L 143.782459 106.343828 
L 144.610199 108.748451 
L 145.299983 111.717871 
L 145.989766 117.463099 
L 146.67955 125.78492 
L 146.955463 130.075364 
L 147.369333 138.159682 
L 147.645247 142.090746 
L 148.059117 149.986535 
L 149.162771 160.752533 
L 149.852554 163.033151 
L 150.128468 163.903381 
L 150.404381 164.153095 
L 150.680294 164.307774 
L 151.094165 164.552973 
L 151.232121 164.589028 
L 151.508035 165.266634 
L 151.783948 165.725359 
L 152.197818 165.530832 
L 154.129212 167.153416 
L 155.094909 167.650221 
L 155.370823 167.173046 
L 155.508779 166.911712 
L 155.646736 166.952461 
L 155.922649 167.201237 
L 156.060606 167.121306 
L 156.474476 166.5978 
L 156.75039 166.579315 
L 157.16426 166.051918 
L 157.440173 166.114634 
L 157.57813 166.011539 
L 158.129957 165.034457 
L 158.40587 165.057949 
L 158.681784 164.804209 
L 158.957697 164.635594 
L 159.371567 164.564874 
L 160.337264 163.525901 
L 160.613177 163.463112 
L 160.889091 163.494484 
L 161.165004 163.31395 
L 161.578874 162.849372 
L 162.268658 162.435974 
L 162.682528 162.056836 
L 162.958442 162.105316 
L 163.372312 162.258833 
L 163.648225 162.128717 
L 163.924139 161.853639 
L 164.889835 162.023076 
L 165.165749 162.318545 
L 165.579619 163.176726 
L 165.993489 163.768637 
L 166.269403 164.112855 
L 166.683273 165.178869 
L 167.2351 166.713618 
L 167.64897 167.548905 
L 168.200797 169.227279 
L 169.028537 172.570614 
M 189.86 318.727261 
L 191.515481 318.480018 
L 192.067307 318.14259 
L 193.860745 316.065687 
L 194.550528 315.040136 
L 195.102355 314.151643 
L 195.792139 312.769066 
L 196.206009 311.91847 
L 199.1031 304.543353 
L 204.759325 287.608266 
L 206.828675 282.04296 
L 208.208242 278.35598 
L 209.173939 276.036776 
L 210.139636 273.555373 
L 211.105333 271.415871 
L 211.519203 270.560024 
L 211.933074 269.91749 
L 214.002424 266.320443 
L 217.589299 262.164426 
L 217.727255 262.197866 
L 217.865212 261.976537 
L 218.003169 262.084277 
L 218.141126 261.991855 
L 218.279082 262.065122 
L 218.417039 261.910115 
L 218.692952 262.024194 
L 219.382736 262.235577 
L 219.520693 262.141802 
L 219.658649 262.255414 
L 219.796606 262.184351 
L 220.072519 262.239963 
L 220.210476 262.219609 
L 220.348433 261.914313 
L 220.48639 262.07454 
L 220.624346 262.036891 
L 221.31413 262.47429 
L 221.452087 262.478283 
L 221.865957 262.882797 
L 222.55574 263.327208 
L 222.693697 263.557449 
L 222.831654 263.551215 
L 223.107567 263.783397 
L 224.073264 264.703625 
L 226.004658 267.513489 
L 226.694442 268.351444 
L 227.108312 269.139336 
L 227.522182 269.725884 
L 229.177662 272.01649 
L 229.315619 272.102277 
L 230.143359 273.5913 
L 230.281316 273.755764 
L 231.247013 275.900101 
L 232.902494 279.750461 
L 234.006147 281.641139 
L 234.971844 282.494419 
L 235.523671 282.877822 
L 236.489368 283.753025 
L 237.455065 283.921372 
L 237.730978 283.932648 
L 238.006892 283.818103 
M 260.217922 326.002967 
L 262.425229 326.175985 
L 264.49458 326.1681 
L 266.288017 325.995654 
L 269.874892 325.270745 
L 272.909939 324.334288 
L 274.97929 323.452272 
L 282.290996 319.276023 
L 283.118736 318.743966 
L 283.946476 318.281051 
L 285.326043 317.559558 
L 285.87787 317.29696 
L 286.981524 316.793966 
L 292.913662 314.739644 
L 296.36258 314.574574 
L 298.293974 315.232716 
L 300.087411 316.549897 
L 303.812242 319.336858 
L 305.19181 320.171187 
L 305.881593 320.664425 
L 307.123203 321.422118 
L 311.675775 323.537339 
L 313.331255 324.258158 
L 313.883082 324.474327 
L 316.09039 325.216527 
L 316.642216 325.404742 
L 319.125437 326.103293 
L 320.091134 326.342044 
L 326.5751 327.411743 
L 331.127671 327.705139 
L 334.714545 327.683597 
L 334.714545 327.683597 
" style="fill:none;stroke:#477706;stroke-linecap:square;stroke-width:1.5;"/>
   </g>
   <g id="patch_3">
    <path d="M 30.52 332.6 
L 30.52 28.08 
" style="fill:none;stroke:#000000;stroke-linecap:square;stroke-linejoin:miter;stroke-width:0.8;"/>
   </g>
   <g id="patch_4">
    <path d="M 349.2 332.6 
L 349.2 28.08 
" style="fill:none;stroke:#000000;stroke-linecap:square;stroke-linejoin:miter;stroke-width:0.8;"/>
   </g>
   <g id="patch_5">
    <path d="M 30.52 332.6 
L 349.2 332.6 
" style="fill:none;stroke:#000000;stroke-linecap:square;stroke-linejoin:miter;stroke-width:0.8;"/>
   </g>
   <g id="patch_6">
    <path d="M 30.52 28.08 
L 349.2 28.08 
" style="fill:none;stroke:#000000;stroke-linecap:square;stroke-linejoin:miter;stroke-width:0.8;"/>
   </g>
   <g id="text_14">
    <!-- Leaf Water Thickness -->
    <g transform="translate(109.955703 22.08)scale(0.15 -0.15)">
     <defs>
      <path d="M 9.8125 72.90625 
L 19.671875 72.90625 
L 19.671875 8.296875 
L 55.171875 8.296875 
L 55.171875 0 
L 9.8125 0 
z
" id="DejaVuSans-76"/>
      <path d="M 56.203125 29.59375 
L 56.203125 25.203125 
L 14.890625 25.203125 
Q 15.484375 15.921875 20.484375 11.0625 
Q 25.484375 6.203125 34.421875 6.203125 
Q 39.59375 6.203125 44.453125 7.46875 
Q 49.3125 8.734375 54.109375 11.28125 
L 54.109375 2.78125 
Q 49.265625 0.734375 44.1875 -0.34375 
Q 39.109375 -1.421875 33.890625 -1.421875 
Q 20.796875 -1.421875 13.15625 6.1875 
Q 5.515625 13.8125 5.515625 26.8125 
Q 5.515625 40.234375 12.765625 48.109375 
Q 20.015625 56 32.328125 56 
Q 43.359375 56 49.78125 48.890625 
Q 56.203125 41.796875 56.203125 29.59375 
z
M 47.21875 32.234375 
Q 47.125 39.59375 43.09375 43.984375 
Q 39.0625 48.390625 32.421875 48.390625 
Q 24.90625 48.390625 20.390625 44.140625 
Q 15.875 39.890625 15.1875 32.171875 
z
" id="DejaVuSans-101"/>
      <path d="M 34.28125 27.484375 
Q 23.390625 27.484375 19.1875 25 
Q 14.984375 22.515625 14.984375 16.5 
Q 14.984375 11.71875 18.140625 8.90625 
Q 21.296875 6.109375 26.703125 6.109375 
Q 34.1875 6.109375 38.703125 11.40625 
Q 43.21875 16.703125 43.21875 25.484375 
L 43.21875 27.484375 
z
M 52.203125 31.203125 
L 52.203125 0 
L 43.21875 0 
L 43.21875 8.296875 
Q 40.140625 3.328125 35.546875 0.953125 
Q 30.953125 -1.421875 24.3125 -1.421875 
Q 15.921875 -1.421875 10.953125 3.296875 
Q 6 8.015625 6 15.921875 
Q 6 25.140625 12.171875 29.828125 
Q 18.359375 34.515625 30.609375 34.515625 
L 43.21875 34.515625 
L 43.21875 35.40625 
Q 43.21875 41.609375 39.140625 45 
Q 35.0625 48.390625 27.6875 48.390625 
Q 23 48.390625 18.546875 47.265625 
Q 14.109375 46.140625 10.015625 43.890625 
L 10.015625 52.203125 
Q 14.9375 54.109375 19.578125 55.046875 
Q 24.21875 56 28.609375 56 
Q 40.484375 56 46.34375 49.84375 
Q 52.203125 43.703125 52.203125 31.203125 
z
" id="DejaVuSans-97"/>
      <path d="M 37.109375 75.984375 
L 37.109375 68.5 
L 28.515625 68.5 
Q 23.6875 68.5 21.796875 66.546875 
Q 19.921875 64.59375 19.921875 59.515625 
L 19.921875 54.6875 
L 34.71875 54.6875 
L 34.71875 47.703125 
L 19.921875 47.703125 
L 19.921875 0 
L 10.890625 0 
L 10.890625 47.703125 
L 2.296875 47.703125 
L 2.296875 54.6875 
L 10.890625 54.6875 
L 10.890625 58.5 
Q 10.890625 67.625 15.140625 71.796875 
Q 19.390625 75.984375 28.609375 75.984375 
z
" id="DejaVuSans-102"/>
      <path id="DejaVuSans-32"/>
      <path d="M 3.328125 72.90625 
L 13.28125 72.90625 
L 28.609375 11.28125 
L 43.890625 72.90625 
L 54.984375 72.90625 
L 70.3125 11.28125 
L 85.59375 72.90625 
L 95.609375 72.90625 
L 77.296875 0 
L 64.890625 0 
L 49.515625 63.28125 
L 33.984375 0 
L 21.578125 0 
z
" id="DejaVuSans-87"/>
      <path d="M 18.3125 70.21875 
L 18.3125 54.6875 
L 36.8125 54.6875 
L 36.8125 47.703125 
L 18.3125 47.703125 
L 18.3125 18.015625 
Q 18.3125 11.328125 20.140625 9.421875 
Q 21.96875 7.515625 27.59375 7.515625 
L 36.8125 7.515625 
L 36.8125 0 
L 27.59375 0 
Q 17.1875 0 13.234375 3.875 
Q 9.28125 7.765625 9.28125 18.015625 
L 9.28125 47.703125 
L 2.6875 47.703125 
L 2.6875 54.6875 
L 9.28125 54.6875 
L 9.28125 70.21875 
z
" id="DejaVuSans-116"/>
      <path d="M 41.109375 46.296875 
Q 39.59375 47.171875 37.8125 47.578125 
Q 36.03125 48 33.890625 48 
Q 26.265625 48 22.1875 43.046875 
Q 18.109375 38.09375 18.109375 28.8125 
L 18.109375 0 
L 9.078125 0 
L 9.078125 54.6875 
L 18.109375 54.6875 
L 18.109375 46.1875 
Q 20.953125 51.171875 25.484375 53.578125 
Q 30.03125 56 36.53125 56 
Q 37.453125 56 38.578125 55.875 
Q 39.703125 55.765625 41.0625 55.515625 
z
" id="DejaVuSans-114"/>
      <path d="M -0.296875 72.90625 
L 61.375 72.90625 
L 61.375 64.59375 
L 35.5 64.59375 
L 35.5 0 
L 25.59375 0 
L 25.59375 64.59375 
L -0.296875 64.59375 
z
" id="DejaVuSans-84"/>
      <path d="M 54.890625 33.015625 
L 54.890625 0 
L 45.90625 0 
L 45.90625 32.71875 
Q 45.90625 40.484375 42.875 44.328125 
Q 39.84375 48.1875 33.796875 48.1875 
Q 26.515625 48.1875 22.3125 43.546875 
Q 18.109375 38.921875 18.109375 30.90625 
L 18.109375 0 
L 9.078125 0 
L 9.078125 75.984375 
L 18.109375 75.984375 
L 18.109375 46.1875 
Q 21.34375 51.125 25.703125 53.5625 
Q 30.078125 56 35.796875 56 
Q 45.21875 56 50.046875 50.171875 
Q 54.890625 44.34375 54.890625 33.015625 
z
" id="DejaVuSans-104"/>
      <path d="M 9.421875 54.6875 
L 18.40625 54.6875 
L 18.40625 0 
L 9.421875 0 
z
M 9.421875 75.984375 
L 18.40625 75.984375 
L 18.40625 64.59375 
L 9.421875 64.59375 
z
" id="DejaVuSans-105"/>
      <path d="M 48.78125 52.59375 
L 48.78125 44.1875 
Q 44.96875 46.296875 41.140625 47.34375 
Q 37.3125 48.390625 33.40625 48.390625 
Q 24.65625 48.390625 19.8125 42.84375 
Q 14.984375 37.3125 14.984375 27.296875 
Q 14.984375 17.28125 19.8125 11.734375 
Q 24.65625 6.203125 33.40625 6.203125 
Q 37.3125 6.203125 41.140625 7.25 
Q 44.96875 8.296875 48.78125 10.40625 
L 48.78125 2.09375 
Q 45.015625 0.34375 40.984375 -0.53125 
Q 36.96875 -1.421875 32.421875 -1.421875 
Q 20.0625 -1.421875 12.78125 6.34375 
Q 5.515625 14.109375 5.515625 27.296875 
Q 5.515625 40.671875 12.859375 48.328125 
Q 20.21875 56 33.015625 56 
Q 37.15625 56 41.109375 55.140625 
Q 45.0625 54.296875 48.78125 52.59375 
z
" id="DejaVuSans-99"/>
      <path d="M 9.078125 75.984375 
L 18.109375 75.984375 
L 18.109375 31.109375 
L 44.921875 54.6875 
L 56.390625 54.6875 
L 27.390625 29.109375 
L 57.625 0 
L 45.90625 0 
L 18.109375 26.703125 
L 18.109375 0 
L 9.078125 0 
z
" id="DejaVuSans-107"/>
      <path d="M 54.890625 33.015625 
L 54.890625 0 
L 45.90625 0 
L 45.90625 32.71875 
Q 45.90625 40.484375 42.875 44.328125 
Q 39.84375 48.1875 33.796875 48.1875 
Q 26.515625 48.1875 22.3125 43.546875 
Q 18.109375 38.921875 18.109375 30.90625 
L 18.109375 0 
L 9.078125 0 
L 9.078125 54.6875 
L 18.109375 54.6875 
L 18.109375 46.1875 
Q 21.34375 51.125 25.703125 53.5625 
Q 30.078125 56 35.796875 56 
Q 45.21875 56 50.046875 50.171875 
Q 54.890625 44.34375 54.890625 33.015625 
z
" id="DejaVuSans-110"/>
      <path d="M 44.28125 53.078125 
L 44.28125 44.578125 
Q 40.484375 46.53125 36.375 47.5 
Q 32.28125 48.484375 27.875 48.484375 
Q 21.1875 48.484375 17.84375 46.4375 
Q 14.5 44.390625 14.5 40.28125 
Q 14.5 37.15625 16.890625 35.375 
Q 19.28125 33.59375 26.515625 31.984375 
L 29.59375 31.296875 
Q 39.15625 29.25 43.1875 25.515625 
Q 47.21875 21.78125 47.21875 15.09375 
Q 47.21875 7.46875 41.1875 3.015625 
Q 35.15625 -1.421875 24.609375 -1.421875 
Q 20.21875 -1.421875 15.453125 -0.5625 
Q 10.6875 0.296875 5.421875 2 
L 5.421875 11.28125 
Q 10.40625 8.6875 15.234375 7.390625 
Q 20.0625 6.109375 24.8125 6.109375 
Q 31.15625 6.109375 34.5625 8.28125 
Q 37.984375 10.453125 37.984375 14.40625 
Q 37.984375 18.0625 35.515625 20.015625 
Q 33.0625 21.96875 24.703125 23.78125 
L 21.578125 24.515625 
Q 13.234375 26.265625 9.515625 29.90625 
Q 5.8125 33.546875 5.8125 39.890625 
Q 5.8125 47.609375 11.28125 51.796875 
Q 16.75 56 26.8125 56 
Q 31.78125 56 36.171875 55.265625 
Q 40.578125 54.546875 44.28125 53.078125 
z
" id="DejaVuSans-115"/>
     </defs>
     <use xlink:href="#DejaVuSans-76"/>
     <use x="53.962891" xlink:href="#DejaVuSans-101"/>
     <use x="115.486328" xlink:href="#DejaVuSans-97"/>
     <use x="176.765625" xlink:href="#DejaVuSans-102"/>
     <use x="211.970703" xlink:href="#DejaVuSans-32"/>
     <use x="243.757812" xlink:href="#DejaVuSans-87"/>
     <use x="336.259766" xlink:href="#DejaVuSans-97"/>
     <use x="397.539062" xlink:href="#DejaVuSans-116"/>
     <use x="436.748047" xlink:href="#DejaVuSans-101"/>
     <use x="498.271484" xlink:href="#DejaVuSans-114"/>
     <use x="539.384766" xlink:href="#DejaVuSans-32"/>
     <use x="571.171875" xlink:href="#DejaVuSans-84"/>
     <use x="632.255859" xlink:href="#DejaVuSans-104"/>
     <use x="695.634766" xlink:href="#DejaVuSans-105"/>
     <use x="723.417969" xlink:href="#DejaVuSans-99"/>
     <use x="778.398438" xlink:href="#DejaVuSans-107"/>
     <use x="836.308594" xlink:href="#DejaVuSans-110"/>
     <use x="899.6875" xlink:href="#DejaVuSans-101"/>
     <use x="961.210938" xlink:href="#DejaVuSans-115"/>
     <use x="1013.310547" xlink:href="#DejaVuSans-115"/>
    </g>
   </g>
   <g id="legend_1">
    <g id="patch_7">
     <path d="M 265.2 109.470625 
L 342.2 109.470625 
Q 344.2 109.470625 344.2 107.470625 
L 344.2 35.08 
Q 344.2 33.08 342.2 33.08 
L 265.2 33.08 
Q 263.2 33.08 263.2 35.08 
L 263.2 107.470625 
Q 263.2 109.470625 265.2 109.470625 
z
" style="fill:#ffffff;opacity:0.8;stroke:#cccccc;stroke-linejoin:miter;"/>
    </g>
    <g id="line2d_19">
     <path d="M 267.2 41.178438 
L 287.2 41.178438 
" style="fill:none;stroke:#bfce68;stroke-linecap:square;stroke-width:1.5;"/>
    </g>
    <g id="line2d_20"/>
    <g id="text_15">
     <!-- 0.05 $mm$ -->
     <g transform="translate(295.2 44.678438)scale(0.1 -0.1)">
      <defs>
       <path d="M 89.796875 33.015625 
L 83.40625 0 
L 74.421875 0 
L 80.71875 32.71875 
Q 81.109375 34.8125 81.296875 36.328125 
Q 81.5 37.84375 81.5 38.921875 
Q 81.5 43.3125 79.046875 45.75 
Q 76.609375 48.1875 72.21875 48.1875 
Q 65.671875 48.1875 60.546875 43.28125 
Q 55.421875 38.375 53.90625 30.515625 
L 47.90625 0 
L 38.921875 0 
L 45.3125 32.71875 
Q 45.703125 34.515625 45.890625 36.046875 
Q 46.09375 37.59375 46.09375 38.8125 
Q 46.09375 43.265625 43.65625 45.71875 
Q 41.21875 48.1875 36.921875 48.1875 
Q 30.28125 48.1875 25.140625 43.28125 
Q 20.015625 38.375 18.5 30.515625 
L 12.5 0 
L 3.515625 0 
L 14.203125 54.6875 
L 23.1875 54.6875 
L 21.484375 46.1875 
Q 25.140625 50.984375 30.046875 53.484375 
Q 34.96875 56 40.578125 56 
Q 46.53125 56 50.359375 52.875 
Q 54.203125 49.75 54.984375 44.1875 
Q 59.078125 49.953125 64.46875 52.96875 
Q 69.875 56 75.875 56 
Q 82.90625 56 86.734375 51.953125 
Q 90.578125 47.90625 90.578125 40.484375 
Q 90.578125 38.875 90.375 36.9375 
Q 90.1875 35.015625 89.796875 33.015625 
z
" id="DejaVuSans-Oblique-109"/>
      </defs>
      <use transform="translate(0 0.78125)" xlink:href="#DejaVuSans-48"/>
      <use transform="translate(63.623047 0.78125)" xlink:href="#DejaVuSans-46"/>
      <use transform="translate(95.410156 0.78125)" xlink:href="#DejaVuSans-48"/>
      <use transform="translate(159.033203 0.78125)" xlink:href="#DejaVuSans-53"/>
      <use transform="translate(222.65625 0.78125)" xlink:href="#DejaVuSans-32"/>
      <use transform="translate(254.443359 0.78125)" xlink:href="#DejaVuSans-Oblique-109"/>
      <use transform="translate(351.855469 0.78125)" xlink:href="#DejaVuSans-Oblique-109"/>
     </g>
    </g>
    <g id="line2d_21">
     <path d="M 267.2 55.856563 
L 287.2 55.856563 
" style="fill:none;stroke:#aac03b;stroke-linecap:square;stroke-width:1.5;"/>
    </g>
    <g id="line2d_22"/>
    <g id="text_16">
     <!-- 0.16 $mm$ -->
     <g transform="translate(295.2 59.356563)scale(0.1 -0.1)">
      <use transform="translate(0 0.78125)" xlink:href="#DejaVuSans-48"/>
      <use transform="translate(63.623047 0.78125)" xlink:href="#DejaVuSans-46"/>
      <use transform="translate(95.410156 0.78125)" xlink:href="#DejaVuSans-49"/>
      <use transform="translate(159.033203 0.78125)" xlink:href="#DejaVuSans-54"/>
      <use transform="translate(222.65625 0.78125)" xlink:href="#DejaVuSans-32"/>
      <use transform="translate(254.443359 0.78125)" xlink:href="#DejaVuSans-Oblique-109"/>
      <use transform="translate(351.855469 0.78125)" xlink:href="#DejaVuSans-Oblique-109"/>
     </g>
    </g>
    <g id="line2d_23">
     <path d="M 267.2 70.534688 
L 287.2 70.534688 
" style="fill:none;stroke:#8fb926;stroke-linecap:square;stroke-width:1.5;"/>
    </g>
    <g id="line2d_24"/>
    <g id="text_17">
     <!-- 0.28 $mm$ -->
     <g transform="translate(295.2 74.034688)scale(0.1 -0.1)">
      <defs>
       <path d="M 31.78125 34.625 
Q 24.75 34.625 20.71875 30.859375 
Q 16.703125 27.09375 16.703125 20.515625 
Q 16.703125 13.921875 20.71875 10.15625 
Q 24.75 6.390625 31.78125 6.390625 
Q 38.8125 6.390625 42.859375 10.171875 
Q 46.921875 13.96875 46.921875 20.515625 
Q 46.921875 27.09375 42.890625 30.859375 
Q 38.875 34.625 31.78125 34.625 
z
M 21.921875 38.8125 
Q 15.578125 40.375 12.03125 44.71875 
Q 8.5 49.078125 8.5 55.328125 
Q 8.5 64.0625 14.71875 69.140625 
Q 20.953125 74.21875 31.78125 74.21875 
Q 42.671875 74.21875 48.875 69.140625 
Q 55.078125 64.0625 55.078125 55.328125 
Q 55.078125 49.078125 51.53125 44.71875 
Q 48 40.375 41.703125 38.8125 
Q 48.828125 37.15625 52.796875 32.3125 
Q 56.78125 27.484375 56.78125 20.515625 
Q 56.78125 9.90625 50.3125 4.234375 
Q 43.84375 -1.421875 31.78125 -1.421875 
Q 19.734375 -1.421875 13.25 4.234375 
Q 6.78125 9.90625 6.78125 20.515625 
Q 6.78125 27.484375 10.78125 32.3125 
Q 14.796875 37.15625 21.921875 38.8125 
z
M 18.3125 54.390625 
Q 18.3125 48.734375 21.84375 45.5625 
Q 25.390625 42.390625 31.78125 42.390625 
Q 38.140625 42.390625 41.71875 45.5625 
Q 45.3125 48.734375 45.3125 54.390625 
Q 45.3125 60.0625 41.71875 63.234375 
Q 38.140625 66.40625 31.78125 66.40625 
Q 25.390625 66.40625 21.84375 63.234375 
Q 18.3125 60.0625 18.3125 54.390625 
z
" id="DejaVuSans-56"/>
      </defs>
      <use transform="translate(0 0.78125)" xlink:href="#DejaVuSans-48"/>
      <use transform="translate(63.623047 0.78125)" xlink:href="#DejaVuSans-46"/>
      <use transform="translate(89.910156 0.78125)" xlink:href="#DejaVuSans-50"/>
      <use transform="translate(153.533203 0.78125)" xlink:href="#DejaVuSans-56"/>
      <use transform="translate(217.15625 0.78125)" xlink:href="#DejaVuSans-32"/>
      <use transform="translate(248.943359 0.78125)" xlink:href="#DejaVuSans-Oblique-109"/>
      <use transform="translate(346.355469 0.78125)" xlink:href="#DejaVuSans-Oblique-109"/>
     </g>
    </g>
    <g id="line2d_25">
     <path d="M 267.2 85.212813 
L 287.2 85.212813 
" style="fill:none;stroke:#67a612;stroke-linecap:square;stroke-width:1.5;"/>
    </g>
    <g id="line2d_26"/>
    <g id="text_18">
     <!-- 0.39 $mm$ -->
     <g transform="translate(295.2 88.712813)scale(0.1 -0.1)">
      <defs>
       <path d="M 10.984375 1.515625 
L 10.984375 10.5 
Q 14.703125 8.734375 18.5 7.8125 
Q 22.3125 6.890625 25.984375 6.890625 
Q 35.75 6.890625 40.890625 13.453125 
Q 46.046875 20.015625 46.78125 33.40625 
Q 43.953125 29.203125 39.59375 26.953125 
Q 35.25 24.703125 29.984375 24.703125 
Q 19.046875 24.703125 12.671875 31.3125 
Q 6.296875 37.9375 6.296875 49.421875 
Q 6.296875 60.640625 12.9375 67.421875 
Q 19.578125 74.21875 30.609375 74.21875 
Q 43.265625 74.21875 49.921875 64.515625 
Q 56.59375 54.828125 56.59375 36.375 
Q 56.59375 19.140625 48.40625 8.859375 
Q 40.234375 -1.421875 26.421875 -1.421875 
Q 22.703125 -1.421875 18.890625 -0.6875 
Q 15.09375 0.046875 10.984375 1.515625 
z
M 30.609375 32.421875 
Q 37.25 32.421875 41.125 36.953125 
Q 45.015625 41.5 45.015625 49.421875 
Q 45.015625 57.28125 41.125 61.84375 
Q 37.25 66.40625 30.609375 66.40625 
Q 23.96875 66.40625 20.09375 61.84375 
Q 16.21875 57.28125 16.21875 49.421875 
Q 16.21875 41.5 20.09375 36.953125 
Q 23.96875 32.421875 30.609375 32.421875 
z
" id="DejaVuSans-57"/>
      </defs>
      <use transform="translate(0 0.78125)" xlink:href="#DejaVuSans-48"/>
      <use transform="translate(63.623047 0.78125)" xlink:href="#DejaVuSans-46"/>
      <use transform="translate(95.410156 0.78125)" xlink:href="#DejaVuSans-51"/>
      <use transform="translate(159.033203 0.78125)" xlink:href="#DejaVuSans-57"/>
      <use transform="translate(222.65625 0.78125)" xlink:href="#DejaVuSans-32"/>
      <use transform="translate(254.443359 0.78125)" xlink:href="#DejaVuSans-Oblique-109"/>
      <use transform="translate(351.855469 0.78125)" xlink:href="#DejaVuSans-Oblique-109"/>
     </g>
    </g>
    <g id="line2d_27">
     <path d="M 267.2 99.890938 
L 287.2 99.890938 
" style="fill:none;stroke:#477706;stroke-linecap:square;stroke-width:1.5;"/>
    </g>
    <g id="line2d_28"/>
    <g id="text_19">
     <!-- 0.50 $mm$ -->
     <g transform="translate(295.2 103.390938)scale(0.1 -0.1)">
      <use transform="translate(0 0.78125)" xlink:href="#DejaVuSans-48"/>
      <use transform="translate(63.623047 0.78125)" xlink:href="#DejaVuSans-46"/>
      <use transform="translate(95.410156 0.78125)" xlink:href="#DejaVuSans-53"/>
      <use transform="translate(159.033203 0.78125)" xlink:href="#DejaVuSans-48"/>
      <use transform="translate(222.65625 0.78125)" xlink:href="#DejaVuSans-32"/>
      <use transform="translate(254.443359 0.78125)" xlink:href="#DejaVuSans-Oblique-109"/>
      <use transform="translate(351.855469 0.78125)" xlink:href="#DejaVuSans-Oblique-109"/>
     </g>
    </g>
   </g>
  </g>
 </g>
 <defs>
  <clipPath id="p7cdff22721">
   <rect height="304.52" width="318.68" x="30.52" y="28.08"/>
  </clipPath>
 </defs>
</svg>
