<?xml version="1.0" encoding="utf-8" standalone="no"?>
<!DOCTYPE svg PUBLIC "-//W3C//DTD SVG 1.1//EN"
  "http://www.w3.org/Graphics/SVG/1.1/DTD/svg11.dtd">
<!-- Created with matplotlib (https://matplotlib.org/) -->
<svg height="360pt" version="1.1" viewBox="0 0 360 360" width="360pt" xmlns="http://www.w3.org/2000/svg" xmlns:xlink="http://www.w3.org/1999/xlink">
 <metadata>
  <rdf:RDF xmlns:cc="http://creativecommons.org/ns#" xmlns:dc="http://purl.org/dc/elements/1.1/" xmlns:rdf="http://www.w3.org/1999/02/22-rdf-syntax-ns#">
   <cc:Work>
    <dc:type rdf:resource="http://purl.org/dc/dcmitype/StillImage"/>
    <dc:date>2020-10-26T17:04:09.541388</dc:date>
    <dc:format>image/svg+xml</dc:format>
    <dc:creator>
     <cc:Agent>
      <dc:title>Matplotlib v3.3.2, https://matplotlib.org/</dc:title>
     </cc:Agent>
    </dc:creator>
   </cc:Work>
  </rdf:RDF>
 </metadata>
 <defs>
  <style type="text/css">*{stroke-linecap:butt;stroke-linejoin:round;}</style>
 </defs>
 <g id="figure_1">
  <g id="patch_1">
   <path d="M 0 360 
L 360 360 
L 360 0 
L 0 0 
z
" style="fill:#ffffff;"/>
  </g>
  <g id="axes_1">
   <g id="patch_2">
    <path d="M 30.52 332.6 
L 349.2 332.6 
L 349.2 28.08 
L 30.52 28.08 
z
" style="fill:#ffffff;"/>
   </g>
   <g id="matplotlib.axis_1">
    <g id="xtick_1">
     <g id="line2d_1">
      <defs>
       <path d="M 0 0 
L 0 3.5 
" id="mb18771453b" style="stroke:#000000;stroke-width:0.8;"/>
      </defs>
      <g>
       <use style="stroke:#000000;stroke-width:0.8;" x="58.801126" xlink:href="#mb18771453b" y="332.6"/>
      </g>
     </g>
     <g id="text_1">
      <!-- 0.5 -->
      <g transform="translate(50.849563 347.198438)scale(0.1 -0.1)">
       <defs>
        <path d="M 31.78125 66.40625 
Q 24.171875 66.40625 20.328125 58.90625 
Q 16.5 51.421875 16.5 36.375 
Q 16.5 21.390625 20.328125 13.890625 
Q 24.171875 6.390625 31.78125 6.390625 
Q 39.453125 6.390625 43.28125 13.890625 
Q 47.125 21.390625 47.125 36.375 
Q 47.125 51.421875 43.28125 58.90625 
Q 39.453125 66.40625 31.78125 66.40625 
z
M 31.78125 74.21875 
Q 44.046875 74.21875 50.515625 64.515625 
Q 56.984375 54.828125 56.984375 36.375 
Q 56.984375 17.96875 50.515625 8.265625 
Q 44.046875 -1.421875 31.78125 -1.421875 
Q 19.53125 -1.421875 13.0625 8.265625 
Q 6.59375 17.96875 6.59375 36.375 
Q 6.59375 54.828125 13.0625 64.515625 
Q 19.53125 74.21875 31.78125 74.21875 
z
" id="DejaVuSans-48"/>
        <path d="M 10.6875 12.40625 
L 21 12.40625 
L 21 0 
L 10.6875 0 
z
" id="DejaVuSans-46"/>
        <path d="M 10.796875 72.90625 
L 49.515625 72.90625 
L 49.515625 64.59375 
L 19.828125 64.59375 
L 19.828125 46.734375 
Q 21.96875 47.46875 24.109375 47.828125 
Q 26.265625 48.1875 28.421875 48.1875 
Q 40.625 48.1875 47.75 41.5 
Q 54.890625 34.8125 54.890625 23.390625 
Q 54.890625 11.625 47.5625 5.09375 
Q 40.234375 -1.421875 26.90625 -1.421875 
Q 22.3125 -1.421875 17.546875 -0.640625 
Q 12.796875 0.140625 7.71875 1.703125 
L 7.71875 11.625 
Q 12.109375 9.234375 16.796875 8.0625 
Q 21.484375 6.890625 26.703125 6.890625 
Q 35.15625 6.890625 40.078125 11.328125 
Q 45.015625 15.765625 45.015625 23.390625 
Q 45.015625 31 40.078125 35.4375 
Q 35.15625 39.890625 26.703125 39.890625 
Q 22.75 39.890625 18.8125 39.015625 
Q 14.890625 38.140625 10.796875 36.28125 
z
" id="DejaVuSans-53"/>
       </defs>
       <use xlink:href="#DejaVuSans-48"/>
       <use x="63.623047" xlink:href="#DejaVuSans-46"/>
       <use x="95.410156" xlink:href="#DejaVuSans-53"/>
      </g>
     </g>
    </g>
    <g id="xtick_2">
     <g id="line2d_2">
      <g>
       <use style="stroke:#000000;stroke-width:0.8;" x="127.779481" xlink:href="#mb18771453b" y="332.6"/>
      </g>
     </g>
     <g id="text_2">
      <!-- 1.0 -->
      <g transform="translate(119.827918 347.198438)scale(0.1 -0.1)">
       <defs>
        <path d="M 12.40625 8.296875 
L 28.515625 8.296875 
L 28.515625 63.921875 
L 10.984375 60.40625 
L 10.984375 69.390625 
L 28.421875 72.90625 
L 38.28125 72.90625 
L 38.28125 8.296875 
L 54.390625 8.296875 
L 54.390625 0 
L 12.40625 0 
z
" id="DejaVuSans-49"/>
       </defs>
       <use xlink:href="#DejaVuSans-49"/>
       <use x="63.623047" xlink:href="#DejaVuSans-46"/>
       <use x="95.410156" xlink:href="#DejaVuSans-48"/>
      </g>
     </g>
    </g>
    <g id="xtick_3">
     <g id="line2d_3">
      <g>
       <use style="stroke:#000000;stroke-width:0.8;" x="196.757835" xlink:href="#mb18771453b" y="332.6"/>
      </g>
     </g>
     <g id="text_3">
      <!-- 1.5 -->
      <g transform="translate(188.806273 347.198438)scale(0.1 -0.1)">
       <use xlink:href="#DejaVuSans-49"/>
       <use x="63.623047" xlink:href="#DejaVuSans-46"/>
       <use x="95.410156" xlink:href="#DejaVuSans-53"/>
      </g>
     </g>
    </g>
    <g id="xtick_4">
     <g id="line2d_4">
      <g>
       <use style="stroke:#000000;stroke-width:0.8;" x="265.73619" xlink:href="#mb18771453b" y="332.6"/>
      </g>
     </g>
     <g id="text_4">
      <!-- 2.0 -->
      <g transform="translate(257.784628 347.198438)scale(0.1 -0.1)">
       <defs>
        <path d="M 19.1875 8.296875 
L 53.609375 8.296875 
L 53.609375 0 
L 7.328125 0 
L 7.328125 8.296875 
Q 12.9375 14.109375 22.625 23.890625 
Q 32.328125 33.6875 34.8125 36.53125 
Q 39.546875 41.84375 41.421875 45.53125 
Q 43.3125 49.21875 43.3125 52.78125 
Q 43.3125 58.59375 39.234375 62.25 
Q 35.15625 65.921875 28.609375 65.921875 
Q 23.96875 65.921875 18.8125 64.3125 
Q 13.671875 62.703125 7.8125 59.421875 
L 7.8125 69.390625 
Q 13.765625 71.78125 18.9375 73 
Q 24.125 74.21875 28.421875 74.21875 
Q 39.75 74.21875 46.484375 68.546875 
Q 53.21875 62.890625 53.21875 53.421875 
Q 53.21875 48.921875 51.53125 44.890625 
Q 49.859375 40.875 45.40625 35.40625 
Q 44.1875 33.984375 37.640625 27.21875 
Q 31.109375 20.453125 19.1875 8.296875 
z
" id="DejaVuSans-50"/>
       </defs>
       <use xlink:href="#DejaVuSans-50"/>
       <use x="63.623047" xlink:href="#DejaVuSans-46"/>
       <use x="95.410156" xlink:href="#DejaVuSans-48"/>
      </g>
     </g>
    </g>
    <g id="xtick_5">
     <g id="line2d_5">
      <g>
       <use style="stroke:#000000;stroke-width:0.8;" x="334.714545" xlink:href="#mb18771453b" y="332.6"/>
      </g>
     </g>
     <g id="text_5">
      <!-- 2.5 -->
      <g transform="translate(326.762983 347.198438)scale(0.1 -0.1)">
       <use xlink:href="#DejaVuSans-50"/>
       <use x="63.623047" xlink:href="#DejaVuSans-46"/>
       <use x="95.410156" xlink:href="#DejaVuSans-53"/>
      </g>
     </g>
    </g>
   </g>
   <g id="matplotlib.axis_2">
    <g id="ytick_1">
     <g id="line2d_6">
      <defs>
       <path d="M 0 0 
L -3.5 0 
" id="m32246847ae" style="stroke:#000000;stroke-width:0.8;"/>
      </defs>
      <g>
       <use style="stroke:#000000;stroke-width:0.8;" x="30.52" xlink:href="#m32246847ae" y="332.6"/>
      </g>
     </g>
     <g id="text_6">
      <!-- 0 -->
      <g transform="translate(17.1575 336.399219)scale(0.1 -0.1)">
       <use xlink:href="#DejaVuSans-48"/>
      </g>
     </g>
    </g>
    <g id="ytick_2">
     <g id="line2d_7">
      <g>
       <use style="stroke:#000000;stroke-width:0.8;" x="30.52" xlink:href="#m32246847ae" y="289.097143"/>
      </g>
     </g>
     <g id="text_7">
      <!-- 10 -->
      <g transform="translate(10.795 292.896362)scale(0.1 -0.1)">
       <use xlink:href="#DejaVuSans-49"/>
       <use x="63.623047" xlink:href="#DejaVuSans-48"/>
      </g>
     </g>
    </g>
    <g id="ytick_3">
     <g id="line2d_8">
      <g>
       <use style="stroke:#000000;stroke-width:0.8;" x="30.52" xlink:href="#m32246847ae" y="245.594286"/>
      </g>
     </g>
     <g id="text_8">
      <!-- 20 -->
      <g transform="translate(10.795 249.393504)scale(0.1 -0.1)">
       <use xlink:href="#DejaVuSans-50"/>
       <use x="63.623047" xlink:href="#DejaVuSans-48"/>
      </g>
     </g>
    </g>
    <g id="ytick_4">
     <g id="line2d_9">
      <g>
       <use style="stroke:#000000;stroke-width:0.8;" x="30.52" xlink:href="#m32246847ae" y="202.091429"/>
      </g>
     </g>
     <g id="text_9">
      <!-- 30 -->
      <g transform="translate(10.795 205.890647)scale(0.1 -0.1)">
       <defs>
        <path d="M 40.578125 39.3125 
Q 47.65625 37.796875 51.625 33 
Q 55.609375 28.21875 55.609375 21.1875 
Q 55.609375 10.40625 48.1875 4.484375 
Q 40.765625 -1.421875 27.09375 -1.421875 
Q 22.515625 -1.421875 17.65625 -0.515625 
Q 12.796875 0.390625 7.625 2.203125 
L 7.625 11.71875 
Q 11.71875 9.328125 16.59375 8.109375 
Q 21.484375 6.890625 26.8125 6.890625 
Q 36.078125 6.890625 40.9375 10.546875 
Q 45.796875 14.203125 45.796875 21.1875 
Q 45.796875 27.640625 41.28125 31.265625 
Q 36.765625 34.90625 28.71875 34.90625 
L 20.21875 34.90625 
L 20.21875 43.015625 
L 29.109375 43.015625 
Q 36.375 43.015625 40.234375 45.921875 
Q 44.09375 48.828125 44.09375 54.296875 
Q 44.09375 59.90625 40.109375 62.90625 
Q 36.140625 65.921875 28.71875 65.921875 
Q 24.65625 65.921875 20.015625 65.03125 
Q 15.375 64.15625 9.8125 62.3125 
L 9.8125 71.09375 
Q 15.4375 72.65625 20.34375 73.4375 
Q 25.25 74.21875 29.59375 74.21875 
Q 40.828125 74.21875 47.359375 69.109375 
Q 53.90625 64.015625 53.90625 55.328125 
Q 53.90625 49.265625 50.4375 45.09375 
Q 46.96875 40.921875 40.578125 39.3125 
z
" id="DejaVuSans-51"/>
       </defs>
       <use xlink:href="#DejaVuSans-51"/>
       <use x="63.623047" xlink:href="#DejaVuSans-48"/>
      </g>
     </g>
    </g>
    <g id="ytick_5">
     <g id="line2d_10">
      <g>
       <use style="stroke:#000000;stroke-width:0.8;" x="30.52" xlink:href="#m32246847ae" y="158.588571"/>
      </g>
     </g>
     <g id="text_10">
      <!-- 40 -->
      <g transform="translate(10.795 162.38779)scale(0.1 -0.1)">
       <defs>
        <path d="M 37.796875 64.3125 
L 12.890625 25.390625 
L 37.796875 25.390625 
z
M 35.203125 72.90625 
L 47.609375 72.90625 
L 47.609375 25.390625 
L 58.015625 25.390625 
L 58.015625 17.1875 
L 47.609375 17.1875 
L 47.609375 0 
L 37.796875 0 
L 37.796875 17.1875 
L 4.890625 17.1875 
L 4.890625 26.703125 
z
" id="DejaVuSans-52"/>
       </defs>
       <use xlink:href="#DejaVuSans-52"/>
       <use x="63.623047" xlink:href="#DejaVuSans-48"/>
      </g>
     </g>
    </g>
    <g id="ytick_6">
     <g id="line2d_11">
      <g>
       <use style="stroke:#000000;stroke-width:0.8;" x="30.52" xlink:href="#m32246847ae" y="115.085714"/>
      </g>
     </g>
     <g id="text_11">
      <!-- 50 -->
      <g transform="translate(10.795 118.884933)scale(0.1 -0.1)">
       <use xlink:href="#DejaVuSans-53"/>
       <use x="63.623047" xlink:href="#DejaVuSans-48"/>
      </g>
     </g>
    </g>
    <g id="ytick_7">
     <g id="line2d_12">
      <g>
       <use style="stroke:#000000;stroke-width:0.8;" x="30.52" xlink:href="#m32246847ae" y="71.582857"/>
      </g>
     </g>
     <g id="text_12">
      <!-- 60 -->
      <g transform="translate(10.795 75.382076)scale(0.1 -0.1)">
       <defs>
        <path d="M 33.015625 40.375 
Q 26.375 40.375 22.484375 35.828125 
Q 18.609375 31.296875 18.609375 23.390625 
Q 18.609375 15.53125 22.484375 10.953125 
Q 26.375 6.390625 33.015625 6.390625 
Q 39.65625 6.390625 43.53125 10.953125 
Q 47.40625 15.53125 47.40625 23.390625 
Q 47.40625 31.296875 43.53125 35.828125 
Q 39.65625 40.375 33.015625 40.375 
z
M 52.59375 71.296875 
L 52.59375 62.3125 
Q 48.875 64.0625 45.09375 64.984375 
Q 41.3125 65.921875 37.59375 65.921875 
Q 27.828125 65.921875 22.671875 59.328125 
Q 17.53125 52.734375 16.796875 39.40625 
Q 19.671875 43.65625 24.015625 45.921875 
Q 28.375 48.1875 33.59375 48.1875 
Q 44.578125 48.1875 50.953125 41.515625 
Q 57.328125 34.859375 57.328125 23.390625 
Q 57.328125 12.15625 50.6875 5.359375 
Q 44.046875 -1.421875 33.015625 -1.421875 
Q 20.359375 -1.421875 13.671875 8.265625 
Q 6.984375 17.96875 6.984375 36.375 
Q 6.984375 53.65625 15.1875 63.9375 
Q 23.390625 74.21875 37.203125 74.21875 
Q 40.921875 74.21875 44.703125 73.484375 
Q 48.484375 72.75 52.59375 71.296875 
z
" id="DejaVuSans-54"/>
       </defs>
       <use xlink:href="#DejaVuSans-54"/>
       <use x="63.623047" xlink:href="#DejaVuSans-48"/>
      </g>
     </g>
    </g>
    <g id="ytick_8">
     <g id="line2d_13">
      <g>
       <use style="stroke:#000000;stroke-width:0.8;" x="30.52" xlink:href="#m32246847ae" y="28.08"/>
      </g>
     </g>
     <g id="text_13">
      <!-- 70 -->
      <g transform="translate(10.795 31.879219)scale(0.1 -0.1)">
       <defs>
        <path d="M 8.203125 72.90625 
L 55.078125 72.90625 
L 55.078125 68.703125 
L 28.609375 0 
L 18.3125 0 
L 43.21875 64.59375 
L 8.203125 64.59375 
z
" id="DejaVuSans-55"/>
       </defs>
       <use xlink:href="#DejaVuSans-55"/>
       <use x="63.623047" xlink:href="#DejaVuSans-48"/>
      </g>
     </g>
    </g>
   </g>
   <g id="line2d_14">
    <path clip-path="url(#pa6be5fad37)" d="M 45.005455 322.084469 
L 45.971152 321.920131 
L 49.971896 320.722944 
L 54.110597 320.14579 
L 56.869732 319.827991 
L 57.559515 319.498819 
L 58.111342 319.00807 
L 58.663169 318.165938 
L 59.214996 316.821845 
L 59.766823 314.808556 
L 60.318649 311.945526 
L 61.008433 306.962008 
L 63.21574 289.317791 
L 63.767567 287.180796 
L 64.319394 285.948245 
L 65.009177 284.90613 
L 65.836918 283.857162 
L 66.250788 283.756433 
L 66.526701 283.992982 
L 66.802615 284.471159 
L 67.354442 286.095767 
L 68.044225 289.212429 
L 69.699706 297.556706 
L 70.389489 299.766181 
L 71.217229 301.562855 
L 71.907013 302.441804 
L 73.010667 303.654122 
L 73.70045 305.076698 
L 75.355931 309.008794 
L 75.907758 309.659062 
L 76.459584 309.94066 
L 77.149368 310.275601 
L 77.563238 310.825151 
L 78.115065 312.129696 
L 79.356675 315.343366 
L 80.046459 316.289994 
L 80.736242 317.350785 
L 81.563983 318.641274 
L 81.977853 318.929676 
L 82.391723 318.955963 
L 82.805593 318.780522 
L 83.35742 318.291107 
L 83.909247 317.455623 
L 84.323117 316.324163 
L 84.59903 314.989359 
L 84.874944 312.811439 
L 85.288814 307.295254 
L 85.702684 298.673719 
L 86.392468 278.3966 
L 88.461818 204.690822 
L 91.082996 109.783536 
L 91.910736 88.507686 
L 92.600519 75.684243 
L 93.290303 66.993486 
L 94.256 58.200311 
L 95.08374 52.696699 
L 95.773524 49.700907 
L 96.325351 48.19957 
L 96.877177 47.33405 
L 97.291048 47.004687 
L 99.636312 46.278055 
L 102.947273 45.678519 
L 104.050926 45.919665 
L 104.32684 46.121736 
L 104.602753 46.295254 
L 104.878667 46.434695 
L 106.948017 46.55987 
L 107.361887 46.547945 
L 109.155325 46.623522 
L 111.224675 46.743166 
L 114.949506 47.420901 
L 116.191117 47.942983 
L 116.46703 48.289839 
L 116.742944 48.42531 
L 117.708641 49.967225 
L 118.812294 52.894689 
L 119.226165 54.522041 
L 119.364121 54.828868 
L 120.605732 60.58678 
L 122.123255 72.139878 
L 122.537126 74.231089 
L 122.813039 74.514352 
L 123.226909 75.036968 
L 124.330563 75.593179 
L 124.88239 75.356389 
L 125.71013 74.439874 
L 126.53787 72.853678 
L 129.297004 65.778064 
L 132.056139 57.694709 
L 132.332052 57.224823 
L 133.435706 54.524803 
L 133.987532 53.565661 
L 135.505056 51.294497 
L 136.056883 50.802511 
L 136.470753 50.476313 
L 137.85032 50.033688 
L 138.26419 50.161913 
L 138.678061 50.225984 
L 138.953974 50.332414 
L 140.885368 52.265815 
L 141.575152 53.481981 
L 141.851065 53.936316 
L 142.264935 54.554978 
L 142.540848 55.068187 
L 142.954719 55.732209 
L 143.506545 56.608603 
L 143.782459 56.637299 
L 144.610199 58.705766 
L 145.299983 61.278471 
L 145.989766 66.313957 
L 146.67955 73.734541 
L 146.955463 77.625957 
L 147.50729 86.713503 
L 148.610944 101.590405 
L 149.162771 106.706179 
L 149.852554 108.952308 
L 150.128468 109.806394 
L 150.404381 110.046364 
L 150.680294 110.196937 
L 151.094165 110.437087 
L 151.232121 110.471463 
L 151.508035 111.141609 
L 151.783948 111.594197 
L 152.197818 111.388169 
L 154.405126 113.15254 
L 155.094909 113.453111 
L 155.370823 112.972765 
L 155.508779 112.709147 
L 155.646736 112.745316 
L 155.922649 112.987047 
L 156.060606 112.902409 
L 156.474476 112.351356 
L 156.75039 112.313653 
L 157.16426 111.758577 
L 157.440173 111.798413 
L 157.57813 111.684578 
L 158.129957 110.656187 
L 158.40587 110.651951 
L 158.681784 110.362171 
L 158.957697 110.158473 
L 159.371567 110.03236 
L 160.337264 108.866478 
L 160.613177 108.764484 
L 160.889091 108.75623 
L 161.165004 108.535744 
L 161.578874 108.008581 
L 162.268658 107.488617 
L 162.682528 107.049552 
L 162.958442 107.057918 
L 163.372312 107.147447 
L 163.648225 106.973523 
L 163.924139 106.660484 
L 164.889835 106.699958 
L 165.165749 106.958915 
L 165.579619 107.765906 
L 165.993489 108.308459 
L 166.269403 108.626155 
L 166.683273 109.653101 
L 167.2351 111.146298 
L 167.64897 111.96231 
L 168.200797 113.639114 
L 169.028537 117.028087 
M 189.86 303.905093 
L 190.963654 303.590569 
L 191.377524 303.285548 
L 191.791394 302.774952 
L 192.481177 301.552851 
L 194.412571 296.33068 
L 196.206009 289.908514 
L 202.414061 261.721147 
L 203.655671 255.825079 
L 208.622113 236.644012 
L 210.967377 229.034915 
L 212.622857 225.041241 
L 213.588554 223.00017 
L 214.278338 221.373931 
L 214.416294 221.264694 
L 214.830165 220.511343 
L 214.968121 220.460338 
L 215.381991 219.666969 
L 215.519948 219.576227 
L 215.795861 219.182996 
L 216.761558 217.610944 
L 216.899515 217.484041 
L 217.037472 217.115981 
L 217.175429 217.076774 
L 217.451342 216.644162 
L 217.589299 216.464871 
L 217.727255 216.489459 
L 217.865212 216.195611 
L 218.003169 216.294266 
L 218.141126 216.160318 
L 218.279082 216.23669 
L 218.417039 216.020574 
L 218.692952 216.098592 
L 218.830909 216.133748 
L 218.968866 216.041672 
L 219.106823 216.218514 
L 219.244779 216.10104 
L 219.382736 216.233431 
L 219.520693 216.078229 
L 219.658649 216.188554 
L 219.796606 216.059344 
L 219.934563 216.142923 
L 220.210476 216.030242 
L 220.348433 215.714757 
L 220.48639 215.877525 
L 220.624346 215.795975 
L 221.31413 216.192488 
L 221.452087 216.153789 
L 221.590043 216.347377 
L 221.728 216.33745 
L 222.003913 216.612648 
L 222.55574 216.942421 
L 222.693697 217.210126 
L 222.831654 217.155022 
L 223.107567 217.387586 
L 224.073264 218.366009 
L 227.660139 224.853355 
L 229.867446 229.46821 
L 231.109056 233.053429 
L 232.074753 236.354011 
L 232.764537 238.724681 
L 233.178407 239.835268 
L 233.86819 241.528099 
L 234.144104 242.037053 
L 234.282061 242.142364 
L 234.557974 242.685621 
L 234.833887 243.140122 
L 235.109801 243.337814 
L 235.799584 244.202506 
L 236.765281 245.225017 
L 237.041195 245.215468 
L 237.455065 245.348484 
L 237.730978 245.360513 
L 238.006892 245.215952 
M 260.217922 325.115114 
L 261.045662 324.984071 
L 262.8391 324.41135 
L 265.460277 322.868036 
L 266.425974 322.045851 
L 267.391671 321.211956 
L 268.081455 320.507431 
L 268.495325 320.12922 
L 269.736935 318.762158 
L 270.426719 318.058162 
L 271.392416 316.872051 
L 271.806286 316.444027 
L 273.185853 314.67985 
L 273.599723 314.200794 
L 275.117247 311.969615 
L 275.669074 311.215667 
L 277.186597 308.905133 
L 277.462511 308.534714 
L 278.152294 307.417891 
L 278.566165 306.77336 
L 281.601212 302.179146 
L 284.498303 298.089695 
L 285.05013 297.507193 
L 285.739913 296.732501 
L 286.843567 295.551609 
L 291.810009 291.576093 
L 292.913662 291.202668 
L 294.569143 290.913507 
L 294.983013 290.799261 
L 296.36258 290.921571 
L 298.293974 292.049877 
L 299.811498 293.981247 
L 302.018805 297.182573 
L 302.708589 298.231662 
L 308.502771 306.249119 
L 308.916641 306.682009 
L 309.192554 307.078699 
L 315.400606 314.401397 
L 315.538563 314.507844 
L 315.814476 314.881084 
L 316.780173 315.82694 
L 317.056087 316.168887 
L 318.57361 317.615567 
L 318.987481 318.043746 
L 319.677264 318.645395 
L 320.091134 319.036888 
L 320.780918 319.578322 
L 321.194788 319.941501 
L 321.332745 320.00976 
L 321.608658 320.282234 
L 322.298442 320.793815 
L 322.850268 321.291034 
L 323.678009 321.885914 
L 324.091879 322.198253 
L 324.643706 322.571436 
L 325.195532 323.001405 
L 326.023273 323.473174 
L 326.5751 323.849157 
L 327.678753 324.439511 
L 328.23058 324.777007 
L 330.024017 325.556142 
L 330.713801 325.802889 
L 334.438632 326.577116 
L 334.714545 326.5981 
L 334.714545 326.5981 
" style="fill:none;stroke:#bfce68;stroke-linecap:square;stroke-width:1.5;"/>
   </g>
   <g id="line2d_15">
    <path clip-path="url(#pa6be5fad37)" d="M 45.005455 322.158304 
L 46.109108 321.916514 
L 50.24781 320.690062 
L 54.800381 320.101285 
L 56.731775 319.883774 
L 57.421558 319.608266 
L 57.973385 319.190928 
L 58.525212 318.463687 
L 59.077039 317.28446 
L 59.628866 315.494268 
L 60.180693 312.904306 
L 60.870476 308.307538 
L 61.97413 298.744834 
L 62.80187 292.287479 
L 63.353697 289.34213 
L 63.905524 287.510214 
L 64.457351 286.440578 
L 65.836918 284.64927 
L 66.250788 284.551586 
L 66.526701 284.78191 
L 66.802615 285.247411 
L 67.354442 286.829215 
L 68.044225 289.866109 
L 69.699706 298.014281 
L 70.389489 300.176103 
L 71.217229 301.935365 
L 71.907013 302.796474 
L 73.010667 303.984634 
L 73.70045 305.379255 
L 75.355931 309.236755 
L 75.907758 309.875177 
L 76.459584 310.151854 
L 77.149368 310.480869 
L 77.563238 311.020352 
L 78.115065 312.301135 
L 79.356675 315.456883 
L 80.046459 316.386177 
L 80.736242 317.426927 
L 81.563983 318.690047 
L 81.977853 318.969524 
L 82.391723 318.990933 
L 82.805593 318.813713 
L 83.35742 318.325834 
L 83.909247 317.500178 
L 84.323117 316.389846 
L 84.59903 315.08188 
L 84.874944 312.946747 
L 85.288814 307.538328 
L 85.702684 299.09724 
L 86.392468 279.338098 
L 88.875688 194.440447 
L 90.531169 138.81636 
L 91.496866 113.716945 
L 92.186649 100.588371 
L 92.876433 91.301177 
L 93.566216 85.082335 
L 94.393957 79.248018 
L 95.08374 75.580284 
L 95.773524 73.11888 
L 96.325351 71.882665 
L 96.877177 71.163829 
L 97.291048 70.886036 
L 100.326095 70.047125 
L 103.085229 69.648759 
L 104.050926 69.805516 
L 104.464797 69.998767 
L 104.878667 70.20168 
L 106.948017 70.255677 
L 107.499844 70.23227 
L 110.258978 70.191771 
L 112.052416 70.372825 
L 115.63929 70.94095 
L 116.742944 71.516179 
L 117.708641 72.755548 
L 118.812294 75.124094 
L 119.226165 76.449589 
L 119.364121 76.696788 
L 120.605732 81.415394 
L 122.123255 90.998804 
L 122.537126 92.742441 
L 122.950996 93.154715 
L 123.364866 93.473151 
L 124.468519 93.830656 
L 124.88239 93.651116 
L 125.71013 92.867246 
L 126.53787 91.531194 
L 129.297004 85.574866 
L 132.056139 78.828515 
L 132.470009 78.127545 
L 133.159792 76.67533 
L 133.987532 75.395428 
L 135.505056 73.507877 
L 136.056883 73.095851 
L 136.470753 72.822484 
L 137.85032 72.444859 
L 138.26419 72.541269 
L 138.678061 72.586355 
L 138.953974 72.669681 
L 140.885368 74.231238 
L 141.575152 75.217836 
L 141.851065 75.589454 
L 142.264935 76.095593 
L 142.540848 76.514358 
L 142.954719 77.062989 
L 143.506545 77.786004 
L 143.782459 77.808165 
L 144.610199 79.502837 
L 145.299983 81.624709 
L 145.989766 85.810108 
L 147.231377 99.985311 
L 147.783203 107.159877 
L 148.197074 112.34313 
L 148.7489 117.126573 
L 149.162771 120.216447 
L 149.852554 122.167236 
L 150.266424 123.052879 
L 151.370078 123.700574 
L 151.645991 124.394437 
L 151.783948 124.458976 
L 152.197818 124.278051 
L 154.405126 125.810452 
L 155.094909 126.070374 
L 155.370823 125.648617 
L 155.508779 125.417393 
L 155.784693 125.593163 
L 155.922649 125.667073 
L 156.060606 125.597548 
L 156.474476 125.140138 
L 156.75039 125.126158 
L 157.16426 124.681264 
L 157.57813 124.665945 
L 158.129957 123.849157 
L 158.40587 123.884369 
L 158.681784 123.683259 
L 158.957697 123.556703 
L 159.371567 123.524927 
L 160.337264 122.72363 
L 160.613177 122.695749 
L 160.889091 122.750018 
L 161.165004 122.625378 
L 161.578874 122.270483 
L 162.268658 121.994478 
L 162.682528 121.716852 
L 162.958442 121.791403 
L 163.372312 121.966993 
L 163.648225 121.886412 
L 163.924139 121.681435 
L 164.889835 121.928573 
L 165.165749 122.206729 
L 166.545316 124.42602 
L 168.47671 129.219793 
L 169.028537 131.233249 
M 189.86 304.697273 
L 190.963654 304.416434 
L 191.377524 304.133468 
L 191.791394 303.649454 
L 192.481177 302.4907 
L 194.412571 297.574679 
L 196.206009 291.554781 
L 202.552017 264.648158 
L 204.069541 258.293642 
L 206.552762 249.503495 
L 208.760069 242.167609 
L 209.173939 240.979997 
L 210.139636 237.877648 
L 211.105333 235.226772 
L 211.519203 234.167529 
L 211.933074 233.372033 
L 213.174684 230.722486 
L 213.450597 230.214868 
L 214.692208 227.869705 
L 215.381991 226.847828 
L 215.519948 226.773119 
L 215.933818 226.177393 
L 216.071775 226.136214 
L 216.485645 225.424978 
L 216.899515 224.884984 
L 217.037472 224.581019 
L 217.175429 224.55862 
L 217.451342 224.197299 
L 217.589299 224.070755 
L 217.727255 224.118845 
L 217.865212 223.86796 
L 218.003169 224.016192 
L 218.141126 223.916338 
L 218.279082 224.006173 
L 218.417039 223.838206 
L 218.692952 224.014011 
L 219.382736 224.348148 
L 219.520693 224.26735 
L 219.658649 224.423117 
L 219.796606 224.374615 
L 220.072519 224.498205 
L 220.210476 224.474026 
L 220.348433 224.059538 
L 220.48639 224.266946 
L 220.624346 224.241717 
L 222.55574 226.129158 
L 222.831654 226.450184 
L 223.107567 226.77263 
L 224.073264 228.035558 
L 225.176918 230.075813 
L 225.314874 230.227011 
L 225.866701 231.329392 
L 229.177662 236.884397 
L 229.315619 236.968193 
L 230.143359 238.645209 
L 230.281316 238.839069 
L 231.660883 242.67339 
L 231.936797 243.358321 
L 232.62658 245.438136 
L 233.316364 247.04532 
L 234.144104 248.432523 
L 234.282061 248.486151 
L 234.557974 248.910697 
L 234.833887 249.251325 
L 235.109801 249.342956 
L 236.351411 250.694506 
L 237.593022 250.987871 
L 238.006892 250.795918 
M 260.217922 325.155908 
L 261.183619 325.000211 
L 262.287273 324.7032 
L 264.356623 323.746474 
L 266.839844 321.952276 
L 268.081455 320.84131 
L 268.633281 320.345852 
L 269.736935 319.275941 
L 270.426719 318.664883 
L 271.392416 317.64767 
L 271.806286 317.291119 
L 273.185853 315.821051 
L 273.599723 315.426842 
L 275.117247 313.537158 
L 275.669074 312.898814 
L 277.186597 310.94876 
L 277.462511 310.641354 
L 278.152294 309.710588 
L 278.842078 308.85996 
L 282.980779 303.694864 
L 284.360346 302.218966 
L 285.188087 301.459962 
L 287.533351 299.519834 
L 288.912918 298.575626 
L 289.602701 298.15095 
L 292.361835 296.302133 
L 292.775706 296.212172 
L 293.465489 296.014479 
L 295.53484 295.637727 
L 297.19032 296.042427 
L 298.293974 296.874156 
L 299.535584 298.533319 
L 301.466978 301.487392 
L 303.812242 304.758946 
L 305.19181 306.378541 
L 305.743636 307.192004 
L 309.192554 310.890329 
L 311.813732 313.314806 
L 312.089645 313.673836 
L 315.952433 317.086206 
L 316.366303 317.439128 
L 322.022528 321.693026 
L 322.712312 322.130035 
L 323.126182 322.421925 
L 323.678009 322.778211 
L 324.091879 323.048908 
L 324.919619 323.55662 
L 328.64445 325.473487 
L 330.437887 326.08378 
L 331.127671 326.27927 
L 334.576589 326.802608 
L 334.714545 326.801556 
L 334.714545 326.801556 
" style="fill:none;stroke:#aac03b;stroke-linecap:square;stroke-width:1.5;"/>
   </g>
   <g id="line2d_16">
    <path clip-path="url(#pa6be5fad37)" d="M 45.005455 322.201249 
L 46.109108 321.945916 
L 50.24781 320.699653 
L 54.524468 320.140224 
L 57.007688 319.823285 
L 57.697472 319.45563 
L 58.249299 318.918448 
L 58.801126 317.997761 
L 59.352952 316.56211 
L 59.904779 314.431715 
L 60.456606 311.430143 
L 61.14639 306.357386 
L 62.939827 292.033352 
L 63.491654 289.453414 
L 64.043481 287.89212 
L 64.595307 286.970642 
L 65.836918 285.41951 
L 66.250788 285.324767 
L 66.526701 285.549123 
L 66.802615 286.002453 
L 67.354442 287.543111 
L 68.044225 290.503176 
L 69.699706 298.461697 
L 70.389489 300.577264 
L 71.217229 302.300165 
L 71.907013 303.143919 
L 73.010667 304.308563 
L 73.70045 305.675946 
L 75.355931 309.460628 
L 75.907758 310.08747 
L 76.459584 310.359335 
L 77.149368 310.682554 
L 77.563238 311.212186 
L 78.115065 312.469704 
L 79.356675 315.56865 
L 80.046459 316.480919 
L 80.736242 317.501969 
L 81.563983 318.738153 
L 81.977853 319.008837 
L 82.391723 319.02544 
L 82.805593 318.846466 
L 83.35742 318.360102 
L 83.909247 317.54413 
L 84.323117 316.454597 
L 84.59903 315.173021 
L 84.874944 313.079898 
L 85.288814 307.776976 
L 85.840641 296.137428 
L 86.668381 271.43158 
L 90.531169 148.944628 
L 91.496866 126.932223 
L 92.186649 115.632542 
L 92.876433 107.727625 
L 93.566216 102.466062 
L 94.531913 96.839635 
L 95.221697 93.953088 
L 95.911481 92.060716 
L 96.463307 91.136541 
L 97.015134 90.611241 
L 97.566961 90.403439 
L 102.533403 89.350898 
L 103.637056 89.318404 
L 104.74071 89.707668 
L 106.120277 89.783215 
L 107.775758 89.693295 
L 108.603498 89.690386 
L 109.707152 89.615595 
L 110.948762 89.645567 
L 112.604242 89.773708 
L 113.431983 89.830744 
L 114.81155 89.916101 
L 115.363377 90.01108 
L 116.191117 90.269316 
L 116.604987 90.537917 
L 116.8809 90.708466 
L 117.294771 91.20136 
L 117.846597 91.834494 
L 118.122511 92.507824 
L 118.674338 93.296062 
L 118.950251 94.026393 
L 120.605732 98.828448 
L 122.123255 106.943553 
L 122.537126 108.425436 
L 122.950996 108.771344 
L 123.364866 109.039104 
L 124.468519 109.332405 
L 124.88239 109.17268 
L 125.848087 108.323235 
L 126.813784 106.899181 
L 127.36561 105.97053 
L 128.745177 103.426569 
L 132.056139 96.482513 
L 132.470009 95.888172 
L 133.159792 94.656187 
L 133.987532 93.564313 
L 135.643013 91.892825 
L 137.160537 91.143405 
L 138.126234 91.064902 
L 138.540104 91.156219 
L 138.953974 91.216198 
L 140.885368 92.507767 
L 141.575152 93.327288 
L 141.851065 93.638417 
L 142.264935 94.062212 
L 142.540848 94.411953 
L 142.954719 94.875283 
L 143.506545 95.484985 
L 143.782459 95.502424 
L 144.610199 96.922018 
L 145.299983 98.709851 
L 145.989766 102.260212 
L 147.231377 114.411443 
L 147.783203 120.62482 
L 148.197074 125.138439 
L 148.7489 129.323027 
L 149.162771 132.035144 
L 149.852554 133.749931 
L 150.266424 134.529529 
L 151.370078 135.094589 
L 151.645991 135.705209 
L 151.783948 135.761533 
L 152.197818 135.600828 
L 154.405126 136.947157 
L 155.094909 137.174549 
L 155.370823 136.800213 
L 155.508779 136.595178 
L 155.784693 136.753225 
L 155.922649 136.822116 
L 156.060606 136.764652 
L 156.474476 136.381835 
L 156.75039 136.386353 
L 157.16426 136.028694 
L 157.57813 136.058854 
L 158.129957 135.40907 
L 158.543827 135.441837 
L 158.957697 135.275828 
L 159.371567 135.316315 
L 160.337264 134.797299 
L 160.613177 134.826062 
L 160.889091 134.927565 
L 161.165004 134.87641 
L 161.578874 134.653557 
L 162.268658 134.562959 
L 162.682528 134.408082 
L 163.096398 134.633661 
L 163.510268 134.808135 
L 164.062095 134.690552 
L 165.027792 135.160153 
L 165.441662 135.792933 
L 165.855532 136.453932 
L 166.407359 137.144981 
L 167.511013 139.395978 
L 168.06284 140.612401 
L 168.614667 142.231508 
L 169.028537 143.525311 
M 189.86 305.452788 
L 190.963654 305.20316 
L 191.377524 304.94069 
L 191.791394 304.48156 
L 192.481177 303.382063 
L 194.412571 298.750086 
L 196.343965 292.562948 
L 198.689229 283.67516 
L 199.654926 279.672559 
L 199.93084 278.58108 
L 200.620623 275.801789 
L 204.759325 259.806107 
L 210.00168 243.91887 
L 211.519203 240.072575 
L 211.933074 239.32883 
L 213.174684 236.832787 
L 213.450597 236.369271 
L 214.554251 234.353524 
L 216.347688 232.189731 
L 216.761558 231.559918 
L 216.899515 231.454308 
L 217.037472 231.202316 
L 217.175429 231.193255 
L 217.451342 230.889929 
L 217.589299 230.805457 
L 217.727255 230.871768 
L 217.865212 230.655878 
L 218.003169 230.842192 
L 218.141126 230.769566 
L 218.279082 230.869553 
L 218.417039 230.7401 
L 218.692952 230.991214 
L 220.210476 231.856186 
L 220.348433 231.368438 
L 220.624346 231.627142 
L 222.279827 233.654886 
L 222.96961 234.741012 
L 223.383481 235.134215 
L 223.797351 235.88791 
L 224.073264 236.309076 
L 225.176918 238.420945 
L 225.314874 238.586669 
L 225.728745 239.397371 
L 226.418528 240.54522 
L 228.211965 243.501217 
L 229.177662 244.603739 
L 229.315619 244.639322 
L 230.143359 245.946517 
L 230.281316 246.098615 
L 232.764537 252.034441 
L 233.178407 252.777979 
L 233.86819 253.812532 
L 234.144104 254.079891 
L 234.282061 254.093014 
L 234.557974 254.422246 
L 234.833887 254.671093 
L 235.109801 254.677959 
L 236.765281 255.971394 
L 237.041195 255.944293 
L 237.593022 256.002962 
L 238.006892 255.785609 
M 260.217922 325.194833 
L 261.183619 325.051591 
L 262.425229 324.720585 
L 263.25297 324.42459 
L 267.115758 321.975161 
L 268.357368 320.939754 
L 269.185108 320.25249 
L 270.012848 319.5422 
L 270.840589 318.862534 
L 271.392416 318.353662 
L 271.806286 318.058552 
L 272.909939 317.117114 
L 275.39316 314.644685 
L 275.944987 314.036869 
L 276.634771 313.320199 
L 279.117991 310.660204 
L 279.807775 309.948341 
L 280.773472 308.891011 
L 281.187342 308.497555 
L 281.877126 307.816798 
L 282.290996 307.416294 
L 282.842823 306.848853 
L 283.946476 305.856421 
L 284.774216 305.207108 
L 288.085177 302.999264 
L 292.913662 300.247795 
L 295.672797 299.651311 
L 297.052364 299.928947 
L 297.742147 300.373146 
L 298.983758 301.750391 
L 299.949455 303.23519 
L 302.570632 307.138625 
L 303.536329 308.357087 
L 305.19181 310.110104 
L 305.743636 310.82583 
L 308.778684 313.603666 
L 309.192554 313.877934 
L 311.813732 315.78753 
L 312.227602 316.183034 
L 314.572866 317.916638 
L 315.538563 318.48884 
L 315.814476 318.71828 
L 316.780173 319.311126 
L 317.194043 319.615242 
L 317.607913 319.880612 
L 324.091879 323.759389 
L 325.057576 324.269071 
L 325.747359 324.624903 
L 330.299931 326.371201 
L 334.576589 326.971047 
L 334.714545 326.96716 
L 334.714545 326.96716 
" style="fill:none;stroke:#8fb926;stroke-linecap:square;stroke-width:1.5;"/>
   </g>
   <g id="line2d_17">
    <path clip-path="url(#pa6be5fad37)" d="M 45.005455 322.2264 
L 46.247065 321.921877 
L 47.902545 321.345995 
L 49.558026 320.839525 
L 51.627377 320.491256 
L 55.352208 320.097295 
L 56.869732 319.884672 
L 57.559515 319.577097 
L 58.111342 319.117318 
L 58.663169 318.32389 
L 59.214996 317.052977 
L 59.766823 315.145753 
L 60.318649 312.433114 
L 61.008433 307.721495 
L 63.077784 291.877962 
L 63.62961 289.636797 
L 64.181437 288.307317 
L 65.561004 286.420067 
L 65.974874 286.10563 
L 66.250788 286.076834 
L 66.526701 286.295463 
L 66.802615 286.737101 
L 67.354442 288.238185 
L 68.044225 291.124215 
L 69.699706 298.899256 
L 70.389489 300.969913 
L 71.217229 302.657464 
L 71.907013 303.484333 
L 73.010667 304.626081 
L 73.70045 305.966916 
L 75.355931 309.680506 
L 75.907758 310.296025 
L 76.459584 310.563184 
L 77.149368 310.880734 
L 77.563238 311.400726 
L 78.115065 312.635462 
L 79.356675 315.678699 
L 80.046459 316.574244 
L 80.736242 317.575928 
L 81.563983 318.785602 
L 81.977853 319.047625 
L 82.391723 319.059491 
L 82.805593 318.878788 
L 83.35742 318.393918 
L 83.909247 317.587485 
L 84.323117 316.518429 
L 84.59903 315.262806 
L 84.874944 313.210931 
L 85.288814 308.011299 
L 85.840641 296.618425 
L 86.668381 272.585683 
L 89.841385 175.736631 
L 90.807082 151.716809 
L 91.634823 136.234264 
L 92.324606 127.024552 
L 93.01439 120.728253 
L 93.84213 115.716235 
L 94.66987 111.827359 
L 95.359654 109.53752 
L 96.049437 108.064475 
L 96.601264 107.360616 
L 97.153091 106.981215 
L 97.842874 106.799787 
L 99.498355 106.379678 
L 101.981576 105.926901 
L 103.637056 105.818078 
L 104.74071 106.129705 
L 106.120277 106.172921 
L 107.775758 106.072543 
L 108.741455 106.057536 
L 110.672848 105.97303 
L 115.501333 106.231867 
L 116.05316 106.359816 
L 116.8809 106.776925 
L 117.294771 107.191937 
L 117.846597 107.724921 
L 118.122511 108.295931 
L 118.674338 108.960139 
L 118.950251 109.579973 
L 120.605732 113.673163 
L 122.123255 120.65884 
L 122.537126 121.937793 
L 122.950996 122.232479 
L 123.364866 122.460998 
L 124.606476 122.680102 
L 125.020346 122.470675 
L 125.71013 121.959184 
L 126.53787 120.959377 
L 129.434961 116.247522 
L 131.366355 112.760824 
L 132.194095 111.393335 
L 132.607965 110.763699 
L 133.711619 109.239332 
L 135.643013 107.552401 
L 137.298494 106.880016 
L 138.26419 106.865394 
L 139.367844 107.195578 
L 140.195584 107.622359 
L 141.851065 108.989901 
L 142.264935 109.351327 
L 142.678805 109.826978 
L 143.506545 110.570111 
L 143.782459 110.584026 
L 144.610199 111.794382 
L 145.299983 113.326608 
L 145.989766 116.387659 
L 147.231377 126.956167 
L 147.783203 132.405863 
L 148.197074 136.382792 
L 148.7489 140.083913 
L 149.162771 142.489407 
L 149.852554 144.012028 
L 150.266424 144.705022 
L 151.370078 145.203064 
L 151.645991 145.745745 
L 151.921905 145.727861 
L 152.197818 145.651278 
L 154.405126 146.845694 
L 155.094909 147.046597 
L 155.646736 146.561147 
L 155.922649 146.736116 
L 156.198563 146.536363 
L 156.474476 146.36609 
L 156.75039 146.385271 
L 157.16426 146.097896 
L 157.57813 146.16388 
L 158.129957 145.64828 
L 158.543827 145.728447 
L 158.957697 145.640707 
L 159.371567 145.7375 
L 160.337264 145.441147 
L 160.613177 145.513995 
L 161.027048 145.676921 
L 162.682528 145.531935 
L 163.096398 145.811054 
L 163.510268 146.041019 
L 164.062095 146.03375 
L 165.027792 146.61025 
L 165.441662 147.224074 
L 165.993489 148.001961 
L 166.269403 148.3018 
L 166.821229 149.445178 
L 167.373056 150.418969 
L 167.786926 151.107265 
L 168.614667 153.157541 
L 169.028537 154.299144 
M 189.86 306.173799 
L 191.10161 305.897526 
L 191.377524 305.709708 
L 191.791394 305.273899 
L 192.481177 304.229908 
L 194.412571 299.861875 
L 196.343965 294.050209 
L 198.689229 285.693479 
L 199.654926 281.931717 
L 199.93084 280.906196 
L 200.620623 278.301949 
L 204.759325 263.515765 
L 209.035983 251.681278 
L 209.449853 250.543053 
L 210.00168 249.004352 
L 211.519203 245.373285 
L 211.933074 244.674804 
L 212.898771 242.831511 
L 213.312641 242.16345 
L 214.278338 240.36636 
L 214.416294 240.267303 
L 214.830165 239.675482 
L 214.968121 239.650742 
L 215.381991 238.952826 
L 215.519948 238.902225 
L 215.933818 238.371499 
L 216.071775 238.364988 
L 216.485645 237.738302 
L 216.899515 237.330214 
L 217.037472 237.1209 
L 217.175429 237.122537 
L 217.313385 236.871133 
L 217.727255 236.897038 
L 217.865212 236.710047 
L 218.003169 236.92581 
L 218.141126 236.875205 
L 218.279082 236.982863 
L 218.417039 236.884623 
L 218.692952 237.194224 
L 219.796606 238.10009 
L 220.072519 238.393888 
L 220.210476 238.372691 
L 220.348433 237.830498 
L 220.624346 238.147749 
L 221.728 239.595326 
L 222.14187 240.312433 
L 222.831654 241.445333 
L 223.107567 241.877955 
L 223.935307 243.205803 
L 226.004658 247.119271 
L 226.832398 248.463632 
L 228.487879 250.774061 
L 228.763792 250.939409 
L 229.039706 251.198134 
L 229.729489 251.73818 
L 231.38497 254.608062 
L 231.79884 255.460407 
L 233.178407 258.123792 
L 233.86819 258.922698 
L 234.144104 259.104767 
L 234.282061 259.08587 
L 234.557974 259.337724 
L 234.833887 259.511818 
L 235.109801 259.450348 
L 235.937541 259.998803 
L 236.351411 260.446818 
L 237.455065 260.47622 
L 237.730978 260.451447 
L 238.006892 260.274889 
M 260.217922 325.231978 
L 261.183619 325.100594 
L 262.425229 324.790394 
L 263.25297 324.510913 
L 267.115758 322.207652 
L 268.081455 321.449377 
L 268.633281 321.04295 
L 269.461022 320.442951 
L 270.288762 319.809544 
L 270.840589 319.429162 
L 271.392416 318.997273 
L 271.806286 318.755029 
L 272.909939 317.980189 
L 274.97929 316.268289 
L 275.944987 315.377367 
L 276.634771 314.765308 
L 279.117991 312.539583 
L 279.945732 311.801494 
L 281.325299 310.608396 
L 281.739169 310.30718 
L 283.118736 309.133332 
L 283.670563 308.724793 
L 284.498303 308.152485 
L 285.188087 307.76729 
L 288.085177 306.212122 
L 290.568398 304.889915 
L 293.051619 303.637032 
L 293.879359 303.41001 
L 295.396883 302.999339 
L 296.914407 303.195176 
L 297.742147 303.71177 
L 298.845801 304.908898 
L 300.087411 306.80543 
L 302.708589 310.554057 
L 303.812242 311.775688 
L 305.467723 313.39781 
L 306.84729 314.734185 
L 307.812987 315.455164 
L 308.0889 315.695845 
L 311.813732 317.774969 
L 312.227602 318.100755 
L 314.296952 319.370402 
L 315.538563 319.947867 
L 315.814476 320.129798 
L 316.642216 320.551066 
L 317.332 320.896945 
L 317.607913 321.066008 
L 326.161229 325.287342 
L 330.989714 326.765864 
L 334.300675 327.101369 
L 334.714545 327.102239 
L 334.714545 327.102239 
" style="fill:none;stroke:#67a612;stroke-linecap:square;stroke-width:1.5;"/>
   </g>
   <g id="line2d_18">
    <path clip-path="url(#pa6be5fad37)" d="M 45.005455 322.241217 
L 46.247065 321.936924 
L 47.902545 321.361117 
L 49.558026 320.849864 
L 51.48942 320.519029 
L 55.214251 320.120804 
L 56.731775 319.937143 
L 57.421558 319.679937 
L 57.973385 319.289567 
L 58.525212 318.60547 
L 59.077039 317.491457 
L 59.628866 315.79636 
L 60.180693 313.341819 
L 60.870476 308.992261 
L 61.97413 300.000164 
L 62.80187 293.975919 
L 63.353697 291.240845 
L 63.905524 289.543128 
L 64.457351 288.552579 
L 65.836918 286.89775 
L 66.250788 286.808597 
L 66.526701 287.021728 
L 66.802615 287.452128 
L 67.354442 288.91513 
L 68.044225 291.729784 
L 69.699706 299.327249 
L 70.389489 301.354289 
L 71.217229 303.007464 
L 71.907013 303.8179 
L 73.010667 304.937351 
L 73.70045 306.252308 
L 75.355931 309.896477 
L 75.907758 310.500923 
L 76.459584 310.763479 
L 77.149368 311.075483 
L 77.563238 311.586041 
L 78.115065 312.798467 
L 79.356675 315.78706 
L 80.046459 316.666178 
L 80.736242 317.648821 
L 81.563983 318.832405 
L 81.977853 319.085895 
L 82.391723 319.093093 
L 82.805593 318.910687 
L 83.35742 318.427287 
L 83.909247 317.630255 
L 84.323117 316.581358 
L 84.59903 315.351256 
L 84.874944 313.339888 
L 85.288814 308.241397 
L 85.840641 297.088647 
L 86.668381 273.702906 
L 89.289558 196.901283 
L 90.393212 169.119169 
L 91.220952 152.993261 
L 91.910736 143.07589 
L 92.600519 136.076574 
L 93.152346 132.220673 
L 94.118043 127.458263 
L 94.945784 124.392377 
L 95.635567 122.69938 
L 96.187394 121.818746 
L 96.739221 121.280497 
L 97.291048 120.999895 
L 102.257489 120.027057 
L 103.637056 119.939779 
L 104.878667 120.203873 
L 108.051671 120.106073 
L 111.224675 119.992353 
L 115.501333 120.127346 
L 117.018857 120.75076 
L 117.846597 121.392806 
L 118.122511 121.884627 
L 118.674338 122.453104 
L 118.950251 122.987219 
L 120.605732 126.527682 
L 122.123255 132.622347 
L 122.537126 133.740216 
L 122.950996 133.994449 
L 123.364866 134.19188 
L 124.606476 134.374347 
L 125.158303 134.110917 
L 125.848087 133.600286 
L 126.95174 132.356766 
L 128.883134 129.601072 
L 132.194095 124.427149 
L 132.607965 123.877143 
L 133.711619 122.539547 
L 135.643013 121.057302 
L 137.298494 120.463032 
L 138.26419 120.440969 
L 139.505801 120.767545 
L 140.057628 120.987569 
L 142.402892 122.668564 
L 142.954719 123.17567 
L 143.506545 123.630878 
L 143.782459 123.642097 
L 144.610199 124.689022 
L 145.299983 126.020526 
L 145.989766 128.695002 
L 147.09342 136.479439 
L 147.50729 140.029023 
L 148.7489 149.671067 
L 149.162771 151.823546 
L 149.852554 153.187183 
L 150.266424 153.80834 
L 151.370078 154.25119 
L 151.645991 154.737567 
L 151.921905 154.720581 
L 152.197818 154.651418 
L 154.543082 155.762469 
L 154.956952 155.903858 
L 155.232866 155.786814 
L 155.508779 155.43084 
L 156.060606 155.583979 
L 156.474476 155.311365 
L 156.75039 155.342325 
L 157.16426 155.112417 
L 157.57813 155.206993 
L 158.129957 154.800842 
L 158.543827 154.91876 
L 158.957697 154.893897 
L 159.371567 155.035167 
L 160.337264 154.917173 
L 160.613177 155.02484 
L 161.027048 155.238206 
L 162.682528 155.38699 
L 165.165749 156.881941 
L 166.683273 159.118705 
L 167.2351 160.167624 
L 167.786926 160.976215 
L 168.614667 162.825894 
L 169.028537 163.843367 
M 189.86 306.862302 
L 191.10161 306.617296 
L 191.377524 306.442821 
L 191.929351 305.86417 
L 192.343221 305.247289 
L 193.033004 303.993488 
L 193.308918 303.391049 
L 194.412571 300.914555 
L 196.343965 295.449213 
L 198.689229 287.578871 
L 199.654926 284.036334 
L 199.93084 283.070778 
L 200.620623 280.62513 
L 204.759325 266.914961 
L 208.760069 256.719029 
L 209.173939 255.81152 
L 210.277593 252.979706 
L 211.24329 250.676139 
L 214.002424 245.842543 
L 214.416294 245.351328 
L 214.830165 244.799272 
L 214.968121 244.780626 
L 215.381991 244.109366 
L 215.519948 244.067953 
L 215.933818 243.564318 
L 216.071775 243.570531 
L 216.485645 242.978513 
L 216.899515 242.620645 
L 217.037472 242.446755 
L 217.175429 242.457042 
L 217.313385 242.223951 
L 217.727255 242.31022 
L 217.865212 242.147374 
L 218.003169 242.385984 
L 218.141126 242.353373 
L 218.279082 242.466816 
L 218.417039 242.394147 
L 218.692952 242.749405 
L 219.520693 243.505307 
L 219.934563 244.068758 
L 220.210476 244.172189 
L 220.348433 243.589587 
L 220.624346 243.951877 
L 221.728 245.565517 
L 222.14187 246.344665 
L 222.831654 247.594406 
L 223.107567 248.059925 
L 223.935307 249.473498 
L 225.452831 252.445801 
L 225.728745 252.869745 
L 226.418528 254.003724 
L 227.660139 255.933535 
L 228.211965 256.533806 
L 228.763792 256.901144 
L 229.315619 257.116303 
L 230.419273 258.239475 
L 233.178407 262.885188 
L 233.86819 263.4919 
L 234.144104 263.605208 
L 234.282061 263.56084 
L 234.557974 263.749301 
L 234.833887 263.861981 
L 235.109801 263.745049 
L 235.937541 264.189348 
L 236.351411 264.607117 
L 236.903238 264.572396 
L 237.593022 264.587201 
L 238.006892 264.335659 
M 260.217922 325.267429 
L 261.183619 325.147334 
L 262.425229 324.856925 
L 263.25297 324.593146 
L 267.391671 322.236774 
L 268.081455 321.726252 
L 268.633281 321.358573 
L 269.323065 320.88272 
L 269.874892 320.535401 
L 272.771983 318.806187 
L 273.32381 318.51342 
L 276.358857 316.223201 
L 276.910684 315.853972 
L 277.738424 315.182294 
L 278.428208 314.697947 
L 279.117991 314.164945 
L 279.945732 313.549555 
L 281.325299 312.552286 
L 281.739169 312.299695 
L 283.118736 311.315817 
L 283.946476 310.830338 
L 284.774216 310.400993 
L 290.430442 307.815603 
L 292.223879 306.812355 
L 293.051619 306.531038 
L 293.741403 306.320429 
L 294.569143 306.083013 
L 295.258926 305.898542 
L 295.810753 305.891507 
L 296.77645 305.971259 
L 297.742147 306.545637 
L 298.845801 307.731327 
L 300.087411 309.596364 
L 302.432675 312.84169 
L 303.812242 314.289436 
L 305.60568 315.868024 
L 306.295463 316.450454 
L 308.502771 317.912793 
L 309.744381 318.335922 
L 311.399861 319.15274 
L 314.296952 320.697734 
L 315.538563 321.149872 
L 315.814476 321.295018 
L 316.780173 321.677605 
L 317.194043 321.881668 
L 317.74587 322.111854 
L 327.126926 326.004085 
L 331.403584 327.007253 
L 334.714545 327.212626 
L 334.714545 327.212626 
" style="fill:none;stroke:#477706;stroke-linecap:square;stroke-width:1.5;"/>
   </g>
   <g id="patch_3">
    <path d="M 30.52 332.6 
L 30.52 28.08 
" style="fill:none;stroke:#000000;stroke-linecap:square;stroke-linejoin:miter;stroke-width:0.8;"/>
   </g>
   <g id="patch_4">
    <path d="M 349.2 332.6 
L 349.2 28.08 
" style="fill:none;stroke:#000000;stroke-linecap:square;stroke-linejoin:miter;stroke-width:0.8;"/>
   </g>
   <g id="patch_5">
    <path d="M 30.52 332.6 
L 349.2 332.6 
" style="fill:none;stroke:#000000;stroke-linecap:square;stroke-linejoin:miter;stroke-width:0.8;"/>
   </g>
   <g id="patch_6">
    <path d="M 30.52 28.08 
L 349.2 28.08 
" style="fill:none;stroke:#000000;stroke-linecap:square;stroke-linejoin:miter;stroke-width:0.8;"/>
   </g>
   <g id="text_14">
    <!-- Leaf Mass Per Area -->
    <g transform="translate(118.724844 22.08)scale(0.15 -0.15)">
     <defs>
      <path d="M 9.8125 72.90625 
L 19.671875 72.90625 
L 19.671875 8.296875 
L 55.171875 8.296875 
L 55.171875 0 
L 9.8125 0 
z
" id="DejaVuSans-76"/>
      <path d="M 56.203125 29.59375 
L 56.203125 25.203125 
L 14.890625 25.203125 
Q 15.484375 15.921875 20.484375 11.0625 
Q 25.484375 6.203125 34.421875 6.203125 
Q 39.59375 6.203125 44.453125 7.46875 
Q 49.3125 8.734375 54.109375 11.28125 
L 54.109375 2.78125 
Q 49.265625 0.734375 44.1875 -0.34375 
Q 39.109375 -1.421875 33.890625 -1.421875 
Q 20.796875 -1.421875 13.15625 6.1875 
Q 5.515625 13.8125 5.515625 26.8125 
Q 5.515625 40.234375 12.765625 48.109375 
Q 20.015625 56 32.328125 56 
Q 43.359375 56 49.78125 48.890625 
Q 56.203125 41.796875 56.203125 29.59375 
z
M 47.21875 32.234375 
Q 47.125 39.59375 43.09375 43.984375 
Q 39.0625 48.390625 32.421875 48.390625 
Q 24.90625 48.390625 20.390625 44.140625 
Q 15.875 39.890625 15.1875 32.171875 
z
" id="DejaVuSans-101"/>
      <path d="M 34.28125 27.484375 
Q 23.390625 27.484375 19.1875 25 
Q 14.984375 22.515625 14.984375 16.5 
Q 14.984375 11.71875 18.140625 8.90625 
Q 21.296875 6.109375 26.703125 6.109375 
Q 34.1875 6.109375 38.703125 11.40625 
Q 43.21875 16.703125 43.21875 25.484375 
L 43.21875 27.484375 
z
M 52.203125 31.203125 
L 52.203125 0 
L 43.21875 0 
L 43.21875 8.296875 
Q 40.140625 3.328125 35.546875 0.953125 
Q 30.953125 -1.421875 24.3125 -1.421875 
Q 15.921875 -1.421875 10.953125 3.296875 
Q 6 8.015625 6 15.921875 
Q 6 25.140625 12.171875 29.828125 
Q 18.359375 34.515625 30.609375 34.515625 
L 43.21875 34.515625 
L 43.21875 35.40625 
Q 43.21875 41.609375 39.140625 45 
Q 35.0625 48.390625 27.6875 48.390625 
Q 23 48.390625 18.546875 47.265625 
Q 14.109375 46.140625 10.015625 43.890625 
L 10.015625 52.203125 
Q 14.9375 54.109375 19.578125 55.046875 
Q 24.21875 56 28.609375 56 
Q 40.484375 56 46.34375 49.84375 
Q 52.203125 43.703125 52.203125 31.203125 
z
" id="DejaVuSans-97"/>
      <path d="M 37.109375 75.984375 
L 37.109375 68.5 
L 28.515625 68.5 
Q 23.6875 68.5 21.796875 66.546875 
Q 19.921875 64.59375 19.921875 59.515625 
L 19.921875 54.6875 
L 34.71875 54.6875 
L 34.71875 47.703125 
L 19.921875 47.703125 
L 19.921875 0 
L 10.890625 0 
L 10.890625 47.703125 
L 2.296875 47.703125 
L 2.296875 54.6875 
L 10.890625 54.6875 
L 10.890625 58.5 
Q 10.890625 67.625 15.140625 71.796875 
Q 19.390625 75.984375 28.609375 75.984375 
z
" id="DejaVuSans-102"/>
      <path id="DejaVuSans-32"/>
      <path d="M 9.8125 72.90625 
L 24.515625 72.90625 
L 43.109375 23.296875 
L 61.8125 72.90625 
L 76.515625 72.90625 
L 76.515625 0 
L 66.890625 0 
L 66.890625 64.015625 
L 48.09375 14.015625 
L 38.1875 14.015625 
L 19.390625 64.015625 
L 19.390625 0 
L 9.8125 0 
z
" id="DejaVuSans-77"/>
      <path d="M 44.28125 53.078125 
L 44.28125 44.578125 
Q 40.484375 46.53125 36.375 47.5 
Q 32.28125 48.484375 27.875 48.484375 
Q 21.1875 48.484375 17.84375 46.4375 
Q 14.5 44.390625 14.5 40.28125 
Q 14.5 37.15625 16.890625 35.375 
Q 19.28125 33.59375 26.515625 31.984375 
L 29.59375 31.296875 
Q 39.15625 29.25 43.1875 25.515625 
Q 47.21875 21.78125 47.21875 15.09375 
Q 47.21875 7.46875 41.1875 3.015625 
Q 35.15625 -1.421875 24.609375 -1.421875 
Q 20.21875 -1.421875 15.453125 -0.5625 
Q 10.6875 0.296875 5.421875 2 
L 5.421875 11.28125 
Q 10.40625 8.6875 15.234375 7.390625 
Q 20.0625 6.109375 24.8125 6.109375 
Q 31.15625 6.109375 34.5625 8.28125 
Q 37.984375 10.453125 37.984375 14.40625 
Q 37.984375 18.0625 35.515625 20.015625 
Q 33.0625 21.96875 24.703125 23.78125 
L 21.578125 24.515625 
Q 13.234375 26.265625 9.515625 29.90625 
Q 5.8125 33.546875 5.8125 39.890625 
Q 5.8125 47.609375 11.28125 51.796875 
Q 16.75 56 26.8125 56 
Q 31.78125 56 36.171875 55.265625 
Q 40.578125 54.546875 44.28125 53.078125 
z
" id="DejaVuSans-115"/>
      <path d="M 19.671875 64.796875 
L 19.671875 37.40625 
L 32.078125 37.40625 
Q 38.96875 37.40625 42.71875 40.96875 
Q 46.484375 44.53125 46.484375 51.125 
Q 46.484375 57.671875 42.71875 61.234375 
Q 38.96875 64.796875 32.078125 64.796875 
z
M 9.8125 72.90625 
L 32.078125 72.90625 
Q 44.34375 72.90625 50.609375 67.359375 
Q 56.890625 61.8125 56.890625 51.125 
Q 56.890625 40.328125 50.609375 34.8125 
Q 44.34375 29.296875 32.078125 29.296875 
L 19.671875 29.296875 
L 19.671875 0 
L 9.8125 0 
z
" id="DejaVuSans-80"/>
      <path d="M 41.109375 46.296875 
Q 39.59375 47.171875 37.8125 47.578125 
Q 36.03125 48 33.890625 48 
Q 26.265625 48 22.1875 43.046875 
Q 18.109375 38.09375 18.109375 28.8125 
L 18.109375 0 
L 9.078125 0 
L 9.078125 54.6875 
L 18.109375 54.6875 
L 18.109375 46.1875 
Q 20.953125 51.171875 25.484375 53.578125 
Q 30.03125 56 36.53125 56 
Q 37.453125 56 38.578125 55.875 
Q 39.703125 55.765625 41.0625 55.515625 
z
" id="DejaVuSans-114"/>
      <path d="M 34.1875 63.1875 
L 20.796875 26.90625 
L 47.609375 26.90625 
z
M 28.609375 72.90625 
L 39.796875 72.90625 
L 67.578125 0 
L 57.328125 0 
L 50.6875 18.703125 
L 17.828125 18.703125 
L 11.1875 0 
L 0.78125 0 
z
" id="DejaVuSans-65"/>
     </defs>
     <use xlink:href="#DejaVuSans-76"/>
     <use x="53.962891" xlink:href="#DejaVuSans-101"/>
     <use x="115.486328" xlink:href="#DejaVuSans-97"/>
     <use x="176.765625" xlink:href="#DejaVuSans-102"/>
     <use x="211.970703" xlink:href="#DejaVuSans-32"/>
     <use x="243.757812" xlink:href="#DejaVuSans-77"/>
     <use x="330.037109" xlink:href="#DejaVuSans-97"/>
     <use x="391.316406" xlink:href="#DejaVuSans-115"/>
     <use x="443.416016" xlink:href="#DejaVuSans-115"/>
     <use x="495.515625" xlink:href="#DejaVuSans-32"/>
     <use x="527.302734" xlink:href="#DejaVuSans-80"/>
     <use x="583.980469" xlink:href="#DejaVuSans-101"/>
     <use x="645.503906" xlink:href="#DejaVuSans-114"/>
     <use x="686.617188" xlink:href="#DejaVuSans-32"/>
     <use x="718.404297" xlink:href="#DejaVuSans-65"/>
     <use x="786.8125" xlink:href="#DejaVuSans-114"/>
     <use x="825.675781" xlink:href="#DejaVuSans-101"/>
     <use x="887.199219" xlink:href="#DejaVuSans-97"/>
    </g>
   </g>
   <g id="legend_1">
    <g id="patch_7">
     <path d="M 253.7 117.08 
L 342.2 117.08 
Q 344.2 117.08 344.2 115.08 
L 344.2 35.08 
Q 344.2 33.08 342.2 33.08 
L 253.7 33.08 
Q 251.7 33.08 251.7 35.08 
L 251.7 115.08 
Q 251.7 117.08 253.7 117.08 
z
" style="fill:#ffffff;opacity:0.8;stroke:#cccccc;stroke-linejoin:miter;"/>
    </g>
    <g id="line2d_19">
     <path d="M 255.7 42.68 
L 275.7 42.68 
" style="fill:none;stroke:#bfce68;stroke-linecap:square;stroke-width:1.5;"/>
    </g>
    <g id="line2d_20"/>
    <g id="text_15">
     <!-- 50 $g \cdot m^{-2}$ -->
     <g transform="translate(283.7 46.18)scale(0.1 -0.1)">
      <defs>
       <path d="M 59.625 54.6875 
L 50.296875 6.78125 
Q 47.609375 -7.125 40.015625 -13.953125 
Q 32.421875 -20.796875 19.578125 -20.796875 
Q 14.84375 -20.796875 10.78125 -20.09375 
Q 6.734375 -19.390625 3.21875 -17.921875 
L 4.890625 -9.1875 
Q 8.203125 -11.328125 11.90625 -12.34375 
Q 15.625 -13.375 19.828125 -13.375 
Q 28.375 -13.375 33.859375 -8.703125 
Q 39.359375 -4.046875 41.109375 4.6875 
L 41.890625 8.796875 
Q 38.140625 4.5 33.15625 2.25 
Q 28.171875 0 22.40625 0 
Q 14.109375 0 9.34375 5.484375 
Q 4.59375 10.984375 4.59375 20.609375 
Q 4.59375 28.171875 7.46875 35.421875 
Q 10.359375 42.671875 15.578125 48.296875 
Q 19.046875 52 23.65625 54 
Q 28.265625 56 33.296875 56 
Q 38.8125 56 42.90625 53.4375 
Q 47.015625 50.875 49.03125 46.1875 
L 50.59375 54.6875 
z
M 46.09375 34.625 
Q 46.09375 41.265625 42.96875 44.875 
Q 39.84375 48.484375 34.078125 48.484375 
Q 30.515625 48.484375 27.296875 47.0625 
Q 24.078125 45.65625 21.78125 43.109375 
Q 18.0625 38.921875 15.984375 33.234375 
Q 13.921875 27.546875 13.921875 21.484375 
Q 13.921875 14.75 17.0625 11.125 
Q 20.21875 7.515625 26.125 7.515625 
Q 34.671875 7.515625 40.375 15.25 
Q 46.09375 23 46.09375 34.625 
z
" id="DejaVuSans-Oblique-103"/>
       <path d="M 10.6875 40.921875 
L 21 40.921875 
L 21 28.515625 
L 10.6875 28.515625 
z
" id="DejaVuSans-8901"/>
       <path d="M 89.796875 33.015625 
L 83.40625 0 
L 74.421875 0 
L 80.71875 32.71875 
Q 81.109375 34.8125 81.296875 36.328125 
Q 81.5 37.84375 81.5 38.921875 
Q 81.5 43.3125 79.046875 45.75 
Q 76.609375 48.1875 72.21875 48.1875 
Q 65.671875 48.1875 60.546875 43.28125 
Q 55.421875 38.375 53.90625 30.515625 
L 47.90625 0 
L 38.921875 0 
L 45.3125 32.71875 
Q 45.703125 34.515625 45.890625 36.046875 
Q 46.09375 37.59375 46.09375 38.8125 
Q 46.09375 43.265625 43.65625 45.71875 
Q 41.21875 48.1875 36.921875 48.1875 
Q 30.28125 48.1875 25.140625 43.28125 
Q 20.015625 38.375 18.5 30.515625 
L 12.5 0 
L 3.515625 0 
L 14.203125 54.6875 
L 23.1875 54.6875 
L 21.484375 46.1875 
Q 25.140625 50.984375 30.046875 53.484375 
Q 34.96875 56 40.578125 56 
Q 46.53125 56 50.359375 52.875 
Q 54.203125 49.75 54.984375 44.1875 
Q 59.078125 49.953125 64.46875 52.96875 
Q 69.875 56 75.875 56 
Q 82.90625 56 86.734375 51.953125 
Q 90.578125 47.90625 90.578125 40.484375 
Q 90.578125 38.875 90.375 36.9375 
Q 90.1875 35.015625 89.796875 33.015625 
z
" id="DejaVuSans-Oblique-109"/>
       <path d="M 10.59375 35.5 
L 73.1875 35.5 
L 73.1875 27.203125 
L 10.59375 27.203125 
z
" id="DejaVuSans-8722"/>
      </defs>
      <use transform="translate(0 0.765625)" xlink:href="#DejaVuSans-53"/>
      <use transform="translate(63.623047 0.765625)" xlink:href="#DejaVuSans-48"/>
      <use transform="translate(127.246094 0.765625)" xlink:href="#DejaVuSans-32"/>
      <use transform="translate(159.033203 0.765625)" xlink:href="#DejaVuSans-Oblique-103"/>
      <use transform="translate(241.992188 0.765625)" xlink:href="#DejaVuSans-8901"/>
      <use transform="translate(293.261719 0.765625)" xlink:href="#DejaVuSans-Oblique-109"/>
      <use transform="translate(395.323724 39.046875)scale(0.7)" xlink:href="#DejaVuSans-8722"/>
      <use transform="translate(453.976068 39.046875)scale(0.7)" xlink:href="#DejaVuSans-50"/>
     </g>
    </g>
    <g id="line2d_21">
     <path d="M 255.7 58.88 
L 275.7 58.88 
" style="fill:none;stroke:#aac03b;stroke-linecap:square;stroke-width:1.5;"/>
    </g>
    <g id="line2d_22"/>
    <g id="text_16">
     <!-- 87 $g \cdot m^{-2}$ -->
     <g transform="translate(283.7 62.38)scale(0.1 -0.1)">
      <defs>
       <path d="M 31.78125 34.625 
Q 24.75 34.625 20.71875 30.859375 
Q 16.703125 27.09375 16.703125 20.515625 
Q 16.703125 13.921875 20.71875 10.15625 
Q 24.75 6.390625 31.78125 6.390625 
Q 38.8125 6.390625 42.859375 10.171875 
Q 46.921875 13.96875 46.921875 20.515625 
Q 46.921875 27.09375 42.890625 30.859375 
Q 38.875 34.625 31.78125 34.625 
z
M 21.921875 38.8125 
Q 15.578125 40.375 12.03125 44.71875 
Q 8.5 49.078125 8.5 55.328125 
Q 8.5 64.0625 14.71875 69.140625 
Q 20.953125 74.21875 31.78125 74.21875 
Q 42.671875 74.21875 48.875 69.140625 
Q 55.078125 64.0625 55.078125 55.328125 
Q 55.078125 49.078125 51.53125 44.71875 
Q 48 40.375 41.703125 38.8125 
Q 48.828125 37.15625 52.796875 32.3125 
Q 56.78125 27.484375 56.78125 20.515625 
Q 56.78125 9.90625 50.3125 4.234375 
Q 43.84375 -1.421875 31.78125 -1.421875 
Q 19.734375 -1.421875 13.25 4.234375 
Q 6.78125 9.90625 6.78125 20.515625 
Q 6.78125 27.484375 10.78125 32.3125 
Q 14.796875 37.15625 21.921875 38.8125 
z
M 18.3125 54.390625 
Q 18.3125 48.734375 21.84375 45.5625 
Q 25.390625 42.390625 31.78125 42.390625 
Q 38.140625 42.390625 41.71875 45.5625 
Q 45.3125 48.734375 45.3125 54.390625 
Q 45.3125 60.0625 41.71875 63.234375 
Q 38.140625 66.40625 31.78125 66.40625 
Q 25.390625 66.40625 21.84375 63.234375 
Q 18.3125 60.0625 18.3125 54.390625 
z
" id="DejaVuSans-56"/>
      </defs>
      <use transform="translate(0 0.765625)" xlink:href="#DejaVuSans-56"/>
      <use transform="translate(63.623047 0.765625)" xlink:href="#DejaVuSans-55"/>
      <use transform="translate(127.246094 0.765625)" xlink:href="#DejaVuSans-32"/>
      <use transform="translate(159.033203 0.765625)" xlink:href="#DejaVuSans-Oblique-103"/>
      <use transform="translate(241.992188 0.765625)" xlink:href="#DejaVuSans-8901"/>
      <use transform="translate(293.261719 0.765625)" xlink:href="#DejaVuSans-Oblique-109"/>
      <use transform="translate(395.323724 39.046875)scale(0.7)" xlink:href="#DejaVuSans-8722"/>
      <use transform="translate(453.976068 39.046875)scale(0.7)" xlink:href="#DejaVuSans-50"/>
     </g>
    </g>
    <g id="line2d_23">
     <path d="M 255.7 75.08 
L 275.7 75.08 
" style="fill:none;stroke:#8fb926;stroke-linecap:square;stroke-width:1.5;"/>
    </g>
    <g id="line2d_24"/>
    <g id="text_17">
     <!-- 125 $g \cdot m^{-2}$ -->
     <g transform="translate(283.7 78.58)scale(0.1 -0.1)">
      <use transform="translate(0 0.765625)" xlink:href="#DejaVuSans-49"/>
      <use transform="translate(63.623047 0.765625)" xlink:href="#DejaVuSans-50"/>
      <use transform="translate(127.246094 0.765625)" xlink:href="#DejaVuSans-53"/>
      <use transform="translate(190.869141 0.765625)" xlink:href="#DejaVuSans-32"/>
      <use transform="translate(222.65625 0.765625)" xlink:href="#DejaVuSans-Oblique-103"/>
      <use transform="translate(305.615234 0.765625)" xlink:href="#DejaVuSans-8901"/>
      <use transform="translate(356.884766 0.765625)" xlink:href="#DejaVuSans-Oblique-109"/>
      <use transform="translate(458.946771 39.046875)scale(0.7)" xlink:href="#DejaVuSans-8722"/>
      <use transform="translate(517.599115 39.046875)scale(0.7)" xlink:href="#DejaVuSans-50"/>
     </g>
    </g>
    <g id="line2d_25">
     <path d="M 255.7 91.28 
L 275.7 91.28 
" style="fill:none;stroke:#67a612;stroke-linecap:square;stroke-width:1.5;"/>
    </g>
    <g id="line2d_26"/>
    <g id="text_18">
     <!-- 162 $g \cdot m^{-2}$ -->
     <g transform="translate(283.7 94.78)scale(0.1 -0.1)">
      <use transform="translate(0 0.765625)" xlink:href="#DejaVuSans-49"/>
      <use transform="translate(63.623047 0.765625)" xlink:href="#DejaVuSans-54"/>
      <use transform="translate(127.246094 0.765625)" xlink:href="#DejaVuSans-50"/>
      <use transform="translate(190.869141 0.765625)" xlink:href="#DejaVuSans-32"/>
      <use transform="translate(222.65625 0.765625)" xlink:href="#DejaVuSans-Oblique-103"/>
      <use transform="translate(305.615234 0.765625)" xlink:href="#DejaVuSans-8901"/>
      <use transform="translate(356.884766 0.765625)" xlink:href="#DejaVuSans-Oblique-109"/>
      <use transform="translate(458.946771 39.046875)scale(0.7)" xlink:href="#DejaVuSans-8722"/>
      <use transform="translate(517.599115 39.046875)scale(0.7)" xlink:href="#DejaVuSans-50"/>
     </g>
    </g>
    <g id="line2d_27">
     <path d="M 255.7 107.48 
L 275.7 107.48 
" style="fill:none;stroke:#477706;stroke-linecap:square;stroke-width:1.5;"/>
    </g>
    <g id="line2d_28"/>
    <g id="text_19">
     <!-- 200 $g \cdot m^{-2}$ -->
     <g transform="translate(283.7 110.98)scale(0.1 -0.1)">
      <use transform="translate(0 0.765625)" xlink:href="#DejaVuSans-50"/>
      <use transform="translate(63.623047 0.765625)" xlink:href="#DejaVuSans-48"/>
      <use transform="translate(127.246094 0.765625)" xlink:href="#DejaVuSans-48"/>
      <use transform="translate(190.869141 0.765625)" xlink:href="#DejaVuSans-32"/>
      <use transform="translate(222.65625 0.765625)" xlink:href="#DejaVuSans-Oblique-103"/>
      <use transform="translate(305.615234 0.765625)" xlink:href="#DejaVuSans-8901"/>
      <use transform="translate(356.884766 0.765625)" xlink:href="#DejaVuSans-Oblique-109"/>
      <use transform="translate(458.946771 39.046875)scale(0.7)" xlink:href="#DejaVuSans-8722"/>
      <use transform="translate(517.599115 39.046875)scale(0.7)" xlink:href="#DejaVuSans-50"/>
     </g>
    </g>
   </g>
  </g>
 </g>
 <defs>
  <clipPath id="pa6be5fad37">
   <rect height="304.52" width="318.68" x="30.52" y="28.08"/>
  </clipPath>
 </defs>
</svg>
