<?xml version="1.0" encoding="utf-8" standalone="no"?>
<!DOCTYPE svg PUBLIC "-//W3C//DTD SVG 1.1//EN"
  "http://www.w3.org/Graphics/SVG/1.1/DTD/svg11.dtd">
<!-- Created with matplotlib (https://matplotlib.org/) -->
<svg height="360pt" version="1.1" viewBox="0 0 360 360" width="360pt" xmlns="http://www.w3.org/2000/svg" xmlns:xlink="http://www.w3.org/1999/xlink">
 <metadata>
  <rdf:RDF xmlns:cc="http://creativecommons.org/ns#" xmlns:dc="http://purl.org/dc/elements/1.1/" xmlns:rdf="http://www.w3.org/1999/02/22-rdf-syntax-ns#">
   <cc:Work>
    <dc:type rdf:resource="http://purl.org/dc/dcmitype/StillImage"/>
    <dc:date>2020-10-26T17:04:18.028411</dc:date>
    <dc:format>image/svg+xml</dc:format>
    <dc:creator>
     <cc:Agent>
      <dc:title>Matplotlib v3.3.2, https://matplotlib.org/</dc:title>
     </cc:Agent>
    </dc:creator>
   </cc:Work>
  </rdf:RDF>
 </metadata>
 <defs>
  <style type="text/css">*{stroke-linecap:butt;stroke-linejoin:round;}</style>
 </defs>
 <g id="figure_1">
  <g id="patch_1">
   <path d="M 0 360 
L 360 360 
L 360 0 
L 0 0 
z
" style="fill:#ffffff;"/>
  </g>
  <g id="axes_1">
   <g id="patch_2">
    <path d="M 46.04 316.12 
L 349.2 316.12 
L 349.2 28.08 
L 46.04 28.08 
z
" style="fill:#ffffff;"/>
   </g>
   <g id="matplotlib.axis_1">
    <g id="xtick_1">
     <g id="line2d_1">
      <defs>
       <path d="M 0 0 
L 0 3.5 
" id="m471fd90f0c" style="stroke:#000000;stroke-width:0.8;"/>
      </defs>
      <g>
       <use style="stroke:#000000;stroke-width:0.8;" x="72.94381" xlink:href="#m471fd90f0c" y="316.12"/>
      </g>
     </g>
     <g id="text_1">
      <!-- 0.5 -->
      <g transform="translate(64.992247 330.718437)scale(0.1 -0.1)">
       <defs>
        <path d="M 31.78125 66.40625 
Q 24.171875 66.40625 20.328125 58.90625 
Q 16.5 51.421875 16.5 36.375 
Q 16.5 21.390625 20.328125 13.890625 
Q 24.171875 6.390625 31.78125 6.390625 
Q 39.453125 6.390625 43.28125 13.890625 
Q 47.125 21.390625 47.125 36.375 
Q 47.125 51.421875 43.28125 58.90625 
Q 39.453125 66.40625 31.78125 66.40625 
z
M 31.78125 74.21875 
Q 44.046875 74.21875 50.515625 64.515625 
Q 56.984375 54.828125 56.984375 36.375 
Q 56.984375 17.96875 50.515625 8.265625 
Q 44.046875 -1.421875 31.78125 -1.421875 
Q 19.53125 -1.421875 13.0625 8.265625 
Q 6.59375 17.96875 6.59375 36.375 
Q 6.59375 54.828125 13.0625 64.515625 
Q 19.53125 74.21875 31.78125 74.21875 
z
" id="DejaVuSans-48"/>
        <path d="M 10.6875 12.40625 
L 21 12.40625 
L 21 0 
L 10.6875 0 
z
" id="DejaVuSans-46"/>
        <path d="M 10.796875 72.90625 
L 49.515625 72.90625 
L 49.515625 64.59375 
L 19.828125 64.59375 
L 19.828125 46.734375 
Q 21.96875 47.46875 24.109375 47.828125 
Q 26.265625 48.1875 28.421875 48.1875 
Q 40.625 48.1875 47.75 41.5 
Q 54.890625 34.8125 54.890625 23.390625 
Q 54.890625 11.625 47.5625 5.09375 
Q 40.234375 -1.421875 26.90625 -1.421875 
Q 22.3125 -1.421875 17.546875 -0.640625 
Q 12.796875 0.140625 7.71875 1.703125 
L 7.71875 11.625 
Q 12.109375 9.234375 16.796875 8.0625 
Q 21.484375 6.890625 26.703125 6.890625 
Q 35.15625 6.890625 40.078125 11.328125 
Q 45.015625 15.765625 45.015625 23.390625 
Q 45.015625 31 40.078125 35.4375 
Q 35.15625 39.890625 26.703125 39.890625 
Q 22.75 39.890625 18.8125 39.015625 
Q 14.890625 38.140625 10.796875 36.28125 
z
" id="DejaVuSans-53"/>
       </defs>
       <use xlink:href="#DejaVuSans-48"/>
       <use x="63.623047" xlink:href="#DejaVuSans-46"/>
       <use x="95.410156" xlink:href="#DejaVuSans-53"/>
      </g>
     </g>
    </g>
    <g id="xtick_2">
     <g id="line2d_2">
      <g>
       <use style="stroke:#000000;stroke-width:0.8;" x="138.562857" xlink:href="#m471fd90f0c" y="316.12"/>
      </g>
     </g>
     <g id="text_2">
      <!-- 1.0 -->
      <g transform="translate(130.611295 330.718437)scale(0.1 -0.1)">
       <defs>
        <path d="M 12.40625 8.296875 
L 28.515625 8.296875 
L 28.515625 63.921875 
L 10.984375 60.40625 
L 10.984375 69.390625 
L 28.421875 72.90625 
L 38.28125 72.90625 
L 38.28125 8.296875 
L 54.390625 8.296875 
L 54.390625 0 
L 12.40625 0 
z
" id="DejaVuSans-49"/>
       </defs>
       <use xlink:href="#DejaVuSans-49"/>
       <use x="63.623047" xlink:href="#DejaVuSans-46"/>
       <use x="95.410156" xlink:href="#DejaVuSans-48"/>
      </g>
     </g>
    </g>
    <g id="xtick_3">
     <g id="line2d_3">
      <g>
       <use style="stroke:#000000;stroke-width:0.8;" x="204.181905" xlink:href="#m471fd90f0c" y="316.12"/>
      </g>
     </g>
     <g id="text_3">
      <!-- 1.5 -->
      <g transform="translate(196.230342 330.718437)scale(0.1 -0.1)">
       <use xlink:href="#DejaVuSans-49"/>
       <use x="63.623047" xlink:href="#DejaVuSans-46"/>
       <use x="95.410156" xlink:href="#DejaVuSans-53"/>
      </g>
     </g>
    </g>
    <g id="xtick_4">
     <g id="line2d_4">
      <g>
       <use style="stroke:#000000;stroke-width:0.8;" x="269.800952" xlink:href="#m471fd90f0c" y="316.12"/>
      </g>
     </g>
     <g id="text_4">
      <!-- 2.0 -->
      <g transform="translate(261.84939 330.718437)scale(0.1 -0.1)">
       <defs>
        <path d="M 19.1875 8.296875 
L 53.609375 8.296875 
L 53.609375 0 
L 7.328125 0 
L 7.328125 8.296875 
Q 12.9375 14.109375 22.625 23.890625 
Q 32.328125 33.6875 34.8125 36.53125 
Q 39.546875 41.84375 41.421875 45.53125 
Q 43.3125 49.21875 43.3125 52.78125 
Q 43.3125 58.59375 39.234375 62.25 
Q 35.15625 65.921875 28.609375 65.921875 
Q 23.96875 65.921875 18.8125 64.3125 
Q 13.671875 62.703125 7.8125 59.421875 
L 7.8125 69.390625 
Q 13.765625 71.78125 18.9375 73 
Q 24.125 74.21875 28.421875 74.21875 
Q 39.75 74.21875 46.484375 68.546875 
Q 53.21875 62.890625 53.21875 53.421875 
Q 53.21875 48.921875 51.53125 44.890625 
Q 49.859375 40.875 45.40625 35.40625 
Q 44.1875 33.984375 37.640625 27.21875 
Q 31.109375 20.453125 19.1875 8.296875 
z
" id="DejaVuSans-50"/>
       </defs>
       <use xlink:href="#DejaVuSans-50"/>
       <use x="63.623047" xlink:href="#DejaVuSans-46"/>
       <use x="95.410156" xlink:href="#DejaVuSans-48"/>
      </g>
     </g>
    </g>
    <g id="xtick_5">
     <g id="line2d_5">
      <g>
       <use style="stroke:#000000;stroke-width:0.8;" x="335.42" xlink:href="#m471fd90f0c" y="316.12"/>
      </g>
     </g>
     <g id="text_5">
      <!-- 2.5 -->
      <g transform="translate(327.468437 330.718437)scale(0.1 -0.1)">
       <use xlink:href="#DejaVuSans-50"/>
       <use x="63.623047" xlink:href="#DejaVuSans-46"/>
       <use x="95.410156" xlink:href="#DejaVuSans-53"/>
      </g>
     </g>
    </g>
    <g id="text_6">
     <!-- Wavelength ($\mu m$) -->
     <g transform="translate(145.36 345.918125)scale(0.12 -0.12)">
      <defs>
       <path d="M 3.328125 72.90625 
L 13.28125 72.90625 
L 28.609375 11.28125 
L 43.890625 72.90625 
L 54.984375 72.90625 
L 70.3125 11.28125 
L 85.59375 72.90625 
L 95.609375 72.90625 
L 77.296875 0 
L 64.890625 0 
L 49.515625 63.28125 
L 33.984375 0 
L 21.578125 0 
z
" id="DejaVuSans-87"/>
       <path d="M 34.28125 27.484375 
Q 23.390625 27.484375 19.1875 25 
Q 14.984375 22.515625 14.984375 16.5 
Q 14.984375 11.71875 18.140625 8.90625 
Q 21.296875 6.109375 26.703125 6.109375 
Q 34.1875 6.109375 38.703125 11.40625 
Q 43.21875 16.703125 43.21875 25.484375 
L 43.21875 27.484375 
z
M 52.203125 31.203125 
L 52.203125 0 
L 43.21875 0 
L 43.21875 8.296875 
Q 40.140625 3.328125 35.546875 0.953125 
Q 30.953125 -1.421875 24.3125 -1.421875 
Q 15.921875 -1.421875 10.953125 3.296875 
Q 6 8.015625 6 15.921875 
Q 6 25.140625 12.171875 29.828125 
Q 18.359375 34.515625 30.609375 34.515625 
L 43.21875 34.515625 
L 43.21875 35.40625 
Q 43.21875 41.609375 39.140625 45 
Q 35.0625 48.390625 27.6875 48.390625 
Q 23 48.390625 18.546875 47.265625 
Q 14.109375 46.140625 10.015625 43.890625 
L 10.015625 52.203125 
Q 14.9375 54.109375 19.578125 55.046875 
Q 24.21875 56 28.609375 56 
Q 40.484375 56 46.34375 49.84375 
Q 52.203125 43.703125 52.203125 31.203125 
z
" id="DejaVuSans-97"/>
       <path d="M 2.984375 54.6875 
L 12.5 54.6875 
L 29.59375 8.796875 
L 46.6875 54.6875 
L 56.203125 54.6875 
L 35.6875 0 
L 23.484375 0 
z
" id="DejaVuSans-118"/>
       <path d="M 56.203125 29.59375 
L 56.203125 25.203125 
L 14.890625 25.203125 
Q 15.484375 15.921875 20.484375 11.0625 
Q 25.484375 6.203125 34.421875 6.203125 
Q 39.59375 6.203125 44.453125 7.46875 
Q 49.3125 8.734375 54.109375 11.28125 
L 54.109375 2.78125 
Q 49.265625 0.734375 44.1875 -0.34375 
Q 39.109375 -1.421875 33.890625 -1.421875 
Q 20.796875 -1.421875 13.15625 6.1875 
Q 5.515625 13.8125 5.515625 26.8125 
Q 5.515625 40.234375 12.765625 48.109375 
Q 20.015625 56 32.328125 56 
Q 43.359375 56 49.78125 48.890625 
Q 56.203125 41.796875 56.203125 29.59375 
z
M 47.21875 32.234375 
Q 47.125 39.59375 43.09375 43.984375 
Q 39.0625 48.390625 32.421875 48.390625 
Q 24.90625 48.390625 20.390625 44.140625 
Q 15.875 39.890625 15.1875 32.171875 
z
" id="DejaVuSans-101"/>
       <path d="M 9.421875 75.984375 
L 18.40625 75.984375 
L 18.40625 0 
L 9.421875 0 
z
" id="DejaVuSans-108"/>
       <path d="M 54.890625 33.015625 
L 54.890625 0 
L 45.90625 0 
L 45.90625 32.71875 
Q 45.90625 40.484375 42.875 44.328125 
Q 39.84375 48.1875 33.796875 48.1875 
Q 26.515625 48.1875 22.3125 43.546875 
Q 18.109375 38.921875 18.109375 30.90625 
L 18.109375 0 
L 9.078125 0 
L 9.078125 54.6875 
L 18.109375 54.6875 
L 18.109375 46.1875 
Q 21.34375 51.125 25.703125 53.5625 
Q 30.078125 56 35.796875 56 
Q 45.21875 56 50.046875 50.171875 
Q 54.890625 44.34375 54.890625 33.015625 
z
" id="DejaVuSans-110"/>
       <path d="M 45.40625 27.984375 
Q 45.40625 37.75 41.375 43.109375 
Q 37.359375 48.484375 30.078125 48.484375 
Q 22.859375 48.484375 18.828125 43.109375 
Q 14.796875 37.75 14.796875 27.984375 
Q 14.796875 18.265625 18.828125 12.890625 
Q 22.859375 7.515625 30.078125 7.515625 
Q 37.359375 7.515625 41.375 12.890625 
Q 45.40625 18.265625 45.40625 27.984375 
z
M 54.390625 6.78125 
Q 54.390625 -7.171875 48.1875 -13.984375 
Q 42 -20.796875 29.203125 -20.796875 
Q 24.46875 -20.796875 20.265625 -20.09375 
Q 16.0625 -19.390625 12.109375 -17.921875 
L 12.109375 -9.1875 
Q 16.0625 -11.328125 19.921875 -12.34375 
Q 23.78125 -13.375 27.78125 -13.375 
Q 36.625 -13.375 41.015625 -8.765625 
Q 45.40625 -4.15625 45.40625 5.171875 
L 45.40625 9.625 
Q 42.625 4.78125 38.28125 2.390625 
Q 33.9375 0 27.875 0 
Q 17.828125 0 11.671875 7.65625 
Q 5.515625 15.328125 5.515625 27.984375 
Q 5.515625 40.671875 11.671875 48.328125 
Q 17.828125 56 27.875 56 
Q 33.9375 56 38.28125 53.609375 
Q 42.625 51.21875 45.40625 46.390625 
L 45.40625 54.6875 
L 54.390625 54.6875 
z
" id="DejaVuSans-103"/>
       <path d="M 18.3125 70.21875 
L 18.3125 54.6875 
L 36.8125 54.6875 
L 36.8125 47.703125 
L 18.3125 47.703125 
L 18.3125 18.015625 
Q 18.3125 11.328125 20.140625 9.421875 
Q 21.96875 7.515625 27.59375 7.515625 
L 36.8125 7.515625 
L 36.8125 0 
L 27.59375 0 
Q 17.1875 0 13.234375 3.875 
Q 9.28125 7.765625 9.28125 18.015625 
L 9.28125 47.703125 
L 2.6875 47.703125 
L 2.6875 54.6875 
L 9.28125 54.6875 
L 9.28125 70.21875 
z
" id="DejaVuSans-116"/>
       <path d="M 54.890625 33.015625 
L 54.890625 0 
L 45.90625 0 
L 45.90625 32.71875 
Q 45.90625 40.484375 42.875 44.328125 
Q 39.84375 48.1875 33.796875 48.1875 
Q 26.515625 48.1875 22.3125 43.546875 
Q 18.109375 38.921875 18.109375 30.90625 
L 18.109375 0 
L 9.078125 0 
L 9.078125 75.984375 
L 18.109375 75.984375 
L 18.109375 46.1875 
Q 21.34375 51.125 25.703125 53.5625 
Q 30.078125 56 35.796875 56 
Q 45.21875 56 50.046875 50.171875 
Q 54.890625 44.34375 54.890625 33.015625 
z
" id="DejaVuSans-104"/>
       <path id="DejaVuSans-32"/>
       <path d="M 31 75.875 
Q 24.46875 64.65625 21.28125 53.65625 
Q 18.109375 42.671875 18.109375 31.390625 
Q 18.109375 20.125 21.3125 9.0625 
Q 24.515625 -2 31 -13.1875 
L 23.1875 -13.1875 
Q 15.875 -1.703125 12.234375 9.375 
Q 8.59375 20.453125 8.59375 31.390625 
Q 8.59375 42.28125 12.203125 53.3125 
Q 15.828125 64.359375 23.1875 75.875 
z
" id="DejaVuSans-40"/>
       <path d="M -1.3125 -20.796875 
L 13.375 54.6875 
L 22.40625 54.6875 
L 15.765625 20.65625 
Q 15.578125 19.625 15.421875 18.359375 
Q 15.28125 17.09375 15.28125 15.828125 
Q 15.28125 11.28125 18.140625 8.828125 
Q 21 6.390625 26.3125 6.390625 
Q 33.546875 6.390625 37.984375 10.484375 
Q 42.4375 14.59375 44 22.796875 
L 50.203125 54.6875 
L 59.1875 54.6875 
L 51.03125 12.640625 
Q 50.828125 11.71875 50.75 11.03125 
Q 50.6875 10.359375 50.6875 9.8125 
Q 50.6875 8.296875 51.296875 7.59375 
Q 51.90625 6.890625 53.21875 6.890625 
Q 53.71875 6.890625 54.5625 7.125 
Q 55.421875 7.375 56.984375 8.015625 
L 55.609375 0.78125 
Q 53.46875 -0.296875 51.515625 -0.859375 
Q 49.5625 -1.421875 47.703125 -1.421875 
Q 44.484375 -1.421875 42.65625 0.625 
Q 40.828125 2.6875 40.828125 6.296875 
Q 38.09375 2.390625 34.296875 0.484375 
Q 30.515625 -1.421875 25.390625 -1.421875 
Q 20.84375 -1.421875 17.453125 0.671875 
Q 14.0625 2.78125 12.984375 6.203125 
L 7.71875 -20.796875 
z
" id="DejaVuSans-Oblique-956"/>
       <path d="M 89.796875 33.015625 
L 83.40625 0 
L 74.421875 0 
L 80.71875 32.71875 
Q 81.109375 34.8125 81.296875 36.328125 
Q 81.5 37.84375 81.5 38.921875 
Q 81.5 43.3125 79.046875 45.75 
Q 76.609375 48.1875 72.21875 48.1875 
Q 65.671875 48.1875 60.546875 43.28125 
Q 55.421875 38.375 53.90625 30.515625 
L 47.90625 0 
L 38.921875 0 
L 45.3125 32.71875 
Q 45.703125 34.515625 45.890625 36.046875 
Q 46.09375 37.59375 46.09375 38.8125 
Q 46.09375 43.265625 43.65625 45.71875 
Q 41.21875 48.1875 36.921875 48.1875 
Q 30.28125 48.1875 25.140625 43.28125 
Q 20.015625 38.375 18.5 30.515625 
L 12.5 0 
L 3.515625 0 
L 14.203125 54.6875 
L 23.1875 54.6875 
L 21.484375 46.1875 
Q 25.140625 50.984375 30.046875 53.484375 
Q 34.96875 56 40.578125 56 
Q 46.53125 56 50.359375 52.875 
Q 54.203125 49.75 54.984375 44.1875 
Q 59.078125 49.953125 64.46875 52.96875 
Q 69.875 56 75.875 56 
Q 82.90625 56 86.734375 51.953125 
Q 90.578125 47.90625 90.578125 40.484375 
Q 90.578125 38.875 90.375 36.9375 
Q 90.1875 35.015625 89.796875 33.015625 
z
" id="DejaVuSans-Oblique-109"/>
       <path d="M 8.015625 75.875 
L 15.828125 75.875 
Q 23.140625 64.359375 26.78125 53.3125 
Q 30.421875 42.28125 30.421875 31.390625 
Q 30.421875 20.453125 26.78125 9.375 
Q 23.140625 -1.703125 15.828125 -13.1875 
L 8.015625 -13.1875 
Q 14.5 -2 17.703125 9.0625 
Q 20.90625 20.125 20.90625 31.390625 
Q 20.90625 42.671875 17.703125 53.65625 
Q 14.5 64.65625 8.015625 75.875 
z
" id="DejaVuSans-41"/>
      </defs>
      <use transform="translate(0 0.015625)" xlink:href="#DejaVuSans-87"/>
      <use transform="translate(98.876953 0.015625)" xlink:href="#DejaVuSans-97"/>
      <use transform="translate(160.15625 0.015625)" xlink:href="#DejaVuSans-118"/>
      <use transform="translate(219.335938 0.015625)" xlink:href="#DejaVuSans-101"/>
      <use transform="translate(280.859375 0.015625)" xlink:href="#DejaVuSans-108"/>
      <use transform="translate(308.642578 0.015625)" xlink:href="#DejaVuSans-101"/>
      <use transform="translate(370.166016 0.015625)" xlink:href="#DejaVuSans-110"/>
      <use transform="translate(433.544922 0.015625)" xlink:href="#DejaVuSans-103"/>
      <use transform="translate(497.021484 0.015625)" xlink:href="#DejaVuSans-116"/>
      <use transform="translate(536.230469 0.015625)" xlink:href="#DejaVuSans-104"/>
      <use transform="translate(599.609375 0.015625)" xlink:href="#DejaVuSans-32"/>
      <use transform="translate(631.396484 0.015625)" xlink:href="#DejaVuSans-40"/>
      <use transform="translate(670.410156 0.015625)" xlink:href="#DejaVuSans-Oblique-956"/>
      <use transform="translate(734.033203 0.015625)" xlink:href="#DejaVuSans-Oblique-109"/>
      <use transform="translate(831.445312 0.015625)" xlink:href="#DejaVuSans-41"/>
     </g>
    </g>
   </g>
   <g id="matplotlib.axis_2">
    <g id="ytick_1">
     <g id="line2d_6">
      <defs>
       <path d="M 0 0 
L -3.5 0 
" id="m9b95ad26fc" style="stroke:#000000;stroke-width:0.8;"/>
      </defs>
      <g>
       <use style="stroke:#000000;stroke-width:0.8;" x="46.04" xlink:href="#m9b95ad26fc" y="316.12"/>
      </g>
     </g>
     <g id="text_7">
      <!-- 0 -->
      <g transform="translate(32.6775 319.919219)scale(0.1 -0.1)">
       <use xlink:href="#DejaVuSans-48"/>
      </g>
     </g>
    </g>
    <g id="ytick_2">
     <g id="line2d_7">
      <g>
       <use style="stroke:#000000;stroke-width:0.8;" x="46.04" xlink:href="#m9b95ad26fc" y="274.971429"/>
      </g>
     </g>
     <g id="text_8">
      <!-- 10 -->
      <g transform="translate(26.315 278.770647)scale(0.1 -0.1)">
       <use xlink:href="#DejaVuSans-49"/>
       <use x="63.623047" xlink:href="#DejaVuSans-48"/>
      </g>
     </g>
    </g>
    <g id="ytick_3">
     <g id="line2d_8">
      <g>
       <use style="stroke:#000000;stroke-width:0.8;" x="46.04" xlink:href="#m9b95ad26fc" y="233.822857"/>
      </g>
     </g>
     <g id="text_9">
      <!-- 20 -->
      <g transform="translate(26.315 237.622076)scale(0.1 -0.1)">
       <use xlink:href="#DejaVuSans-50"/>
       <use x="63.623047" xlink:href="#DejaVuSans-48"/>
      </g>
     </g>
    </g>
    <g id="ytick_4">
     <g id="line2d_9">
      <g>
       <use style="stroke:#000000;stroke-width:0.8;" x="46.04" xlink:href="#m9b95ad26fc" y="192.674286"/>
      </g>
     </g>
     <g id="text_10">
      <!-- 30 -->
      <g transform="translate(26.315 196.473504)scale(0.1 -0.1)">
       <defs>
        <path d="M 40.578125 39.3125 
Q 47.65625 37.796875 51.625 33 
Q 55.609375 28.21875 55.609375 21.1875 
Q 55.609375 10.40625 48.1875 4.484375 
Q 40.765625 -1.421875 27.09375 -1.421875 
Q 22.515625 -1.421875 17.65625 -0.515625 
Q 12.796875 0.390625 7.625 2.203125 
L 7.625 11.71875 
Q 11.71875 9.328125 16.59375 8.109375 
Q 21.484375 6.890625 26.8125 6.890625 
Q 36.078125 6.890625 40.9375 10.546875 
Q 45.796875 14.203125 45.796875 21.1875 
Q 45.796875 27.640625 41.28125 31.265625 
Q 36.765625 34.90625 28.71875 34.90625 
L 20.21875 34.90625 
L 20.21875 43.015625 
L 29.109375 43.015625 
Q 36.375 43.015625 40.234375 45.921875 
Q 44.09375 48.828125 44.09375 54.296875 
Q 44.09375 59.90625 40.109375 62.90625 
Q 36.140625 65.921875 28.71875 65.921875 
Q 24.65625 65.921875 20.015625 65.03125 
Q 15.375 64.15625 9.8125 62.3125 
L 9.8125 71.09375 
Q 15.4375 72.65625 20.34375 73.4375 
Q 25.25 74.21875 29.59375 74.21875 
Q 40.828125 74.21875 47.359375 69.109375 
Q 53.90625 64.015625 53.90625 55.328125 
Q 53.90625 49.265625 50.4375 45.09375 
Q 46.96875 40.921875 40.578125 39.3125 
z
" id="DejaVuSans-51"/>
       </defs>
       <use xlink:href="#DejaVuSans-51"/>
       <use x="63.623047" xlink:href="#DejaVuSans-48"/>
      </g>
     </g>
    </g>
    <g id="ytick_5">
     <g id="line2d_10">
      <g>
       <use style="stroke:#000000;stroke-width:0.8;" x="46.04" xlink:href="#m9b95ad26fc" y="151.525714"/>
      </g>
     </g>
     <g id="text_11">
      <!-- 40 -->
      <g transform="translate(26.315 155.324933)scale(0.1 -0.1)">
       <defs>
        <path d="M 37.796875 64.3125 
L 12.890625 25.390625 
L 37.796875 25.390625 
z
M 35.203125 72.90625 
L 47.609375 72.90625 
L 47.609375 25.390625 
L 58.015625 25.390625 
L 58.015625 17.1875 
L 47.609375 17.1875 
L 47.609375 0 
L 37.796875 0 
L 37.796875 17.1875 
L 4.890625 17.1875 
L 4.890625 26.703125 
z
" id="DejaVuSans-52"/>
       </defs>
       <use xlink:href="#DejaVuSans-52"/>
       <use x="63.623047" xlink:href="#DejaVuSans-48"/>
      </g>
     </g>
    </g>
    <g id="ytick_6">
     <g id="line2d_11">
      <g>
       <use style="stroke:#000000;stroke-width:0.8;" x="46.04" xlink:href="#m9b95ad26fc" y="110.377143"/>
      </g>
     </g>
     <g id="text_12">
      <!-- 50 -->
      <g transform="translate(26.315 114.176362)scale(0.1 -0.1)">
       <use xlink:href="#DejaVuSans-53"/>
       <use x="63.623047" xlink:href="#DejaVuSans-48"/>
      </g>
     </g>
    </g>
    <g id="ytick_7">
     <g id="line2d_12">
      <g>
       <use style="stroke:#000000;stroke-width:0.8;" x="46.04" xlink:href="#m9b95ad26fc" y="69.228571"/>
      </g>
     </g>
     <g id="text_13">
      <!-- 60 -->
      <g transform="translate(26.315 73.02779)scale(0.1 -0.1)">
       <defs>
        <path d="M 33.015625 40.375 
Q 26.375 40.375 22.484375 35.828125 
Q 18.609375 31.296875 18.609375 23.390625 
Q 18.609375 15.53125 22.484375 10.953125 
Q 26.375 6.390625 33.015625 6.390625 
Q 39.65625 6.390625 43.53125 10.953125 
Q 47.40625 15.53125 47.40625 23.390625 
Q 47.40625 31.296875 43.53125 35.828125 
Q 39.65625 40.375 33.015625 40.375 
z
M 52.59375 71.296875 
L 52.59375 62.3125 
Q 48.875 64.0625 45.09375 64.984375 
Q 41.3125 65.921875 37.59375 65.921875 
Q 27.828125 65.921875 22.671875 59.328125 
Q 17.53125 52.734375 16.796875 39.40625 
Q 19.671875 43.65625 24.015625 45.921875 
Q 28.375 48.1875 33.59375 48.1875 
Q 44.578125 48.1875 50.953125 41.515625 
Q 57.328125 34.859375 57.328125 23.390625 
Q 57.328125 12.15625 50.6875 5.359375 
Q 44.046875 -1.421875 33.015625 -1.421875 
Q 20.359375 -1.421875 13.671875 8.265625 
Q 6.984375 17.96875 6.984375 36.375 
Q 6.984375 53.65625 15.1875 63.9375 
Q 23.390625 74.21875 37.203125 74.21875 
Q 40.921875 74.21875 44.703125 73.484375 
Q 48.484375 72.75 52.59375 71.296875 
z
" id="DejaVuSans-54"/>
       </defs>
       <use xlink:href="#DejaVuSans-54"/>
       <use x="63.623047" xlink:href="#DejaVuSans-48"/>
      </g>
     </g>
    </g>
    <g id="ytick_8">
     <g id="line2d_13">
      <g>
       <use style="stroke:#000000;stroke-width:0.8;" x="46.04" xlink:href="#m9b95ad26fc" y="28.08"/>
      </g>
     </g>
     <g id="text_14">
      <!-- 70 -->
      <g transform="translate(26.315 31.879219)scale(0.1 -0.1)">
       <defs>
        <path d="M 8.203125 72.90625 
L 55.078125 72.90625 
L 55.078125 68.703125 
L 28.609375 0 
L 18.3125 0 
L 43.21875 64.59375 
L 8.203125 64.59375 
z
" id="DejaVuSans-55"/>
       </defs>
       <use xlink:href="#DejaVuSans-55"/>
       <use x="63.623047" xlink:href="#DejaVuSans-48"/>
      </g>
     </g>
    </g>
    <g id="text_15">
     <!-- Reflectance ($\%$) -->
     <g transform="translate(19.819375 219.86)rotate(-90)scale(0.12 -0.12)">
      <defs>
       <path d="M 44.390625 34.1875 
Q 47.5625 33.109375 50.5625 29.59375 
Q 53.5625 26.078125 56.59375 19.921875 
L 66.609375 0 
L 56 0 
L 46.6875 18.703125 
Q 43.0625 26.03125 39.671875 28.421875 
Q 36.28125 30.8125 30.421875 30.8125 
L 19.671875 30.8125 
L 19.671875 0 
L 9.8125 0 
L 9.8125 72.90625 
L 32.078125 72.90625 
Q 44.578125 72.90625 50.734375 67.671875 
Q 56.890625 62.453125 56.890625 51.90625 
Q 56.890625 45.015625 53.6875 40.46875 
Q 50.484375 35.9375 44.390625 34.1875 
z
M 19.671875 64.796875 
L 19.671875 38.921875 
L 32.078125 38.921875 
Q 39.203125 38.921875 42.84375 42.21875 
Q 46.484375 45.515625 46.484375 51.90625 
Q 46.484375 58.296875 42.84375 61.546875 
Q 39.203125 64.796875 32.078125 64.796875 
z
" id="DejaVuSans-82"/>
       <path d="M 37.109375 75.984375 
L 37.109375 68.5 
L 28.515625 68.5 
Q 23.6875 68.5 21.796875 66.546875 
Q 19.921875 64.59375 19.921875 59.515625 
L 19.921875 54.6875 
L 34.71875 54.6875 
L 34.71875 47.703125 
L 19.921875 47.703125 
L 19.921875 0 
L 10.890625 0 
L 10.890625 47.703125 
L 2.296875 47.703125 
L 2.296875 54.6875 
L 10.890625 54.6875 
L 10.890625 58.5 
Q 10.890625 67.625 15.140625 71.796875 
Q 19.390625 75.984375 28.609375 75.984375 
z
" id="DejaVuSans-102"/>
       <path d="M 48.78125 52.59375 
L 48.78125 44.1875 
Q 44.96875 46.296875 41.140625 47.34375 
Q 37.3125 48.390625 33.40625 48.390625 
Q 24.65625 48.390625 19.8125 42.84375 
Q 14.984375 37.3125 14.984375 27.296875 
Q 14.984375 17.28125 19.8125 11.734375 
Q 24.65625 6.203125 33.40625 6.203125 
Q 37.3125 6.203125 41.140625 7.25 
Q 44.96875 8.296875 48.78125 10.40625 
L 48.78125 2.09375 
Q 45.015625 0.34375 40.984375 -0.53125 
Q 36.96875 -1.421875 32.421875 -1.421875 
Q 20.0625 -1.421875 12.78125 6.34375 
Q 5.515625 14.109375 5.515625 27.296875 
Q 5.515625 40.671875 12.859375 48.328125 
Q 20.21875 56 33.015625 56 
Q 37.15625 56 41.109375 55.140625 
Q 45.0625 54.296875 48.78125 52.59375 
z
" id="DejaVuSans-99"/>
       <path d="M 72.703125 32.078125 
Q 68.453125 32.078125 66.03125 28.46875 
Q 63.625 24.859375 63.625 18.40625 
Q 63.625 12.0625 66.03125 8.421875 
Q 68.453125 4.78125 72.703125 4.78125 
Q 76.859375 4.78125 79.265625 8.421875 
Q 81.6875 12.0625 81.6875 18.40625 
Q 81.6875 24.8125 79.265625 28.4375 
Q 76.859375 32.078125 72.703125 32.078125 
z
M 72.703125 38.28125 
Q 80.421875 38.28125 84.953125 32.90625 
Q 89.5 27.546875 89.5 18.40625 
Q 89.5 9.28125 84.9375 3.921875 
Q 80.375 -1.421875 72.703125 -1.421875 
Q 64.890625 -1.421875 60.34375 3.921875 
Q 55.8125 9.28125 55.8125 18.40625 
Q 55.8125 27.59375 60.375 32.9375 
Q 64.9375 38.28125 72.703125 38.28125 
z
M 22.3125 68.015625 
Q 18.109375 68.015625 15.6875 64.375 
Q 13.28125 60.75 13.28125 54.390625 
Q 13.28125 47.953125 15.671875 44.328125 
Q 18.0625 40.71875 22.3125 40.71875 
Q 26.5625 40.71875 28.96875 44.328125 
Q 31.390625 47.953125 31.390625 54.390625 
Q 31.390625 60.6875 28.953125 64.34375 
Q 26.515625 68.015625 22.3125 68.015625 
z
M 66.40625 74.21875 
L 74.21875 74.21875 
L 28.609375 -1.421875 
L 20.796875 -1.421875 
z
M 22.3125 74.21875 
Q 30.03125 74.21875 34.609375 68.875 
Q 39.203125 63.53125 39.203125 54.390625 
Q 39.203125 45.171875 34.640625 39.84375 
Q 30.078125 34.515625 22.3125 34.515625 
Q 14.546875 34.515625 10.03125 39.859375 
Q 5.515625 45.21875 5.515625 54.390625 
Q 5.515625 63.484375 10.046875 68.84375 
Q 14.59375 74.21875 22.3125 74.21875 
z
" id="DejaVuSans-37"/>
      </defs>
      <use transform="translate(0 0.015625)" xlink:href="#DejaVuSans-82"/>
      <use transform="translate(69.482422 0.015625)" xlink:href="#DejaVuSans-101"/>
      <use transform="translate(131.005859 0.015625)" xlink:href="#DejaVuSans-102"/>
      <use transform="translate(166.210938 0.015625)" xlink:href="#DejaVuSans-108"/>
      <use transform="translate(193.994141 0.015625)" xlink:href="#DejaVuSans-101"/>
      <use transform="translate(255.517578 0.015625)" xlink:href="#DejaVuSans-99"/>
      <use transform="translate(310.498047 0.015625)" xlink:href="#DejaVuSans-116"/>
      <use transform="translate(349.707031 0.015625)" xlink:href="#DejaVuSans-97"/>
      <use transform="translate(410.986328 0.015625)" xlink:href="#DejaVuSans-110"/>
      <use transform="translate(474.365234 0.015625)" xlink:href="#DejaVuSans-99"/>
      <use transform="translate(529.345703 0.015625)" xlink:href="#DejaVuSans-101"/>
      <use transform="translate(590.869141 0.015625)" xlink:href="#DejaVuSans-32"/>
      <use transform="translate(622.65625 0.015625)" xlink:href="#DejaVuSans-40"/>
      <use transform="translate(661.669922 0.015625)" xlink:href="#DejaVuSans-37"/>
      <use transform="translate(756.689453 0.015625)" xlink:href="#DejaVuSans-41"/>
     </g>
    </g>
   </g>
   <g id="line2d_14">
    <path clip-path="url(#pca0d80a0d4)" d="M 59.82 306.28624 
L 61.001143 306.001772 
L 62.576 305.459507 
L 64.150857 304.986169 
L 66.250667 304.640376 
L 70.056571 304.248345 
L 71.237714 304.036112 
L 71.893905 303.688931 
L 72.418857 303.181619 
L 72.94381 302.312002 
L 73.468762 300.955888 
L 73.993714 298.943432 
L 74.518667 296.108037 
L 75.174857 291.316431 
L 76.880952 277.789473 
L 77.405905 275.353573 
L 77.930857 273.879489 
L 78.45581 273.00948 
L 79.636952 271.544957 
L 80.030667 271.455483 
L 80.293143 271.667269 
L 80.555619 272.095227 
L 81.080571 273.549698 
L 81.736762 276.344352 
L 83.311619 283.859221 
L 84.099048 286.172968 
L 84.755238 287.484059 
L 85.411429 288.280777 
L 86.592571 289.598843 
L 87.117524 290.671743 
L 88.692381 294.246938 
L 89.217333 294.839102 
L 89.742286 295.095927 
L 90.398476 295.401255 
L 90.79219 295.901594 
L 91.317143 297.089583 
L 92.498286 300.01725 
L 93.154476 300.879069 
L 93.810667 301.843602 
L 94.598095 303.011213 
L 94.99181 303.266716 
L 95.385524 303.28213 
L 95.910476 303.023569 
L 96.435429 302.494442 
L 96.960381 301.608037 
L 97.354095 300.324023 
L 97.616571 298.764167 
L 98.010286 294.626531 
L 98.404 287.759594 
L 98.928952 274.532757 
L 100.241333 232.91275 
L 103.25981 139.333804 
L 104.047238 121.763019 
L 104.703429 110.99244 
L 105.359619 103.491082 
L 106.01581 98.507568 
L 106.934476 93.178867 
L 107.590667 90.447258 
L 108.246857 88.665538 
L 108.77181 87.798768 
L 109.296762 87.319385 
L 109.821714 87.147009 
L 115.59619 86.131733 
L 118.614667 85.859209 
L 128.195048 84.822505 
L 130.688571 85.360302 
L 131.082286 85.578408 
L 131.738476 85.913731 
L 133.444571 87.600467 
L 133.969524 87.672519 
L 135.019429 87.667207 
L 135.806857 87.576527 
L 137.119238 87.158653 
L 138.956571 86.256479 
L 141.056381 85.200611 
L 143.024952 84.202458 
L 143.943619 83.844812 
L 145.649714 83.366245 
L 148.405714 82.94323 
L 151.292952 83.063011 
L 152.86781 83.344312 
L 154.442667 83.590013 
L 155.361333 84.073367 
L 155.755048 84.396765 
L 156.804952 86.244571 
L 157.329905 87.684462 
L 158.642286 90.837264 
L 159.036 91.331063 
L 160.085905 91.830634 
L 160.873333 91.876347 
L 161.529524 92.044905 
L 161.923238 92.016066 
L 164.679238 92.229485 
L 165.072952 92.116821 
L 165.597905 92.146362 
L 165.991619 92.159665 
L 167.435238 92.488649 
L 169.797524 93.955694 
L 170.584952 94.583077 
L 171.241143 95.094118 
L 174.522095 97.990253 
L 175.965714 99.382956 
L 177.803048 100.938086 
M 197.62 222.073135 
L 198.407429 222.086242 
L 198.932381 221.735037 
L 199.457333 220.879089 
L 199.982286 219.62205 
L 200.900952 216.887008 
L 203.525714 207.897094 
L 205.100571 201.393968 
L 205.363048 200.448266 
L 206.019238 197.721108 
L 207.331619 192.252336 
L 210.087619 183.164175 
L 210.350095 182.417856 
L 211.137524 180.26951 
L 212.449905 177.469708 
L 212.843619 176.818776 
L 213.237333 176.009238 
L 216.25581 170.189024 
L 216.649524 168.971856 
L 216.780762 168.839307 
L 217.305714 167.539663 
L 219.799238 162.735944 
L 220.061714 162.437332 
L 220.586667 161.51713 
L 220.717905 161.483526 
L 221.111619 160.959046 
L 221.374095 160.691488 
L 221.505333 160.692387 
L 222.424 159.513342 
L 222.555238 159.597923 
L 222.817714 159.228999 
L 223.08019 159.082806 
L 223.473905 158.975692 
L 223.605143 159.044078 
L 223.736381 158.867759 
L 224.130095 159.356545 
L 224.261333 159.307456 
L 224.52381 159.817908 
L 224.786286 160.063788 
L 225.048762 160.797966 
L 225.442476 161.629999 
L 226.098667 163.3591 
L 226.361143 164.170129 
L 226.492381 164.152128 
L 226.623619 163.153657 
L 227.017333 164.199632 
L 228.067238 167.49543 
L 229.248381 171.529286 
L 229.642095 172.80055 
L 232.004381 179.269824 
L 233.185524 181.573172 
L 233.841714 182.398026 
L 234.366667 182.462217 
L 235.54781 181.465145 
L 236.072762 181.304395 
L 236.335238 181.501098 
L 236.466476 181.634103 
L 236.597714 181.586416 
L 237.122667 182.116419 
L 237.516381 182.52138 
L 237.778857 182.682128 
L 238.172571 182.896856 
L 238.566286 182.929634 
L 238.697524 182.88546 
L 238.828762 182.967974 
L 239.353714 182.654124 
L 240.797333 180.649144 
L 241.191048 180.395029 
L 241.847238 180.806275 
L 242.109714 180.536975 
L 242.240952 180.53284 
L 242.37219 180.415437 
L 242.503429 180.480688 
L 242.897143 180.145447 
L 243.028381 180.205546 
L 243.422095 179.705103 
M 264.551429 280.084364 
L 264.945143 279.189111 
L 265.732571 277.058579 
L 266.257524 275.732632 
L 266.651238 274.464402 
L 267.044952 273.331203 
L 267.832381 270.853393 
L 268.357333 269.309135 
L 269.538476 266.00067 
L 269.93219 264.986423 
L 270.719619 262.778041 
L 271.37581 261.373437 
L 271.769524 260.471981 
L 272.163238 259.94378 
L 272.68819 259.166188 
L 272.819429 259.138412 
L 273.213143 258.734656 
L 273.344381 258.754487 
L 273.738095 258.489137 
L 274.394286 258.405834 
L 274.525524 258.352556 
L 274.656762 258.472657 
L 274.788 258.412858 
L 274.919238 258.549807 
L 275.181714 258.524633 
L 275.44419 258.649599 
L 275.706667 258.783545 
L 276.231619 259.009322 
L 277.281524 259.293898 
L 279.512571 257.75356 
L 280.3 257.112985 
L 280.431238 257.098469 
L 280.693714 256.832708 
L 280.95619 256.714671 
L 281.743619 256.221047 
L 283.449714 255.252662 
L 283.843429 255.004194 
L 285.549524 254.011087 
L 285.943238 253.746176 
L 286.599429 253.378479 
L 287.386857 253.01072 
L 288.699238 252.724227 
L 289.880381 252.240403 
L 290.142857 252.142857 
L 290.405333 252.033338 
L 291.192762 251.702675 
L 292.242667 250.970428 
L 292.767619 250.548869 
L 294.342476 248.699455 
L 294.73619 248.208856 
L 295.786095 247.00292 
L 296.048571 246.788402 
L 297.229714 245.630428 
L 298.017143 244.960228 
L 299.067048 244.799464 
L 299.329524 244.87923 
L 299.854476 245.474281 
L 300.641905 247.13703 
L 301.429333 249.633833 
L 303.135429 256.490061 
L 303.922857 259.397548 
L 304.710286 261.869263 
L 305.628952 264.256648 
L 306.285143 265.547164 
L 307.466286 267.776079 
L 308.51619 269.688951 
L 309.566095 271.317982 
L 310.222286 271.864651 
L 310.616 271.949821 
L 311.534667 271.928885 
L 311.797143 271.904219 
L 312.71581 272.177393 
L 312.978286 272.436675 
L 313.634476 273.075684 
L 314.159429 273.607223 
L 315.209333 274.556324 
L 315.996762 274.761306 
L 316.128 274.747296 
L 316.390476 274.843126 
L 317.046667 274.859518 
L 317.834095 275.026259 
L 319.408952 275.77361 
L 319.54019 275.768845 
L 319.933905 276.089801 
L 320.065143 276.112004 
L 320.327619 276.359646 
L 320.590095 276.446896 
L 320.98381 276.845087 
L 321.64 277.427135 
L 322.033714 277.782938 
L 322.164952 277.851772 
L 322.558667 278.326831 
L 322.689905 278.427288 
L 322.952381 278.839132 
L 324.527238 280.88949 
L 326.627048 284.527856 
L 327.020762 285.233118 
L 328.070667 287.210034 
L 328.989333 289.00091 
L 329.514286 289.918842 
L 330.039238 290.852784 
L 331.089143 292.397819 
L 331.482857 292.938139 
L 331.745333 293.161276 
L 332.00781 293.551419 
L 332.664 294.087642 
L 334.238857 295.344645 
L 334.632571 295.503225 
L 335.42 295.526186 
L 335.42 295.526186 
" style="fill:none;stroke:#bfce68;stroke-linecap:square;stroke-width:1.5;"/>
   </g>
   <g id="line2d_15">
    <path clip-path="url(#pca0d80a0d4)" d="M 59.82 306.28624 
L 61.001143 306.001772 
L 62.576 305.459507 
L 64.150857 304.986169 
L 66.250667 304.640376 
L 70.056571 304.248347 
L 71.237714 304.036116 
L 71.893905 303.688937 
L 72.418857 303.181628 
L 72.94381 302.312018 
L 73.468762 300.955915 
L 73.993714 298.943478 
L 74.518667 296.108113 
L 75.174857 291.316564 
L 76.880952 277.789785 
L 77.405905 275.35394 
L 77.930857 273.8799 
L 78.45581 273.009925 
L 79.636952 271.545518 
L 80.030667 271.456075 
L 80.293143 271.66787 
L 80.555619 272.09583 
L 81.080571 273.550293 
L 81.736762 276.344914 
L 83.311619 283.859724 
L 84.099048 286.173505 
L 84.755238 287.484662 
L 85.411429 288.28147 
L 86.592571 289.599796 
L 87.117524 290.672703 
L 88.692381 294.247707 
L 89.217333 294.839846 
L 89.742286 295.096668 
L 90.398476 295.401994 
L 90.79219 295.902306 
L 91.317143 297.090224 
L 92.498286 300.0177 
L 93.154476 300.879466 
L 93.810667 301.843943 
L 94.598095 303.011451 
L 94.99181 303.266914 
L 95.385524 303.282305 
L 95.910476 303.023737 
L 96.435429 302.494629 
L 96.960381 301.608302 
L 97.354095 300.324447 
L 97.616571 298.764791 
L 98.010286 294.627691 
L 98.404 287.761738 
L 98.928952 274.537282 
L 100.241333 232.931852 
L 103.25981 139.541624 
L 104.047238 122.111926 
L 104.703429 111.441523 
L 105.359619 103.995866 
L 106.01581 99.045537 
L 106.934476 93.752449 
L 107.590667 91.037886 
L 108.246857 89.262797 
L 108.77181 88.397423 
L 109.296762 87.911805 
L 109.821714 87.727832 
L 114.94 86.751418 
L 116.121143 86.77925 
L 118.089714 86.829781 
L 123.208 86.485887 
L 125.964 86.416559 
L 126.882667 86.443784 
L 128.457524 86.949675 
L 129.113714 87.341196 
L 129.37619 87.715594 
L 130.032381 88.287702 
L 130.426095 88.907379 
L 130.688571 89.254277 
L 130.951048 89.912945 
L 131.213524 90.285577 
L 131.869714 91.736083 
L 132.13219 93.024682 
L 132.394667 93.813877 
L 132.919619 95.553066 
L 133.57581 96.992357 
L 135.413143 97.464387 
L 135.938095 97.283105 
L 136.725524 96.78867 
L 137.775429 95.730509 
L 140.531429 92.237285 
L 141.975048 90.264819 
L 142.893714 89.166556 
L 143.943619 88.01752 
L 144.862286 87.272045 
L 145.91219 86.63352 
L 148.012 86.026908 
L 148.66819 86.056639 
L 149.324381 86.121509 
L 150.636762 86.608585 
L 151.030476 86.752909 
L 152.211619 87.582388 
L 152.605333 87.838319 
L 153.392762 88.430118 
L 153.917714 88.570382 
L 155.098857 89.927825 
L 155.886286 92.425597 
L 156.93619 98.688769 
L 157.329905 101.59067 
L 158.511048 109.611173 
L 158.904762 111.42809 
L 159.69219 112.823836 
L 159.954667 113.100779 
L 161.004571 113.465004 
L 161.398286 113.911878 
L 161.792 113.790568 
L 164.285524 114.802969 
L 164.548 114.813642 
L 165.072952 114.434002 
L 165.335429 114.568219 
L 165.597905 114.42025 
L 165.860381 114.29413 
L 166.122857 114.318175 
L 166.64781 114.171957 
L 166.910286 114.21144 
L 167.435238 113.873233 
L 167.828952 113.979993 
L 168.222667 113.965672 
L 168.616381 114.093256 
L 169.666286 114.053809 
L 170.322476 114.331026 
L 170.71619 114.31272 
L 171.372381 114.480795 
L 171.766095 114.510024 
L 174.128381 115.880253 
L 175.572 117.829637 
L 176.096952 118.736576 
L 176.621905 119.438691 
L 177.540571 121.367871 
L 177.803048 121.923741 
M 197.62 273.924313 
L 198.538667 273.699154 
L 199.326095 272.918057 
L 200.113524 271.255073 
L 202.344571 264.300695 
L 205.625524 250.362486 
L 206.937905 244.30717 
L 207.462857 241.954337 
L 208.775238 236.148149 
L 209.562667 232.96874 
L 210.74381 228.114382 
L 213.237333 220.048826 
L 215.599619 213.174227 
L 215.993333 212.188415 
L 217.174476 208.705733 
L 218.224381 206.045085 
L 218.749333 205.031204 
L 220.586667 201.394617 
L 220.717905 201.264583 
L 221.111619 200.621228 
L 223.473905 197.796281 
L 223.605143 197.80938 
L 223.736381 197.564887 
L 224.130095 197.669331 
L 224.261333 197.502138 
L 224.392571 197.760097 
L 224.52381 197.728783 
L 224.655048 197.848281 
L 224.786286 197.777868 
L 225.048762 198.1668 
L 225.83619 199.006204 
L 226.229905 199.633722 
L 226.492381 199.754736 
L 226.623619 199.119033 
L 226.886095 199.512743 
L 227.936 201.282499 
L 228.329714 202.138964 
L 230.03581 205.604665 
L 231.479429 208.850737 
L 231.741905 209.315116 
L 232.398095 210.557161 
L 233.579238 212.657462 
L 234.10419 213.309012 
L 234.629143 213.684927 
L 235.154095 213.889131 
L 236.204 215.053366 
L 238.828762 220.096418 
L 239.353714 220.648213 
L 239.747429 220.809746 
L 239.878667 220.74473 
L 240.141143 220.93048 
L 240.403619 221.051044 
L 240.666095 220.927093 
L 241.453524 221.367453 
L 241.847238 221.808981 
L 242.109714 221.783001 
L 242.240952 221.851312 
L 242.503429 221.822095 
L 243.159619 221.708867 
L 243.422095 221.50157 
M 264.551429 305.952318 
L 264.945143 305.707068 
L 267.701143 303.030481 
L 268.61981 301.819049 
L 269.276 300.948805 
L 269.800952 300.179591 
L 270.063429 299.797818 
L 270.719619 298.761751 
L 271.37581 297.832136 
L 272.032 296.805567 
L 272.425714 296.310182 
L 273.213143 295.180692 
L 273.475619 294.865737 
L 274.000571 294.243763 
L 274.788 293.271768 
L 275.050476 293.009773 
L 275.44419 292.571147 
L 275.706667 292.324392 
L 276.494095 291.49174 
L 276.756571 291.255157 
L 277.544 290.343407 
L 277.937714 289.842443 
L 278.593905 289.000923 
L 279.512571 287.759235 
L 280.168762 286.915914 
L 282.137333 284.454819 
L 282.662286 283.881508 
L 284.368381 281.891253 
L 287.386857 278.819349 
L 288.568 277.989909 
L 290.142857 276.887011 
L 290.536571 276.617824 
L 293.948762 274.141382 
L 294.604952 273.573282 
L 295.917333 272.822076 
L 296.836 272.39573 
L 298.148381 271.882156 
L 298.93581 271.854619 
L 299.854476 272.379237 
L 300.773143 273.501512 
L 301.69181 275.307945 
L 304.710286 281.941112 
L 305.891429 283.91307 
L 306.547619 284.777215 
L 307.728762 286.545671 
L 308.384952 287.453269 
L 310.484762 289.753203 
L 310.878476 289.943159 
L 311.140952 290.129594 
L 312.978286 291.468055 
L 314.290667 292.782874 
L 314.553143 293.108042 
L 315.47181 293.909678 
L 315.734286 294.069054 
L 315.996762 294.292047 
L 316.521714 294.605479 
L 316.78419 294.841665 
L 317.177905 295.050618 
L 317.440381 295.299519 
L 317.834095 295.604838 
L 318.359048 295.960221 
L 318.752762 296.323839 
L 318.884 296.383022 
L 319.146476 296.627357 
L 321.115048 298.276729 
L 321.508762 298.65685 
L 322.164952 299.166346 
L 322.558667 299.545437 
L 322.689905 299.619449 
L 322.952381 299.918083 
L 323.73981 300.626534 
L 325.445905 302.24213 
L 325.839619 302.632197 
L 326.364571 303.188917 
L 327.545714 304.211191 
L 328.070667 304.734386 
L 331.089143 307.051316 
L 332.926476 307.929464 
L 333.451429 308.091337 
L 333.713905 308.210849 
L 335.42 308.574618 
L 335.42 308.574618 
" style="fill:none;stroke:#aac03b;stroke-linecap:square;stroke-width:1.5;"/>
   </g>
   <g id="line2d_16">
    <path clip-path="url(#pca0d80a0d4)" d="M 59.82 306.28624 
L 61.001143 306.001772 
L 62.576 305.459507 
L 64.150857 304.986169 
L 66.250667 304.640377 
L 70.056571 304.248349 
L 71.237714 304.036119 
L 71.893905 303.688943 
L 72.418857 303.181638 
L 72.94381 302.312034 
L 73.468762 300.955943 
L 73.993714 298.943524 
L 74.518667 296.108188 
L 75.174857 291.316697 
L 76.880952 277.790097 
L 77.405905 275.354308 
L 77.930857 273.88031 
L 78.45581 273.01037 
L 79.636952 271.546079 
L 80.030667 271.456668 
L 80.293143 271.668472 
L 80.555619 272.096434 
L 81.080571 273.550888 
L 81.736762 276.345476 
L 83.311619 283.860227 
L 84.099048 286.174043 
L 84.755238 287.485265 
L 85.411429 288.282162 
L 86.592571 289.60075 
L 87.117524 290.673663 
L 88.692381 294.248475 
L 89.217333 294.84059 
L 89.742286 295.097408 
L 90.398476 295.402733 
L 90.79219 295.903018 
L 91.317143 297.090864 
L 92.498286 300.018149 
L 93.154476 300.879863 
L 93.810667 301.844284 
L 94.598095 303.01169 
L 94.99181 303.267111 
L 95.385524 303.282479 
L 95.910476 303.023905 
L 96.435429 302.494816 
L 96.960381 301.608567 
L 97.354095 300.324872 
L 97.616571 298.765415 
L 98.010286 294.628851 
L 98.404 287.763881 
L 98.928952 274.541807 
L 100.241333 232.950946 
L 103.25981 139.748907 
L 104.047238 122.459423 
L 104.703429 111.88836 
L 105.359619 104.497887 
L 106.01581 99.580421 
L 106.934476 94.322589 
L 107.590667 91.624898 
L 108.246857 89.85638 
L 108.77181 88.992397 
L 109.296762 88.500626 
L 109.952952 88.274777 
L 114.677524 87.299211 
L 115.464952 87.253764 
L 116.383619 87.518036 
L 116.777333 87.671898 
L 119.139619 87.66076 
L 122.55181 87.604394 
L 124.126667 87.728909 
L 124.914095 87.784584 
L 126.226476 87.868091 
L 126.751429 87.959214 
L 127.538857 88.206568 
L 127.932571 88.463328 
L 128.195048 88.626329 
L 128.588762 89.096625 
L 129.113714 89.700598 
L 129.37619 90.342434 
L 129.901143 91.094028 
L 130.163619 91.790068 
L 131.738476 96.364703 
L 133.182095 104.08752 
L 133.57581 105.497227 
L 133.969524 105.826691 
L 134.363238 106.081847 
L 135.544381 106.336252 
L 135.938095 106.11268 
L 136.594286 105.562485 
L 137.381714 104.473543 
L 140.006476 99.614729 
L 142.631238 94.145817 
L 143.024952 93.58084 
L 143.681143 92.408161 
L 144.468571 91.36821 
L 146.043429 89.777132 
L 147.487048 89.065533 
L 148.405714 88.991509 
L 148.799429 89.078677 
L 149.193143 89.136137 
L 151.030476 90.368576 
L 151.686667 91.149173 
L 152.080381 91.629689 
L 153.130286 92.771198 
L 153.392762 93.172916 
L 153.786476 93.221828 
L 154.573905 94.573688 
L 155.230095 96.275743 
L 155.886286 99.654496 
L 157.067429 111.208457 
L 157.723619 119.060648 
L 158.117333 122.230746 
L 159.036 128.325856 
L 160.085905 130.361264 
L 160.348381 130.466522 
L 160.742095 130.638366 
L 160.873333 130.661969 
L 161.13581 131.147501 
L 161.398286 131.475328 
L 161.792 131.323366 
L 163.89181 132.601349 
L 164.548 132.817222 
L 165.072952 132.30054 
L 165.335429 132.483564 
L 165.597905 132.259717 
L 165.860381 132.06677 
L 166.122857 132.071389 
L 166.516571 131.732617 
L 166.910286 131.761557 
L 167.435238 131.146018 
L 167.828952 131.1776 
L 168.222667 131.020799 
L 168.616381 131.059814 
L 169.535048 130.568758 
L 169.797524 130.596386 
L 170.06 130.692971 
L 170.322476 130.644777 
L 170.71619 130.434037 
L 171.372381 130.349014 
L 171.766095 130.202627 
L 172.15981 130.416978 
L 172.553524 130.582935 
L 173.078476 130.472031 
L 173.997143 130.918199 
L 174.390857 131.518604 
L 174.784571 132.145692 
L 175.309524 132.801349 
L 176.490667 135.186859 
L 177.015619 136.423316 
L 177.803048 138.849902 
M 197.62 291.054474 
L 198.801143 290.770233 
L 199.063619 290.583157 
L 199.457333 290.157888 
L 200.113524 289.139062 
L 201.950857 284.840164 
L 203.78819 279.084597 
L 206.019238 270.797287 
L 206.937905 267.058882 
L 207.200381 266.039257 
L 207.856571 263.442028 
L 211.793714 248.470199 
L 216.912 233.224791 
L 217.56819 231.587975 
L 218.093143 230.223377 
L 219.799238 226.915227 
L 220.061714 226.479841 
L 221.111619 224.585858 
L 222.817714 222.552993 
L 223.211429 221.960963 
L 223.605143 221.616272 
L 223.867619 221.331313 
L 223.998857 221.252045 
L 224.130095 221.314584 
L 224.261333 221.111655 
L 224.392571 221.287211 
L 224.52381 221.219072 
L 224.655048 221.313308 
L 224.786286 221.191703 
L 225.048762 221.428391 
L 226.492381 222.243925 
L 226.623619 221.784827 
L 226.886095 222.028787 
L 228.460952 223.938149 
L 229.117143 224.960305 
L 229.510857 225.330345 
L 230.03581 226.193838 
L 233.448 232.253508 
L 234.366667 233.544387 
L 234.629143 233.768012 
L 234.891619 234.099836 
L 235.54781 234.81365 
L 237.647619 239.244993 
L 238.30381 240.894472 
L 238.828762 241.893045 
L 239.484952 242.862511 
L 239.747429 243.113924 
L 239.878667 243.126342 
L 240.141143 243.435177 
L 240.403619 243.667806 
L 240.666095 243.672882 
L 242.240952 244.886228 
L 242.503429 244.860103 
L 243.028381 244.91534 
L 243.422095 244.711468 
M 264.551429 309.180353 
L 265.601333 309.039488 
L 267.701143 308.392847 
L 270.588381 306.679131 
L 272.294476 305.360763 
L 273.081905 304.734479 
L 273.869333 304.086243 
L 274.656762 303.465106 
L 275.312952 302.931659 
L 276.100381 302.272092 
L 276.625333 301.866842 
L 278.987619 299.59618 
L 279.64381 298.931295 
L 282.531048 295.924846 
L 283.187238 295.267683 
L 284.105905 294.291028 
L 284.762095 293.703562 
L 287.780571 290.974859 
L 290.799048 288.965211 
L 291.192762 288.76358 
L 292.636381 287.96591 
L 293.161333 287.668061 
L 294.08 287.016051 
L 295.261143 286.428932 
L 298.279619 285.733709 
L 299.592 285.992302 
L 300.24819 286.40547 
L 301.429333 287.685692 
L 302.479238 289.265608 
L 305.235238 293.198313 
L 307.728762 295.932209 
L 308.51619 296.751613 
L 309.697333 297.892626 
L 310.222286 298.32735 
L 311.797143 299.294581 
L 312.322095 299.675304 
L 314.290667 301.222221 
L 314.553143 301.48157 
L 315.996762 302.476772 
L 317.177905 303.157756 
L 317.440381 303.368255 
L 318.359048 303.912009 
L 318.752762 304.190651 
L 319.277714 304.511444 
L 323.871048 307.18286 
L 328.989333 309.631682 
L 332.664 310.609267 
L 335.42 310.851931 
L 335.42 310.851931 
" style="fill:none;stroke:#8fb926;stroke-linecap:square;stroke-width:1.5;"/>
   </g>
   <g id="line2d_17">
    <path clip-path="url(#pca0d80a0d4)" d="M 59.82 306.28624 
L 61.001143 306.001772 
L 62.576 305.459507 
L 64.150857 304.986169 
L 66.250667 304.640377 
L 70.056571 304.248352 
L 71.237714 304.036123 
L 71.893905 303.688949 
L 72.418857 303.181647 
L 72.94381 302.31205 
L 73.468762 300.95597 
L 73.993714 298.94357 
L 74.518667 296.108263 
L 75.174857 291.31683 
L 76.880952 277.790408 
L 77.405905 275.354675 
L 77.930857 273.880721 
L 78.45581 273.010814 
L 79.636952 271.54664 
L 80.030667 271.45726 
L 80.293143 271.669074 
L 80.555619 272.097037 
L 81.080571 273.551483 
L 81.736762 276.346038 
L 83.311619 283.860731 
L 84.099048 286.17458 
L 84.755238 287.485868 
L 85.411429 288.282855 
L 86.592571 289.601703 
L 87.117524 290.674624 
L 88.692381 294.249243 
L 89.217333 294.841333 
L 89.742286 295.098148 
L 90.398476 295.403472 
L 90.79219 295.90373 
L 91.317143 297.091505 
L 92.498286 300.018599 
L 93.154476 300.880259 
L 93.810667 301.844624 
L 94.598095 303.011928 
L 94.99181 303.267308 
L 95.385524 303.282654 
L 95.910476 303.024073 
L 96.435429 302.495003 
L 96.960381 301.608832 
L 97.354095 300.325296 
L 97.616571 298.76604 
L 98.010286 294.630011 
L 98.404 287.766024 
L 98.928952 274.546331 
L 100.241333 232.970032 
L 103.128571 143.269281 
L 104.047238 122.805518 
L 104.703429 112.33297 
L 105.359619 104.99717 
L 106.01581 100.112249 
L 106.934476 94.88932 
L 107.590667 92.208332 
L 108.246857 90.446327 
L 108.77181 89.583729 
L 109.296762 89.085887 
L 109.952952 88.846185 
L 112.184 88.195524 
L 113.102667 87.982643 
L 114.808762 87.781616 
L 115.464952 87.801372 
L 116.383619 88.232264 
L 116.777333 88.463293 
L 118.745905 88.587475 
L 119.270857 88.574907 
L 120.714476 88.610947 
L 121.239429 88.614268 
L 121.633143 88.623601 
L 122.814286 88.77133 
L 126.226476 89.306597 
L 126.62019 89.444225 
L 126.882667 89.514734 
L 127.276381 89.727692 
L 127.538857 89.852234 
L 127.932571 90.232989 
L 128.195048 90.47395 
L 128.588762 91.145095 
L 129.113714 92.003905 
L 129.37619 92.899788 
L 129.901143 93.958964 
L 130.163619 94.925305 
L 131.738476 101.189966 
L 133.182095 111.435853 
L 133.57581 113.281796 
L 133.969524 113.72575 
L 134.363238 114.070998 
L 135.413143 114.472507 
L 135.806857 114.289355 
L 136.594286 113.480356 
L 137.381714 112.108547 
L 139.744 106.608191 
L 142.631238 98.688842 
L 143.024952 97.948756 
L 143.681143 96.382843 
L 144.468571 94.988316 
L 145.91219 92.945286 
L 146.437143 92.505039 
L 146.830857 92.222426 
L 148.143238 91.843388 
L 148.536952 91.95326 
L 148.930667 92.008219 
L 149.193143 92.103764 
L 151.030476 93.854428 
L 151.686667 94.930672 
L 151.949143 95.333307 
L 152.342857 95.882124 
L 152.605333 96.338861 
L 152.999048 96.944884 
L 153.524 97.740253 
L 153.786476 97.769191 
L 154.573905 99.60584 
L 155.230095 101.89282 
L 155.886286 106.368325 
L 157.461143 126.154652 
L 157.854857 132.697796 
L 158.904762 141.769425 
L 159.560952 143.711758 
L 159.954667 144.597023 
L 161.004571 145.247447 
L 161.267048 145.936114 
L 161.398286 146.001657 
L 161.792 145.830198 
L 163.89181 147.369276 
L 164.548 147.630672 
L 164.810476 147.217257 
L 164.941714 146.990878 
L 165.20419 147.16688 
L 165.335429 147.241454 
L 165.466667 147.174284 
L 165.860381 146.732069 
L 166.122857 146.72363 
L 166.516571 146.289223 
L 166.910286 146.278776 
L 167.435238 145.479396 
L 167.697714 145.518411 
L 167.96019 145.325645 
L 168.222667 145.205944 
L 168.616381 145.183299 
L 169.535048 144.403278 
L 169.797524 144.380233 
L 170.06 144.438221 
L 170.322476 144.318431 
L 170.71619 143.974092 
L 171.372381 143.711249 
L 171.766095 143.441466 
L 172.028571 143.517978 
L 172.422286 143.69856 
L 172.684762 143.623412 
L 172.947238 143.423522 
L 173.865905 143.678217 
L 174.128381 143.957155 
L 175.440762 146.171827 
L 177.409333 151.425179 
L 177.803048 152.878634 
M 197.62 298.90427 
L 198.932381 298.700626 
L 199.851048 297.871273 
L 200.507238 297.040664 
L 203.132 291.667148 
L 204.969333 286.43754 
L 209.825143 269.901718 
L 210.612571 267.113457 
L 212.449905 261.452681 
L 213.49981 258.451176 
L 215.862095 251.873251 
L 216.387048 250.339335 
L 216.912 249.011792 
L 217.830667 246.82436 
L 218.224381 245.950388 
L 218.618095 245.29459 
L 220.586667 241.639966 
L 223.998857 237.542906 
L 224.130095 237.58608 
L 224.261333 237.374513 
L 224.392571 237.504602 
L 224.52381 237.422061 
L 224.655048 237.501366 
L 224.786286 237.360498 
L 225.048762 237.516291 
L 225.967429 237.881202 
L 226.098667 237.84164 
L 226.361143 237.950948 
L 226.492381 237.930566 
L 226.623619 237.574597 
L 226.754857 237.755801 
L 226.886095 237.738269 
L 229.642095 240.331904 
L 230.298286 241.225022 
L 231.479429 243.140442 
L 231.741905 243.5421 
L 232.529333 244.705772 
L 232.79181 245.155888 
L 233.185524 245.796385 
L 234.10419 247.178595 
L 236.072762 249.970432 
L 237.385143 253.087502 
L 237.647619 253.634792 
L 238.30381 255.322791 
L 238.96 256.601498 
L 240.141143 258.124433 
L 240.403619 258.388336 
L 240.666095 258.441629 
L 242.109714 259.628196 
L 242.37219 259.67333 
L 243.290857 259.64993 
L 243.422095 259.615218 
M 264.551429 309.762466 
L 266.257524 309.809988 
L 268.751048 309.533422 
L 271.113333 308.850818 
L 275.969143 306.613008 
L 280.562476 303.528159 
L 285.15581 299.893182 
L 285.549524 299.593551 
L 286.205714 299.057102 
L 287.649333 298.030381 
L 288.305524 297.645174 
L 290.799048 296.257992 
L 291.324 296.021186 
L 293.161333 295.2184 
L 294.08 294.712035 
L 295.261143 294.290348 
L 298.148381 293.864766 
L 299.723238 294.151434 
L 300.904381 294.838589 
L 301.69181 295.577438 
L 305.891429 299.817802 
L 308.122476 301.681196 
L 311.534667 303.911203 
L 312.322095 304.348976 
L 316.259238 306.591322 
L 318.359048 307.543674 
L 318.752762 307.737559 
L 319.54019 308.049324 
L 319.933905 308.239539 
L 321.115048 308.699297 
L 321.771238 308.963775 
L 323.608571 309.54928 
L 324.396 309.811152 
L 330.432952 311.121115 
L 333.845143 311.351581 
L 335.42 311.350561 
L 335.42 311.350561 
" style="fill:none;stroke:#67a612;stroke-linecap:square;stroke-width:1.5;"/>
   </g>
   <g id="line2d_18">
    <path clip-path="url(#pca0d80a0d4)" d="M 59.82 306.28624 
L 61.001143 306.001772 
L 62.576 305.459507 
L 64.150857 304.98617 
L 66.250667 304.640378 
L 70.056571 304.248354 
L 71.237714 304.036126 
L 71.893905 303.688955 
L 72.418857 303.181657 
L 72.94381 302.312066 
L 73.468762 300.955997 
L 73.993714 298.943616 
L 74.518667 296.108338 
L 75.174857 291.316963 
L 76.880952 277.79072 
L 77.405905 275.355043 
L 77.930857 273.881131 
L 78.45581 273.011259 
L 79.636952 271.547201 
L 80.030667 271.457852 
L 80.293143 271.669676 
L 80.555619 272.09764 
L 81.080571 273.552078 
L 81.736762 276.3466 
L 83.311619 283.861234 
L 84.099048 286.175117 
L 84.755238 287.486471 
L 85.411429 288.283548 
L 86.592571 289.602656 
L 87.117524 290.675584 
L 88.692381 294.250011 
L 89.217333 294.842077 
L 89.742286 295.098889 
L 90.398476 295.404211 
L 90.79219 295.904442 
L 91.317143 297.092146 
L 92.498286 300.019048 
L 93.154476 300.880656 
L 93.810667 301.844965 
L 94.598095 303.012166 
L 94.99181 303.267505 
L 95.385524 303.282829 
L 95.910476 303.024241 
L 96.435429 302.49519 
L 96.960381 301.609097 
L 97.354095 300.32572 
L 97.616571 298.766664 
L 98.010286 294.631171 
L 98.404 287.768167 
L 98.928952 274.550854 
L 100.241333 232.989111 
L 103.128571 143.457947 
L 104.047238 123.150221 
L 104.703429 112.77537 
L 105.359619 105.493739 
L 106.01581 100.641052 
L 106.934476 95.452677 
L 107.590667 92.788222 
L 108.246857 91.032674 
L 108.77181 90.171455 
L 109.296762 89.667622 
L 109.952952 89.414236 
L 111.265333 88.970714 
L 112.84019 88.507913 
L 114.28381 88.306566 
L 115.333714 88.333753 
L 115.59619 88.418175 
L 116.252381 88.878659 
L 116.514857 89.08216 
L 116.777333 89.248283 
L 118.745905 89.485091 
L 119.139619 89.485323 
L 120.845714 89.608824 
L 121.370667 89.589941 
L 122.289333 89.749212 
L 127.013905 91.152697 
L 127.670095 91.716485 
L 128.326286 92.690594 
L 129.113714 94.253322 
L 129.37619 95.390691 
L 129.901143 96.740489 
L 130.163619 97.960616 
L 131.738476 105.777849 
L 133.182095 118.229427 
L 133.57581 120.442822 
L 133.838286 120.749213 
L 134.232 121.313952 
L 135.281905 121.937025 
L 135.675619 121.814105 
L 136.33181 121.134714 
L 136.856762 120.271192 
L 137.775429 118.265499 
L 139.350286 113.921619 
L 143.287429 101.292717 
L 144.337333 98.675618 
L 144.731048 97.907908 
L 145.256 96.92023 
L 145.91219 95.952849 
L 146.305905 95.598552 
L 146.699619 95.136116 
L 147.880762 94.683897 
L 148.274476 94.645354 
L 149.193143 94.982856 
L 151.030476 97.218112 
L 151.686667 98.568368 
L 151.949143 99.069181 
L 152.342857 99.751679 
L 152.605333 100.321794 
L 152.999048 101.078021 
L 153.524 102.068422 
L 153.655238 102.02797 
L 153.786476 102.108349 
L 154.573905 104.382839 
L 155.230095 107.191561 
L 155.886286 112.625868 
L 156.542476 120.49733 
L 156.804952 124.555583 
L 157.329905 133.859904 
L 158.37981 148.622058 
L 158.904762 153.572566 
L 159.560952 155.729762 
L 159.954667 156.713052 
L 161.004571 157.440838 
L 161.267048 158.202606 
L 161.398286 158.276274 
L 161.792 158.092273 
L 163.760571 159.695882 
L 164.416762 160.101189 
L 164.548 160.096966 
L 164.810476 159.645615 
L 164.941714 159.398423 
L 165.072952 159.436967 
L 165.335429 159.67228 
L 165.466667 159.596674 
L 165.860381 159.1015 
L 166.122857 159.084015 
L 166.516571 158.585159 
L 166.779048 158.644482 
L 166.910286 158.546966 
L 167.435238 157.622762 
L 167.697714 157.644983 
L 167.96019 157.404975 
L 168.222667 157.245484 
L 168.616381 157.178591 
L 169.535048 156.195845 
L 169.797524 156.136455 
L 170.06 156.166128 
L 170.322476 155.995365 
L 170.71619 155.555929 
L 171.372381 155.164904 
L 171.766095 154.806283 
L 172.028571 154.85214 
L 172.422286 154.997349 
L 172.684762 154.874275 
L 172.947238 154.614083 
L 173.865905 154.77435 
L 174.128381 155.05383 
L 175.440762 157.400432 
L 177.278095 162.572315 
L 177.803048 164.751077 
M 197.62 302.998026 
L 199.194857 302.764163 
L 199.71981 302.444996 
L 201.425905 300.480491 
L 202.082095 299.51044 
L 202.607048 298.670031 
L 203.263238 297.362276 
L 203.656952 296.557712 
L 206.412952 289.581722 
L 211.793714 273.563126 
L 213.762286 268.299004 
L 215.074667 264.811555 
L 216.124571 262.238334 
L 217.305714 259.358084 
L 218.486857 256.998368 
L 218.880571 256.36087 
L 219.274286 255.648487 
L 220.192952 254.173931 
L 220.849143 253.005896 
L 220.980381 252.926036 
L 221.374095 252.381533 
L 221.505333 252.35376 
L 221.899048 251.770081 
L 222.030286 251.711372 
L 222.424 251.245492 
L 222.555238 251.209476 
L 223.211429 250.290532 
L 223.342667 250.195753 
L 223.605143 249.913267 
L 223.867619 249.612104 
L 224.261333 249.318535 
L 224.392571 249.420444 
L 224.52381 249.333023 
L 224.655048 249.402326 
L 224.786286 249.255707 
L 225.048762 249.363612 
L 225.704952 249.563556 
L 225.83619 249.474856 
L 225.967429 249.582319 
L 226.098667 249.515102 
L 226.361143 249.567704 
L 226.492381 249.548452 
L 226.623619 249.259678 
L 226.754857 249.411234 
L 226.886095 249.375622 
L 227.542286 249.78935 
L 227.673524 249.793127 
L 228.067238 250.17575 
L 228.723429 250.596109 
L 228.854667 250.813891 
L 228.985905 250.807994 
L 229.248381 251.027611 
L 230.167048 251.898038 
L 232.004381 254.555838 
L 232.660571 255.348445 
L 233.054286 256.093697 
L 233.448 256.648503 
L 235.022857 258.815145 
L 235.154095 258.89629 
L 235.941524 260.30473 
L 236.072762 260.460294 
L 237.385143 263.480815 
L 237.647619 264.00596 
L 238.30381 265.64498 
L 238.96 266.889223 
L 240.272381 268.604775 
L 240.534857 268.726031 
L 241.05981 269.088685 
L 241.978476 269.916524 
L 243.028381 270.099534 
L 243.422095 269.97808 
M 264.551429 309.879985 
L 266.782476 310.049565 
L 269.276 309.993956 
L 272.425714 309.502807 
L 276.625333 308.301611 
L 278.593905 307.467328 
L 285.680762 303.412799 
L 288.043048 302.097803 
L 291.848952 300.445864 
L 293.161333 299.997459 
L 294.08 299.602159 
L 295.261143 299.29159 
L 298.148381 299.027898 
L 300.116952 299.406754 
L 301.035619 299.856173 
L 302.085524 300.635612 
L 306.547619 303.875516 
L 307.991238 304.830354 
L 309.303619 305.610774 
L 310.484762 306.219535 
L 311.928381 306.816148 
L 312.322095 307.01708 
L 315.603048 308.434072 
L 317.702857 309.136105 
L 318.22781 309.314134 
L 325.314667 310.914975 
L 330.301714 311.419479 
L 332.795238 311.50497 
L 335.42 311.469663 
L 335.42 311.469663 
" style="fill:none;stroke:#477706;stroke-linecap:square;stroke-width:1.5;"/>
   </g>
   <g id="patch_3">
    <path d="M 46.04 316.12 
L 46.04 28.08 
" style="fill:none;stroke:#000000;stroke-linecap:square;stroke-linejoin:miter;stroke-width:0.8;"/>
   </g>
   <g id="patch_4">
    <path d="M 349.2 316.12 
L 349.2 28.08 
" style="fill:none;stroke:#000000;stroke-linecap:square;stroke-linejoin:miter;stroke-width:0.8;"/>
   </g>
   <g id="patch_5">
    <path d="M 46.04 316.12 
L 349.2 316.12 
" style="fill:none;stroke:#000000;stroke-linecap:square;stroke-linejoin:miter;stroke-width:0.8;"/>
   </g>
   <g id="patch_6">
    <path d="M 46.04 28.08 
L 349.2 28.08 
" style="fill:none;stroke:#000000;stroke-linecap:square;stroke-linejoin:miter;stroke-width:0.8;"/>
   </g>
   <g id="text_16">
    <!-- Leaf Water Thickness -->
    <g transform="translate(117.715703 22.08)scale(0.15 -0.15)">
     <defs>
      <path d="M 9.8125 72.90625 
L 19.671875 72.90625 
L 19.671875 8.296875 
L 55.171875 8.296875 
L 55.171875 0 
L 9.8125 0 
z
" id="DejaVuSans-76"/>
      <path d="M 41.109375 46.296875 
Q 39.59375 47.171875 37.8125 47.578125 
Q 36.03125 48 33.890625 48 
Q 26.265625 48 22.1875 43.046875 
Q 18.109375 38.09375 18.109375 28.8125 
L 18.109375 0 
L 9.078125 0 
L 9.078125 54.6875 
L 18.109375 54.6875 
L 18.109375 46.1875 
Q 20.953125 51.171875 25.484375 53.578125 
Q 30.03125 56 36.53125 56 
Q 37.453125 56 38.578125 55.875 
Q 39.703125 55.765625 41.0625 55.515625 
z
" id="DejaVuSans-114"/>
      <path d="M -0.296875 72.90625 
L 61.375 72.90625 
L 61.375 64.59375 
L 35.5 64.59375 
L 35.5 0 
L 25.59375 0 
L 25.59375 64.59375 
L -0.296875 64.59375 
z
" id="DejaVuSans-84"/>
      <path d="M 9.421875 54.6875 
L 18.40625 54.6875 
L 18.40625 0 
L 9.421875 0 
z
M 9.421875 75.984375 
L 18.40625 75.984375 
L 18.40625 64.59375 
L 9.421875 64.59375 
z
" id="DejaVuSans-105"/>
      <path d="M 9.078125 75.984375 
L 18.109375 75.984375 
L 18.109375 31.109375 
L 44.921875 54.6875 
L 56.390625 54.6875 
L 27.390625 29.109375 
L 57.625 0 
L 45.90625 0 
L 18.109375 26.703125 
L 18.109375 0 
L 9.078125 0 
z
" id="DejaVuSans-107"/>
      <path d="M 44.28125 53.078125 
L 44.28125 44.578125 
Q 40.484375 46.53125 36.375 47.5 
Q 32.28125 48.484375 27.875 48.484375 
Q 21.1875 48.484375 17.84375 46.4375 
Q 14.5 44.390625 14.5 40.28125 
Q 14.5 37.15625 16.890625 35.375 
Q 19.28125 33.59375 26.515625 31.984375 
L 29.59375 31.296875 
Q 39.15625 29.25 43.1875 25.515625 
Q 47.21875 21.78125 47.21875 15.09375 
Q 47.21875 7.46875 41.1875 3.015625 
Q 35.15625 -1.421875 24.609375 -1.421875 
Q 20.21875 -1.421875 15.453125 -0.5625 
Q 10.6875 0.296875 5.421875 2 
L 5.421875 11.28125 
Q 10.40625 8.6875 15.234375 7.390625 
Q 20.0625 6.109375 24.8125 6.109375 
Q 31.15625 6.109375 34.5625 8.28125 
Q 37.984375 10.453125 37.984375 14.40625 
Q 37.984375 18.0625 35.515625 20.015625 
Q 33.0625 21.96875 24.703125 23.78125 
L 21.578125 24.515625 
Q 13.234375 26.265625 9.515625 29.90625 
Q 5.8125 33.546875 5.8125 39.890625 
Q 5.8125 47.609375 11.28125 51.796875 
Q 16.75 56 26.8125 56 
Q 31.78125 56 36.171875 55.265625 
Q 40.578125 54.546875 44.28125 53.078125 
z
" id="DejaVuSans-115"/>
     </defs>
     <use xlink:href="#DejaVuSans-76"/>
     <use x="53.962891" xlink:href="#DejaVuSans-101"/>
     <use x="115.486328" xlink:href="#DejaVuSans-97"/>
     <use x="176.765625" xlink:href="#DejaVuSans-102"/>
     <use x="211.970703" xlink:href="#DejaVuSans-32"/>
     <use x="243.757812" xlink:href="#DejaVuSans-87"/>
     <use x="336.259766" xlink:href="#DejaVuSans-97"/>
     <use x="397.539062" xlink:href="#DejaVuSans-116"/>
     <use x="436.748047" xlink:href="#DejaVuSans-101"/>
     <use x="498.271484" xlink:href="#DejaVuSans-114"/>
     <use x="539.384766" xlink:href="#DejaVuSans-32"/>
     <use x="571.171875" xlink:href="#DejaVuSans-84"/>
     <use x="632.255859" xlink:href="#DejaVuSans-104"/>
     <use x="695.634766" xlink:href="#DejaVuSans-105"/>
     <use x="723.417969" xlink:href="#DejaVuSans-99"/>
     <use x="778.398438" xlink:href="#DejaVuSans-107"/>
     <use x="836.308594" xlink:href="#DejaVuSans-110"/>
     <use x="899.6875" xlink:href="#DejaVuSans-101"/>
     <use x="961.210938" xlink:href="#DejaVuSans-115"/>
     <use x="1013.310547" xlink:href="#DejaVuSans-115"/>
    </g>
   </g>
   <g id="legend_1">
    <g id="patch_7">
     <path d="M 265.2 109.470625 
L 342.2 109.470625 
Q 344.2 109.470625 344.2 107.470625 
L 344.2 35.08 
Q 344.2 33.08 342.2 33.08 
L 265.2 33.08 
Q 263.2 33.08 263.2 35.08 
L 263.2 107.470625 
Q 263.2 109.470625 265.2 109.470625 
z
" style="fill:#ffffff;opacity:0.8;stroke:#cccccc;stroke-linejoin:miter;"/>
    </g>
    <g id="line2d_19">
     <path d="M 267.2 41.178437 
L 287.2 41.178437 
" style="fill:none;stroke:#bfce68;stroke-linecap:square;stroke-width:1.5;"/>
    </g>
    <g id="line2d_20"/>
    <g id="text_17">
     <!-- 0.05 $mm$ -->
     <g transform="translate(295.2 44.678437)scale(0.1 -0.1)">
      <use transform="translate(0 0.78125)" xlink:href="#DejaVuSans-48"/>
      <use transform="translate(63.623047 0.78125)" xlink:href="#DejaVuSans-46"/>
      <use transform="translate(95.410156 0.78125)" xlink:href="#DejaVuSans-48"/>
      <use transform="translate(159.033203 0.78125)" xlink:href="#DejaVuSans-53"/>
      <use transform="translate(222.65625 0.78125)" xlink:href="#DejaVuSans-32"/>
      <use transform="translate(254.443359 0.78125)" xlink:href="#DejaVuSans-Oblique-109"/>
      <use transform="translate(351.855469 0.78125)" xlink:href="#DejaVuSans-Oblique-109"/>
     </g>
    </g>
    <g id="line2d_21">
     <path d="M 267.2 55.856562 
L 287.2 55.856562 
" style="fill:none;stroke:#aac03b;stroke-linecap:square;stroke-width:1.5;"/>
    </g>
    <g id="line2d_22"/>
    <g id="text_18">
     <!-- 0.16 $mm$ -->
     <g transform="translate(295.2 59.356562)scale(0.1 -0.1)">
      <use transform="translate(0 0.78125)" xlink:href="#DejaVuSans-48"/>
      <use transform="translate(63.623047 0.78125)" xlink:href="#DejaVuSans-46"/>
      <use transform="translate(95.410156 0.78125)" xlink:href="#DejaVuSans-49"/>
      <use transform="translate(159.033203 0.78125)" xlink:href="#DejaVuSans-54"/>
      <use transform="translate(222.65625 0.78125)" xlink:href="#DejaVuSans-32"/>
      <use transform="translate(254.443359 0.78125)" xlink:href="#DejaVuSans-Oblique-109"/>
      <use transform="translate(351.855469 0.78125)" xlink:href="#DejaVuSans-Oblique-109"/>
     </g>
    </g>
    <g id="line2d_23">
     <path d="M 267.2 70.534687 
L 287.2 70.534687 
" style="fill:none;stroke:#8fb926;stroke-linecap:square;stroke-width:1.5;"/>
    </g>
    <g id="line2d_24"/>
    <g id="text_19">
     <!-- 0.28 $mm$ -->
     <g transform="translate(295.2 74.034687)scale(0.1 -0.1)">
      <defs>
       <path d="M 31.78125 34.625 
Q 24.75 34.625 20.71875 30.859375 
Q 16.703125 27.09375 16.703125 20.515625 
Q 16.703125 13.921875 20.71875 10.15625 
Q 24.75 6.390625 31.78125 6.390625 
Q 38.8125 6.390625 42.859375 10.171875 
Q 46.921875 13.96875 46.921875 20.515625 
Q 46.921875 27.09375 42.890625 30.859375 
Q 38.875 34.625 31.78125 34.625 
z
M 21.921875 38.8125 
Q 15.578125 40.375 12.03125 44.71875 
Q 8.5 49.078125 8.5 55.328125 
Q 8.5 64.0625 14.71875 69.140625 
Q 20.953125 74.21875 31.78125 74.21875 
Q 42.671875 74.21875 48.875 69.140625 
Q 55.078125 64.0625 55.078125 55.328125 
Q 55.078125 49.078125 51.53125 44.71875 
Q 48 40.375 41.703125 38.8125 
Q 48.828125 37.15625 52.796875 32.3125 
Q 56.78125 27.484375 56.78125 20.515625 
Q 56.78125 9.90625 50.3125 4.234375 
Q 43.84375 -1.421875 31.78125 -1.421875 
Q 19.734375 -1.421875 13.25 4.234375 
Q 6.78125 9.90625 6.78125 20.515625 
Q 6.78125 27.484375 10.78125 32.3125 
Q 14.796875 37.15625 21.921875 38.8125 
z
M 18.3125 54.390625 
Q 18.3125 48.734375 21.84375 45.5625 
Q 25.390625 42.390625 31.78125 42.390625 
Q 38.140625 42.390625 41.71875 45.5625 
Q 45.3125 48.734375 45.3125 54.390625 
Q 45.3125 60.0625 41.71875 63.234375 
Q 38.140625 66.40625 31.78125 66.40625 
Q 25.390625 66.40625 21.84375 63.234375 
Q 18.3125 60.0625 18.3125 54.390625 
z
" id="DejaVuSans-56"/>
      </defs>
      <use transform="translate(0 0.78125)" xlink:href="#DejaVuSans-48"/>
      <use transform="translate(63.623047 0.78125)" xlink:href="#DejaVuSans-46"/>
      <use transform="translate(89.910156 0.78125)" xlink:href="#DejaVuSans-50"/>
      <use transform="translate(153.533203 0.78125)" xlink:href="#DejaVuSans-56"/>
      <use transform="translate(217.15625 0.78125)" xlink:href="#DejaVuSans-32"/>
      <use transform="translate(248.943359 0.78125)" xlink:href="#DejaVuSans-Oblique-109"/>
      <use transform="translate(346.355469 0.78125)" xlink:href="#DejaVuSans-Oblique-109"/>
     </g>
    </g>
    <g id="line2d_25">
     <path d="M 267.2 85.212812 
L 287.2 85.212812 
" style="fill:none;stroke:#67a612;stroke-linecap:square;stroke-width:1.5;"/>
    </g>
    <g id="line2d_26"/>
    <g id="text_20">
     <!-- 0.39 $mm$ -->
     <g transform="translate(295.2 88.712812)scale(0.1 -0.1)">
      <defs>
       <path d="M 10.984375 1.515625 
L 10.984375 10.5 
Q 14.703125 8.734375 18.5 7.8125 
Q 22.3125 6.890625 25.984375 6.890625 
Q 35.75 6.890625 40.890625 13.453125 
Q 46.046875 20.015625 46.78125 33.40625 
Q 43.953125 29.203125 39.59375 26.953125 
Q 35.25 24.703125 29.984375 24.703125 
Q 19.046875 24.703125 12.671875 31.3125 
Q 6.296875 37.9375 6.296875 49.421875 
Q 6.296875 60.640625 12.9375 67.421875 
Q 19.578125 74.21875 30.609375 74.21875 
Q 43.265625 74.21875 49.921875 64.515625 
Q 56.59375 54.828125 56.59375 36.375 
Q 56.59375 19.140625 48.40625 8.859375 
Q 40.234375 -1.421875 26.421875 -1.421875 
Q 22.703125 -1.421875 18.890625 -0.6875 
Q 15.09375 0.046875 10.984375 1.515625 
z
M 30.609375 32.421875 
Q 37.25 32.421875 41.125 36.953125 
Q 45.015625 41.5 45.015625 49.421875 
Q 45.015625 57.28125 41.125 61.84375 
Q 37.25 66.40625 30.609375 66.40625 
Q 23.96875 66.40625 20.09375 61.84375 
Q 16.21875 57.28125 16.21875 49.421875 
Q 16.21875 41.5 20.09375 36.953125 
Q 23.96875 32.421875 30.609375 32.421875 
z
" id="DejaVuSans-57"/>
      </defs>
      <use transform="translate(0 0.78125)" xlink:href="#DejaVuSans-48"/>
      <use transform="translate(63.623047 0.78125)" xlink:href="#DejaVuSans-46"/>
      <use transform="translate(95.410156 0.78125)" xlink:href="#DejaVuSans-51"/>
      <use transform="translate(159.033203 0.78125)" xlink:href="#DejaVuSans-57"/>
      <use transform="translate(222.65625 0.78125)" xlink:href="#DejaVuSans-32"/>
      <use transform="translate(254.443359 0.78125)" xlink:href="#DejaVuSans-Oblique-109"/>
      <use transform="translate(351.855469 0.78125)" xlink:href="#DejaVuSans-Oblique-109"/>
     </g>
    </g>
    <g id="line2d_27">
     <path d="M 267.2 99.890937 
L 287.2 99.890937 
" style="fill:none;stroke:#477706;stroke-linecap:square;stroke-width:1.5;"/>
    </g>
    <g id="line2d_28"/>
    <g id="text_21">
     <!-- 0.50 $mm$ -->
     <g transform="translate(295.2 103.390937)scale(0.1 -0.1)">
      <use transform="translate(0 0.78125)" xlink:href="#DejaVuSans-48"/>
      <use transform="translate(63.623047 0.78125)" xlink:href="#DejaVuSans-46"/>
      <use transform="translate(95.410156 0.78125)" xlink:href="#DejaVuSans-53"/>
      <use transform="translate(159.033203 0.78125)" xlink:href="#DejaVuSans-48"/>
      <use transform="translate(222.65625 0.78125)" xlink:href="#DejaVuSans-32"/>
      <use transform="translate(254.443359 0.78125)" xlink:href="#DejaVuSans-Oblique-109"/>
      <use transform="translate(351.855469 0.78125)" xlink:href="#DejaVuSans-Oblique-109"/>
     </g>
    </g>
   </g>
  </g>
 </g>
 <defs>
  <clipPath id="pca0d80a0d4">
   <rect height="288.04" width="303.16" x="46.04" y="28.08"/>
  </clipPath>
 </defs>
</svg>
