<?xml version="1.0" encoding="utf-8" standalone="no"?>
<!DOCTYPE svg PUBLIC "-//W3C//DTD SVG 1.1//EN"
  "http://www.w3.org/Graphics/SVG/1.1/DTD/svg11.dtd">
<!-- Created with matplotlib (https://matplotlib.org/) -->
<svg height="360pt" version="1.1" viewBox="0 0 360 360" width="360pt" xmlns="http://www.w3.org/2000/svg" xmlns:xlink="http://www.w3.org/1999/xlink">
 <metadata>
  <rdf:RDF xmlns:cc="http://creativecommons.org/ns#" xmlns:dc="http://purl.org/dc/elements/1.1/" xmlns:rdf="http://www.w3.org/1999/02/22-rdf-syntax-ns#">
   <cc:Work>
    <dc:type rdf:resource="http://purl.org/dc/dcmitype/StillImage"/>
    <dc:date>2020-10-26T17:03:38.804705</dc:date>
    <dc:format>image/svg+xml</dc:format>
    <dc:creator>
     <cc:Agent>
      <dc:title>Matplotlib v3.3.2, https://matplotlib.org/</dc:title>
     </cc:Agent>
    </dc:creator>
   </cc:Work>
  </rdf:RDF>
 </metadata>
 <defs>
  <style type="text/css">*{stroke-linecap:butt;stroke-linejoin:round;}</style>
 </defs>
 <g id="figure_1">
  <g id="patch_1">
   <path d="M 0 360 
L 360 360 
L 360 0 
L 0 0 
z
" style="fill:#ffffff;"/>
  </g>
  <g id="axes_1">
   <g id="patch_2">
    <path d="M 30.52 332.6 
L 349.2 332.6 
L 349.2 28.08 
L 30.52 28.08 
z
" style="fill:#ffffff;"/>
   </g>
   <g id="matplotlib.axis_1">
    <g id="xtick_1">
     <g id="line2d_1">
      <defs>
       <path d="M 0 0 
L 0 3.5 
" id="m56888c6518" style="stroke:#000000;stroke-width:0.8;"/>
      </defs>
      <g>
       <use style="stroke:#000000;stroke-width:0.8;" x="58.801126" xlink:href="#m56888c6518" y="332.6"/>
      </g>
     </g>
     <g id="text_1">
      <!-- 0.5 -->
      <g transform="translate(50.849563 347.198438)scale(0.1 -0.1)">
       <defs>
        <path d="M 31.78125 66.40625 
Q 24.171875 66.40625 20.328125 58.90625 
Q 16.5 51.421875 16.5 36.375 
Q 16.5 21.390625 20.328125 13.890625 
Q 24.171875 6.390625 31.78125 6.390625 
Q 39.453125 6.390625 43.28125 13.890625 
Q 47.125 21.390625 47.125 36.375 
Q 47.125 51.421875 43.28125 58.90625 
Q 39.453125 66.40625 31.78125 66.40625 
z
M 31.78125 74.21875 
Q 44.046875 74.21875 50.515625 64.515625 
Q 56.984375 54.828125 56.984375 36.375 
Q 56.984375 17.96875 50.515625 8.265625 
Q 44.046875 -1.421875 31.78125 -1.421875 
Q 19.53125 -1.421875 13.0625 8.265625 
Q 6.59375 17.96875 6.59375 36.375 
Q 6.59375 54.828125 13.0625 64.515625 
Q 19.53125 74.21875 31.78125 74.21875 
z
" id="DejaVuSans-48"/>
        <path d="M 10.6875 12.40625 
L 21 12.40625 
L 21 0 
L 10.6875 0 
z
" id="DejaVuSans-46"/>
        <path d="M 10.796875 72.90625 
L 49.515625 72.90625 
L 49.515625 64.59375 
L 19.828125 64.59375 
L 19.828125 46.734375 
Q 21.96875 47.46875 24.109375 47.828125 
Q 26.265625 48.1875 28.421875 48.1875 
Q 40.625 48.1875 47.75 41.5 
Q 54.890625 34.8125 54.890625 23.390625 
Q 54.890625 11.625 47.5625 5.09375 
Q 40.234375 -1.421875 26.90625 -1.421875 
Q 22.3125 -1.421875 17.546875 -0.640625 
Q 12.796875 0.140625 7.71875 1.703125 
L 7.71875 11.625 
Q 12.109375 9.234375 16.796875 8.0625 
Q 21.484375 6.890625 26.703125 6.890625 
Q 35.15625 6.890625 40.078125 11.328125 
Q 45.015625 15.765625 45.015625 23.390625 
Q 45.015625 31 40.078125 35.4375 
Q 35.15625 39.890625 26.703125 39.890625 
Q 22.75 39.890625 18.8125 39.015625 
Q 14.890625 38.140625 10.796875 36.28125 
z
" id="DejaVuSans-53"/>
       </defs>
       <use xlink:href="#DejaVuSans-48"/>
       <use x="63.623047" xlink:href="#DejaVuSans-46"/>
       <use x="95.410156" xlink:href="#DejaVuSans-53"/>
      </g>
     </g>
    </g>
    <g id="xtick_2">
     <g id="line2d_2">
      <g>
       <use style="stroke:#000000;stroke-width:0.8;" x="127.779481" xlink:href="#m56888c6518" y="332.6"/>
      </g>
     </g>
     <g id="text_2">
      <!-- 1.0 -->
      <g transform="translate(119.827918 347.198438)scale(0.1 -0.1)">
       <defs>
        <path d="M 12.40625 8.296875 
L 28.515625 8.296875 
L 28.515625 63.921875 
L 10.984375 60.40625 
L 10.984375 69.390625 
L 28.421875 72.90625 
L 38.28125 72.90625 
L 38.28125 8.296875 
L 54.390625 8.296875 
L 54.390625 0 
L 12.40625 0 
z
" id="DejaVuSans-49"/>
       </defs>
       <use xlink:href="#DejaVuSans-49"/>
       <use x="63.623047" xlink:href="#DejaVuSans-46"/>
       <use x="95.410156" xlink:href="#DejaVuSans-48"/>
      </g>
     </g>
    </g>
    <g id="xtick_3">
     <g id="line2d_3">
      <g>
       <use style="stroke:#000000;stroke-width:0.8;" x="196.757835" xlink:href="#m56888c6518" y="332.6"/>
      </g>
     </g>
     <g id="text_3">
      <!-- 1.5 -->
      <g transform="translate(188.806273 347.198438)scale(0.1 -0.1)">
       <use xlink:href="#DejaVuSans-49"/>
       <use x="63.623047" xlink:href="#DejaVuSans-46"/>
       <use x="95.410156" xlink:href="#DejaVuSans-53"/>
      </g>
     </g>
    </g>
    <g id="xtick_4">
     <g id="line2d_4">
      <g>
       <use style="stroke:#000000;stroke-width:0.8;" x="265.73619" xlink:href="#m56888c6518" y="332.6"/>
      </g>
     </g>
     <g id="text_4">
      <!-- 2.0 -->
      <g transform="translate(257.784628 347.198438)scale(0.1 -0.1)">
       <defs>
        <path d="M 19.1875 8.296875 
L 53.609375 8.296875 
L 53.609375 0 
L 7.328125 0 
L 7.328125 8.296875 
Q 12.9375 14.109375 22.625 23.890625 
Q 32.328125 33.6875 34.8125 36.53125 
Q 39.546875 41.84375 41.421875 45.53125 
Q 43.3125 49.21875 43.3125 52.78125 
Q 43.3125 58.59375 39.234375 62.25 
Q 35.15625 65.921875 28.609375 65.921875 
Q 23.96875 65.921875 18.8125 64.3125 
Q 13.671875 62.703125 7.8125 59.421875 
L 7.8125 69.390625 
Q 13.765625 71.78125 18.9375 73 
Q 24.125 74.21875 28.421875 74.21875 
Q 39.75 74.21875 46.484375 68.546875 
Q 53.21875 62.890625 53.21875 53.421875 
Q 53.21875 48.921875 51.53125 44.890625 
Q 49.859375 40.875 45.40625 35.40625 
Q 44.1875 33.984375 37.640625 27.21875 
Q 31.109375 20.453125 19.1875 8.296875 
z
" id="DejaVuSans-50"/>
       </defs>
       <use xlink:href="#DejaVuSans-50"/>
       <use x="63.623047" xlink:href="#DejaVuSans-46"/>
       <use x="95.410156" xlink:href="#DejaVuSans-48"/>
      </g>
     </g>
    </g>
    <g id="xtick_5">
     <g id="line2d_5">
      <g>
       <use style="stroke:#000000;stroke-width:0.8;" x="334.714545" xlink:href="#m56888c6518" y="332.6"/>
      </g>
     </g>
     <g id="text_5">
      <!-- 2.5 -->
      <g transform="translate(326.762983 347.198438)scale(0.1 -0.1)">
       <use xlink:href="#DejaVuSans-50"/>
       <use x="63.623047" xlink:href="#DejaVuSans-46"/>
       <use x="95.410156" xlink:href="#DejaVuSans-53"/>
      </g>
     </g>
    </g>
   </g>
   <g id="matplotlib.axis_2">
    <g id="ytick_1">
     <g id="line2d_6">
      <defs>
       <path d="M 0 0 
L -3.5 0 
" id="m5867417a1e" style="stroke:#000000;stroke-width:0.8;"/>
      </defs>
      <g>
       <use style="stroke:#000000;stroke-width:0.8;" x="30.52" xlink:href="#m5867417a1e" y="332.6"/>
      </g>
     </g>
     <g id="text_6">
      <!-- 0 -->
      <g transform="translate(17.1575 336.399219)scale(0.1 -0.1)">
       <use xlink:href="#DejaVuSans-48"/>
      </g>
     </g>
    </g>
    <g id="ytick_2">
     <g id="line2d_7">
      <g>
       <use style="stroke:#000000;stroke-width:0.8;" x="30.52" xlink:href="#m5867417a1e" y="289.097143"/>
      </g>
     </g>
     <g id="text_7">
      <!-- 10 -->
      <g transform="translate(10.795 292.896362)scale(0.1 -0.1)">
       <use xlink:href="#DejaVuSans-49"/>
       <use x="63.623047" xlink:href="#DejaVuSans-48"/>
      </g>
     </g>
    </g>
    <g id="ytick_3">
     <g id="line2d_8">
      <g>
       <use style="stroke:#000000;stroke-width:0.8;" x="30.52" xlink:href="#m5867417a1e" y="245.594286"/>
      </g>
     </g>
     <g id="text_8">
      <!-- 20 -->
      <g transform="translate(10.795 249.393504)scale(0.1 -0.1)">
       <use xlink:href="#DejaVuSans-50"/>
       <use x="63.623047" xlink:href="#DejaVuSans-48"/>
      </g>
     </g>
    </g>
    <g id="ytick_4">
     <g id="line2d_9">
      <g>
       <use style="stroke:#000000;stroke-width:0.8;" x="30.52" xlink:href="#m5867417a1e" y="202.091429"/>
      </g>
     </g>
     <g id="text_9">
      <!-- 30 -->
      <g transform="translate(10.795 205.890647)scale(0.1 -0.1)">
       <defs>
        <path d="M 40.578125 39.3125 
Q 47.65625 37.796875 51.625 33 
Q 55.609375 28.21875 55.609375 21.1875 
Q 55.609375 10.40625 48.1875 4.484375 
Q 40.765625 -1.421875 27.09375 -1.421875 
Q 22.515625 -1.421875 17.65625 -0.515625 
Q 12.796875 0.390625 7.625 2.203125 
L 7.625 11.71875 
Q 11.71875 9.328125 16.59375 8.109375 
Q 21.484375 6.890625 26.8125 6.890625 
Q 36.078125 6.890625 40.9375 10.546875 
Q 45.796875 14.203125 45.796875 21.1875 
Q 45.796875 27.640625 41.28125 31.265625 
Q 36.765625 34.90625 28.71875 34.90625 
L 20.21875 34.90625 
L 20.21875 43.015625 
L 29.109375 43.015625 
Q 36.375 43.015625 40.234375 45.921875 
Q 44.09375 48.828125 44.09375 54.296875 
Q 44.09375 59.90625 40.109375 62.90625 
Q 36.140625 65.921875 28.71875 65.921875 
Q 24.65625 65.921875 20.015625 65.03125 
Q 15.375 64.15625 9.8125 62.3125 
L 9.8125 71.09375 
Q 15.4375 72.65625 20.34375 73.4375 
Q 25.25 74.21875 29.59375 74.21875 
Q 40.828125 74.21875 47.359375 69.109375 
Q 53.90625 64.015625 53.90625 55.328125 
Q 53.90625 49.265625 50.4375 45.09375 
Q 46.96875 40.921875 40.578125 39.3125 
z
" id="DejaVuSans-51"/>
       </defs>
       <use xlink:href="#DejaVuSans-51"/>
       <use x="63.623047" xlink:href="#DejaVuSans-48"/>
      </g>
     </g>
    </g>
    <g id="ytick_5">
     <g id="line2d_10">
      <g>
       <use style="stroke:#000000;stroke-width:0.8;" x="30.52" xlink:href="#m5867417a1e" y="158.588571"/>
      </g>
     </g>
     <g id="text_10">
      <!-- 40 -->
      <g transform="translate(10.795 162.38779)scale(0.1 -0.1)">
       <defs>
        <path d="M 37.796875 64.3125 
L 12.890625 25.390625 
L 37.796875 25.390625 
z
M 35.203125 72.90625 
L 47.609375 72.90625 
L 47.609375 25.390625 
L 58.015625 25.390625 
L 58.015625 17.1875 
L 47.609375 17.1875 
L 47.609375 0 
L 37.796875 0 
L 37.796875 17.1875 
L 4.890625 17.1875 
L 4.890625 26.703125 
z
" id="DejaVuSans-52"/>
       </defs>
       <use xlink:href="#DejaVuSans-52"/>
       <use x="63.623047" xlink:href="#DejaVuSans-48"/>
      </g>
     </g>
    </g>
    <g id="ytick_6">
     <g id="line2d_11">
      <g>
       <use style="stroke:#000000;stroke-width:0.8;" x="30.52" xlink:href="#m5867417a1e" y="115.085714"/>
      </g>
     </g>
     <g id="text_11">
      <!-- 50 -->
      <g transform="translate(10.795 118.884933)scale(0.1 -0.1)">
       <use xlink:href="#DejaVuSans-53"/>
       <use x="63.623047" xlink:href="#DejaVuSans-48"/>
      </g>
     </g>
    </g>
    <g id="ytick_7">
     <g id="line2d_12">
      <g>
       <use style="stroke:#000000;stroke-width:0.8;" x="30.52" xlink:href="#m5867417a1e" y="71.582857"/>
      </g>
     </g>
     <g id="text_12">
      <!-- 60 -->
      <g transform="translate(10.795 75.382076)scale(0.1 -0.1)">
       <defs>
        <path d="M 33.015625 40.375 
Q 26.375 40.375 22.484375 35.828125 
Q 18.609375 31.296875 18.609375 23.390625 
Q 18.609375 15.53125 22.484375 10.953125 
Q 26.375 6.390625 33.015625 6.390625 
Q 39.65625 6.390625 43.53125 10.953125 
Q 47.40625 15.53125 47.40625 23.390625 
Q 47.40625 31.296875 43.53125 35.828125 
Q 39.65625 40.375 33.015625 40.375 
z
M 52.59375 71.296875 
L 52.59375 62.3125 
Q 48.875 64.0625 45.09375 64.984375 
Q 41.3125 65.921875 37.59375 65.921875 
Q 27.828125 65.921875 22.671875 59.328125 
Q 17.53125 52.734375 16.796875 39.40625 
Q 19.671875 43.65625 24.015625 45.921875 
Q 28.375 48.1875 33.59375 48.1875 
Q 44.578125 48.1875 50.953125 41.515625 
Q 57.328125 34.859375 57.328125 23.390625 
Q 57.328125 12.15625 50.6875 5.359375 
Q 44.046875 -1.421875 33.015625 -1.421875 
Q 20.359375 -1.421875 13.671875 8.265625 
Q 6.984375 17.96875 6.984375 36.375 
Q 6.984375 53.65625 15.1875 63.9375 
Q 23.390625 74.21875 37.203125 74.21875 
Q 40.921875 74.21875 44.703125 73.484375 
Q 48.484375 72.75 52.59375 71.296875 
z
" id="DejaVuSans-54"/>
       </defs>
       <use xlink:href="#DejaVuSans-54"/>
       <use x="63.623047" xlink:href="#DejaVuSans-48"/>
      </g>
     </g>
    </g>
    <g id="ytick_8">
     <g id="line2d_13">
      <g>
       <use style="stroke:#000000;stroke-width:0.8;" x="30.52" xlink:href="#m5867417a1e" y="28.08"/>
      </g>
     </g>
     <g id="text_13">
      <!-- 70 -->
      <g transform="translate(10.795 31.879219)scale(0.1 -0.1)">
       <defs>
        <path d="M 8.203125 72.90625 
L 55.078125 72.90625 
L 55.078125 68.703125 
L 28.609375 0 
L 18.3125 0 
L 43.21875 64.59375 
L 8.203125 64.59375 
z
" id="DejaVuSans-55"/>
       </defs>
       <use xlink:href="#DejaVuSans-55"/>
       <use x="63.623047" xlink:href="#DejaVuSans-48"/>
      </g>
     </g>
    </g>
   </g>
   <g id="line2d_14">
    <path clip-path="url(#p9c0e794dd3)" d="M 45.005455 315.12974 
L 46.522978 315.019427 
L 51.765333 314.467527 
L 53.972641 314.172508 
L 57.283602 313.591115 
L 57.835429 313.204425 
L 58.387255 312.609823 
L 58.939082 311.688174 
L 59.490909 310.30086 
L 60.042736 308.330209 
L 60.732519 304.891108 
L 61.698216 298.485885 
L 62.663913 292.240987 
L 63.353697 289.240172 
L 63.905524 287.774768 
L 64.457351 286.870263 
L 65.974874 285.180153 
L 66.250788 285.111177 
L 66.526701 285.235778 
L 66.802615 285.535163 
L 67.354442 286.628289 
L 67.906268 288.313335 
L 69.975619 295.400201 
L 70.665403 296.694278 
L 71.355186 297.578933 
L 71.907013 298.000225 
L 73.148623 298.882276 
L 73.70045 299.674414 
L 75.355931 302.382272 
L 75.907758 302.783268 
L 76.459584 302.869085 
L 77.011411 302.936906 
L 77.425281 303.21412 
L 77.839152 303.761221 
L 79.632589 306.850424 
L 80.874199 307.987254 
L 81.563983 308.687238 
L 81.977853 308.827084 
L 82.52968 308.727915 
L 83.081506 308.369399 
L 83.633333 307.727543 
L 84.047203 307.041357 
L 84.461074 305.849989 
L 84.736987 304.448688 
L 85.150857 300.821804 
L 85.564727 294.931399 
L 86.254511 280.629545 
L 89.289558 210.379276 
L 90.393212 190.108887 
L 91.220952 178.797306 
L 91.910736 172.027844 
L 92.600519 167.279705 
L 93.290303 164.053989 
L 94.393957 160.318975 
L 95.08374 158.608258 
L 95.635567 157.697597 
L 96.325351 156.967564 
L 97.842874 155.868161 
L 103.4991 153.080111 
L 104.050926 152.869184 
L 106.120277 152.509378 
L 107.361887 151.904467 
L 109.293281 151.449777 
L 109.983065 150.971731 
L 114.673593 149.620695 
L 116.46703 149.322628 
L 117.018857 149.261066 
L 117.846597 149.325476 
L 118.122511 149.532228 
L 118.812294 149.774617 
L 119.226165 150.177116 
L 119.502078 150.400897 
L 119.777991 150.835126 
L 120.053905 151.035562 
L 120.743688 152.029414 
L 121.019602 153.002887 
L 121.295515 153.562718 
L 121.847342 154.849338 
L 122.537126 155.881784 
L 124.468519 155.762468 
L 125.158303 155.451348 
L 125.848087 154.96223 
L 126.53787 154.142558 
L 127.36561 152.94547 
L 129.434961 150.536579 
L 131.642268 147.743576 
L 132.056139 147.121416 
L 132.470009 146.641705 
L 132.883879 146.232982 
L 133.849576 145.574597 
L 134.539359 145.159353 
L 136.19484 144.201751 
L 136.884623 143.757942 
L 138.126234 143.404553 
L 138.678061 143.347452 
L 139.229887 143.355078 
L 139.781714 143.342135 
L 140.885368 143.343774 
L 141.989022 143.894848 
L 142.954719 144.159058 
L 144.334286 144.531731 
L 145.024069 145.10907 
L 145.299983 145.584719 
L 145.989766 147.224474 
L 147.09342 152.116695 
L 147.50729 154.422621 
L 148.7489 160.820425 
L 149.162771 162.272705 
L 149.714597 163.006541 
L 150.128468 163.470742 
L 151.094165 163.579966 
L 151.370078 163.660202 
L 151.783948 163.946311 
L 152.335775 163.719889 
L 153.163515 163.770001 
L 153.853299 163.814862 
L 154.267169 163.877281 
L 154.818996 164.003235 
L 155.232866 163.851361 
L 155.646736 163.533808 
L 155.922649 163.585268 
L 156.198563 163.365071 
L 156.612433 163.106586 
L 157.854043 162.45185 
L 158.129957 162.273442 
L 158.543827 162.183335 
L 158.957697 161.971215 
L 159.371567 161.885363 
L 159.785437 161.707915 
L 162.958442 161.00853 
L 163.510268 161.085748 
L 164.062095 160.972228 
L 165.027792 161.215517 
L 165.579619 161.621288 
L 166.131446 161.915368 
L 166.683273 162.385636 
L 167.373056 163.007556 
L 167.786926 163.388102 
L 169.028537 165.291424 
M 189.86 287.02331 
L 190.825697 286.824387 
L 191.653437 286.22289 
L 192.757091 284.528018 
L 193.170961 283.653239 
L 193.722788 282.382523 
L 194.826442 279.960963 
L 198.275359 269.059144 
L 199.654926 264.022522 
L 200.206753 262.05598 
L 202.276104 254.952585 
L 203.103844 252.195054 
L 203.793628 250.006224 
L 205.311152 245.616963 
L 206.414805 242.611908 
L 208.622113 237.103623 
L 209.58781 234.756099 
L 210.139636 233.493626 
L 211.105333 231.539318 
L 211.65716 230.488163 
L 212.346944 229.204332 
L 214.278338 226.333555 
L 214.554251 226.016633 
L 217.589299 223.01828 
L 217.727255 223.035039 
L 217.865212 222.853285 
L 218.003169 222.959966 
L 218.141126 222.884662 
L 218.279082 222.967989 
L 218.417039 222.883048 
L 218.830909 223.162764 
L 218.968866 223.19303 
L 219.244779 223.363029 
L 219.658649 223.665076 
L 219.796606 223.687261 
L 220.072519 223.884074 
L 220.210476 223.879635 
L 220.348433 223.513525 
L 220.624346 223.707691 
L 222.279827 225.252104 
L 222.96961 226.092205 
L 223.383481 226.352814 
L 223.935307 227.008528 
L 226.694442 230.715864 
L 227.246268 231.674874 
L 228.074009 232.723463 
L 228.763792 233.417669 
L 229.315619 233.906857 
L 230.143359 234.986589 
L 230.419273 235.368399 
L 231.936797 238.201158 
L 232.488623 239.285885 
L 233.316364 240.829062 
L 234.144104 241.806151 
L 234.282061 241.811177 
L 234.557974 242.075069 
L 234.833887 242.287012 
L 235.109801 242.309709 
L 235.661628 242.586368 
L 236.765281 243.212063 
L 237.455065 243.221817 
L 237.730978 243.197285 
L 238.006892 243.061615 
M 260.217922 306.076962 
L 261.183619 305.92668 
L 262.287273 305.620068 
L 263.390926 304.92072 
L 264.356623 304.377595 
L 267.115758 302.310604 
L 268.357368 301.13405 
L 269.598978 300.017755 
L 273.185853 296.5523 
L 273.599723 296.171558 
L 274.289506 295.404515 
L 274.97929 294.766062 
L 275.669074 294.162726 
L 278.014338 291.808198 
L 279.117991 290.681728 
L 279.945732 289.918516 
L 281.187342 288.604 
L 283.118736 286.770458 
L 283.670563 286.329467 
L 284.498303 285.592091 
L 285.188087 285.198361 
L 286.981524 284.224499 
L 289.326788 283.174553 
L 290.844312 282.435697 
L 291.396139 282.35342 
L 292.361835 282.024555 
L 292.775706 281.964188 
L 293.465489 281.699578 
L 295.258926 281.49082 
L 297.19032 281.493723 
L 298.156017 281.907939 
L 298.983758 282.828993 
L 300.501281 284.873394 
L 301.466978 286.339241 
L 302.156762 287.199371 
L 304.226113 289.337205 
L 304.639983 289.744134 
L 305.19181 290.387958 
L 305.881593 291.339206 
L 306.84729 292.475688 
L 309.054597 294.251719 
L 309.468468 294.469569 
L 310.848035 295.437903 
L 311.261905 295.832159 
L 312.503515 296.925474 
L 312.779429 297.225654 
L 313.607169 297.825728 
L 314.710823 298.421563 
L 315.538563 299.005656 
L 315.952433 299.373322 
L 317.332 300.339113 
L 317.607913 300.561135 
L 326.161229 306.291261 
L 330.024017 308.1883 
L 330.989714 308.39113 
L 334.714545 308.940361 
L 334.714545 308.940361 
" style="fill:none;stroke:#bfce68;stroke-linecap:square;stroke-width:1.5;"/>
   </g>
   <g id="line2d_15">
    <path clip-path="url(#p9c0e794dd3)" d="M 45.005455 321.400785 
L 46.247065 321.145498 
L 47.902545 320.645056 
L 49.695983 320.191006 
L 53.558771 319.671402 
L 56.593818 319.383139 
L 57.421558 319.089488 
L 57.973385 318.687486 
L 58.525212 318.0033 
L 59.077039 316.900265 
L 59.628866 315.230331 
L 60.180693 312.823936 
L 60.870476 308.573832 
L 61.97413 299.772269 
L 62.80187 293.858073 
L 63.353697 291.166986 
L 63.905524 289.489607 
L 64.457351 288.504403 
L 65.836918 286.841552 
L 66.250788 286.744054 
L 66.526701 286.94747 
L 66.802615 287.364081 
L 67.354442 288.790006 
L 68.044225 291.540776 
L 69.699706 298.94495 
L 70.389489 300.899456 
L 71.217229 302.490895 
L 71.907013 303.265296 
L 73.148623 304.539065 
L 73.70045 305.586267 
L 75.355931 309.085879 
L 75.907758 309.657852 
L 76.459584 309.891361 
L 77.149368 310.173743 
L 77.563238 310.661103 
L 78.115065 311.824919 
L 79.356675 314.702989 
L 80.046459 315.538947 
L 80.736242 316.471037 
L 81.563983 317.611123 
L 81.977853 317.854347 
L 82.391723 317.86114 
L 82.94355 317.598678 
L 83.495377 317.056645 
L 84.047203 316.160659 
L 84.461074 314.869741 
L 84.736987 313.30814 
L 85.150857 309.180434 
L 85.564727 302.349232 
L 86.116554 289.223287 
L 87.496121 248.219358 
L 90.117299 173.43176 
L 91.082996 152.602601 
L 91.910736 139.887875 
L 92.600519 132.616614 
L 93.152346 128.586478 
L 94.118043 123.592316 
L 94.945784 120.387236 
L 95.635567 118.636129 
L 96.187394 117.736562 
L 96.877177 117.065484 
L 97.429004 116.744602 
L 102.671359 115.264256 
L 103.775013 115.085147 
L 104.464797 115.139883 
L 105.016623 115.235853 
L 105.706407 115.251168 
L 108.327584 114.880059 
L 109.431238 114.718358 
L 110.258978 114.533195 
L 113.018113 114.37613 
L 114.121766 114.310907 
L 116.8809 114.645232 
L 117.294771 114.950689 
L 117.846597 115.358606 
L 118.122511 115.835002 
L 118.674338 116.370548 
L 118.950251 116.896417 
L 120.605732 120.409564 
L 120.881645 122.022254 
L 121.709385 125.417075 
L 122.399169 127.507716 
L 122.675082 127.787133 
L 123.502823 128.168416 
L 124.468519 128.272331 
L 124.88239 128.121013 
L 125.848087 127.383302 
L 126.53787 126.501657 
L 127.641524 124.863773 
L 129.021091 122.682909 
L 132.056139 117.465073 
L 132.470009 116.939403 
L 133.021835 116.155359 
L 133.849576 115.244696 
L 134.263446 114.869438 
L 134.953229 114.258993 
L 135.505056 113.871545 
L 136.19484 113.448612 
L 136.884623 113.143541 
L 137.712364 112.950209 
L 138.26419 112.954632 
L 139.505801 113.227615 
L 140.057628 113.408095 
L 140.609455 113.650725 
L 140.885368 113.777609 
L 141.575152 114.389423 
L 142.402892 115.03463 
L 142.954719 115.500706 
L 143.644502 115.880457 
L 143.782459 115.907303 
L 144.610199 116.966002 
L 145.299983 118.339131 
L 145.989766 121.086015 
L 147.09342 129.092834 
L 147.50729 132.76409 
L 148.7489 142.765332 
L 149.162771 145.002671 
L 149.852554 146.41969 
L 150.266424 147.033107 
L 151.232121 147.307228 
L 151.508035 147.718658 
L 151.783948 147.990757 
L 152.197818 147.811491 
L 154.818996 148.935332 
L 155.094909 148.936005 
L 155.646736 148.443543 
L 155.922649 148.588238 
L 156.198563 148.363847 
L 156.474476 148.161377 
L 156.75039 148.134672 
L 157.16426 147.817741 
L 157.57813 147.82809 
L 158.129957 147.254988 
L 158.543827 147.25212 
L 158.957697 147.079886 
L 159.371567 147.083908 
L 160.199307 146.706087 
L 160.475221 146.608348 
L 161.165004 146.662154 
L 161.578874 146.459344 
L 162.268658 146.360964 
L 162.682528 146.225913 
L 163.096398 146.410828 
L 163.510268 146.544623 
L 164.062095 146.437211 
L 165.027792 146.834496 
L 165.441662 147.344573 
L 165.855532 147.884581 
L 166.407359 148.448811 
L 168.47671 152.24078 
L 169.028537 153.699018 
M 189.86 303.296101 
L 190.963654 303.044164 
L 191.377524 302.788194 
L 191.791394 302.342844 
L 192.481177 301.292976 
L 194.412571 296.865987 
L 196.206009 291.458469 
L 202.00019 269.620706 
L 202.827931 266.34911 
L 203.517714 263.825561 
L 205.173195 258.442432 
L 208.760069 248.006287 
L 209.173939 246.983213 
L 210.139636 244.220431 
L 210.82942 242.574337 
L 211.381247 241.197766 
L 212.898771 238.339384 
L 213.312641 237.670326 
L 214.278338 235.846223 
L 214.416294 235.746279 
L 214.830165 235.133984 
L 214.968121 235.096154 
L 215.381991 234.394328 
L 215.519948 234.334773 
L 215.933818 233.80446 
L 216.071775 233.782582 
L 216.485645 233.158 
L 216.899515 232.720241 
L 217.037472 232.48247 
L 217.175429 232.470509 
L 217.451342 232.177175 
L 217.589299 232.095866 
L 217.727255 232.150709 
L 217.865212 231.945761 
L 218.003169 232.113426 
L 218.141126 232.041539 
L 218.279082 232.136335 
L 218.417039 232.0197 
L 218.692952 232.261166 
L 220.210476 233.122394 
L 220.348433 232.662685 
L 220.624346 232.906159 
L 222.279827 234.830402 
L 222.96961 235.863704 
L 223.383481 236.230394 
L 223.797351 236.934262 
L 224.073264 237.329582 
L 225.176918 239.292107 
L 225.314874 239.449498 
L 225.728745 240.212677 
L 226.556485 241.52992 
L 226.832398 242.031435 
L 227.798095 243.604302 
L 228.074009 243.929572 
L 228.487879 244.491972 
L 228.763792 244.718128 
L 229.039706 245.054636 
L 229.729489 245.784062 
L 230.143359 246.453948 
L 230.281316 246.597912 
L 232.902494 252.38193 
L 233.86819 253.931465 
L 234.144104 254.175107 
L 234.282061 254.182567 
L 234.557974 254.488248 
L 234.833887 254.726341 
L 235.109801 254.740248 
L 236.489368 255.796072 
L 237.317108 255.939885 
L 238.006892 255.73608 
M 260.217922 322.28792 
L 261.183619 322.147367 
L 262.425229 321.813458 
L 263.528883 321.35947 
L 266.563931 319.487471 
L 268.357368 318.052713 
L 269.185108 317.378279 
L 270.012848 316.689196 
L 270.840589 316.014495 
L 271.392416 315.500806 
L 271.944242 315.067623 
L 272.771983 314.370041 
L 273.32381 313.9376 
L 274.289506 312.982915 
L 274.97929 312.31552 
L 275.944987 311.336592 
L 276.496814 310.811212 
L 278.290251 308.96749 
L 280.635515 306.555613 
L 281.463255 305.793246 
L 284.774216 302.8598 
L 288.085177 300.800838 
L 292.775706 298.341663 
L 293.465489 298.115301 
L 295.53484 297.705739 
L 296.914407 297.863923 
L 297.742147 298.324259 
L 298.845801 299.446199 
L 300.363325 301.66096 
L 303.812242 306.251401 
L 305.19181 307.64982 
L 305.743636 308.359766 
L 308.640727 310.955173 
L 309.882338 311.712412 
L 310.434165 312.110995 
L 312.503515 313.747562 
L 312.779429 314.02234 
L 313.883082 314.765411 
L 314.848779 315.335799 
L 315.124693 315.553189 
L 315.538563 315.76646 
L 315.814476 315.993624 
L 316.780173 316.57386 
L 317.194043 316.871403 
L 317.74587 317.214631 
L 322.988225 320.34746 
L 328.368537 322.965573 
L 331.955411 323.900494 
L 333.610892 324.114264 
L 334.714545 324.168918 
L 334.714545 324.168918 
" style="fill:none;stroke:#aac03b;stroke-linecap:square;stroke-width:1.5;"/>
   </g>
   <g id="line2d_16">
    <path clip-path="url(#p9c0e794dd3)" d="M 45.005455 322.189715 
L 46.109108 321.940021 
L 50.24781 320.719107 
L 54.662424 320.158175 
L 56.869732 319.899986 
L 57.559515 319.588803 
L 58.111342 319.123451 
L 58.663169 318.323155 
L 59.214996 317.042872 
L 59.766823 315.123273 
L 60.318649 312.393881 
L 61.008433 307.651165 
L 63.077784 291.655149 
L 63.62961 289.386678 
L 64.181437 288.040143 
L 65.561004 286.127742 
L 65.974874 285.808621 
L 66.250788 285.779243 
L 66.526701 286.000795 
L 66.802615 286.448295 
L 67.354442 287.969199 
L 68.044225 290.891449 
L 69.699706 298.748302 
L 70.389489 300.835703 
L 71.217229 302.535786 
L 71.907013 303.368206 
L 73.010667 304.51654 
L 73.70045 305.865239 
L 75.355931 309.59885 
L 75.907758 310.216682 
L 76.459584 310.483513 
L 77.149368 310.8012 
L 77.563238 311.323489 
L 78.115065 312.56389 
L 79.356675 315.62114 
L 80.046459 316.520201 
L 80.736242 317.526027 
L 81.563983 318.744552 
L 81.977853 319.01077 
L 82.391723 319.0264 
L 82.805593 318.849382 
L 83.35742 318.368129 
L 83.909247 317.561627 
L 84.323117 316.485272 
L 84.59903 315.219676 
L 84.874944 313.152977 
L 85.288814 307.917533 
L 85.840641 296.426965 
L 86.668381 272.043856 
L 90.393212 155.704221 
L 91.220952 136.253973 
L 92.048693 122.021393 
L 92.738476 113.877126 
L 93.42826 108.519604 
L 94.256 103.637632 
L 95.08374 100.002225 
L 95.773524 98.040715 
L 96.325351 97.053895 
L 96.877177 96.470815 
L 97.429004 96.191918 
L 102.395446 95.080747 
L 103.775013 95.057169 
L 104.32684 95.19311 
L 105.98232 95.403862 
L 107.499844 95.297685 
L 110.810805 95.18138 
L 112.604242 95.27207 
L 113.431983 95.311533 
L 114.81155 95.371935 
L 115.363377 95.455393 
L 116.191117 95.683403 
L 116.604987 95.926251 
L 116.8809 96.080088 
L 117.294771 96.534704 
L 117.846597 97.121234 
L 118.122511 97.751873 
L 118.674338 98.486786 
L 118.950251 99.172562 
L 120.605732 103.694038 
L 122.123255 111.388431 
L 122.537126 112.795225 
L 122.950996 113.119148 
L 123.364866 113.368978 
L 124.468519 113.63278 
L 124.88239 113.476659 
L 125.848087 112.656642 
L 126.675827 111.466017 
L 127.641524 109.924462 
L 128.883134 107.649741 
L 132.194095 101.147401 
L 132.607965 100.443309 
L 133.711619 98.775924 
L 135.643013 96.923113 
L 137.298494 96.162342 
L 138.126234 96.099087 
L 138.540104 96.18195 
L 138.953974 96.234422 
L 140.885368 97.425957 
L 141.575152 98.199518 
L 141.989022 98.677286 
L 143.092675 99.798462 
L 143.368589 100.194564 
L 143.782459 100.23708 
L 144.610199 101.578177 
L 145.299983 103.274126 
L 145.989766 106.647325 
L 147.231377 118.239462 
L 147.783203 124.19451 
L 148.197074 128.530251 
L 148.7489 132.557008 
L 149.162771 135.170562 
L 149.852554 136.824098 
L 150.266424 137.57175 
L 151.370078 138.111106 
L 151.645991 138.698681 
L 151.783948 138.751691 
L 152.197818 138.590168 
L 154.405126 139.868317 
L 155.094909 140.083981 
L 155.370823 139.720073 
L 155.508779 139.520286 
L 155.784693 139.670885 
L 156.060606 139.680023 
L 156.474476 139.304391 
L 156.75039 139.305584 
L 157.16426 138.959773 
L 157.57813 138.989667 
L 158.129957 138.362195 
L 158.543827 138.393257 
L 158.957697 138.23249 
L 159.371567 138.27182 
L 160.337264 137.779425 
L 160.613177 137.808529 
L 160.889091 137.908756 
L 161.165004 137.861664 
L 161.578874 137.64971 
L 162.268658 137.568572 
L 162.682528 137.423811 
L 163.096398 137.646837 
L 163.510268 137.819071 
L 164.062095 137.71121 
L 165.027792 138.177071 
L 165.441662 138.789377 
L 165.855532 139.429846 
L 166.407359 140.099954 
L 167.64897 142.526714 
L 168.200797 143.788271 
L 169.028537 146.262004 
M 189.86 305.51633 
L 190.963654 305.269758 
L 191.377524 305.010792 
L 191.791394 304.557408 
L 192.481177 303.473107 
L 194.412571 298.906491 
L 196.343965 292.806602 
L 198.689229 284.042569 
L 199.654926 280.093305 
L 199.93084 279.015963 
L 200.620623 276.27478 
L 204.759325 260.509887 
L 210.00168 244.853227 
L 211.519203 241.054987 
L 211.933074 240.318155 
L 213.174684 237.852262 
L 213.450597 237.395517 
L 214.554251 235.407212 
L 216.347688 233.26738 
L 216.761558 232.649504 
L 216.899515 232.545301 
L 217.037472 232.29876 
L 217.175429 232.29021 
L 217.451342 231.99219 
L 217.589299 231.910775 
L 217.727255 231.976641 
L 217.865212 231.76465 
L 218.003169 231.950464 
L 218.141126 231.879682 
L 218.279082 231.979242 
L 218.417039 231.853804 
L 218.692952 232.107297 
L 220.210476 232.992521 
L 220.348433 232.505223 
L 220.624346 232.765592 
L 222.279827 234.801488 
L 222.96961 235.89007 
L 223.383481 236.28508 
L 223.797351 237.034824 
L 224.073264 237.455547 
L 224.901004 239.040854 
L 225.314874 239.713467 
L 225.728745 240.515639 
L 226.418528 241.652918 
L 228.074009 244.354053 
L 228.487879 244.938192 
L 228.763792 245.168984 
L 229.039706 245.512892 
L 229.729489 246.252269 
L 231.79884 250.549764 
L 233.178407 253.651791 
L 233.86819 254.662553 
L 234.144104 254.919496 
L 234.282061 254.92944 
L 234.557974 255.249232 
L 234.833887 255.491102 
L 235.109801 255.494608 
L 236.765281 256.754658 
L 237.041195 256.728719 
L 237.593022 256.782755 
L 238.006892 256.565026 
M 260.217922 325.004105 
L 261.183619 324.862922 
L 262.425229 324.535533 
L 263.25297 324.240532 
L 267.115758 321.822724 
L 268.357368 320.801589 
L 269.185108 320.125364 
L 270.012848 319.428206 
L 270.840589 318.760709 
L 271.392416 318.260538 
L 271.806286 317.971074 
L 272.909939 317.050402 
L 275.39316 314.630874 
L 275.944987 314.037626 
L 276.634771 313.336711 
L 279.117991 310.735456 
L 279.807775 310.040981 
L 280.773472 309.005936 
L 281.463255 308.384467 
L 284.63626 305.500431 
L 287.809264 303.385901 
L 288.223134 303.17364 
L 289.740658 302.329642 
L 290.292485 302.013352 
L 291.120225 301.440675 
L 291.810009 300.993913 
L 293.051619 300.518046 
L 293.879359 300.308979 
L 295.258926 299.945714 
L 295.810753 299.976404 
L 296.77645 300.080604 
L 297.742147 300.662609 
L 298.845801 301.837519 
L 300.225368 303.920145 
L 303.122459 308.048598 
L 308.0889 313.260478 
L 311.813732 315.832606 
L 312.227602 316.21929 
L 314.572866 317.908939 
L 315.538563 318.466488 
L 315.814476 318.690513 
L 316.780173 319.269114 
L 317.194043 319.566313 
L 317.607913 319.825382 
L 324.505749 323.850861 
L 326.023273 324.586097 
L 326.713056 324.908568 
L 328.092623 325.475677 
L 328.64445 325.708401 
L 332.921108 326.657405 
L 334.714545 326.778524 
L 334.714545 326.778524 
" style="fill:none;stroke:#8fb926;stroke-linecap:square;stroke-width:1.5;"/>
   </g>
   <g id="line2d_17">
    <path clip-path="url(#p9c0e794dd3)" d="M 45.005455 322.137764 
L 46.109108 321.87119 
L 50.24781 320.579237 
L 54.248554 320.028013 
L 56.869732 319.715733 
L 57.559515 319.395095 
L 58.111342 318.917309 
L 58.663169 318.093533 
L 59.214996 316.775842 
L 59.766823 314.799504 
L 60.318649 311.988624 
L 61.008433 307.103124 
L 63.077784 290.62573 
L 63.62961 288.286993 
L 64.181437 286.898462 
L 65.561004 284.924246 
L 65.974874 284.594501 
L 66.250788 284.563222 
L 66.526701 284.790261 
L 66.802615 285.250241 
L 67.354442 286.814899 
L 68.044225 289.822962 
L 69.699706 297.91622 
L 70.389489 300.069656 
L 71.217229 301.823379 
L 71.907013 302.682039 
L 73.010667 303.867984 
L 73.70045 305.261266 
L 75.355931 309.118509 
L 75.907758 309.757819 
L 76.459584 310.03597 
L 77.149368 310.366151 
L 77.563238 310.906199 
L 78.115065 312.188618 
L 79.356675 315.349264 
L 80.046459 316.280432 
L 80.736242 317.323137 
L 81.563983 318.584477 
L 81.977853 318.860651 
L 82.391723 318.877264 
L 82.805593 318.693877 
L 83.35742 318.197132 
L 83.909247 317.364369 
L 84.323117 316.253537 
L 84.59903 314.947029 
L 84.874944 312.812949 
L 85.288814 307.406749 
L 85.840641 295.547902 
L 86.668381 270.414089 
L 90.531169 145.587752 
L 91.496866 122.805882 
L 92.186649 111.021094 
L 92.876433 102.738801 
L 93.566216 97.20999 
L 94.531913 91.283663 
L 95.221697 88.231581 
L 95.911481 86.223532 
L 96.463307 85.242561 
L 97.015134 84.696027 
L 97.566961 84.495037 
L 102.395446 83.495711 
L 103.637056 83.498156 
L 104.32684 83.748736 
L 105.98232 84.02594 
L 107.085974 83.986933 
L 113.294026 84.21707 
L 113.98381 84.281052 
L 115.363377 84.466897 
L 116.191117 84.759436 
L 116.604987 85.058036 
L 116.8809 85.248173 
L 117.294771 85.784634 
L 117.846597 86.469786 
L 118.122511 87.189513 
L 118.674338 88.035416 
L 118.950251 88.813245 
L 120.605732 93.910501 
L 122.123255 102.452566 
L 122.537126 104.008803 
L 122.950996 104.376925 
L 123.364866 104.663173 
L 124.468519 104.988493 
L 124.88239 104.825325 
L 125.848087 103.947789 
L 126.95174 102.303887 
L 128.607221 99.196116 
L 132.194095 91.498062 
L 132.470009 91.040471 
L 133.159792 89.744016 
L 133.987532 88.586822 
L 135.505056 86.899646 
L 136.056883 86.534472 
L 136.470753 86.303284 
L 137.988277 85.986663 
L 139.091931 86.273068 
L 139.643758 86.633437 
L 140.057628 86.911787 
L 140.609455 87.351974 
L 140.885368 87.581334 
L 141.575152 88.447036 
L 141.851065 88.774842 
L 142.264935 89.222397 
L 142.540848 89.595999 
L 142.954719 90.094707 
L 143.506545 90.748865 
L 143.782459 90.771817 
L 144.610199 92.270896 
L 145.299983 94.150189 
L 145.989766 97.877587 
L 147.231377 110.570649 
L 147.783203 117.022759 
L 148.197074 121.696652 
L 148.7489 126.020589 
L 149.162771 128.818196 
L 149.852554 130.585242 
L 150.266424 131.393917 
L 151.370078 131.982156 
L 151.645991 132.612993 
L 151.783948 132.672608 
L 152.197818 132.51523 
L 154.405126 133.927921 
L 155.094909 134.166495 
L 155.370823 133.784112 
L 155.508779 133.575327 
L 155.784693 133.7411 
L 155.922649 133.813946 
L 156.060606 133.756613 
L 156.474476 133.374003 
L 156.75039 133.385693 
L 157.16426 133.024123 
L 157.57813 133.061531 
L 158.129957 132.405001 
L 158.543827 132.449218 
L 158.957697 132.290467 
L 159.371567 132.343307 
L 160.337264 131.829322 
L 160.613177 131.866253 
L 160.889091 131.976843 
L 161.165004 131.931217 
L 161.578874 131.712772 
L 162.268658 131.636998 
L 162.682528 131.486384 
L 162.958442 131.618369 
L 163.510268 131.915647 
L 164.062095 131.806011 
L 165.027792 132.303198 
L 165.441662 132.962251 
L 165.855532 133.64883 
L 166.407359 134.366891 
L 167.511013 136.699853 
L 168.06284 137.951061 
L 168.614667 139.612836 
L 169.028537 140.941434 
M 189.86 305.174905 
L 190.963654 304.924384 
L 191.377524 304.658674 
L 191.791394 304.192621 
L 192.481177 303.07514 
L 194.412571 298.371315 
L 196.343965 292.093638 
L 198.689229 283.080832 
L 199.654926 279.026006 
L 199.93084 277.921044 
L 200.620623 275.106828 
L 204.759325 258.939674 
L 210.00168 242.925886 
L 211.519203 239.039408 
L 211.933074 238.291272 
L 213.174684 235.7703 
L 213.450597 235.303121 
L 214.554251 233.269286 
L 216.347688 231.090494 
L 216.761558 230.456474 
L 216.899515 230.349974 
L 217.037472 230.097694 
L 217.175429 230.089825 
L 217.451342 229.787163 
L 217.589299 229.704661 
L 217.727255 229.774365 
L 217.865212 229.557851 
L 218.003169 229.751049 
L 218.141126 229.679797 
L 218.279082 229.782345 
L 218.417039 229.653103 
L 218.692952 229.913421 
L 220.210476 230.815751 
L 220.348433 230.314906 
L 220.624346 230.583849 
L 222.279827 232.674238 
L 222.96961 233.790536 
L 223.383481 234.197138 
L 223.797351 234.967511 
L 224.073264 235.399505 
L 224.901004 237.031332 
L 225.314874 237.72167 
L 225.728745 238.543192 
L 226.418528 239.709591 
L 228.074009 242.461208 
L 228.487879 243.057912 
L 228.763792 243.293236 
L 229.039706 243.643335 
L 229.729489 244.394408 
L 231.79884 248.785801 
L 233.178407 251.952584 
L 233.86819 252.979504 
L 234.144104 253.24614 
L 234.282061 253.257479 
L 234.557974 253.586171 
L 234.833887 253.831024 
L 235.109801 253.828889 
L 236.765281 255.130799 
L 237.041195 255.100674 
L 237.593022 255.159142 
L 238.006892 254.9378 
M 260.217922 325.288898 
L 261.183619 325.143768 
L 262.287273 324.861405 
L 264.218667 324.011781 
L 265.184364 323.450442 
L 273.599723 316.51714 
L 275.117247 314.90089 
L 275.669074 314.353414 
L 277.186597 312.68702 
L 277.462511 312.429559 
L 278.290251 311.529123 
L 280.083688 309.563105 
L 280.773472 308.837197 
L 281.187342 308.442028 
L 281.877126 307.7574 
L 282.290996 307.355281 
L 282.842823 306.784971 
L 283.946476 305.788336 
L 284.774216 305.137507 
L 288.085177 302.91771 
L 291.534095 300.753127 
L 292.361835 300.293196 
L 292.913662 300.121471 
L 295.672797 299.506465 
L 297.052364 299.792031 
L 297.742147 300.248285 
L 298.983758 301.65601 
L 299.949455 303.172067 
L 302.432675 306.960921 
L 303.950199 308.830041 
L 305.881593 311.0104 
L 306.84729 312.07401 
L 307.812987 312.919233 
L 308.0889 313.214513 
L 311.813732 315.858285 
L 312.227602 316.255414 
L 314.572866 317.997365 
L 315.538563 318.568952 
L 315.814476 318.798484 
L 316.50426 319.235193 
L 321.194788 322.188297 
L 321.746615 322.503375 
L 322.160485 322.750867 
L 322.712312 323.064678 
L 323.126182 323.318781 
L 324.229835 323.926033 
L 324.781662 324.258122 
L 326.023273 324.849971 
L 326.713056 325.181195 
L 328.092623 325.762555 
L 328.64445 326.000062 
L 333.197022 327.024178 
L 334.714545 327.097878 
L 334.714545 327.097878 
" style="fill:none;stroke:#67a612;stroke-linecap:square;stroke-width:1.5;"/>
   </g>
   <g id="line2d_18">
    <path clip-path="url(#p9c0e794dd3)" d="M 45.005455 321.982315 
L 46.109108 321.703167 
L 50.24781 320.360054 
L 54.248554 319.781114 
L 56.869732 319.454353 
L 57.559515 319.124879 
L 58.111342 318.635294 
L 58.663169 317.791736 
L 59.214996 316.443312 
L 59.766823 314.421464 
L 60.318649 311.546496 
L 61.008433 306.550735 
L 63.077784 289.709416 
L 63.62961 287.317562 
L 64.181437 285.895806 
L 65.561004 283.870104 
L 65.974874 283.530612 
L 66.250788 283.496702 
L 66.526701 283.726395 
L 66.802615 284.194109 
L 67.354442 285.788087 
L 67.906268 288.159495 
L 69.975619 298.081157 
L 70.665403 300.006944 
L 71.355186 301.31816 
L 71.907013 301.985682 
L 73.010667 303.196225 
L 73.70045 304.620942 
L 75.355931 308.567415 
L 75.907758 309.221415 
L 76.459584 309.505885 
L 77.149368 309.843263 
L 77.563238 310.395939 
L 78.115065 311.709193 
L 79.356675 314.947178 
L 80.046459 315.901223 
L 80.736242 316.97006 
L 81.563983 318.262931 
L 81.977853 318.545813 
L 82.391723 318.562218 
L 82.805593 318.373266 
L 83.35742 317.862681 
L 83.909247 317.007463 
L 84.323117 315.867638 
L 84.59903 314.527505 
L 84.874944 312.338829 
L 85.288814 306.796423 
L 85.840641 294.649449 
L 86.668381 268.950415 
L 90.669126 137.53835 
L 91.496866 117.691265 
L 92.186649 105.361439 
L 92.876433 96.645993 
L 93.566216 90.803318 
L 94.531913 84.515435 
L 95.221697 81.262245 
L 95.911481 79.115605 
L 96.463307 78.066144 
L 97.015134 77.489336 
L 97.566961 77.28839 
L 102.395446 76.291493 
L 103.637056 76.327408 
L 104.32684 76.608857 
L 105.98232 76.917427 
L 106.948017 76.929184 
L 107.637801 76.90413 
L 111.086719 76.977635 
L 111.776502 77.097133 
L 113.707896 77.273998 
L 114.673593 77.377745 
L 115.63929 77.648745 
L 116.742944 78.224393 
L 117.708641 79.431729 
L 118.812294 81.688346 
L 119.226165 82.941055 
L 119.364121 83.172883 
L 120.605732 87.638409 
L 122.123255 96.658717 
L 122.537126 98.296332 
L 122.950996 98.686264 
L 123.364866 98.990138 
L 124.468519 99.342699 
L 124.88239 99.173755 
L 125.71013 98.435947 
L 126.53787 97.21921 
L 128.883134 92.661533 
L 132.056139 85.387412 
L 132.470009 84.750057 
L 133.297749 83.141882 
L 134.401403 81.517647 
L 135.3671 80.444926 
L 136.884623 79.618055 
L 137.43645 79.476594 
L 138.126234 79.45186 
L 138.540104 79.560382 
L 138.953974 79.636443 
L 140.885368 81.154373 
L 141.575152 82.072797 
L 141.851065 82.420074 
L 142.264935 82.894924 
L 142.540848 83.29442 
L 142.954719 83.830077 
L 143.506545 84.531005 
L 143.782459 84.558533 
L 144.610199 86.146538 
L 145.299983 88.129824 
L 145.989766 92.057799 
L 147.50729 108.196168 
L 148.610944 120.148018 
L 149.162771 124.294946 
L 149.852554 126.11918 
L 150.266424 126.956949 
L 151.370078 127.567335 
L 151.645991 128.219547 
L 151.783948 128.282005 
L 152.197818 128.124567 
L 154.405126 129.598009 
L 155.094909 129.846653 
L 155.370823 129.454215 
L 155.508779 129.240384 
L 155.784693 129.413189 
L 155.922649 129.489344 
L 156.060606 129.431172 
L 156.474476 129.042668 
L 156.75039 129.058392 
L 157.16426 128.687844 
L 157.57813 128.728255 
L 158.129957 128.055613 
L 158.543827 128.10519 
L 158.81974 127.906549 
L 159.371567 128.003807 
L 160.337264 127.477209 
L 160.613177 127.517492 
L 160.889091 127.632784 
L 161.165004 127.587602 
L 161.578874 127.364782 
L 162.268658 127.290481 
L 162.682528 127.136304 
L 162.958442 127.272545 
L 163.510268 127.581728 
L 164.062095 127.470506 
L 165.027792 127.982898 
L 165.441662 128.664919 
L 165.855532 129.374255 
L 166.407359 130.115465 
L 167.511013 132.527019 
L 168.06284 133.814577 
L 168.614667 135.524316 
L 169.028537 136.892143 
M 189.86 304.491034 
L 190.963654 304.235153 
L 191.377524 303.962798 
L 191.791394 303.484781 
L 192.481177 302.338135 
L 194.412571 297.512843 
L 196.343965 291.076816 
L 198.689229 281.845757 
L 199.654926 277.69633 
L 199.93084 276.566322 
L 200.620623 273.688399 
L 204.759325 257.172551 
L 210.00168 240.848499 
L 211.519203 236.889758 
L 211.933074 236.129447 
L 213.174684 233.563447 
L 213.450597 233.088034 
L 214.554251 231.018208 
L 216.347688 228.804824 
L 216.761558 228.158784 
L 216.899515 228.050185 
L 217.037472 227.793113 
L 217.175429 227.785249 
L 217.313385 227.505834 
L 217.727255 227.46562 
L 217.865212 227.245257 
L 218.003169 227.442891 
L 218.141126 227.3707 
L 218.279082 227.47554 
L 218.417039 227.34375 
L 218.692952 227.609258 
L 220.210476 228.526499 
L 220.348433 228.015857 
L 220.624346 228.290751 
L 222.279827 230.420418 
L 222.96961 231.557348 
L 223.383481 231.971502 
L 223.797351 232.756279 
L 224.073264 233.196156 
L 224.901004 234.860373 
L 225.314874 235.563671 
L 225.728745 236.399911 
L 226.418528 237.58837 
L 228.074009 240.387066 
L 228.487879 240.994236 
L 228.763792 241.233879 
L 229.039706 241.589901 
L 229.729489 242.353196 
L 230.143359 243.083251 
L 230.281316 243.236232 
L 232.764537 249.296236 
L 233.04045 249.735268 
L 233.45432 250.485921 
L 234.833887 251.962393 
L 235.109801 251.957071 
L 236.213455 252.997597 
L 236.489368 253.17322 
L 237.593022 253.31837 
L 238.006892 253.093888 
M 260.217922 325.166935 
L 261.183619 325.017827 
L 262.287273 324.727493 
L 264.218667 323.854941 
L 265.184364 323.27771 
L 273.599723 316.151481 
L 275.117247 314.490622 
L 275.669074 313.927746 
L 277.186597 312.21538 
L 277.462511 311.950978 
L 278.290251 311.026241 
L 279.945732 309.169415 
L 281.325299 307.692339 
L 281.739169 307.319804 
L 282.842823 306.157331 
L 283.946476 305.135072 
L 284.774216 304.467763 
L 288.085177 302.190273 
L 291.534095 299.968182 
L 292.361835 299.496279 
L 292.913662 299.320409 
L 295.672797 298.689793 
L 297.052364 298.984558 
L 297.742147 299.453542 
L 298.983758 300.897763 
L 299.949455 302.453258 
L 302.432675 306.340969 
L 303.950199 308.259606 
L 305.881593 310.496881 
L 306.84729 311.588443 
L 307.812987 312.456168 
L 308.0889 312.759384 
L 311.813732 315.473772 
L 312.227602 315.8816 
L 314.572866 317.672215 
L 315.538563 318.259313 
L 315.814476 318.49506 
L 316.50426 318.943781 
L 321.194788 321.978937 
L 321.746615 322.302792 
L 322.160485 322.556855 
L 322.712312 322.879372 
L 323.126182 323.140797 
L 324.229835 323.76483 
L 324.781662 324.105873 
L 326.023273 324.714127 
L 326.5751 325.006511 
L 327.678753 325.480853 
L 328.368537 325.780387 
L 332.783152 326.897499 
L 334.714545 327.025317 
L 334.714545 327.025317 
" style="fill:none;stroke:#477706;stroke-linecap:square;stroke-width:1.5;"/>
   </g>
   <g id="patch_3">
    <path d="M 30.52 332.6 
L 30.52 28.08 
" style="fill:none;stroke:#000000;stroke-linecap:square;stroke-linejoin:miter;stroke-width:0.8;"/>
   </g>
   <g id="patch_4">
    <path d="M 349.2 332.6 
L 349.2 28.08 
" style="fill:none;stroke:#000000;stroke-linecap:square;stroke-linejoin:miter;stroke-width:0.8;"/>
   </g>
   <g id="patch_5">
    <path d="M 30.52 332.6 
L 349.2 332.6 
" style="fill:none;stroke:#000000;stroke-linecap:square;stroke-linejoin:miter;stroke-width:0.8;"/>
   </g>
   <g id="patch_6">
    <path d="M 30.52 28.08 
L 349.2 28.08 
" style="fill:none;stroke:#000000;stroke-linecap:square;stroke-linejoin:miter;stroke-width:0.8;"/>
   </g>
   <g id="text_14">
    <!-- Leaf Area Index -->
    <g transform="translate(131.288516 22.08)scale(0.15 -0.15)">
     <defs>
      <path d="M 9.8125 72.90625 
L 19.671875 72.90625 
L 19.671875 8.296875 
L 55.171875 8.296875 
L 55.171875 0 
L 9.8125 0 
z
" id="DejaVuSans-76"/>
      <path d="M 56.203125 29.59375 
L 56.203125 25.203125 
L 14.890625 25.203125 
Q 15.484375 15.921875 20.484375 11.0625 
Q 25.484375 6.203125 34.421875 6.203125 
Q 39.59375 6.203125 44.453125 7.46875 
Q 49.3125 8.734375 54.109375 11.28125 
L 54.109375 2.78125 
Q 49.265625 0.734375 44.1875 -0.34375 
Q 39.109375 -1.421875 33.890625 -1.421875 
Q 20.796875 -1.421875 13.15625 6.1875 
Q 5.515625 13.8125 5.515625 26.8125 
Q 5.515625 40.234375 12.765625 48.109375 
Q 20.015625 56 32.328125 56 
Q 43.359375 56 49.78125 48.890625 
Q 56.203125 41.796875 56.203125 29.59375 
z
M 47.21875 32.234375 
Q 47.125 39.59375 43.09375 43.984375 
Q 39.0625 48.390625 32.421875 48.390625 
Q 24.90625 48.390625 20.390625 44.140625 
Q 15.875 39.890625 15.1875 32.171875 
z
" id="DejaVuSans-101"/>
      <path d="M 34.28125 27.484375 
Q 23.390625 27.484375 19.1875 25 
Q 14.984375 22.515625 14.984375 16.5 
Q 14.984375 11.71875 18.140625 8.90625 
Q 21.296875 6.109375 26.703125 6.109375 
Q 34.1875 6.109375 38.703125 11.40625 
Q 43.21875 16.703125 43.21875 25.484375 
L 43.21875 27.484375 
z
M 52.203125 31.203125 
L 52.203125 0 
L 43.21875 0 
L 43.21875 8.296875 
Q 40.140625 3.328125 35.546875 0.953125 
Q 30.953125 -1.421875 24.3125 -1.421875 
Q 15.921875 -1.421875 10.953125 3.296875 
Q 6 8.015625 6 15.921875 
Q 6 25.140625 12.171875 29.828125 
Q 18.359375 34.515625 30.609375 34.515625 
L 43.21875 34.515625 
L 43.21875 35.40625 
Q 43.21875 41.609375 39.140625 45 
Q 35.0625 48.390625 27.6875 48.390625 
Q 23 48.390625 18.546875 47.265625 
Q 14.109375 46.140625 10.015625 43.890625 
L 10.015625 52.203125 
Q 14.9375 54.109375 19.578125 55.046875 
Q 24.21875 56 28.609375 56 
Q 40.484375 56 46.34375 49.84375 
Q 52.203125 43.703125 52.203125 31.203125 
z
" id="DejaVuSans-97"/>
      <path d="M 37.109375 75.984375 
L 37.109375 68.5 
L 28.515625 68.5 
Q 23.6875 68.5 21.796875 66.546875 
Q 19.921875 64.59375 19.921875 59.515625 
L 19.921875 54.6875 
L 34.71875 54.6875 
L 34.71875 47.703125 
L 19.921875 47.703125 
L 19.921875 0 
L 10.890625 0 
L 10.890625 47.703125 
L 2.296875 47.703125 
L 2.296875 54.6875 
L 10.890625 54.6875 
L 10.890625 58.5 
Q 10.890625 67.625 15.140625 71.796875 
Q 19.390625 75.984375 28.609375 75.984375 
z
" id="DejaVuSans-102"/>
      <path id="DejaVuSans-32"/>
      <path d="M 34.1875 63.1875 
L 20.796875 26.90625 
L 47.609375 26.90625 
z
M 28.609375 72.90625 
L 39.796875 72.90625 
L 67.578125 0 
L 57.328125 0 
L 50.6875 18.703125 
L 17.828125 18.703125 
L 11.1875 0 
L 0.78125 0 
z
" id="DejaVuSans-65"/>
      <path d="M 41.109375 46.296875 
Q 39.59375 47.171875 37.8125 47.578125 
Q 36.03125 48 33.890625 48 
Q 26.265625 48 22.1875 43.046875 
Q 18.109375 38.09375 18.109375 28.8125 
L 18.109375 0 
L 9.078125 0 
L 9.078125 54.6875 
L 18.109375 54.6875 
L 18.109375 46.1875 
Q 20.953125 51.171875 25.484375 53.578125 
Q 30.03125 56 36.53125 56 
Q 37.453125 56 38.578125 55.875 
Q 39.703125 55.765625 41.0625 55.515625 
z
" id="DejaVuSans-114"/>
      <path d="M 9.8125 72.90625 
L 19.671875 72.90625 
L 19.671875 0 
L 9.8125 0 
z
" id="DejaVuSans-73"/>
      <path d="M 54.890625 33.015625 
L 54.890625 0 
L 45.90625 0 
L 45.90625 32.71875 
Q 45.90625 40.484375 42.875 44.328125 
Q 39.84375 48.1875 33.796875 48.1875 
Q 26.515625 48.1875 22.3125 43.546875 
Q 18.109375 38.921875 18.109375 30.90625 
L 18.109375 0 
L 9.078125 0 
L 9.078125 54.6875 
L 18.109375 54.6875 
L 18.109375 46.1875 
Q 21.34375 51.125 25.703125 53.5625 
Q 30.078125 56 35.796875 56 
Q 45.21875 56 50.046875 50.171875 
Q 54.890625 44.34375 54.890625 33.015625 
z
" id="DejaVuSans-110"/>
      <path d="M 45.40625 46.390625 
L 45.40625 75.984375 
L 54.390625 75.984375 
L 54.390625 0 
L 45.40625 0 
L 45.40625 8.203125 
Q 42.578125 3.328125 38.25 0.953125 
Q 33.9375 -1.421875 27.875 -1.421875 
Q 17.96875 -1.421875 11.734375 6.484375 
Q 5.515625 14.40625 5.515625 27.296875 
Q 5.515625 40.1875 11.734375 48.09375 
Q 17.96875 56 27.875 56 
Q 33.9375 56 38.25 53.625 
Q 42.578125 51.265625 45.40625 46.390625 
z
M 14.796875 27.296875 
Q 14.796875 17.390625 18.875 11.75 
Q 22.953125 6.109375 30.078125 6.109375 
Q 37.203125 6.109375 41.296875 11.75 
Q 45.40625 17.390625 45.40625 27.296875 
Q 45.40625 37.203125 41.296875 42.84375 
Q 37.203125 48.484375 30.078125 48.484375 
Q 22.953125 48.484375 18.875 42.84375 
Q 14.796875 37.203125 14.796875 27.296875 
z
" id="DejaVuSans-100"/>
      <path d="M 54.890625 54.6875 
L 35.109375 28.078125 
L 55.90625 0 
L 45.3125 0 
L 29.390625 21.484375 
L 13.484375 0 
L 2.875 0 
L 24.125 28.609375 
L 4.6875 54.6875 
L 15.28125 54.6875 
L 29.78125 35.203125 
L 44.28125 54.6875 
z
" id="DejaVuSans-120"/>
     </defs>
     <use xlink:href="#DejaVuSans-76"/>
     <use x="53.962891" xlink:href="#DejaVuSans-101"/>
     <use x="115.486328" xlink:href="#DejaVuSans-97"/>
     <use x="176.765625" xlink:href="#DejaVuSans-102"/>
     <use x="211.970703" xlink:href="#DejaVuSans-32"/>
     <use x="243.757812" xlink:href="#DejaVuSans-65"/>
     <use x="312.166016" xlink:href="#DejaVuSans-114"/>
     <use x="351.029297" xlink:href="#DejaVuSans-101"/>
     <use x="412.552734" xlink:href="#DejaVuSans-97"/>
     <use x="473.832031" xlink:href="#DejaVuSans-32"/>
     <use x="505.619141" xlink:href="#DejaVuSans-73"/>
     <use x="535.111328" xlink:href="#DejaVuSans-110"/>
     <use x="598.490234" xlink:href="#DejaVuSans-100"/>
     <use x="661.966797" xlink:href="#DejaVuSans-101"/>
     <use x="721.740234" xlink:href="#DejaVuSans-120"/>
    </g>
   </g>
   <g id="legend_1">
    <g id="patch_7">
     <path d="M 257.8 109.470625 
L 342.2 109.470625 
Q 344.2 109.470625 344.2 107.470625 
L 344.2 35.08 
Q 344.2 33.08 342.2 33.08 
L 257.8 33.08 
Q 255.8 33.08 255.8 35.08 
L 255.8 107.470625 
Q 255.8 109.470625 257.8 109.470625 
z
" style="fill:#ffffff;opacity:0.8;stroke:#cccccc;stroke-linejoin:miter;"/>
    </g>
    <g id="line2d_19">
     <path d="M 259.8 41.178438 
L 279.8 41.178438 
" style="fill:none;stroke:#bfce68;stroke-linecap:square;stroke-width:1.5;"/>
    </g>
    <g id="line2d_20"/>
    <g id="text_15">
     <!-- 1 $m^2 \cdot m^{-2}$ -->
     <g transform="translate(287.8 44.678438)scale(0.1 -0.1)">
      <defs>
       <path d="M 89.796875 33.015625 
L 83.40625 0 
L 74.421875 0 
L 80.71875 32.71875 
Q 81.109375 34.8125 81.296875 36.328125 
Q 81.5 37.84375 81.5 38.921875 
Q 81.5 43.3125 79.046875 45.75 
Q 76.609375 48.1875 72.21875 48.1875 
Q 65.671875 48.1875 60.546875 43.28125 
Q 55.421875 38.375 53.90625 30.515625 
L 47.90625 0 
L 38.921875 0 
L 45.3125 32.71875 
Q 45.703125 34.515625 45.890625 36.046875 
Q 46.09375 37.59375 46.09375 38.8125 
Q 46.09375 43.265625 43.65625 45.71875 
Q 41.21875 48.1875 36.921875 48.1875 
Q 30.28125 48.1875 25.140625 43.28125 
Q 20.015625 38.375 18.5 30.515625 
L 12.5 0 
L 3.515625 0 
L 14.203125 54.6875 
L 23.1875 54.6875 
L 21.484375 46.1875 
Q 25.140625 50.984375 30.046875 53.484375 
Q 34.96875 56 40.578125 56 
Q 46.53125 56 50.359375 52.875 
Q 54.203125 49.75 54.984375 44.1875 
Q 59.078125 49.953125 64.46875 52.96875 
Q 69.875 56 75.875 56 
Q 82.90625 56 86.734375 51.953125 
Q 90.578125 47.90625 90.578125 40.484375 
Q 90.578125 38.875 90.375 36.9375 
Q 90.1875 35.015625 89.796875 33.015625 
z
" id="DejaVuSans-Oblique-109"/>
       <path d="M 10.6875 40.921875 
L 21 40.921875 
L 21 28.515625 
L 10.6875 28.515625 
z
" id="DejaVuSans-8901"/>
       <path d="M 10.59375 35.5 
L 73.1875 35.5 
L 73.1875 27.203125 
L 10.59375 27.203125 
z
" id="DejaVuSans-8722"/>
      </defs>
      <use transform="translate(0 0.765625)" xlink:href="#DejaVuSans-49"/>
      <use transform="translate(63.623047 0.765625)" xlink:href="#DejaVuSans-32"/>
      <use transform="translate(95.410156 0.765625)" xlink:href="#DejaVuSans-Oblique-109"/>
      <use transform="translate(197.472161 39.046875)scale(0.7)" xlink:href="#DejaVuSans-50"/>
      <use transform="translate(264.225091 0.765625)" xlink:href="#DejaVuSans-8901"/>
      <use transform="translate(315.494622 0.765625)" xlink:href="#DejaVuSans-Oblique-109"/>
      <use transform="translate(417.556628 39.046875)scale(0.7)" xlink:href="#DejaVuSans-8722"/>
      <use transform="translate(476.208971 39.046875)scale(0.7)" xlink:href="#DejaVuSans-50"/>
     </g>
    </g>
    <g id="line2d_21">
     <path d="M 259.8 55.856563 
L 279.8 55.856563 
" style="fill:none;stroke:#aac03b;stroke-linecap:square;stroke-width:1.5;"/>
    </g>
    <g id="line2d_22"/>
    <g id="text_16">
     <!-- 2 $m^2 \cdot m^{-2}$ -->
     <g transform="translate(287.8 59.356563)scale(0.1 -0.1)">
      <use transform="translate(0 0.765625)" xlink:href="#DejaVuSans-50"/>
      <use transform="translate(63.623047 0.765625)" xlink:href="#DejaVuSans-32"/>
      <use transform="translate(95.410156 0.765625)" xlink:href="#DejaVuSans-Oblique-109"/>
      <use transform="translate(197.472161 39.046875)scale(0.7)" xlink:href="#DejaVuSans-50"/>
      <use transform="translate(264.225091 0.765625)" xlink:href="#DejaVuSans-8901"/>
      <use transform="translate(315.494622 0.765625)" xlink:href="#DejaVuSans-Oblique-109"/>
      <use transform="translate(417.556628 39.046875)scale(0.7)" xlink:href="#DejaVuSans-8722"/>
      <use transform="translate(476.208971 39.046875)scale(0.7)" xlink:href="#DejaVuSans-50"/>
     </g>
    </g>
    <g id="line2d_23">
     <path d="M 259.8 70.534688 
L 279.8 70.534688 
" style="fill:none;stroke:#8fb926;stroke-linecap:square;stroke-width:1.5;"/>
    </g>
    <g id="line2d_24"/>
    <g id="text_17">
     <!-- 3 $m^2 \cdot m^{-2}$ -->
     <g transform="translate(287.8 74.034688)scale(0.1 -0.1)">
      <use transform="translate(0 0.765625)" xlink:href="#DejaVuSans-51"/>
      <use transform="translate(63.623047 0.765625)" xlink:href="#DejaVuSans-32"/>
      <use transform="translate(95.410156 0.765625)" xlink:href="#DejaVuSans-Oblique-109"/>
      <use transform="translate(197.472161 39.046875)scale(0.7)" xlink:href="#DejaVuSans-50"/>
      <use transform="translate(264.225091 0.765625)" xlink:href="#DejaVuSans-8901"/>
      <use transform="translate(315.494622 0.765625)" xlink:href="#DejaVuSans-Oblique-109"/>
      <use transform="translate(417.556628 39.046875)scale(0.7)" xlink:href="#DejaVuSans-8722"/>
      <use transform="translate(476.208971 39.046875)scale(0.7)" xlink:href="#DejaVuSans-50"/>
     </g>
    </g>
    <g id="line2d_25">
     <path d="M 259.8 85.212813 
L 279.8 85.212813 
" style="fill:none;stroke:#67a612;stroke-linecap:square;stroke-width:1.5;"/>
    </g>
    <g id="line2d_26"/>
    <g id="text_18">
     <!-- 4 $m^2 \cdot m^{-2}$ -->
     <g transform="translate(287.8 88.712813)scale(0.1 -0.1)">
      <use transform="translate(0 0.765625)" xlink:href="#DejaVuSans-52"/>
      <use transform="translate(63.623047 0.765625)" xlink:href="#DejaVuSans-32"/>
      <use transform="translate(95.410156 0.765625)" xlink:href="#DejaVuSans-Oblique-109"/>
      <use transform="translate(197.472161 39.046875)scale(0.7)" xlink:href="#DejaVuSans-50"/>
      <use transform="translate(264.225091 0.765625)" xlink:href="#DejaVuSans-8901"/>
      <use transform="translate(315.494622 0.765625)" xlink:href="#DejaVuSans-Oblique-109"/>
      <use transform="translate(417.556628 39.046875)scale(0.7)" xlink:href="#DejaVuSans-8722"/>
      <use transform="translate(476.208971 39.046875)scale(0.7)" xlink:href="#DejaVuSans-50"/>
     </g>
    </g>
    <g id="line2d_27">
     <path d="M 259.8 99.890938 
L 279.8 99.890938 
" style="fill:none;stroke:#477706;stroke-linecap:square;stroke-width:1.5;"/>
    </g>
    <g id="line2d_28"/>
    <g id="text_19">
     <!-- 5 $m^2 \cdot m^{-2}$ -->
     <g transform="translate(287.8 103.390938)scale(0.1 -0.1)">
      <use transform="translate(0 0.765625)" xlink:href="#DejaVuSans-53"/>
      <use transform="translate(63.623047 0.765625)" xlink:href="#DejaVuSans-32"/>
      <use transform="translate(95.410156 0.765625)" xlink:href="#DejaVuSans-Oblique-109"/>
      <use transform="translate(197.472161 39.046875)scale(0.7)" xlink:href="#DejaVuSans-50"/>
      <use transform="translate(264.225091 0.765625)" xlink:href="#DejaVuSans-8901"/>
      <use transform="translate(315.494622 0.765625)" xlink:href="#DejaVuSans-Oblique-109"/>
      <use transform="translate(417.556628 39.046875)scale(0.7)" xlink:href="#DejaVuSans-8722"/>
      <use transform="translate(476.208971 39.046875)scale(0.7)" xlink:href="#DejaVuSans-50"/>
     </g>
    </g>
   </g>
  </g>
 </g>
 <defs>
  <clipPath id="p9c0e794dd3">
   <rect height="304.52" width="318.68" x="30.52" y="28.08"/>
  </clipPath>
 </defs>
</svg>
