<?xml version="1.0" encoding="utf-8" standalone="no"?>
<!DOCTYPE svg PUBLIC "-//W3C//DTD SVG 1.1//EN"
  "http://www.w3.org/Graphics/SVG/1.1/DTD/svg11.dtd">
<!-- Created with matplotlib (https://matplotlib.org/) -->
<svg height="360pt" version="1.1" viewBox="0 0 360 360" width="360pt" xmlns="http://www.w3.org/2000/svg" xmlns:xlink="http://www.w3.org/1999/xlink">
 <metadata>
  <rdf:RDF xmlns:cc="http://creativecommons.org/ns#" xmlns:dc="http://purl.org/dc/elements/1.1/" xmlns:rdf="http://www.w3.org/1999/02/22-rdf-syntax-ns#">
   <cc:Work>
    <dc:type rdf:resource="http://purl.org/dc/dcmitype/StillImage"/>
    <dc:date>2020-10-26T17:04:08.696296</dc:date>
    <dc:format>image/svg+xml</dc:format>
    <dc:creator>
     <cc:Agent>
      <dc:title>Matplotlib v3.3.2, https://matplotlib.org/</dc:title>
     </cc:Agent>
    </dc:creator>
   </cc:Work>
  </rdf:RDF>
 </metadata>
 <defs>
  <style type="text/css">*{stroke-linecap:butt;stroke-linejoin:round;}</style>
 </defs>
 <g id="figure_1">
  <g id="patch_1">
   <path d="M 0 360 
L 360 360 
L 360 0 
L 0 0 
z
" style="fill:#ffffff;"/>
  </g>
  <g id="axes_1">
   <g id="patch_2">
    <path d="M 46.04 316.12 
L 349.2 316.12 
L 349.2 28.08 
L 46.04 28.08 
z
" style="fill:#ffffff;"/>
   </g>
   <g id="matplotlib.axis_1">
    <g id="xtick_1">
     <g id="line2d_1">
      <defs>
       <path d="M 0 0 
L 0 3.5 
" id="m1657a18641" style="stroke:#000000;stroke-width:0.8;"/>
      </defs>
      <g>
       <use style="stroke:#000000;stroke-width:0.8;" x="72.94381" xlink:href="#m1657a18641" y="316.12"/>
      </g>
     </g>
     <g id="text_1">
      <!-- 0.5 -->
      <g transform="translate(64.992247 330.718437)scale(0.1 -0.1)">
       <defs>
        <path d="M 31.78125 66.40625 
Q 24.171875 66.40625 20.328125 58.90625 
Q 16.5 51.421875 16.5 36.375 
Q 16.5 21.390625 20.328125 13.890625 
Q 24.171875 6.390625 31.78125 6.390625 
Q 39.453125 6.390625 43.28125 13.890625 
Q 47.125 21.390625 47.125 36.375 
Q 47.125 51.421875 43.28125 58.90625 
Q 39.453125 66.40625 31.78125 66.40625 
z
M 31.78125 74.21875 
Q 44.046875 74.21875 50.515625 64.515625 
Q 56.984375 54.828125 56.984375 36.375 
Q 56.984375 17.96875 50.515625 8.265625 
Q 44.046875 -1.421875 31.78125 -1.421875 
Q 19.53125 -1.421875 13.0625 8.265625 
Q 6.59375 17.96875 6.59375 36.375 
Q 6.59375 54.828125 13.0625 64.515625 
Q 19.53125 74.21875 31.78125 74.21875 
z
" id="DejaVuSans-48"/>
        <path d="M 10.6875 12.40625 
L 21 12.40625 
L 21 0 
L 10.6875 0 
z
" id="DejaVuSans-46"/>
        <path d="M 10.796875 72.90625 
L 49.515625 72.90625 
L 49.515625 64.59375 
L 19.828125 64.59375 
L 19.828125 46.734375 
Q 21.96875 47.46875 24.109375 47.828125 
Q 26.265625 48.1875 28.421875 48.1875 
Q 40.625 48.1875 47.75 41.5 
Q 54.890625 34.8125 54.890625 23.390625 
Q 54.890625 11.625 47.5625 5.09375 
Q 40.234375 -1.421875 26.90625 -1.421875 
Q 22.3125 -1.421875 17.546875 -0.640625 
Q 12.796875 0.140625 7.71875 1.703125 
L 7.71875 11.625 
Q 12.109375 9.234375 16.796875 8.0625 
Q 21.484375 6.890625 26.703125 6.890625 
Q 35.15625 6.890625 40.078125 11.328125 
Q 45.015625 15.765625 45.015625 23.390625 
Q 45.015625 31 40.078125 35.4375 
Q 35.15625 39.890625 26.703125 39.890625 
Q 22.75 39.890625 18.8125 39.015625 
Q 14.890625 38.140625 10.796875 36.28125 
z
" id="DejaVuSans-53"/>
       </defs>
       <use xlink:href="#DejaVuSans-48"/>
       <use x="63.623047" xlink:href="#DejaVuSans-46"/>
       <use x="95.410156" xlink:href="#DejaVuSans-53"/>
      </g>
     </g>
    </g>
    <g id="xtick_2">
     <g id="line2d_2">
      <g>
       <use style="stroke:#000000;stroke-width:0.8;" x="138.562857" xlink:href="#m1657a18641" y="316.12"/>
      </g>
     </g>
     <g id="text_2">
      <!-- 1.0 -->
      <g transform="translate(130.611295 330.718437)scale(0.1 -0.1)">
       <defs>
        <path d="M 12.40625 8.296875 
L 28.515625 8.296875 
L 28.515625 63.921875 
L 10.984375 60.40625 
L 10.984375 69.390625 
L 28.421875 72.90625 
L 38.28125 72.90625 
L 38.28125 8.296875 
L 54.390625 8.296875 
L 54.390625 0 
L 12.40625 0 
z
" id="DejaVuSans-49"/>
       </defs>
       <use xlink:href="#DejaVuSans-49"/>
       <use x="63.623047" xlink:href="#DejaVuSans-46"/>
       <use x="95.410156" xlink:href="#DejaVuSans-48"/>
      </g>
     </g>
    </g>
    <g id="xtick_3">
     <g id="line2d_3">
      <g>
       <use style="stroke:#000000;stroke-width:0.8;" x="204.181905" xlink:href="#m1657a18641" y="316.12"/>
      </g>
     </g>
     <g id="text_3">
      <!-- 1.5 -->
      <g transform="translate(196.230342 330.718437)scale(0.1 -0.1)">
       <use xlink:href="#DejaVuSans-49"/>
       <use x="63.623047" xlink:href="#DejaVuSans-46"/>
       <use x="95.410156" xlink:href="#DejaVuSans-53"/>
      </g>
     </g>
    </g>
    <g id="xtick_4">
     <g id="line2d_4">
      <g>
       <use style="stroke:#000000;stroke-width:0.8;" x="269.800952" xlink:href="#m1657a18641" y="316.12"/>
      </g>
     </g>
     <g id="text_4">
      <!-- 2.0 -->
      <g transform="translate(261.84939 330.718437)scale(0.1 -0.1)">
       <defs>
        <path d="M 19.1875 8.296875 
L 53.609375 8.296875 
L 53.609375 0 
L 7.328125 0 
L 7.328125 8.296875 
Q 12.9375 14.109375 22.625 23.890625 
Q 32.328125 33.6875 34.8125 36.53125 
Q 39.546875 41.84375 41.421875 45.53125 
Q 43.3125 49.21875 43.3125 52.78125 
Q 43.3125 58.59375 39.234375 62.25 
Q 35.15625 65.921875 28.609375 65.921875 
Q 23.96875 65.921875 18.8125 64.3125 
Q 13.671875 62.703125 7.8125 59.421875 
L 7.8125 69.390625 
Q 13.765625 71.78125 18.9375 73 
Q 24.125 74.21875 28.421875 74.21875 
Q 39.75 74.21875 46.484375 68.546875 
Q 53.21875 62.890625 53.21875 53.421875 
Q 53.21875 48.921875 51.53125 44.890625 
Q 49.859375 40.875 45.40625 35.40625 
Q 44.1875 33.984375 37.640625 27.21875 
Q 31.109375 20.453125 19.1875 8.296875 
z
" id="DejaVuSans-50"/>
       </defs>
       <use xlink:href="#DejaVuSans-50"/>
       <use x="63.623047" xlink:href="#DejaVuSans-46"/>
       <use x="95.410156" xlink:href="#DejaVuSans-48"/>
      </g>
     </g>
    </g>
    <g id="xtick_5">
     <g id="line2d_5">
      <g>
       <use style="stroke:#000000;stroke-width:0.8;" x="335.42" xlink:href="#m1657a18641" y="316.12"/>
      </g>
     </g>
     <g id="text_5">
      <!-- 2.5 -->
      <g transform="translate(327.468437 330.718437)scale(0.1 -0.1)">
       <use xlink:href="#DejaVuSans-50"/>
       <use x="63.623047" xlink:href="#DejaVuSans-46"/>
       <use x="95.410156" xlink:href="#DejaVuSans-53"/>
      </g>
     </g>
    </g>
    <g id="text_6">
     <!-- Wavelength ($\mu m$) -->
     <g transform="translate(145.36 345.918125)scale(0.12 -0.12)">
      <defs>
       <path d="M 3.328125 72.90625 
L 13.28125 72.90625 
L 28.609375 11.28125 
L 43.890625 72.90625 
L 54.984375 72.90625 
L 70.3125 11.28125 
L 85.59375 72.90625 
L 95.609375 72.90625 
L 77.296875 0 
L 64.890625 0 
L 49.515625 63.28125 
L 33.984375 0 
L 21.578125 0 
z
" id="DejaVuSans-87"/>
       <path d="M 34.28125 27.484375 
Q 23.390625 27.484375 19.1875 25 
Q 14.984375 22.515625 14.984375 16.5 
Q 14.984375 11.71875 18.140625 8.90625 
Q 21.296875 6.109375 26.703125 6.109375 
Q 34.1875 6.109375 38.703125 11.40625 
Q 43.21875 16.703125 43.21875 25.484375 
L 43.21875 27.484375 
z
M 52.203125 31.203125 
L 52.203125 0 
L 43.21875 0 
L 43.21875 8.296875 
Q 40.140625 3.328125 35.546875 0.953125 
Q 30.953125 -1.421875 24.3125 -1.421875 
Q 15.921875 -1.421875 10.953125 3.296875 
Q 6 8.015625 6 15.921875 
Q 6 25.140625 12.171875 29.828125 
Q 18.359375 34.515625 30.609375 34.515625 
L 43.21875 34.515625 
L 43.21875 35.40625 
Q 43.21875 41.609375 39.140625 45 
Q 35.0625 48.390625 27.6875 48.390625 
Q 23 48.390625 18.546875 47.265625 
Q 14.109375 46.140625 10.015625 43.890625 
L 10.015625 52.203125 
Q 14.9375 54.109375 19.578125 55.046875 
Q 24.21875 56 28.609375 56 
Q 40.484375 56 46.34375 49.84375 
Q 52.203125 43.703125 52.203125 31.203125 
z
" id="DejaVuSans-97"/>
       <path d="M 2.984375 54.6875 
L 12.5 54.6875 
L 29.59375 8.796875 
L 46.6875 54.6875 
L 56.203125 54.6875 
L 35.6875 0 
L 23.484375 0 
z
" id="DejaVuSans-118"/>
       <path d="M 56.203125 29.59375 
L 56.203125 25.203125 
L 14.890625 25.203125 
Q 15.484375 15.921875 20.484375 11.0625 
Q 25.484375 6.203125 34.421875 6.203125 
Q 39.59375 6.203125 44.453125 7.46875 
Q 49.3125 8.734375 54.109375 11.28125 
L 54.109375 2.78125 
Q 49.265625 0.734375 44.1875 -0.34375 
Q 39.109375 -1.421875 33.890625 -1.421875 
Q 20.796875 -1.421875 13.15625 6.1875 
Q 5.515625 13.8125 5.515625 26.8125 
Q 5.515625 40.234375 12.765625 48.109375 
Q 20.015625 56 32.328125 56 
Q 43.359375 56 49.78125 48.890625 
Q 56.203125 41.796875 56.203125 29.59375 
z
M 47.21875 32.234375 
Q 47.125 39.59375 43.09375 43.984375 
Q 39.0625 48.390625 32.421875 48.390625 
Q 24.90625 48.390625 20.390625 44.140625 
Q 15.875 39.890625 15.1875 32.171875 
z
" id="DejaVuSans-101"/>
       <path d="M 9.421875 75.984375 
L 18.40625 75.984375 
L 18.40625 0 
L 9.421875 0 
z
" id="DejaVuSans-108"/>
       <path d="M 54.890625 33.015625 
L 54.890625 0 
L 45.90625 0 
L 45.90625 32.71875 
Q 45.90625 40.484375 42.875 44.328125 
Q 39.84375 48.1875 33.796875 48.1875 
Q 26.515625 48.1875 22.3125 43.546875 
Q 18.109375 38.921875 18.109375 30.90625 
L 18.109375 0 
L 9.078125 0 
L 9.078125 54.6875 
L 18.109375 54.6875 
L 18.109375 46.1875 
Q 21.34375 51.125 25.703125 53.5625 
Q 30.078125 56 35.796875 56 
Q 45.21875 56 50.046875 50.171875 
Q 54.890625 44.34375 54.890625 33.015625 
z
" id="DejaVuSans-110"/>
       <path d="M 45.40625 27.984375 
Q 45.40625 37.75 41.375 43.109375 
Q 37.359375 48.484375 30.078125 48.484375 
Q 22.859375 48.484375 18.828125 43.109375 
Q 14.796875 37.75 14.796875 27.984375 
Q 14.796875 18.265625 18.828125 12.890625 
Q 22.859375 7.515625 30.078125 7.515625 
Q 37.359375 7.515625 41.375 12.890625 
Q 45.40625 18.265625 45.40625 27.984375 
z
M 54.390625 6.78125 
Q 54.390625 -7.171875 48.1875 -13.984375 
Q 42 -20.796875 29.203125 -20.796875 
Q 24.46875 -20.796875 20.265625 -20.09375 
Q 16.0625 -19.390625 12.109375 -17.921875 
L 12.109375 -9.1875 
Q 16.0625 -11.328125 19.921875 -12.34375 
Q 23.78125 -13.375 27.78125 -13.375 
Q 36.625 -13.375 41.015625 -8.765625 
Q 45.40625 -4.15625 45.40625 5.171875 
L 45.40625 9.625 
Q 42.625 4.78125 38.28125 2.390625 
Q 33.9375 0 27.875 0 
Q 17.828125 0 11.671875 7.65625 
Q 5.515625 15.328125 5.515625 27.984375 
Q 5.515625 40.671875 11.671875 48.328125 
Q 17.828125 56 27.875 56 
Q 33.9375 56 38.28125 53.609375 
Q 42.625 51.21875 45.40625 46.390625 
L 45.40625 54.6875 
L 54.390625 54.6875 
z
" id="DejaVuSans-103"/>
       <path d="M 18.3125 70.21875 
L 18.3125 54.6875 
L 36.8125 54.6875 
L 36.8125 47.703125 
L 18.3125 47.703125 
L 18.3125 18.015625 
Q 18.3125 11.328125 20.140625 9.421875 
Q 21.96875 7.515625 27.59375 7.515625 
L 36.8125 7.515625 
L 36.8125 0 
L 27.59375 0 
Q 17.1875 0 13.234375 3.875 
Q 9.28125 7.765625 9.28125 18.015625 
L 9.28125 47.703125 
L 2.6875 47.703125 
L 2.6875 54.6875 
L 9.28125 54.6875 
L 9.28125 70.21875 
z
" id="DejaVuSans-116"/>
       <path d="M 54.890625 33.015625 
L 54.890625 0 
L 45.90625 0 
L 45.90625 32.71875 
Q 45.90625 40.484375 42.875 44.328125 
Q 39.84375 48.1875 33.796875 48.1875 
Q 26.515625 48.1875 22.3125 43.546875 
Q 18.109375 38.921875 18.109375 30.90625 
L 18.109375 0 
L 9.078125 0 
L 9.078125 75.984375 
L 18.109375 75.984375 
L 18.109375 46.1875 
Q 21.34375 51.125 25.703125 53.5625 
Q 30.078125 56 35.796875 56 
Q 45.21875 56 50.046875 50.171875 
Q 54.890625 44.34375 54.890625 33.015625 
z
" id="DejaVuSans-104"/>
       <path id="DejaVuSans-32"/>
       <path d="M 31 75.875 
Q 24.46875 64.65625 21.28125 53.65625 
Q 18.109375 42.671875 18.109375 31.390625 
Q 18.109375 20.125 21.3125 9.0625 
Q 24.515625 -2 31 -13.1875 
L 23.1875 -13.1875 
Q 15.875 -1.703125 12.234375 9.375 
Q 8.59375 20.453125 8.59375 31.390625 
Q 8.59375 42.28125 12.203125 53.3125 
Q 15.828125 64.359375 23.1875 75.875 
z
" id="DejaVuSans-40"/>
       <path d="M -1.3125 -20.796875 
L 13.375 54.6875 
L 22.40625 54.6875 
L 15.765625 20.65625 
Q 15.578125 19.625 15.421875 18.359375 
Q 15.28125 17.09375 15.28125 15.828125 
Q 15.28125 11.28125 18.140625 8.828125 
Q 21 6.390625 26.3125 6.390625 
Q 33.546875 6.390625 37.984375 10.484375 
Q 42.4375 14.59375 44 22.796875 
L 50.203125 54.6875 
L 59.1875 54.6875 
L 51.03125 12.640625 
Q 50.828125 11.71875 50.75 11.03125 
Q 50.6875 10.359375 50.6875 9.8125 
Q 50.6875 8.296875 51.296875 7.59375 
Q 51.90625 6.890625 53.21875 6.890625 
Q 53.71875 6.890625 54.5625 7.125 
Q 55.421875 7.375 56.984375 8.015625 
L 55.609375 0.78125 
Q 53.46875 -0.296875 51.515625 -0.859375 
Q 49.5625 -1.421875 47.703125 -1.421875 
Q 44.484375 -1.421875 42.65625 0.625 
Q 40.828125 2.6875 40.828125 6.296875 
Q 38.09375 2.390625 34.296875 0.484375 
Q 30.515625 -1.421875 25.390625 -1.421875 
Q 20.84375 -1.421875 17.453125 0.671875 
Q 14.0625 2.78125 12.984375 6.203125 
L 7.71875 -20.796875 
z
" id="DejaVuSans-Oblique-956"/>
       <path d="M 89.796875 33.015625 
L 83.40625 0 
L 74.421875 0 
L 80.71875 32.71875 
Q 81.109375 34.8125 81.296875 36.328125 
Q 81.5 37.84375 81.5 38.921875 
Q 81.5 43.3125 79.046875 45.75 
Q 76.609375 48.1875 72.21875 48.1875 
Q 65.671875 48.1875 60.546875 43.28125 
Q 55.421875 38.375 53.90625 30.515625 
L 47.90625 0 
L 38.921875 0 
L 45.3125 32.71875 
Q 45.703125 34.515625 45.890625 36.046875 
Q 46.09375 37.59375 46.09375 38.8125 
Q 46.09375 43.265625 43.65625 45.71875 
Q 41.21875 48.1875 36.921875 48.1875 
Q 30.28125 48.1875 25.140625 43.28125 
Q 20.015625 38.375 18.5 30.515625 
L 12.5 0 
L 3.515625 0 
L 14.203125 54.6875 
L 23.1875 54.6875 
L 21.484375 46.1875 
Q 25.140625 50.984375 30.046875 53.484375 
Q 34.96875 56 40.578125 56 
Q 46.53125 56 50.359375 52.875 
Q 54.203125 49.75 54.984375 44.1875 
Q 59.078125 49.953125 64.46875 52.96875 
Q 69.875 56 75.875 56 
Q 82.90625 56 86.734375 51.953125 
Q 90.578125 47.90625 90.578125 40.484375 
Q 90.578125 38.875 90.375 36.9375 
Q 90.1875 35.015625 89.796875 33.015625 
z
" id="DejaVuSans-Oblique-109"/>
       <path d="M 8.015625 75.875 
L 15.828125 75.875 
Q 23.140625 64.359375 26.78125 53.3125 
Q 30.421875 42.28125 30.421875 31.390625 
Q 30.421875 20.453125 26.78125 9.375 
Q 23.140625 -1.703125 15.828125 -13.1875 
L 8.015625 -13.1875 
Q 14.5 -2 17.703125 9.0625 
Q 20.90625 20.125 20.90625 31.390625 
Q 20.90625 42.671875 17.703125 53.65625 
Q 14.5 64.65625 8.015625 75.875 
z
" id="DejaVuSans-41"/>
      </defs>
      <use transform="translate(0 0.015625)" xlink:href="#DejaVuSans-87"/>
      <use transform="translate(98.876953 0.015625)" xlink:href="#DejaVuSans-97"/>
      <use transform="translate(160.15625 0.015625)" xlink:href="#DejaVuSans-118"/>
      <use transform="translate(219.335938 0.015625)" xlink:href="#DejaVuSans-101"/>
      <use transform="translate(280.859375 0.015625)" xlink:href="#DejaVuSans-108"/>
      <use transform="translate(308.642578 0.015625)" xlink:href="#DejaVuSans-101"/>
      <use transform="translate(370.166016 0.015625)" xlink:href="#DejaVuSans-110"/>
      <use transform="translate(433.544922 0.015625)" xlink:href="#DejaVuSans-103"/>
      <use transform="translate(497.021484 0.015625)" xlink:href="#DejaVuSans-116"/>
      <use transform="translate(536.230469 0.015625)" xlink:href="#DejaVuSans-104"/>
      <use transform="translate(599.609375 0.015625)" xlink:href="#DejaVuSans-32"/>
      <use transform="translate(631.396484 0.015625)" xlink:href="#DejaVuSans-40"/>
      <use transform="translate(670.410156 0.015625)" xlink:href="#DejaVuSans-Oblique-956"/>
      <use transform="translate(734.033203 0.015625)" xlink:href="#DejaVuSans-Oblique-109"/>
      <use transform="translate(831.445312 0.015625)" xlink:href="#DejaVuSans-41"/>
     </g>
    </g>
   </g>
   <g id="matplotlib.axis_2">
    <g id="ytick_1">
     <g id="line2d_6">
      <defs>
       <path d="M 0 0 
L -3.5 0 
" id="m6d7c902971" style="stroke:#000000;stroke-width:0.8;"/>
      </defs>
      <g>
       <use style="stroke:#000000;stroke-width:0.8;" x="46.04" xlink:href="#m6d7c902971" y="316.12"/>
      </g>
     </g>
     <g id="text_7">
      <!-- 0 -->
      <g transform="translate(32.6775 319.919219)scale(0.1 -0.1)">
       <use xlink:href="#DejaVuSans-48"/>
      </g>
     </g>
    </g>
    <g id="ytick_2">
     <g id="line2d_7">
      <g>
       <use style="stroke:#000000;stroke-width:0.8;" x="46.04" xlink:href="#m6d7c902971" y="274.971429"/>
      </g>
     </g>
     <g id="text_8">
      <!-- 10 -->
      <g transform="translate(26.315 278.770647)scale(0.1 -0.1)">
       <use xlink:href="#DejaVuSans-49"/>
       <use x="63.623047" xlink:href="#DejaVuSans-48"/>
      </g>
     </g>
    </g>
    <g id="ytick_3">
     <g id="line2d_8">
      <g>
       <use style="stroke:#000000;stroke-width:0.8;" x="46.04" xlink:href="#m6d7c902971" y="233.822857"/>
      </g>
     </g>
     <g id="text_9">
      <!-- 20 -->
      <g transform="translate(26.315 237.622076)scale(0.1 -0.1)">
       <use xlink:href="#DejaVuSans-50"/>
       <use x="63.623047" xlink:href="#DejaVuSans-48"/>
      </g>
     </g>
    </g>
    <g id="ytick_4">
     <g id="line2d_9">
      <g>
       <use style="stroke:#000000;stroke-width:0.8;" x="46.04" xlink:href="#m6d7c902971" y="192.674286"/>
      </g>
     </g>
     <g id="text_10">
      <!-- 30 -->
      <g transform="translate(26.315 196.473504)scale(0.1 -0.1)">
       <defs>
        <path d="M 40.578125 39.3125 
Q 47.65625 37.796875 51.625 33 
Q 55.609375 28.21875 55.609375 21.1875 
Q 55.609375 10.40625 48.1875 4.484375 
Q 40.765625 -1.421875 27.09375 -1.421875 
Q 22.515625 -1.421875 17.65625 -0.515625 
Q 12.796875 0.390625 7.625 2.203125 
L 7.625 11.71875 
Q 11.71875 9.328125 16.59375 8.109375 
Q 21.484375 6.890625 26.8125 6.890625 
Q 36.078125 6.890625 40.9375 10.546875 
Q 45.796875 14.203125 45.796875 21.1875 
Q 45.796875 27.640625 41.28125 31.265625 
Q 36.765625 34.90625 28.71875 34.90625 
L 20.21875 34.90625 
L 20.21875 43.015625 
L 29.109375 43.015625 
Q 36.375 43.015625 40.234375 45.921875 
Q 44.09375 48.828125 44.09375 54.296875 
Q 44.09375 59.90625 40.109375 62.90625 
Q 36.140625 65.921875 28.71875 65.921875 
Q 24.65625 65.921875 20.015625 65.03125 
Q 15.375 64.15625 9.8125 62.3125 
L 9.8125 71.09375 
Q 15.4375 72.65625 20.34375 73.4375 
Q 25.25 74.21875 29.59375 74.21875 
Q 40.828125 74.21875 47.359375 69.109375 
Q 53.90625 64.015625 53.90625 55.328125 
Q 53.90625 49.265625 50.4375 45.09375 
Q 46.96875 40.921875 40.578125 39.3125 
z
" id="DejaVuSans-51"/>
       </defs>
       <use xlink:href="#DejaVuSans-51"/>
       <use x="63.623047" xlink:href="#DejaVuSans-48"/>
      </g>
     </g>
    </g>
    <g id="ytick_5">
     <g id="line2d_10">
      <g>
       <use style="stroke:#000000;stroke-width:0.8;" x="46.04" xlink:href="#m6d7c902971" y="151.525714"/>
      </g>
     </g>
     <g id="text_11">
      <!-- 40 -->
      <g transform="translate(26.315 155.324933)scale(0.1 -0.1)">
       <defs>
        <path d="M 37.796875 64.3125 
L 12.890625 25.390625 
L 37.796875 25.390625 
z
M 35.203125 72.90625 
L 47.609375 72.90625 
L 47.609375 25.390625 
L 58.015625 25.390625 
L 58.015625 17.1875 
L 47.609375 17.1875 
L 47.609375 0 
L 37.796875 0 
L 37.796875 17.1875 
L 4.890625 17.1875 
L 4.890625 26.703125 
z
" id="DejaVuSans-52"/>
       </defs>
       <use xlink:href="#DejaVuSans-52"/>
       <use x="63.623047" xlink:href="#DejaVuSans-48"/>
      </g>
     </g>
    </g>
    <g id="ytick_6">
     <g id="line2d_11">
      <g>
       <use style="stroke:#000000;stroke-width:0.8;" x="46.04" xlink:href="#m6d7c902971" y="110.377143"/>
      </g>
     </g>
     <g id="text_12">
      <!-- 50 -->
      <g transform="translate(26.315 114.176362)scale(0.1 -0.1)">
       <use xlink:href="#DejaVuSans-53"/>
       <use x="63.623047" xlink:href="#DejaVuSans-48"/>
      </g>
     </g>
    </g>
    <g id="ytick_7">
     <g id="line2d_12">
      <g>
       <use style="stroke:#000000;stroke-width:0.8;" x="46.04" xlink:href="#m6d7c902971" y="69.228571"/>
      </g>
     </g>
     <g id="text_13">
      <!-- 60 -->
      <g transform="translate(26.315 73.02779)scale(0.1 -0.1)">
       <defs>
        <path d="M 33.015625 40.375 
Q 26.375 40.375 22.484375 35.828125 
Q 18.609375 31.296875 18.609375 23.390625 
Q 18.609375 15.53125 22.484375 10.953125 
Q 26.375 6.390625 33.015625 6.390625 
Q 39.65625 6.390625 43.53125 10.953125 
Q 47.40625 15.53125 47.40625 23.390625 
Q 47.40625 31.296875 43.53125 35.828125 
Q 39.65625 40.375 33.015625 40.375 
z
M 52.59375 71.296875 
L 52.59375 62.3125 
Q 48.875 64.0625 45.09375 64.984375 
Q 41.3125 65.921875 37.59375 65.921875 
Q 27.828125 65.921875 22.671875 59.328125 
Q 17.53125 52.734375 16.796875 39.40625 
Q 19.671875 43.65625 24.015625 45.921875 
Q 28.375 48.1875 33.59375 48.1875 
Q 44.578125 48.1875 50.953125 41.515625 
Q 57.328125 34.859375 57.328125 23.390625 
Q 57.328125 12.15625 50.6875 5.359375 
Q 44.046875 -1.421875 33.015625 -1.421875 
Q 20.359375 -1.421875 13.671875 8.265625 
Q 6.984375 17.96875 6.984375 36.375 
Q 6.984375 53.65625 15.1875 63.9375 
Q 23.390625 74.21875 37.203125 74.21875 
Q 40.921875 74.21875 44.703125 73.484375 
Q 48.484375 72.75 52.59375 71.296875 
z
" id="DejaVuSans-54"/>
       </defs>
       <use xlink:href="#DejaVuSans-54"/>
       <use x="63.623047" xlink:href="#DejaVuSans-48"/>
      </g>
     </g>
    </g>
    <g id="ytick_8">
     <g id="line2d_13">
      <g>
       <use style="stroke:#000000;stroke-width:0.8;" x="46.04" xlink:href="#m6d7c902971" y="28.08"/>
      </g>
     </g>
     <g id="text_14">
      <!-- 70 -->
      <g transform="translate(26.315 31.879219)scale(0.1 -0.1)">
       <defs>
        <path d="M 8.203125 72.90625 
L 55.078125 72.90625 
L 55.078125 68.703125 
L 28.609375 0 
L 18.3125 0 
L 43.21875 64.59375 
L 8.203125 64.59375 
z
" id="DejaVuSans-55"/>
       </defs>
       <use xlink:href="#DejaVuSans-55"/>
       <use x="63.623047" xlink:href="#DejaVuSans-48"/>
      </g>
     </g>
    </g>
    <g id="text_15">
     <!-- Reflectance ($\%$) -->
     <g transform="translate(19.819375 219.86)rotate(-90)scale(0.12 -0.12)">
      <defs>
       <path d="M 44.390625 34.1875 
Q 47.5625 33.109375 50.5625 29.59375 
Q 53.5625 26.078125 56.59375 19.921875 
L 66.609375 0 
L 56 0 
L 46.6875 18.703125 
Q 43.0625 26.03125 39.671875 28.421875 
Q 36.28125 30.8125 30.421875 30.8125 
L 19.671875 30.8125 
L 19.671875 0 
L 9.8125 0 
L 9.8125 72.90625 
L 32.078125 72.90625 
Q 44.578125 72.90625 50.734375 67.671875 
Q 56.890625 62.453125 56.890625 51.90625 
Q 56.890625 45.015625 53.6875 40.46875 
Q 50.484375 35.9375 44.390625 34.1875 
z
M 19.671875 64.796875 
L 19.671875 38.921875 
L 32.078125 38.921875 
Q 39.203125 38.921875 42.84375 42.21875 
Q 46.484375 45.515625 46.484375 51.90625 
Q 46.484375 58.296875 42.84375 61.546875 
Q 39.203125 64.796875 32.078125 64.796875 
z
" id="DejaVuSans-82"/>
       <path d="M 37.109375 75.984375 
L 37.109375 68.5 
L 28.515625 68.5 
Q 23.6875 68.5 21.796875 66.546875 
Q 19.921875 64.59375 19.921875 59.515625 
L 19.921875 54.6875 
L 34.71875 54.6875 
L 34.71875 47.703125 
L 19.921875 47.703125 
L 19.921875 0 
L 10.890625 0 
L 10.890625 47.703125 
L 2.296875 47.703125 
L 2.296875 54.6875 
L 10.890625 54.6875 
L 10.890625 58.5 
Q 10.890625 67.625 15.140625 71.796875 
Q 19.390625 75.984375 28.609375 75.984375 
z
" id="DejaVuSans-102"/>
       <path d="M 48.78125 52.59375 
L 48.78125 44.1875 
Q 44.96875 46.296875 41.140625 47.34375 
Q 37.3125 48.390625 33.40625 48.390625 
Q 24.65625 48.390625 19.8125 42.84375 
Q 14.984375 37.3125 14.984375 27.296875 
Q 14.984375 17.28125 19.8125 11.734375 
Q 24.65625 6.203125 33.40625 6.203125 
Q 37.3125 6.203125 41.140625 7.25 
Q 44.96875 8.296875 48.78125 10.40625 
L 48.78125 2.09375 
Q 45.015625 0.34375 40.984375 -0.53125 
Q 36.96875 -1.421875 32.421875 -1.421875 
Q 20.0625 -1.421875 12.78125 6.34375 
Q 5.515625 14.109375 5.515625 27.296875 
Q 5.515625 40.671875 12.859375 48.328125 
Q 20.21875 56 33.015625 56 
Q 37.15625 56 41.109375 55.140625 
Q 45.0625 54.296875 48.78125 52.59375 
z
" id="DejaVuSans-99"/>
       <path d="M 72.703125 32.078125 
Q 68.453125 32.078125 66.03125 28.46875 
Q 63.625 24.859375 63.625 18.40625 
Q 63.625 12.0625 66.03125 8.421875 
Q 68.453125 4.78125 72.703125 4.78125 
Q 76.859375 4.78125 79.265625 8.421875 
Q 81.6875 12.0625 81.6875 18.40625 
Q 81.6875 24.8125 79.265625 28.4375 
Q 76.859375 32.078125 72.703125 32.078125 
z
M 72.703125 38.28125 
Q 80.421875 38.28125 84.953125 32.90625 
Q 89.5 27.546875 89.5 18.40625 
Q 89.5 9.28125 84.9375 3.921875 
Q 80.375 -1.421875 72.703125 -1.421875 
Q 64.890625 -1.421875 60.34375 3.921875 
Q 55.8125 9.28125 55.8125 18.40625 
Q 55.8125 27.59375 60.375 32.9375 
Q 64.9375 38.28125 72.703125 38.28125 
z
M 22.3125 68.015625 
Q 18.109375 68.015625 15.6875 64.375 
Q 13.28125 60.75 13.28125 54.390625 
Q 13.28125 47.953125 15.671875 44.328125 
Q 18.0625 40.71875 22.3125 40.71875 
Q 26.5625 40.71875 28.96875 44.328125 
Q 31.390625 47.953125 31.390625 54.390625 
Q 31.390625 60.6875 28.953125 64.34375 
Q 26.515625 68.015625 22.3125 68.015625 
z
M 66.40625 74.21875 
L 74.21875 74.21875 
L 28.609375 -1.421875 
L 20.796875 -1.421875 
z
M 22.3125 74.21875 
Q 30.03125 74.21875 34.609375 68.875 
Q 39.203125 63.53125 39.203125 54.390625 
Q 39.203125 45.171875 34.640625 39.84375 
Q 30.078125 34.515625 22.3125 34.515625 
Q 14.546875 34.515625 10.03125 39.859375 
Q 5.515625 45.21875 5.515625 54.390625 
Q 5.515625 63.484375 10.046875 68.84375 
Q 14.59375 74.21875 22.3125 74.21875 
z
" id="DejaVuSans-37"/>
      </defs>
      <use transform="translate(0 0.015625)" xlink:href="#DejaVuSans-82"/>
      <use transform="translate(69.482422 0.015625)" xlink:href="#DejaVuSans-101"/>
      <use transform="translate(131.005859 0.015625)" xlink:href="#DejaVuSans-102"/>
      <use transform="translate(166.210938 0.015625)" xlink:href="#DejaVuSans-108"/>
      <use transform="translate(193.994141 0.015625)" xlink:href="#DejaVuSans-101"/>
      <use transform="translate(255.517578 0.015625)" xlink:href="#DejaVuSans-99"/>
      <use transform="translate(310.498047 0.015625)" xlink:href="#DejaVuSans-116"/>
      <use transform="translate(349.707031 0.015625)" xlink:href="#DejaVuSans-97"/>
      <use transform="translate(410.986328 0.015625)" xlink:href="#DejaVuSans-110"/>
      <use transform="translate(474.365234 0.015625)" xlink:href="#DejaVuSans-99"/>
      <use transform="translate(529.345703 0.015625)" xlink:href="#DejaVuSans-101"/>
      <use transform="translate(590.869141 0.015625)" xlink:href="#DejaVuSans-32"/>
      <use transform="translate(622.65625 0.015625)" xlink:href="#DejaVuSans-40"/>
      <use transform="translate(661.669922 0.015625)" xlink:href="#DejaVuSans-37"/>
      <use transform="translate(756.689453 0.015625)" xlink:href="#DejaVuSans-41"/>
     </g>
    </g>
   </g>
   <g id="line2d_14">
    <path clip-path="url(#p88fc984bb1)" d="M 59.82 306.173548 
L 60.869905 305.975374 
L 64.938286 304.825438 
L 67.825524 304.392198 
L 70.975238 304.074625 
L 71.631429 303.808097 
L 72.156381 303.404594 
L 72.681333 302.70269 
L 73.206286 301.566052 
L 73.731238 299.841711 
L 74.25619 297.347574 
L 74.912381 292.918207 
L 75.962286 283.683309 
L 76.749714 277.42984 
L 77.274667 274.572763 
L 77.799619 272.794454 
L 78.324571 271.755827 
L 79.636952 270.015025 
L 80.030667 269.919747 
L 80.293143 270.143494 
L 80.555619 270.595793 
L 81.080571 272.132481 
L 81.736762 275.080475 
L 83.311619 282.973177 
L 84.099048 285.393187 
L 84.755238 286.762522 
L 85.411429 287.593904 
L 86.592571 288.968351 
L 87.117524 290.086202 
L 88.692381 293.805502 
L 89.217333 294.420579 
L 89.742286 294.686938 
L 90.398476 295.003752 
L 90.79219 295.523562 
L 91.317143 296.757507 
L 92.498286 299.79726 
L 93.154476 300.692658 
L 93.810667 301.696041 
L 94.598095 302.916692 
L 94.99181 303.189486 
L 95.385524 303.214351 
L 95.779238 303.048404 
L 96.30419 302.585475 
L 96.829143 301.795206 
L 97.222857 300.724978 
L 97.485333 299.462411 
L 97.879048 295.974618 
L 98.272762 289.7963 
L 98.797714 277.062575 
L 99.716381 246.835411 
L 101.947429 165.24889 
L 103.391048 113.397845 
L 104.178476 91.295205 
L 104.965905 75.219351 
L 105.622095 66.234891 
L 106.672 56.570262 
L 107.459429 51.364494 
L 108.115619 48.530828 
L 108.640571 47.11074 
L 109.165524 46.29206 
L 109.559238 45.980521 
L 111.790286 45.293214 
L 114.94 44.726123 
L 115.989905 44.954219 
L 116.252381 45.145354 
L 116.514857 45.309482 
L 116.777333 45.441377 
L 118.745905 45.559777 
L 119.270857 45.546192 
L 120.714476 45.601664 
L 121.239429 45.579868 
L 121.633143 45.576827 
L 123.076762 45.763383 
L 123.995429 45.933713 
L 125.570286 46.165502 
L 125.964 46.260359 
L 126.226476 46.292701 
L 126.62019 46.442145 
L 126.882667 46.517315 
L 127.276381 46.739533 
L 127.538857 46.868039 
L 127.932571 47.260914 
L 128.195048 47.510206 
L 128.588762 48.212053 
L 129.113714 49.113354 
L 129.37619 50.056764 
L 129.901143 51.175152 
L 130.163619 52.195236 
L 131.738476 58.827579 
L 133.182095 69.755447 
L 133.707048 71.843416 
L 134.494476 72.631106 
L 135.281905 73.021863 
L 135.806857 72.797887 
L 136.594286 71.930973 
L 137.381714 70.430618 
L 140.006476 63.737922 
L 142.631238 56.092021 
L 142.893714 55.647565 
L 143.943619 53.093665 
L 144.468571 52.186429 
L 145.91219 50.038176 
L 146.437143 49.572815 
L 146.830857 49.26427 
L 148.143238 48.845599 
L 148.536952 48.966885 
L 148.930667 49.027489 
L 149.193143 49.128158 
L 151.030476 50.956928 
L 151.686667 52.107278 
L 151.949143 52.537025 
L 152.342857 53.122206 
L 152.605333 53.607641 
L 152.999048 54.235728 
L 153.524 55.064693 
L 153.786476 55.091836 
L 154.573905 57.048362 
L 155.230095 59.481838 
L 155.886286 64.244814 
L 157.461143 85.4717 
L 157.854857 92.565799 
L 159.036 102.956896 
L 159.954667 105.538474 
L 160.873333 106.012605 
L 161.13581 106.646484 
L 161.398286 107.07458 
L 161.792 106.879701 
L 163.89181 108.548588 
L 164.548 108.832893 
L 164.810476 108.378542 
L 164.941714 108.129191 
L 165.072952 108.163402 
L 165.335429 108.392051 
L 165.466667 108.311994 
L 165.860381 107.790762 
L 166.122857 107.7551 
L 166.516571 107.230063 
L 166.779048 107.267744 
L 166.910286 107.160069 
L 167.435238 106.187333 
L 167.697714 106.183326 
L 167.96019 105.909228 
L 168.222667 105.716553 
L 168.616381 105.597266 
L 169.535048 104.494479 
L 169.797524 104.398004 
L 170.06 104.390197 
L 170.322476 104.181644 
L 170.71619 103.683009 
L 171.372381 103.191185 
L 171.766095 102.775881 
L 172.028571 102.783794 
L 172.422286 102.868478 
L 172.684762 102.703967 
L 172.947238 102.407869 
L 173.865905 102.445206 
L 174.128381 102.690149 
L 174.522095 103.453468 
L 174.91581 103.966658 
L 175.178286 104.267162 
L 175.572 105.238531 
L 176.096952 106.65092 
L 176.490667 107.422771 
L 177.015619 109.008829 
L 177.803048 112.214399 
M 197.62 288.978003 
L 198.669905 288.6805 
L 199.063619 288.391987 
L 199.457333 287.909022 
L 200.113524 286.753059 
L 201.950857 281.813501 
L 203.656952 275.73889 
L 209.693905 248.402215 
L 211.268762 241.3016 
L 212.05619 238.182797 
L 213.49981 232.61534 
L 215.599619 224.915693 
L 215.993333 223.671745 
L 216.912 220.511198 
L 217.830667 217.824536 
L 218.224381 216.749031 
L 218.486857 216.168101 
L 218.880571 215.318443 
L 219.274286 214.382101 
L 220.192952 212.451489 
L 220.849143 210.913258 
L 220.980381 210.809933 
L 221.374095 210.097352 
L 221.505333 210.049107 
L 221.899048 209.298674 
L 222.030286 209.212843 
L 222.424 208.611792 
L 222.555238 208.550311 
L 223.211429 207.353917 
L 223.342667 207.233881 
L 223.605143 206.848655 
L 223.867619 206.439455 
L 223.998857 206.269867 
L 224.130095 206.293124 
L 224.261333 206.015178 
L 224.392571 206.108494 
L 224.52381 205.981796 
L 224.655048 206.054035 
L 224.786286 205.849614 
L 225.048762 205.92341 
L 225.18 205.956664 
L 225.311238 205.869571 
L 225.442476 206.036842 
L 225.573714 205.925725 
L 225.704952 206.050952 
L 225.83619 205.904149 
L 225.967429 206.008504 
L 226.098667 205.886286 
L 226.229905 205.965342 
L 226.492381 205.858759 
L 226.623619 205.560347 
L 226.754857 205.714307 
L 226.886095 205.63717 
L 227.542286 206.012224 
L 227.673524 205.975619 
L 227.804762 206.158731 
L 227.936 206.149342 
L 228.198476 206.409646 
L 228.723429 206.721573 
L 228.854667 206.97479 
L 228.985905 206.922668 
L 229.248381 207.142647 
L 230.167048 208.068119 
L 233.710476 214.467381 
L 234.10419 215.229437 
L 235.54781 218.148323 
L 236.335238 220.335055 
L 237.122667 222.811857 
L 237.910095 225.570779 
L 239.484952 229.976724 
L 239.747429 230.458135 
L 239.878667 230.557746 
L 240.272381 231.306088 
L 240.534857 231.553325 
L 241.453524 232.649251 
L 241.847238 233.191287 
L 242.634667 233.541665 
L 243.028381 233.615219 
L 243.422095 233.464998 
M 264.551429 309.04018 
L 265.470095 308.880533 
L 266.651238 308.524975 
L 267.438667 308.21128 
L 270.850857 305.817289 
L 272.294476 304.435227 
L 273.081905 303.632997 
L 274.13181 302.475282 
L 274.656762 301.90399 
L 275.44419 300.947462 
L 275.706667 300.656717 
L 276.625333 299.545403 
L 279.381333 295.6826 
L 280.3 294.305503 
L 280.824952 293.571194 
L 284.105905 288.42451 
L 284.499619 287.871129 
L 285.15581 286.927321 
L 285.418286 286.591037 
L 286.336952 285.19016 
L 286.730667 284.67765 
L 287.649333 283.477322 
L 288.174286 282.926344 
L 288.961714 282.038423 
L 289.749143 281.219649 
L 290.799048 280.206607 
L 291.192762 279.900605 
L 292.373905 279.034508 
L 294.998667 277.100839 
L 298.017143 276.583741 
L 298.804571 276.711119 
L 299.067048 276.76606 
L 299.723238 277.055088 
L 301.035619 278.050097 
L 301.823048 279.045072 
L 303.266667 281.130797 
L 306.285143 285.411232 
L 307.728762 287.456679 
L 308.647429 288.768749 
L 308.778667 288.8985 
L 309.041143 289.329366 
L 310.222286 290.888553 
L 314.290667 295.779034 
L 314.553143 296.183214 
L 317.046667 298.906268 
L 317.177905 299.006955 
L 317.440381 299.359996 
L 318.359048 300.254663 
L 318.621524 300.578105 
L 320.065143 301.946494 
L 320.458857 302.351501 
L 321.115048 302.92059 
L 321.508762 303.290896 
L 322.164952 303.803028 
L 322.558667 304.146553 
L 322.821143 304.393482 
L 323.608571 304.952742 
L 324.133524 305.423052 
L 324.920952 305.985739 
L 325.314667 306.281174 
L 325.839619 306.634161 
L 326.364571 307.040861 
L 327.545714 307.723255 
L 328.070667 308.075819 
L 329.120571 308.61117 
L 329.645524 308.915415 
L 330.957905 309.457341 
L 331.614095 309.690734 
L 335.157524 310.423062 
L 335.42 310.442911 
L 335.42 310.442911 
" style="fill:none;stroke:#bfce68;stroke-linecap:square;stroke-width:1.5;"/>
   </g>
   <g id="line2d_15">
    <path clip-path="url(#p88fc984bb1)" d="M 59.82 306.243387 
L 60.869905 306.014683 
L 64.807048 304.854604 
L 69.137905 304.29769 
L 70.975238 304.09195 
L 71.631429 303.831352 
L 72.156381 303.4366 
L 72.681333 302.748715 
L 73.206286 301.633305 
L 73.731238 299.939995 
L 74.25619 297.490197 
L 74.912381 293.142196 
L 75.962286 284.097007 
L 76.749714 277.98911 
L 77.274667 275.203157 
L 77.799619 273.470381 
L 78.324571 272.458632 
L 79.636952 270.764265 
L 80.030667 270.671868 
L 80.293143 270.889727 
L 80.555619 271.330036 
L 81.080571 272.826236 
L 81.736762 275.698779 
L 83.311619 283.405989 
L 84.099048 285.773983 
L 84.755238 287.114873 
L 85.411429 287.92938 
L 86.592571 289.276501 
L 87.117524 290.372386 
L 88.692381 294.021126 
L 89.217333 294.624998 
L 89.742286 294.886702 
L 90.398476 295.197911 
L 90.79219 295.708198 
L 91.317143 296.919668 
L 92.498286 299.904633 
L 93.154476 300.783636 
L 93.810667 301.768063 
L 94.598095 302.962825 
L 94.99181 303.227177 
L 95.385524 303.247428 
L 95.910476 302.990686 
L 96.435429 302.458685 
L 96.960381 301.558784 
L 97.354095 300.247367 
L 97.616571 298.653829 
L 98.010286 294.428987 
L 98.404 287.41189 
L 98.928952 273.850873 
L 100.110095 235.071928 
L 103.653524 118.344754 
L 104.440952 101.15869 
L 105.097143 90.985456 
L 105.753333 84.161376 
L 106.672 77.300721 
L 107.459429 73.009666 
L 108.115619 70.681468 
L 108.640571 69.512155 
L 109.165524 68.83222 
L 109.559238 68.56946 
L 112.708952 67.716786 
L 114.021333 67.491406 
L 115.59619 67.430106 
L 116.252381 67.694459 
L 117.696 68.015462 
L 120.320762 67.961139 
L 121.239429 67.931449 
L 121.633143 67.918921 
L 123.076762 68.029477 
L 123.995429 68.144496 
L 125.701524 68.328532 
L 127.407619 68.72874 
L 128.195048 69.315452 
L 128.588762 69.880267 
L 129.113714 70.60579 
L 129.37619 71.371439 
L 129.901143 72.273461 
L 130.163619 73.102901 
L 131.738476 78.528992 
L 133.182095 87.593767 
L 133.707048 89.332042 
L 134.494476 89.982857 
L 135.281905 90.299635 
L 135.806857 90.102541 
L 136.725524 89.177172 
L 137.64419 87.609095 
L 138.169143 86.589938 
L 139.481524 83.784948 
L 142.631238 76.082109 
L 143.024952 75.419074 
L 143.681143 74.04545 
L 144.468571 72.834814 
L 146.043429 70.976004 
L 147.487048 70.146607 
L 148.405714 70.072874 
L 148.799429 70.183585 
L 149.193143 70.256579 
L 151.030476 71.733627 
L 151.686667 72.666833 
L 151.949143 73.01834 
L 152.342857 73.497088 
L 152.605333 73.89319 
L 152.999048 74.41213 
L 153.524 75.096016 
L 153.786476 75.116978 
L 154.573905 76.719939 
L 155.230095 78.726979 
L 155.886286 82.685872 
L 157.329905 98.961523 
L 158.37981 111.038411 
L 158.904762 115.230211 
L 159.560952 117.075427 
L 159.954667 117.913141 
L 161.004571 118.525784 
L 161.267048 119.182096 
L 161.398286 119.243143 
L 161.792 119.072009 
L 163.89181 120.52148 
L 164.548 120.767335 
L 164.810476 120.368403 
L 164.941714 120.149692 
L 165.20419 120.31595 
L 165.335429 120.38586 
L 165.466667 120.320097 
L 165.860381 119.887442 
L 166.122857 119.874218 
L 166.516571 119.453401 
L 166.910286 119.438911 
L 167.435238 118.666326 
L 167.697714 118.699632 
L 167.96019 118.509406 
L 168.222667 118.389699 
L 168.616381 118.359642 
L 169.535048 117.60171 
L 169.797524 117.575338 
L 170.06 117.62667 
L 170.322476 117.508776 
L 170.71619 117.173086 
L 171.372381 116.912018 
L 171.766095 116.649417 
L 172.028571 116.719933 
L 172.422286 116.886021 
L 172.684762 116.809801 
L 172.947238 116.615917 
L 173.997143 116.953483 
L 174.390857 117.571749 
L 174.784571 118.221625 
L 175.178286 118.641282 
L 175.572 119.526744 
L 176.096952 120.798276 
L 176.621905 121.78691 
L 177.409333 124.247174 
L 177.803048 125.650806 
M 197.62 289.727311 
L 198.669905 289.461671 
L 199.063619 289.194019 
L 199.457333 288.736199 
L 200.113524 287.640154 
L 201.950857 282.990178 
L 203.78819 276.752034 
L 206.019238 267.795156 
L 206.937905 263.757968 
L 207.200381 262.656662 
L 207.856571 259.844272 
L 211.793714 243.420966 
L 216.912 226.523828 
L 217.830667 224.016412 
L 218.224381 223.014493 
L 218.618095 222.262048 
L 219.799238 219.755889 
L 220.061714 219.275742 
L 221.242857 217.057495 
L 221.899048 216.090919 
L 222.030286 216.020254 
L 222.424 215.456767 
L 222.555238 215.417816 
L 222.948952 214.745071 
L 223.998857 213.464136 
L 224.130095 213.509623 
L 224.261333 213.272316 
L 224.392571 213.412526 
L 224.52381 213.318076 
L 224.655048 213.403049 
L 224.786286 213.244172 
L 225.048762 213.410462 
L 225.967429 213.797429 
L 226.098667 213.751552 
L 226.361143 213.868453 
L 226.492381 213.845583 
L 226.623619 213.453526 
L 226.754857 213.64971 
L 226.886095 213.625846 
L 228.723429 215.411142 
L 228.985905 215.714795 
L 229.248381 216.019791 
L 230.167048 217.214372 
L 231.479429 219.613874 
L 231.610667 219.756174 
L 232.004381 220.555085 
L 232.660571 221.544617 
L 233.054286 222.446428 
L 233.448 223.110795 
L 234.629143 224.951769 
L 234.891619 225.402913 
L 235.54781 226.393375 
L 238.30381 233.675158 
L 238.96 235.195365 
L 239.747429 236.507495 
L 239.878667 236.55822 
L 240.141143 236.959791 
L 240.403619 237.281985 
L 240.666095 237.368657 
L 241.978476 238.690176 
L 242.765905 238.90718 
L 243.422095 238.742988 
M 264.551429 309.078767 
L 265.470095 308.931496 
L 266.651238 308.597707 
L 267.438667 308.3013 
L 270.850857 306.048509 
L 272.032 304.997666 
L 272.556952 304.529022 
L 273.606857 303.517012 
L 274.394286 302.784146 
L 275.181714 301.97686 
L 275.575429 301.639604 
L 276.88781 300.249093 
L 277.281524 299.876218 
L 278.725143 298.0888 
L 279.250095 297.485001 
L 280.693714 295.640481 
L 280.95619 295.349711 
L 281.743619 294.336698 
L 283.318476 292.285041 
L 284.630857 290.645985 
L 285.024571 290.233916 
L 286.074476 288.944987 
L 286.993143 287.901171 
L 287.518095 287.383125 
L 288.305524 286.665197 
L 290.536571 284.830065 
L 291.98019 283.876152 
L 293.948762 282.504588 
L 294.604952 282.044338 
L 295.786095 281.61914 
L 296.573524 281.450918 
L 297.885905 281.14112 
L 298.673333 281.19857 
L 299.329524 281.328895 
L 300.510667 282.086243 
L 301.166857 282.785231 
L 302.872952 285.26708 
L 303.397905 286.134282 
L 306.547619 290.362417 
L 307.466286 291.553102 
L 309.303619 293.79696 
L 310.091048 294.664435 
L 313.634476 297.878481 
L 313.896952 298.218081 
L 317.571619 301.445781 
L 317.965333 301.779604 
L 323.346095 305.803289 
L 324.264762 306.41231 
L 328.201905 308.701579 
L 329.120571 309.11865 
L 329.645524 309.379159 
L 334.107619 310.539608 
L 335.42 310.635356 
L 335.42 310.635356 
" style="fill:none;stroke:#aac03b;stroke-linecap:square;stroke-width:1.5;"/>
   </g>
   <g id="line2d_16">
    <path clip-path="url(#p88fc984bb1)" d="M 59.82 306.284008 
L 61.001143 306.000084 
L 62.576 305.458157 
L 64.150857 304.98535 
L 66.250667 304.639688 
L 70.056571 304.247257 
L 71.237714 304.034735 
L 71.893905 303.686976 
L 72.418857 303.178865 
L 72.94381 302.308004 
L 73.468762 300.950048 
L 73.993714 298.934945 
L 74.518667 296.095812 
L 75.174857 291.297583 
L 76.880952 277.748736 
L 77.405905 275.308419 
L 77.930857 273.831619 
L 78.45581 272.96001 
L 79.636952 271.492822 
L 80.030667 271.403206 
L 80.293143 271.61542 
L 80.555619 272.044217 
L 81.080571 273.501497 
L 81.736762 276.30137 
L 83.311619 283.829192 
L 84.099048 286.146691 
L 84.755238 287.45993 
L 85.411429 288.258022 
L 86.592571 289.578541 
L 87.117524 290.65302 
L 88.692381 294.232884 
L 89.217333 294.825802 
L 89.742286 295.082954 
L 90.398476 295.388682 
L 90.79219 295.889651 
L 91.317143 297.079114 
L 92.498286 300.010352 
L 93.154476 300.873251 
L 93.810667 301.839044 
L 94.598095 303.008328 
L 94.99181 303.264363 
L 95.385524 303.280067 
L 95.910476 303.021619 
L 96.435429 302.492329 
L 96.960381 301.605141 
L 97.354095 300.31954 
L 97.616571 298.757742 
L 98.010286 294.615118 
L 98.404 287.739726 
L 98.928952 274.494508 
L 100.241333 232.794512 
L 103.25981 139.042671 
L 104.047238 121.582543 
L 104.703429 110.894378 
L 105.359619 103.417259 
L 106.01581 98.44044 
L 106.934476 93.118504 
L 107.590667 90.388171 
L 108.246857 88.598211 
L 108.77181 87.72405 
L 109.296762 87.227178 
L 109.821714 87.030622 
L 114.546286 86.035042 
L 115.59619 86.004307 
L 116.646095 86.372504 
L 117.958476 86.443963 
L 119.533333 86.358909 
L 120.320762 86.356158 
L 121.370667 86.285414 
L 122.55181 86.313764 
L 124.126667 86.434971 
L 124.914095 86.48892 
L 126.226476 86.569658 
L 126.751429 86.659497 
L 127.538857 86.903757 
L 127.932571 87.157822 
L 128.195048 87.319141 
L 128.588762 87.785361 
L 129.113714 88.384231 
L 129.37619 89.021122 
L 129.901143 89.766702 
L 130.163619 90.457509 
L 131.738476 94.999687 
L 133.182095 102.675619 
L 133.57581 104.077305 
L 133.969524 104.404493 
L 134.363238 104.657763 
L 135.544381 104.909369 
L 135.938095 104.686693 
L 136.594286 104.138775 
L 137.381714 103.053885 
L 140.137714 97.938417 
L 141.975048 94.136248 
L 142.762476 92.638972 
L 143.15619 91.947273 
L 144.206095 90.281103 
L 146.043429 88.439406 
L 147.487048 87.730543 
L 148.405714 87.656288 
L 148.799429 87.742663 
L 149.193143 87.799396 
L 151.030476 89.021068 
L 151.686667 89.796238 
L 152.080381 90.273598 
L 153.130286 91.406682 
L 153.392762 91.805464 
L 153.786476 91.85366 
L 154.573905 93.196429 
L 155.230095 94.887508 
L 155.886286 98.245731 
L 157.067429 109.739362 
L 157.723619 117.559061 
L 158.117333 120.71779 
L 159.036 126.794039 
L 160.085905 128.82334 
L 160.348381 128.928202 
L 160.742095 129.09948 
L 160.873333 129.122965 
L 161.13581 129.607153 
L 161.398286 129.934029 
L 161.792 129.782021 
L 163.89181 131.055489 
L 164.548 131.270575 
L 165.072952 130.754782 
L 165.335429 130.937215 
L 165.597905 130.713601 
L 165.860381 130.520761 
L 166.122857 130.525035 
L 166.516571 130.186732 
L 166.910286 130.215259 
L 167.435238 129.60064 
L 167.828952 129.631633 
L 168.222667 129.474609 
L 168.616381 129.512905 
L 169.535048 129.021977 
L 169.797524 129.049183 
L 170.06 129.145193 
L 170.322476 129.096806 
L 170.71619 128.886014 
L 171.372381 128.800319 
L 171.766095 128.653824 
L 172.15981 128.867194 
L 172.553524 129.032226 
L 173.078476 128.921007 
L 173.997143 129.365194 
L 174.390857 129.963729 
L 174.784571 130.588957 
L 175.309524 131.242607 
L 176.490667 133.62182 
L 177.015619 134.855633 
L 177.803048 137.277646 
M 197.62 290.44194 
L 198.801143 290.148774 
L 199.063619 289.957555 
L 199.457333 289.523272 
L 200.113524 288.483278 
L 201.950857 284.101974 
L 203.78819 278.249671 
L 206.019238 269.842873 
L 206.937905 266.056884 
L 207.200381 265.024474 
L 207.856571 262.395592 
L 211.793714 247.265563 
L 216.912 231.890118 
L 217.56819 230.241297 
L 218.093143 228.866969 
L 219.799238 225.535513 
L 220.061714 225.097081 
L 221.111619 223.190423 
L 222.817714 221.14373 
L 223.211429 220.548001 
L 223.605143 220.201181 
L 223.867619 219.91427 
L 223.998857 219.83437 
L 224.130095 219.897092 
L 224.261333 219.692886 
L 224.392571 219.869117 
L 224.52381 219.800421 
L 224.655048 219.894996 
L 224.786286 219.77255 
L 225.048762 220.010074 
L 226.492381 220.828235 
L 226.623619 220.366883 
L 226.886095 220.611587 
L 228.460952 222.529593 
L 229.117143 223.55694 
L 229.510857 223.928864 
L 230.03581 224.797292 
L 233.448 230.895649 
L 234.366667 232.196849 
L 234.629143 232.422284 
L 234.891619 232.756948 
L 235.54781 233.477047 
L 237.647619 237.946198 
L 238.30381 239.609631 
L 238.96 240.8535 
L 239.747429 241.849239 
L 239.878667 241.861651 
L 240.141143 242.173066 
L 240.403619 242.408446 
L 240.666095 242.414941 
L 242.240952 243.638377 
L 242.503429 243.612743 
L 243.028381 243.668237 
L 243.422095 243.462647 
M 264.551429 309.115586 
L 265.470095 308.980096 
L 266.651238 308.667003 
L 267.438667 308.387027 
L 271.113333 306.070156 
L 272.294476 305.090783 
L 273.081905 304.440712 
L 273.869333 303.768861 
L 274.656762 303.125977 
L 275.312952 302.574494 
L 276.100381 301.893274 
L 276.625333 301.475016 
L 278.987619 299.13639 
L 279.64381 298.452805 
L 282.531048 295.367541 
L 283.187238 294.694203 
L 284.105905 293.694093 
L 284.762095 293.092794 
L 287.780571 290.302803 
L 290.799048 288.250091 
L 291.192762 288.044196 
L 292.636381 287.230195 
L 293.161333 286.926398 
L 294.08 286.261713 
L 295.261143 285.663286 
L 298.279619 284.954427 
L 299.592 285.217037 
L 300.24819 285.637197 
L 301.429333 286.939909 
L 302.479238 288.548826 
L 305.235238 292.559954 
L 307.728762 295.354346 
L 308.51619 296.192972 
L 309.697333 297.361625 
L 310.222286 297.807275 
L 311.797143 298.799503 
L 312.322095 299.19037 
L 314.290667 300.779785 
L 314.553143 301.046509 
L 315.996762 302.070908 
L 317.177905 302.772508 
L 317.440381 302.98953 
L 318.359048 303.550292 
L 318.752762 303.837951 
L 319.277714 304.169154 
L 323.871048 306.936359 
L 329.25181 309.61315 
L 332.795238 310.544666 
L 334.501333 310.760634 
L 335.42 310.791998 
L 335.42 310.791998 
" style="fill:none;stroke:#8fb926;stroke-linecap:square;stroke-width:1.5;"/>
   </g>
   <g id="line2d_17">
    <path clip-path="url(#p88fc984bb1)" d="M 59.82 306.307798 
L 61.001143 306.019755 
L 62.576 305.475039 
L 64.150857 304.995978 
L 66.119429 304.666556 
L 69.662857 304.293916 
L 71.106476 304.0928 
L 71.762667 303.80187 
L 72.287619 303.366973 
L 72.812571 302.616484 
L 73.337524 301.41435 
L 73.862476 299.610341 
L 74.387429 297.044504 
L 75.043619 292.587869 
L 77.01219 277.601755 
L 77.537143 275.481878 
L 78.062095 274.224347 
L 79.374476 272.43923 
L 79.76819 272.14181 
L 80.030667 272.114573 
L 80.293143 272.321369 
L 80.555619 272.739107 
L 81.080571 274.158955 
L 81.736762 276.888799 
L 83.311619 284.243071 
L 84.099048 286.511538 
L 84.755238 287.797893 
L 85.411429 288.580013 
L 86.592571 289.874629 
L 87.117524 290.928244 
L 88.692381 294.440862 
L 89.217333 295.02307 
L 89.873524 295.320291 
L 90.398476 295.576136 
L 90.79219 296.067987 
L 91.317143 297.235902 
L 92.498286 300.114445 
L 93.154476 300.961526 
L 93.810667 301.909 
L 94.598095 303.053209 
L 94.99181 303.301052 
L 95.385524 303.312276 
L 95.910476 303.052145 
L 96.435429 302.525527 
L 96.960381 301.650863 
L 97.354095 300.390667 
L 97.616571 298.860059 
L 98.010286 294.798034 
L 98.404 288.060964 
L 98.928952 275.121741 
L 100.372571 230.818579 
L 102.866095 157.363783 
L 103.784762 137.107582 
L 104.57219 124.789115 
L 105.228381 117.787157 
L 105.884571 113.196368 
L 106.803238 108.419591 
L 107.459429 105.89517 
L 108.115619 104.209519 
L 108.640571 103.359304 
L 109.165524 102.857515 
L 109.690476 102.626664 
L 114.415048 101.66705 
L 115.727429 101.657693 
L 116.383619 101.795613 
L 116.908571 101.921569 
L 117.696 101.955477 
L 120.714476 101.820093 
L 127.013905 102.059508 
L 128.06381 102.413413 
L 128.982476 103.226082 
L 130.032381 104.796473 
L 130.426095 105.685023 
L 130.688571 106.185431 
L 130.951048 107.1129 
L 131.213524 107.643999 
L 131.869714 109.671151 
L 132.13219 111.442037 
L 132.394667 112.527441 
L 132.919619 114.898816 
L 133.57581 116.858401 
L 133.969524 117.13714 
L 134.363238 117.353291 
L 135.544381 117.560538 
L 135.938095 117.362444 
L 136.594286 116.878634 
L 137.381714 115.932935 
L 140.137714 111.476076 
L 141.975048 108.17807 
L 142.762476 106.884587 
L 143.15619 106.289026 
L 144.206095 104.847155 
L 146.043429 103.251517 
L 147.618286 102.61552 
L 148.536952 102.60169 
L 149.586857 102.914005 
L 150.374286 103.317689 
L 151.949143 104.611223 
L 152.342857 104.953089 
L 152.736571 105.402998 
L 153.524 106.105914 
L 153.786476 106.119077 
L 154.573905 107.263931 
L 155.230095 108.713236 
L 155.886286 111.608629 
L 157.067429 121.605191 
L 157.592381 126.759961 
L 157.986095 130.521667 
L 158.511048 134.02249 
L 158.904762 136.297804 
L 159.69219 138.04283 
L 159.954667 138.393514 
L 161.004571 138.864603 
L 161.398286 139.424879 
L 161.792 139.288561 
L 163.89181 140.418337 
L 164.548 140.608368 
L 165.072952 140.149189 
L 165.335429 140.314689 
L 165.597905 140.125747 
L 165.860381 139.964689 
L 166.122857 139.982832 
L 166.516571 139.711009 
L 166.910286 139.773422 
L 167.435238 139.285725 
L 167.828952 139.361554 
L 168.222667 139.278562 
L 168.616381 139.370116 
L 169.535048 139.089802 
L 169.797524 139.158707 
L 170.191238 139.312816 
L 171.766095 139.175677 
L 172.15981 139.43969 
L 172.553524 139.65721 
L 173.078476 139.650334 
L 173.997143 140.195635 
L 174.390857 140.77624 
L 174.91581 141.512029 
L 175.178286 141.795642 
L 175.703238 142.877142 
L 176.22819 143.798234 
L 176.621905 144.449281 
L 177.409333 146.3886 
L 177.803048 147.468422 
M 197.62 291.123931 
L 198.801143 290.86261 
L 199.063619 290.684956 
L 199.588571 290.107796 
L 199.982286 289.494323 
L 200.638476 288.241283 
L 201.03219 287.356219 
L 202.344571 284.180452 
L 205.23181 274.725665 
L 206.937905 268.193781 
L 207.200381 267.223759 
L 207.856571 264.760448 
L 211.793714 250.774463 
L 215.862095 239.580434 
L 216.25581 238.503807 
L 216.780762 237.048378 
L 218.224381 233.613817 
L 218.618095 232.953136 
L 219.799238 230.720326 
L 220.061714 230.317568 
L 221.111619 228.542489 
L 223.867619 225.567884 
L 223.998857 225.520099 
L 224.130095 225.596287 
L 224.261333 225.419415 
L 224.392571 225.623502 
L 224.52381 225.575635 
L 224.655048 225.677467 
L 224.786286 225.584544 
L 225.048762 225.87739 
L 226.098667 226.734232 
L 226.361143 227.01213 
L 226.492381 226.992081 
L 226.623619 226.47923 
L 226.886095 226.779312 
L 228.067238 228.454342 
L 230.167048 231.82148 
L 230.954476 233.371967 
L 231.34819 234.019999 
L 231.741905 234.76799 
L 232.529333 236.078329 
L 232.923048 236.72477 
L 233.316762 237.413094 
L 234.366667 238.722314 
L 234.629143 238.878713 
L 234.891619 239.123436 
L 235.54781 239.634256 
L 237.122667 242.348827 
L 237.516381 243.155044 
L 238.828762 245.674292 
L 239.484952 246.429963 
L 239.747429 246.602179 
L 239.878667 246.584305 
L 240.141143 246.822529 
L 240.403619 246.987201 
L 240.666095 246.929057 
L 241.453524 247.447831 
L 241.847238 247.871601 
L 242.897143 247.899412 
L 243.159619 247.875979 
L 243.422095 247.708976 
M 264.551429 309.150721 
L 265.601333 309.005191 
L 267.701143 308.350992 
L 270.588381 306.656281 
L 272.032 305.572826 
L 272.556952 305.188394 
L 273.606857 304.385057 
L 274.394286 303.83656 
L 275.181714 303.253424 
L 275.706667 302.916132 
L 276.625333 302.291383 
L 278.856381 300.447344 
L 280.693714 298.770713 
L 281.087429 298.426233 
L 282.531048 297.145211 
L 283.318476 296.447067 
L 284.630857 295.318536 
L 285.024571 295.033622 
L 286.336952 293.9233 
L 287.124381 293.368816 
L 287.91181 292.870655 
L 292.636381 290.379647 
L 293.161333 290.101837 
L 294.08 289.491687 
L 295.392381 288.873622 
L 296.836 288.44536 
L 298.279619 288.134945 
L 299.723238 288.436737 
L 300.641905 289.13856 
L 301.429333 290.107964 
L 302.610476 291.916566 
L 305.235238 295.587744 
L 309.566095 299.73697 
L 310.484762 300.343994 
L 311.403429 300.777578 
L 312.71581 301.456147 
L 313.109524 301.756994 
L 314.290667 302.563838 
L 314.684381 302.871806 
L 321.508762 306.44804 
L 322.689905 306.998048 
L 323.214857 307.310246 
L 324.527238 307.924376 
L 325.183429 308.271073 
L 327.152 309.12855 
L 327.80819 309.398629 
L 332.270286 310.663978 
L 335.42 310.919766 
L 335.42 310.919766 
" style="fill:none;stroke:#67a612;stroke-linecap:square;stroke-width:1.5;"/>
   </g>
   <g id="line2d_18">
    <path clip-path="url(#p88fc984bb1)" d="M 59.82 306.321813 
L 61.001143 306.033988 
L 62.576 305.489342 
L 64.150857 305.005758 
L 66.119429 304.67503 
L 69.794095 304.297619 
L 71.106476 304.110157 
L 71.762667 303.82585 
L 72.287619 303.400438 
L 72.812571 302.664841 
L 73.337524 301.485042 
L 73.862476 299.713318 
L 74.387429 297.19309 
L 75.043619 292.818458 
L 77.01219 278.156183 
L 77.537143 276.088274 
L 78.062095 274.862107 
L 79.374476 273.122497 
L 79.76819 272.833025 
L 80.030667 272.806734 
L 80.293143 273.008331 
L 80.555619 273.415439 
L 81.080571 274.799266 
L 81.736762 277.461596 
L 83.311619 284.647902 
L 84.099048 286.868743 
L 84.755238 288.128952 
L 85.411429 288.895529 
L 86.592571 290.164916 
L 87.117524 291.198191 
L 88.692381 294.645145 
L 89.217333 295.21688 
L 89.873524 295.508982 
L 90.398476 295.760346 
L 90.79219 296.243274 
L 91.317143 297.390085 
L 92.498286 300.216942 
L 93.154476 301.048484 
L 93.810667 301.977948 
L 94.598095 303.097479 
L 94.99181 303.337251 
L 95.385524 303.34406 
L 95.910476 303.082271 
L 96.435429 302.558286 
L 96.960381 301.695958 
L 97.354095 300.460765 
L 97.616571 298.960809 
L 98.010286 294.977801 
L 98.404 288.375776 
L 99.06019 272.070729 
L 102.866095 164.441084 
L 103.784762 146.233211 
L 104.57219 135.328406 
L 105.228381 129.18826 
L 105.884571 125.179285 
L 106.803238 121.012295 
L 107.459429 118.804547 
L 108.115619 117.33358 
L 108.640571 116.590224 
L 109.165524 116.148701 
L 109.690476 115.942754 
L 114.415048 115.03521 
L 115.858667 115.010633 
L 116.514857 115.165551 
L 117.03981 115.235388 
L 118.35219 115.195467 
L 120.583238 115.087998 
L 123.732952 115.034794 
L 124.651619 115.047425 
L 126.882667 115.145932 
L 128.326286 115.735608 
L 129.113714 116.342908 
L 129.37619 116.808112 
L 130.032381 117.528929 
L 130.426095 118.295373 
L 130.688571 118.72513 
L 130.951048 119.527162 
L 131.213524 119.986499 
L 131.869714 121.748286 
L 132.13219 123.290766 
L 132.394667 124.236599 
L 132.919619 126.309239 
L 133.57581 128.022101 
L 133.969524 128.262576 
L 134.363238 128.449322 
L 135.544381 128.621914 
L 136.069333 128.372741 
L 136.725524 127.889744 
L 137.775429 126.71352 
L 139.744 123.89475 
L 142.631238 119.32132 
L 143.024952 118.896613 
L 143.812381 117.865714 
L 144.993524 116.716961 
L 146.437143 115.817751 
L 146.962095 115.616513 
L 148.274476 115.397116 
L 149.324381 115.559949 
L 149.980571 115.825404 
L 151.030476 116.381114 
L 152.080381 117.297818 
L 153.130286 118.138926 
L 153.524 118.45986 
L 153.786476 118.470472 
L 154.573905 119.460739 
L 155.230095 120.720185 
L 155.886286 123.249924 
L 157.067429 132.049034 
L 157.592381 136.618353 
L 157.986095 139.965623 
L 158.511048 143.090807 
L 158.904762 145.126798 
L 159.69219 146.69007 
L 159.954667 147.00418 
L 161.004571 147.423063 
L 161.398286 147.924875 
L 161.792 147.801631 
L 164.154286 148.919695 
L 164.548 148.98165 
L 165.072952 148.569791 
L 165.335429 148.721183 
L 165.597905 148.560818 
L 165.860381 148.425864 
L 166.122857 148.455148 
L 166.64781 148.287507 
L 166.910286 148.32714 
L 167.435238 147.942969 
L 167.828952 148.054505 
L 168.222667 148.030988 
L 168.616381 148.164613 
L 169.666286 148.080274 
L 170.322476 148.360999 
L 170.71619 148.325405 
L 171.372381 148.482683 
L 171.766095 148.497396 
L 174.128381 149.911444 
L 175.572 152.027158 
L 176.096952 153.019312 
L 176.621905 153.784144 
L 177.409333 155.533721 
L 177.803048 156.496131 
M 197.62 291.775174 
L 198.801143 291.543426 
L 199.063619 291.378394 
L 199.588571 290.831058 
L 199.982286 290.247561 
L 200.638476 289.061614 
L 201.03219 288.223446 
L 202.344571 285.235334 
L 205.23181 276.33275 
L 206.937905 270.1845 
L 207.331619 268.726824 
L 208.119048 266.06752 
L 208.775238 263.666198 
L 209.562667 261.0762 
L 210.74381 257.064901 
L 213.631048 249.258879 
L 215.074667 245.587631 
L 215.993333 243.487155 
L 217.043238 240.808593 
L 217.961905 238.62969 
L 220.586667 234.057679 
L 220.980381 233.593048 
L 221.374095 233.070868 
L 221.505333 233.053231 
L 221.899048 232.418298 
L 222.030286 232.379126 
L 222.424 231.902747 
L 222.555238 231.908624 
L 222.948952 231.348644 
L 223.342667 231.010144 
L 223.736381 230.634918 
L 224.130095 230.716518 
L 224.261333 230.562485 
L 224.392571 230.788182 
L 224.52381 230.757336 
L 224.655048 230.86464 
L 224.786286 230.795904 
L 225.048762 231.131936 
L 225.83619 231.84693 
L 226.229905 232.379888 
L 226.492381 232.477722 
L 226.623619 231.926649 
L 226.886095 232.269332 
L 227.936 233.795645 
L 228.329714 234.532628 
L 230.03581 237.492135 
L 231.610667 240.451919 
L 232.529333 242.000694 
L 232.923048 242.621732 
L 233.316762 243.267592 
L 234.235429 244.282089 
L 234.497905 244.428092 
L 235.022857 244.748868 
L 235.154095 244.721326 
L 236.204 245.783714 
L 238.828762 250.178011 
L 239.484952 250.75189 
L 239.747429 250.859065 
L 239.878667 250.817098 
L 240.141143 250.99536 
L 240.403619 251.101942 
L 240.666095 250.991339 
L 241.453524 251.411593 
L 241.847238 251.806753 
L 242.503429 251.794741 
L 243.159619 251.722129 
L 243.422095 251.549985 
M 264.551429 309.184253 
L 265.601333 309.051142 
L 267.701143 308.435207 
L 270.850857 306.668257 
L 272.032 305.834717 
L 272.556952 305.486936 
L 273.475619 304.877668 
L 274.13181 304.459785 
L 274.656762 304.154188 
L 275.181714 303.809203 
L 275.706667 303.532988 
L 276.625333 303.024632 
L 278.593905 301.663986 
L 279.64381 300.862255 
L 281.743619 299.277839 
L 287.91181 295.122358 
L 293.292571 292.676884 
L 294.998667 291.72793 
L 295.917333 291.442777 
L 297.623429 290.904848 
L 298.279619 290.841315 
L 299.723238 291.1201 
L 300.641905 291.819521 
L 301.429333 292.774376 
L 302.872952 294.920119 
L 303.529143 295.913111 
L 305.497714 298.281321 
L 307.20381 299.783524 
L 309.697333 301.812914 
L 313.634476 303.622442 
L 314.02819 303.878507 
L 315.996762 304.861861 
L 317.177905 305.28953 
L 317.440381 305.426821 
L 318.359048 305.788702 
L 318.752762 305.981722 
L 319.54019 306.284309 
L 319.933905 306.487077 
L 320.590095 306.753195 
L 321.246286 307.082854 
L 324.002286 308.223605 
L 324.658476 308.529865 
L 326.233333 309.166579 
L 327.020762 309.465256 
L 331.614095 310.729993 
L 335.026286 311.027873 
L 335.42 311.02418 
L 335.42 311.02418 
" style="fill:none;stroke:#477706;stroke-linecap:square;stroke-width:1.5;"/>
   </g>
   <g id="patch_3">
    <path d="M 46.04 316.12 
L 46.04 28.08 
" style="fill:none;stroke:#000000;stroke-linecap:square;stroke-linejoin:miter;stroke-width:0.8;"/>
   </g>
   <g id="patch_4">
    <path d="M 349.2 316.12 
L 349.2 28.08 
" style="fill:none;stroke:#000000;stroke-linecap:square;stroke-linejoin:miter;stroke-width:0.8;"/>
   </g>
   <g id="patch_5">
    <path d="M 46.04 316.12 
L 349.2 316.12 
" style="fill:none;stroke:#000000;stroke-linecap:square;stroke-linejoin:miter;stroke-width:0.8;"/>
   </g>
   <g id="patch_6">
    <path d="M 46.04 28.08 
L 349.2 28.08 
" style="fill:none;stroke:#000000;stroke-linecap:square;stroke-linejoin:miter;stroke-width:0.8;"/>
   </g>
   <g id="text_16">
    <!-- Leaf Mass Per Area -->
    <g transform="translate(126.484844 22.08)scale(0.15 -0.15)">
     <defs>
      <path d="M 9.8125 72.90625 
L 19.671875 72.90625 
L 19.671875 8.296875 
L 55.171875 8.296875 
L 55.171875 0 
L 9.8125 0 
z
" id="DejaVuSans-76"/>
      <path d="M 9.8125 72.90625 
L 24.515625 72.90625 
L 43.109375 23.296875 
L 61.8125 72.90625 
L 76.515625 72.90625 
L 76.515625 0 
L 66.890625 0 
L 66.890625 64.015625 
L 48.09375 14.015625 
L 38.1875 14.015625 
L 19.390625 64.015625 
L 19.390625 0 
L 9.8125 0 
z
" id="DejaVuSans-77"/>
      <path d="M 44.28125 53.078125 
L 44.28125 44.578125 
Q 40.484375 46.53125 36.375 47.5 
Q 32.28125 48.484375 27.875 48.484375 
Q 21.1875 48.484375 17.84375 46.4375 
Q 14.5 44.390625 14.5 40.28125 
Q 14.5 37.15625 16.890625 35.375 
Q 19.28125 33.59375 26.515625 31.984375 
L 29.59375 31.296875 
Q 39.15625 29.25 43.1875 25.515625 
Q 47.21875 21.78125 47.21875 15.09375 
Q 47.21875 7.46875 41.1875 3.015625 
Q 35.15625 -1.421875 24.609375 -1.421875 
Q 20.21875 -1.421875 15.453125 -0.5625 
Q 10.6875 0.296875 5.421875 2 
L 5.421875 11.28125 
Q 10.40625 8.6875 15.234375 7.390625 
Q 20.0625 6.109375 24.8125 6.109375 
Q 31.15625 6.109375 34.5625 8.28125 
Q 37.984375 10.453125 37.984375 14.40625 
Q 37.984375 18.0625 35.515625 20.015625 
Q 33.0625 21.96875 24.703125 23.78125 
L 21.578125 24.515625 
Q 13.234375 26.265625 9.515625 29.90625 
Q 5.8125 33.546875 5.8125 39.890625 
Q 5.8125 47.609375 11.28125 51.796875 
Q 16.75 56 26.8125 56 
Q 31.78125 56 36.171875 55.265625 
Q 40.578125 54.546875 44.28125 53.078125 
z
" id="DejaVuSans-115"/>
      <path d="M 19.671875 64.796875 
L 19.671875 37.40625 
L 32.078125 37.40625 
Q 38.96875 37.40625 42.71875 40.96875 
Q 46.484375 44.53125 46.484375 51.125 
Q 46.484375 57.671875 42.71875 61.234375 
Q 38.96875 64.796875 32.078125 64.796875 
z
M 9.8125 72.90625 
L 32.078125 72.90625 
Q 44.34375 72.90625 50.609375 67.359375 
Q 56.890625 61.8125 56.890625 51.125 
Q 56.890625 40.328125 50.609375 34.8125 
Q 44.34375 29.296875 32.078125 29.296875 
L 19.671875 29.296875 
L 19.671875 0 
L 9.8125 0 
z
" id="DejaVuSans-80"/>
      <path d="M 41.109375 46.296875 
Q 39.59375 47.171875 37.8125 47.578125 
Q 36.03125 48 33.890625 48 
Q 26.265625 48 22.1875 43.046875 
Q 18.109375 38.09375 18.109375 28.8125 
L 18.109375 0 
L 9.078125 0 
L 9.078125 54.6875 
L 18.109375 54.6875 
L 18.109375 46.1875 
Q 20.953125 51.171875 25.484375 53.578125 
Q 30.03125 56 36.53125 56 
Q 37.453125 56 38.578125 55.875 
Q 39.703125 55.765625 41.0625 55.515625 
z
" id="DejaVuSans-114"/>
      <path d="M 34.1875 63.1875 
L 20.796875 26.90625 
L 47.609375 26.90625 
z
M 28.609375 72.90625 
L 39.796875 72.90625 
L 67.578125 0 
L 57.328125 0 
L 50.6875 18.703125 
L 17.828125 18.703125 
L 11.1875 0 
L 0.78125 0 
z
" id="DejaVuSans-65"/>
     </defs>
     <use xlink:href="#DejaVuSans-76"/>
     <use x="53.962891" xlink:href="#DejaVuSans-101"/>
     <use x="115.486328" xlink:href="#DejaVuSans-97"/>
     <use x="176.765625" xlink:href="#DejaVuSans-102"/>
     <use x="211.970703" xlink:href="#DejaVuSans-32"/>
     <use x="243.757812" xlink:href="#DejaVuSans-77"/>
     <use x="330.037109" xlink:href="#DejaVuSans-97"/>
     <use x="391.316406" xlink:href="#DejaVuSans-115"/>
     <use x="443.416016" xlink:href="#DejaVuSans-115"/>
     <use x="495.515625" xlink:href="#DejaVuSans-32"/>
     <use x="527.302734" xlink:href="#DejaVuSans-80"/>
     <use x="583.980469" xlink:href="#DejaVuSans-101"/>
     <use x="645.503906" xlink:href="#DejaVuSans-114"/>
     <use x="686.617188" xlink:href="#DejaVuSans-32"/>
     <use x="718.404297" xlink:href="#DejaVuSans-65"/>
     <use x="786.8125" xlink:href="#DejaVuSans-114"/>
     <use x="825.675781" xlink:href="#DejaVuSans-101"/>
     <use x="887.199219" xlink:href="#DejaVuSans-97"/>
    </g>
   </g>
   <g id="legend_1">
    <g id="patch_7">
     <path d="M 253.7 117.08 
L 342.2 117.08 
Q 344.2 117.08 344.2 115.08 
L 344.2 35.08 
Q 344.2 33.08 342.2 33.08 
L 253.7 33.08 
Q 251.7 33.08 251.7 35.08 
L 251.7 115.08 
Q 251.7 117.08 253.7 117.08 
z
" style="fill:#ffffff;opacity:0.8;stroke:#cccccc;stroke-linejoin:miter;"/>
    </g>
    <g id="line2d_19">
     <path d="M 255.7 42.68 
L 275.7 42.68 
" style="fill:none;stroke:#bfce68;stroke-linecap:square;stroke-width:1.5;"/>
    </g>
    <g id="line2d_20"/>
    <g id="text_17">
     <!-- 50 $g \cdot m^{-2}$ -->
     <g transform="translate(283.7 46.18)scale(0.1 -0.1)">
      <defs>
       <path d="M 59.625 54.6875 
L 50.296875 6.78125 
Q 47.609375 -7.125 40.015625 -13.953125 
Q 32.421875 -20.796875 19.578125 -20.796875 
Q 14.84375 -20.796875 10.78125 -20.09375 
Q 6.734375 -19.390625 3.21875 -17.921875 
L 4.890625 -9.1875 
Q 8.203125 -11.328125 11.90625 -12.34375 
Q 15.625 -13.375 19.828125 -13.375 
Q 28.375 -13.375 33.859375 -8.703125 
Q 39.359375 -4.046875 41.109375 4.6875 
L 41.890625 8.796875 
Q 38.140625 4.5 33.15625 2.25 
Q 28.171875 0 22.40625 0 
Q 14.109375 0 9.34375 5.484375 
Q 4.59375 10.984375 4.59375 20.609375 
Q 4.59375 28.171875 7.46875 35.421875 
Q 10.359375 42.671875 15.578125 48.296875 
Q 19.046875 52 23.65625 54 
Q 28.265625 56 33.296875 56 
Q 38.8125 56 42.90625 53.4375 
Q 47.015625 50.875 49.03125 46.1875 
L 50.59375 54.6875 
z
M 46.09375 34.625 
Q 46.09375 41.265625 42.96875 44.875 
Q 39.84375 48.484375 34.078125 48.484375 
Q 30.515625 48.484375 27.296875 47.0625 
Q 24.078125 45.65625 21.78125 43.109375 
Q 18.0625 38.921875 15.984375 33.234375 
Q 13.921875 27.546875 13.921875 21.484375 
Q 13.921875 14.75 17.0625 11.125 
Q 20.21875 7.515625 26.125 7.515625 
Q 34.671875 7.515625 40.375 15.25 
Q 46.09375 23 46.09375 34.625 
z
" id="DejaVuSans-Oblique-103"/>
       <path d="M 10.6875 40.921875 
L 21 40.921875 
L 21 28.515625 
L 10.6875 28.515625 
z
" id="DejaVuSans-8901"/>
       <path d="M 10.59375 35.5 
L 73.1875 35.5 
L 73.1875 27.203125 
L 10.59375 27.203125 
z
" id="DejaVuSans-8722"/>
      </defs>
      <use transform="translate(0 0.765625)" xlink:href="#DejaVuSans-53"/>
      <use transform="translate(63.623047 0.765625)" xlink:href="#DejaVuSans-48"/>
      <use transform="translate(127.246094 0.765625)" xlink:href="#DejaVuSans-32"/>
      <use transform="translate(159.033203 0.765625)" xlink:href="#DejaVuSans-Oblique-103"/>
      <use transform="translate(241.992188 0.765625)" xlink:href="#DejaVuSans-8901"/>
      <use transform="translate(293.261719 0.765625)" xlink:href="#DejaVuSans-Oblique-109"/>
      <use transform="translate(395.323724 39.046875)scale(0.7)" xlink:href="#DejaVuSans-8722"/>
      <use transform="translate(453.976068 39.046875)scale(0.7)" xlink:href="#DejaVuSans-50"/>
     </g>
    </g>
    <g id="line2d_21">
     <path d="M 255.7 58.88 
L 275.7 58.88 
" style="fill:none;stroke:#aac03b;stroke-linecap:square;stroke-width:1.5;"/>
    </g>
    <g id="line2d_22"/>
    <g id="text_18">
     <!-- 87 $g \cdot m^{-2}$ -->
     <g transform="translate(283.7 62.38)scale(0.1 -0.1)">
      <defs>
       <path d="M 31.78125 34.625 
Q 24.75 34.625 20.71875 30.859375 
Q 16.703125 27.09375 16.703125 20.515625 
Q 16.703125 13.921875 20.71875 10.15625 
Q 24.75 6.390625 31.78125 6.390625 
Q 38.8125 6.390625 42.859375 10.171875 
Q 46.921875 13.96875 46.921875 20.515625 
Q 46.921875 27.09375 42.890625 30.859375 
Q 38.875 34.625 31.78125 34.625 
z
M 21.921875 38.8125 
Q 15.578125 40.375 12.03125 44.71875 
Q 8.5 49.078125 8.5 55.328125 
Q 8.5 64.0625 14.71875 69.140625 
Q 20.953125 74.21875 31.78125 74.21875 
Q 42.671875 74.21875 48.875 69.140625 
Q 55.078125 64.0625 55.078125 55.328125 
Q 55.078125 49.078125 51.53125 44.71875 
Q 48 40.375 41.703125 38.8125 
Q 48.828125 37.15625 52.796875 32.3125 
Q 56.78125 27.484375 56.78125 20.515625 
Q 56.78125 9.90625 50.3125 4.234375 
Q 43.84375 -1.421875 31.78125 -1.421875 
Q 19.734375 -1.421875 13.25 4.234375 
Q 6.78125 9.90625 6.78125 20.515625 
Q 6.78125 27.484375 10.78125 32.3125 
Q 14.796875 37.15625 21.921875 38.8125 
z
M 18.3125 54.390625 
Q 18.3125 48.734375 21.84375 45.5625 
Q 25.390625 42.390625 31.78125 42.390625 
Q 38.140625 42.390625 41.71875 45.5625 
Q 45.3125 48.734375 45.3125 54.390625 
Q 45.3125 60.0625 41.71875 63.234375 
Q 38.140625 66.40625 31.78125 66.40625 
Q 25.390625 66.40625 21.84375 63.234375 
Q 18.3125 60.0625 18.3125 54.390625 
z
" id="DejaVuSans-56"/>
      </defs>
      <use transform="translate(0 0.765625)" xlink:href="#DejaVuSans-56"/>
      <use transform="translate(63.623047 0.765625)" xlink:href="#DejaVuSans-55"/>
      <use transform="translate(127.246094 0.765625)" xlink:href="#DejaVuSans-32"/>
      <use transform="translate(159.033203 0.765625)" xlink:href="#DejaVuSans-Oblique-103"/>
      <use transform="translate(241.992188 0.765625)" xlink:href="#DejaVuSans-8901"/>
      <use transform="translate(293.261719 0.765625)" xlink:href="#DejaVuSans-Oblique-109"/>
      <use transform="translate(395.323724 39.046875)scale(0.7)" xlink:href="#DejaVuSans-8722"/>
      <use transform="translate(453.976068 39.046875)scale(0.7)" xlink:href="#DejaVuSans-50"/>
     </g>
    </g>
    <g id="line2d_23">
     <path d="M 255.7 75.08 
L 275.7 75.08 
" style="fill:none;stroke:#8fb926;stroke-linecap:square;stroke-width:1.5;"/>
    </g>
    <g id="line2d_24"/>
    <g id="text_19">
     <!-- 125 $g \cdot m^{-2}$ -->
     <g transform="translate(283.7 78.58)scale(0.1 -0.1)">
      <use transform="translate(0 0.765625)" xlink:href="#DejaVuSans-49"/>
      <use transform="translate(63.623047 0.765625)" xlink:href="#DejaVuSans-50"/>
      <use transform="translate(127.246094 0.765625)" xlink:href="#DejaVuSans-53"/>
      <use transform="translate(190.869141 0.765625)" xlink:href="#DejaVuSans-32"/>
      <use transform="translate(222.65625 0.765625)" xlink:href="#DejaVuSans-Oblique-103"/>
      <use transform="translate(305.615234 0.765625)" xlink:href="#DejaVuSans-8901"/>
      <use transform="translate(356.884766 0.765625)" xlink:href="#DejaVuSans-Oblique-109"/>
      <use transform="translate(458.946771 39.046875)scale(0.7)" xlink:href="#DejaVuSans-8722"/>
      <use transform="translate(517.599115 39.046875)scale(0.7)" xlink:href="#DejaVuSans-50"/>
     </g>
    </g>
    <g id="line2d_25">
     <path d="M 255.7 91.28 
L 275.7 91.28 
" style="fill:none;stroke:#67a612;stroke-linecap:square;stroke-width:1.5;"/>
    </g>
    <g id="line2d_26"/>
    <g id="text_20">
     <!-- 162 $g \cdot m^{-2}$ -->
     <g transform="translate(283.7 94.78)scale(0.1 -0.1)">
      <use transform="translate(0 0.765625)" xlink:href="#DejaVuSans-49"/>
      <use transform="translate(63.623047 0.765625)" xlink:href="#DejaVuSans-54"/>
      <use transform="translate(127.246094 0.765625)" xlink:href="#DejaVuSans-50"/>
      <use transform="translate(190.869141 0.765625)" xlink:href="#DejaVuSans-32"/>
      <use transform="translate(222.65625 0.765625)" xlink:href="#DejaVuSans-Oblique-103"/>
      <use transform="translate(305.615234 0.765625)" xlink:href="#DejaVuSans-8901"/>
      <use transform="translate(356.884766 0.765625)" xlink:href="#DejaVuSans-Oblique-109"/>
      <use transform="translate(458.946771 39.046875)scale(0.7)" xlink:href="#DejaVuSans-8722"/>
      <use transform="translate(517.599115 39.046875)scale(0.7)" xlink:href="#DejaVuSans-50"/>
     </g>
    </g>
    <g id="line2d_27">
     <path d="M 255.7 107.48 
L 275.7 107.48 
" style="fill:none;stroke:#477706;stroke-linecap:square;stroke-width:1.5;"/>
    </g>
    <g id="line2d_28"/>
    <g id="text_21">
     <!-- 200 $g \cdot m^{-2}$ -->
     <g transform="translate(283.7 110.98)scale(0.1 -0.1)">
      <use transform="translate(0 0.765625)" xlink:href="#DejaVuSans-50"/>
      <use transform="translate(63.623047 0.765625)" xlink:href="#DejaVuSans-48"/>
      <use transform="translate(127.246094 0.765625)" xlink:href="#DejaVuSans-48"/>
      <use transform="translate(190.869141 0.765625)" xlink:href="#DejaVuSans-32"/>
      <use transform="translate(222.65625 0.765625)" xlink:href="#DejaVuSans-Oblique-103"/>
      <use transform="translate(305.615234 0.765625)" xlink:href="#DejaVuSans-8901"/>
      <use transform="translate(356.884766 0.765625)" xlink:href="#DejaVuSans-Oblique-109"/>
      <use transform="translate(458.946771 39.046875)scale(0.7)" xlink:href="#DejaVuSans-8722"/>
      <use transform="translate(517.599115 39.046875)scale(0.7)" xlink:href="#DejaVuSans-50"/>
     </g>
    </g>
   </g>
  </g>
 </g>
 <defs>
  <clipPath id="p88fc984bb1">
   <rect height="288.04" width="303.16" x="46.04" y="28.08"/>
  </clipPath>
 </defs>
</svg>
